<svg width="385" height="1014" viewBox="0 0 385 1014" fill="none" xmlns="http://www.w3.org/2000/svg">
<g clip-path="url(#clip0_170_13896)">
<path fill-rule="evenodd" clip-rule="evenodd" d="M822.501 2.90029C822.501 4.33623 821.336 5.50029 819.901 5.50029C818.465 5.50029 817.301 4.33623 817.301 2.90029C817.301 1.46435 818.465 0.300293 819.901 0.300293C821.336 0.300293 822.501 1.46435 822.501 2.90029ZM819.947 6.5C821.914 6.47516 823.501 4.87303 823.501 2.90029C823.501 0.912068 821.889 -0.699707 819.901 -0.699707C817.912 -0.699707 816.301 0.912068 816.301 2.90029C816.301 4.87303 817.887 6.47516 819.854 6.5H819.851V61.5429L811.254 52.9464L810.547 53.6536L819.143 62.25H778.5C778.473 60.2849 776.872 58.7002 774.901 58.7002C772.912 58.7002 771.301 60.312 771.301 62.3002C771.301 64.2884 772.912 65.9002 774.901 65.9002C776.56 65.9002 777.957 64.7774 778.374 63.25H819.143L801.997 80.3964L802.704 81.1036L819.851 63.9571V121.668L819.85 121.668L801.099 414.331L800.981 414.375L801.079 414.639L796.9 479.868L796.88 480.18L797.151 480.334L803.199 483.79V511.657L581.449 455.212V369.467C591.714 376.159 604.601 384.692 613.75 393.178V461.9H614.75V393.174L622.792 377.984L622.924 377.735L622.779 377.493L614.713 364.05L513.031 4.56411L512.928 4.2002H512.55H366.3H365.927L365.821 4.55715L253.771 379.857L253.741 379.957C253.689 380.033 253.637 380.109 253.586 380.185L253.925 380.414L261.85 392.302V392.578L261.719 392.729L261.85 392.841V510.382L261.713 510.547L261.869 510.677L261.929 510.77L276.25 533.146V785.067L268.291 783.608L268.167 783.586L268.046 783.625L210.649 802.276V770.2H219.07C219.66 770.2 220.187 769.982 220.587 769.629L220.728 769.699L220.992 769.164C221.334 768.645 221.469 767.986 221.296 767.32L129.185 413.79C128.932 412.818 128.202 412.259 127.4 412.11V405.25H134.1H134.706L134.591 404.656L127.571 368.238C129.239 367.924 130.501 366.459 130.501 364.7C130.501 362.881 129.152 361.378 127.4 361.134V321.808L135.996 330.404L136.703 329.697L128.106 321.1H160.199V320.6C160.199 322.588 161.811 324.2 163.799 324.2C165.787 324.2 167.399 322.588 167.399 320.6C167.399 318.612 165.787 317 163.799 317C161.811 317 160.199 318.612 160.199 320.6V320.1H128.106L139.403 308.804L138.696 308.097L127.4 319.392V282.8H126.948C128.915 282.774 130.501 281.173 130.501 279.2C130.501 277.212 128.889 275.6 126.901 275.6C124.913 275.6 123.301 277.212 123.301 279.2C123.301 281.173 124.887 282.774 126.853 282.8H126.4V319.394L116.903 309.897L116.196 310.604L125.692 320.1H94.4663C94.223 318.348 92.7194 317 90.9008 317C88.9125 317 87.3008 318.612 87.3008 320.6C87.3008 322.588 88.9125 324.2 90.9008 324.2C92.7193 324.2 94.2229 322.852 94.4663 321.1H125.692L112.596 334.197L113.303 334.904L126.4 321.806V361.135C124.649 361.378 123.301 362.882 123.301 364.7C123.301 366.463 124.568 367.93 126.241 368.24L119.658 404.661L119.552 405.25H120.15H126.4V412.136C125.634 412.319 124.954 412.883 124.725 413.827L65.7496 656.346V590.6V590.548L65.7388 590.497L59.0954 559.051C60.8005 558.768 62.1004 557.286 62.1004 555.5C62.1004 553.512 60.4886 551.9 58.5004 551.9C56.5121 551.9 54.9004 553.512 54.9004 555.5C54.9004 557.292 56.2099 558.779 57.9242 559.055L52.6066 590.517L52.5996 590.558V590.6V710.422L38.7545 767.357C38.6589 767.75 38.6701 768.139 38.7669 768.497C38.6119 768.638 38.4714 768.771 38.3456 768.897L39.0528 769.604C39.075 769.582 39.0977 769.559 39.1209 769.536C39.1479 769.51 39.1756 769.483 39.2041 769.456L39.2535 769.409C39.6706 769.889 40.2862 770.2 40.9894 770.2H44.9414L43.606 856.558L-0.60376 870.925L-0.29471 871.876L43.5896 857.615L43.5884 857.692L44.2538 857.475L210.304 803.475L210.649 803.363V803.328L267.701 784.788V818.832L225.752 831.902L180.302 846.062L129.452 861.905L87.602 874.943L37.652 890.506L-0.597962 902.423L-0.300507 903.377L37.3008 891.662V972.682L-0.574885 982.516L-0.323585 983.484L37.9264 973.553L87.8764 960.585L129.726 949.719L180.576 936.517L226.026 924.716L267.701 913.896V987.05H268.701V913.834L338.773 924.809L398.173 934.112L462.073 944.12L525.073 953.986L589.873 964.135L652.423 973.931L652.439 973.934L652.455 973.935L726.7 980.756V980.8H727.2H845.55H846.05V980.3V881.951L855.397 872.179L855.992 872.998L855.955 871.596L856.1 871.444L855.945 871.231L853.737 787.739C853.71 786.712 853.298 785.733 852.583 784.995L842.05 774.122C840.503 772.525 837.965 772.452 836.329 773.958L828.824 780.863C827.98 781.639 827.5 782.733 827.5 783.88V832.166L815.437 815.6H815.449V724.833L820.724 725.645L821.3 725.733V725.15V712.749L828.85 714.736V728.3V728.654L829.184 728.772L836.834 731.472L837.5 731.707V731V716.801L843.238 718.331L842.8 731.884L843.8 731.917L844.25 717.967L844.251 717.929L844.247 717.893L839.757 679.282L851.882 629.915L865.75 679.319V736.85L865.75 983.45H866.75V737.491L871.529 738.685L872.15 738.841V738.2V725.799L879.7 727.786V741.35V741.72L880.053 741.828L885.903 743.628L886.55 743.827V743.15V730.763L891.85 732.278V744.5H892.85V731.9V731.872L892.847 731.844L887.907 688.733L899.591 641.131L913.45 688.772V747.65V748.032L913.819 748.133L918.769 749.483L919.4 749.655V749V737.522L923.256 738.679L923.544 737.721L919.044 736.371L918.4 736.178V736.85V748.346L914.45 747.269V688.7V688.629L914.43 688.561L900.03 639.061L899.509 637.27L899.065 639.081L886.915 688.581L886.893 688.668L886.903 688.757L891.768 731.214L886.188 729.62L885.55 729.438V730.1V742.473L880.7 740.981V727.4V727.015L880.327 726.917L871.777 724.667L871.15 724.502V725.15V737.56L866.75 736.46V679.25V679.182L866.732 679.115L852.332 627.815L851.818 625.985L851.365 627.831L838.765 679.131L838.743 679.219L838.753 679.308L843.169 717.278L837.129 715.667L836.5 715.5V716.15V730.294L829.85 727.947V714.35V713.965L829.477 713.867L820.927 711.617L820.3 711.452V712.1V724.568L815.46 723.823L816.8 663.962L816.802 663.886L816.781 663.814L801.481 609.814L800.978 608.038L800.516 609.825L786.566 663.825L786.537 663.938L786.561 664.052L798.135 719.7H791.6V707.6V707.233L791.249 707.123L784.049 704.873L783.4 704.67V705.35V718.66L779 717.56V702.2V701.805L778.616 701.714L769.166 699.464L768.55 699.317V699.95V713.779L762.8 713.013V650.9V650.833L762.783 650.769L746.583 591.369L745.613 591.386L731.663 650.786L731.637 650.898L731.663 651.011L741.385 693.88L734.515 692.264L733.9 692.119V692.75V707.01L729.5 706.277V690.95V690.585L729.152 690.474L719.252 687.324L718.6 687.117V687.8V700.8H712.864L714.65 635.614L714.652 635.533L714.629 635.455L696.179 574.705L695.633 572.909L695.213 574.739L681.263 635.489L681.239 635.591L681.259 635.694L689.227 677.306L662 673.417V623.45V623.376L661.979 623.305L643.979 563.905L643.454 562.174L643.015 563.929L628.566 621.727L581.871 490.982L581.449 491.133V456.243L803.565 512.782L813.711 515.87L855.463 590.395L855.606 590.65H855.899H872.999H873.499V590.15V530.04L926.878 543.385L927.121 542.415L873.499 529.009V483.707L876.953 480.254L877.132 480.074L877.093 479.823L820.851 121.671V63.9571L837.997 81.1036L838.704 80.3964L821.558 63.25H865.801V62.3002C865.801 64.2884 867.412 65.9002 869.401 65.9002C871.389 65.9002 873.001 64.2884 873.001 62.3002C873.001 60.312 871.389 58.7002 869.401 58.7002C867.412 58.7002 865.801 60.312 865.801 62.3002V62.25H821.558L833.304 50.5036L832.597 49.7964L820.851 61.5429V6.5H819.947ZM814.449 724.679V814.242L803.3 798.931V771.961C803.3 770.663 802.686 769.443 801.645 768.669L789.708 759.802C788.144 758.64 785.978 758.74 784.527 760.041L774.863 768.705C773.995 769.483 773.5 770.593 773.5 771.758V796.604L762.8 810.466V714.021L768.984 714.846L769.55 714.922V714.35V700.583L778 702.595V717.95V718.341L778.379 718.435L783.779 719.785L784.4 719.941V719.3V706.031L790.6 707.968V720.2V720.7H791.1H798.75H799.365L799.24 720.099L787.563 663.963L801.022 611.863L815.799 664.014L814.45 724.239L814.45 724.25H814.449V724.296L814.44 724.678L814.449 724.679ZM774.341 797.15H774.5V796.945L787.938 779.534L853.866 870.074C831.75 859.615 804.625 857.457 779.56 859.044C754.733 860.615 731.87 865.864 717.791 870.416L720.1 867.425L720.219 867.446L720.403 867.195L722.792 863.938L774.341 797.15ZM774.5 795.308V771.758C774.5 770.877 774.875 770.037 775.53 769.449L785.194 760.785C786.291 759.802 787.929 759.726 789.112 760.605L801.048 769.472C801.836 770.057 802.3 770.98 802.3 771.961V797.558L788.354 778.406L787.962 777.867L787.554 778.395L774.5 795.308ZM581.449 492.774V531.2V531.395L581.318 531.538L557.221 557.866L598.482 675.821L611.659 678.762L611.55 679.25L612.006 679.043L614.256 683.993L614.301 684.092V684.2V847.02L628.15 849.559V623.537L581.449 492.774ZM613.301 846.837V734.108L561.2 723.421V837.289L568.301 838.59V751.6C568.301 750.949 568.576 750.329 569.059 749.893L578.673 741.209C580.975 739.13 584.494 739.189 586.726 741.343L595.598 749.91C596.047 750.343 596.301 750.94 596.301 751.564V843.722L613.301 846.837ZM569.301 751.6V838.773L595.301 843.538V751.564C595.301 751.212 595.157 750.874 594.904 750.629L586.031 742.063C584.178 740.273 581.255 740.225 579.343 741.951L569.729 750.635C569.456 750.882 569.301 751.232 569.301 751.6ZM557.262 837.584L568.301 839.607V839.64L568.706 839.718L595.706 844.891L596.301 845.005V844.738L628.15 850.575V850.668L628.561 850.742L660.961 856.592L661.549 856.698V856.696L678.099 859.729V859.976L678.512 860.049L718.989 867.228L716.004 871.095L715.73 871.45L716.054 871.761L726.7 881.964V900.055L652.588 887.119L652.587 887.119L590.038 875.984L525.238 864.449L462.238 853.234L398.338 841.859L338.938 831.285L268.701 818.781V784.7L544.001 835.154L544.002 835.374L544.418 835.443L557.262 837.584ZM727.546 881.389L717.345 871.613C731.278 867.03 754.436 861.636 779.623 860.042C805.064 858.431 832.516 860.702 854.619 871.546L845.189 881.405L845.05 881.55V881.75V979.8H727.7V881.75V881.537L727.546 881.389ZM742.551 836.702L761.8 811.762V713.45V650.967L746.136 593.533L732.663 650.902L742.538 694.44L742.55 694.494V694.55V708.5L742.551 836.702ZM741.551 837.997L725.471 858.829L726.79 779.275C726.798 778.804 726.66 778.341 726.396 777.95L707.213 749.545C705.055 746.349 700.462 746.049 697.906 748.936L678.677 770.658C678.305 771.078 678.099 771.62 678.099 772.182V858.713L661.551 855.68L661.999 674.427L689.779 678.395L690.473 678.494L690.341 677.806L682.261 635.61L695.767 576.792L713.648 635.668L711.85 701.287L711.836 701.8H712.35H719.1H719.6V701.3V688.484L728.5 691.316V706.7V707.124L728.918 707.194L734.318 708.094L734.9 708.191V707.6V693.382L741.55 694.946V708.5L741.551 837.997ZM721.991 863.338L719.68 866.333L679.099 858.896V772.182C679.099 771.865 679.216 771.558 679.426 771.32L698.655 749.599C700.778 747.201 704.592 747.45 706.385 750.104L725.568 778.51C725.717 778.731 725.794 778.992 725.79 779.259L724.452 859.982L721.991 863.338ZM613.301 733.087V728.708L561.2 718.021V722.45V722.658L561.251 722.411L613.301 733.087ZM613.301 727.687V684.608L561.2 673.921V716.6V717.257L561.251 717.01L613.301 727.687ZM612.939 683.513L611.198 679.684L561.2 668.523V671.6V673.158L561.251 672.911L612.939 683.513ZM561.2 667.777L561.259 667.512L597.333 675.564L557.523 561.759L544.823 559.038L561.183 620.171L561.2 620.234V620.3V665.75V667.777ZM629.15 849.742L660.552 855.497L661 673.85V673.849V623.525L643.546 565.927L629.15 623.512V849.742ZM556.209 558.003L557.136 560.653L544.533 557.953L544.083 556.271L543.112 556.29L542.821 557.586L508.101 550.146V540.877L511.53 537.876L511.753 537.682L511.689 537.393L498.864 479.124C509.705 480.489 522.243 482.122 534.099 483.916V531.2V531.381L534.214 531.52L556.209 558.003ZM872.001 62.3002C872.001 63.7361 870.836 64.9002 869.401 64.9002C867.965 64.9002 866.801 63.7361 866.801 62.3002C866.801 60.8643 867.965 59.7002 869.401 59.7002C870.836 59.7002 872.001 60.8643 872.001 62.3002ZM126.901 281.8C128.337 281.8 129.501 280.636 129.501 279.2C129.501 277.764 128.337 276.6 126.901 276.6C125.465 276.6 124.301 277.764 124.301 279.2C124.301 280.636 125.465 281.8 126.901 281.8ZM801.935 416.926L797.918 479.621L803.947 483.066L804.199 483.21V483.5V511.93L814.195 514.972L814.387 515.03L814.485 515.206L822.999 530.402V473.241L801.935 416.926ZM823.698 531.65L855.4 588.237V472.75H823.999V473.15V531.65H823.698ZM856.4 589.65V472.312L867.638 426.062L876.066 479.727L872.645 483.147L872.499 483.293V483.5V589.65H856.4ZM820.558 126.255L867.32 424.032L867.115 423.982L855.508 471.75H823.999V471.35H823.359L802.091 414.489L820.558 126.255ZM534.099 460.983V482.905C522.146 481.098 509.514 479.456 498.636 478.088L493.711 455.708C506.336 457.18 520.25 458.888 534.099 460.983ZM534.099 368.057V459.972C520.157 457.865 506.157 456.15 493.483 454.675L491 443.39V413.607L496.896 419.504L497.603 418.797L491.707 412.9H506.734C506.977 414.652 508.481 416 510.299 416C512.287 416 513.899 414.389 513.899 412.4C513.899 410.412 512.287 408.8 510.299 408.8C508.481 408.8 506.977 410.149 506.734 411.9H491.376L496.78 402.755L495.919 402.246L491 410.571V381.766C492.752 381.523 494.1 380.019 494.1 378.2C494.1 376.212 492.489 374.6 490.5 374.6C488.512 374.6 486.9 376.212 486.9 378.2C486.9 380.018 488.248 381.522 490 381.766V411.193L487.253 408.447L486.546 409.154L489.292 411.9H469.765C469.522 410.149 468.018 408.8 466.2 408.8C464.211 408.8 462.6 410.412 462.6 412.4C462.6 414.388 464.211 416 466.2 416C468.018 416 469.521 414.652 469.765 412.9H489.292L482.946 419.247L483.653 419.954L490 413.607V443.408L487.946 453.874C487.661 453.843 487.376 453.811 487.091 453.78C428.325 447.363 383.105 448.131 347.013 457.216C311.516 466.152 284.865 483.13 262.85 509.188V392.952C284.14 368.628 326.258 347.729 376.23 337.551C426.309 327.35 484.187 327.936 536.721 346.572L526.552 359.897L526.286 360.245L526.595 360.554L534.099 368.057ZM539.526 342.896L537.358 345.737C484.54 326.924 426.346 326.322 376.03 336.571C326.369 346.686 284.296 367.389 262.638 391.681L254.889 380.058C261.691 370.421 274.908 359.832 292.876 350.014C311.26 339.969 334.571 330.755 360.96 324.204C413.741 311.101 478.788 308.659 541.3 331.472L541.451 331.059L539.526 342.896ZM543.215 320.218L541.543 330.496C492.424 312.593 441.768 310.223 396.698 316.347L415.995 5.2002H461.356L482.489 315.033L483.487 314.965L462.358 5.2002H487.464L543.215 320.218ZM554.805 248.97L543.701 317.228L488.48 5.2002H512.172L613.769 364.386L613.787 364.45L613.821 364.507L621.297 376.966C608.688 366.368 593.236 356.037 579.937 348.24L575.563 342.878L555.788 248.947L554.805 248.97ZM577.662 348.073L578.014 347.464L574.712 343.416L574.635 343.322L574.61 343.203L555.362 251.777L540.492 343.181L540.472 343.304L540.396 343.404L527.612 360.156L534.953 367.497L535.099 367.643V367.85V531.02L556.667 556.99L580.449 531.006V368.815L580.338 368.743L580.449 368.573V367.85V367.635L580.606 367.487L588.368 360.156L579.276 349.012C578.734 348.695 578.196 348.382 577.662 348.073ZM581.449 368.066V368.273C591.68 374.94 604.777 383.564 614.144 392.181L621.441 378.398C609.472 368.229 594.765 358.25 581.77 350.487L589.436 359.884L589.73 360.245L589.392 360.564L581.449 368.066ZM544.997 834.319L557.438 836.599L560.2 837.06V722.899L544.401 721.207L544.997 834.319ZM524.751 830.609L543.996 834.136L543.398 720.653L543.365 714.353L543.131 669.803L543.1 663.953V663.95V617.701L530.15 618.954V665.75L529.174 665.902L507.472 598.14L492.736 624.147L492.545 624.483L492.544 624.483L492.172 624.383L492.171 624.383L478.672 620.783L478.671 620.783L478.301 620.684L478.3 620.684V620.3V613.145L452.75 704.518V817.414L467.051 820.034V715.931C467.051 712.747 467.546 709.573 468.687 706.58C471.133 700.168 474.887 691.649 479.285 684.126C481.484 680.365 483.849 676.842 486.299 673.954C488.745 671.071 491.3 668.79 493.884 667.549L493.959 667.514L494.041 667.504C497.158 667.126 500.311 668.112 503.341 669.916C506.372 671.72 509.315 674.363 512.033 677.362C517.467 683.359 522.059 690.848 524.698 696.126L524.751 696.232V696.35V830.609ZM529.15 662.549L508.101 596.824V551.169L542.602 558.562L529.162 618.39L529.15 618.444V618.5V662.549ZM492.055 623.317L479.301 619.916V540.65V540.332L479.012 540.197L472.617 537.213L490.529 445.904L497.786 478.874L497.771 478.987L497.811 478.992L510.649 537.319L507.271 540.274L507.101 540.423V540.65V596.767V596.768L492.055 623.317ZM451.768 704.315L478.301 609.429V540.969L471.839 537.953L471.485 537.788L471.56 537.404L483.382 477.14C427.909 471.117 387.189 471.794 354.909 480.504C322.574 489.229 298.676 506.024 276.895 532.299L277.171 532.731L277.25 532.854V533V785.25L451.75 817.23V704.45V704.381L451.768 704.315ZM487.753 454.859L483.575 476.155C428.018 470.118 387.125 470.776 354.649 479.539C322.187 488.298 298.168 505.145 276.329 531.415L262.991 510.574C284.991 484.257 311.627 467.156 347.257 458.186C383.181 449.143 428.264 448.362 486.982 454.774L487.428 454.823L487.753 454.859ZM255.499 377.563C262.755 368.282 275.542 358.346 292.397 349.137C304.33 342.616 318.322 336.448 333.871 331.128L391.569 5.2002H366.673L255.499 377.563ZM129.501 364.7C129.501 366.136 128.337 367.3 126.901 367.3C125.465 367.3 124.301 366.136 124.301 364.7C124.301 363.264 125.465 362.1 126.901 362.1C128.337 362.1 129.501 363.264 129.501 364.7ZM126.916 370.124L120.749 404.25H126.9H133.495L126.916 370.124ZM61.0608 679.86L125.696 414.063C126.015 412.75 127.877 412.735 128.217 414.042L220.328 767.572C220.4 767.849 220.378 768.124 220.284 768.367C169.938 743.755 126.616 741.772 94.812 746.988C78.8195 749.611 65.7422 754.054 56.1502 758.353C48.1521 761.937 42.5498 765.433 39.7039 767.705C39.7097 767.668 39.7171 767.63 39.7262 767.593L53.5222 710.86L53.5857 710.868L61.0608 679.86ZM60.0864 679.634L64.7496 660.291V590.653L58.5542 561.328L53.5996 590.642V706.31L60.0864 679.634ZM44.6111 856.232L209.649 802.601V769.7V769.2H210.149H219.07C219.236 769.2 219.393 769.169 219.536 769.114C169.519 744.741 126.52 742.801 94.9739 747.975C79.0726 750.583 66.0781 754.999 56.5591 759.265C48.2442 762.991 42.611 766.589 40.0047 768.749C40.2405 769.023 40.5899 769.2 40.9894 769.2H45.4492H45.957L45.9491 769.708L44.6111 856.232ZM726.7 901.07V979.752L653.001 972.981V888.206L726.7 901.07ZM523.751 712.199V830.426L496.85 825.496V733.688C496.85 731.636 497.059 729.601 497.547 727.621C498.713 722.89 500.266 717.743 502.116 713.143C503.971 708.532 506.108 704.517 508.426 702.013C509.583 700.762 510.757 699.919 511.933 699.544C513.092 699.175 514.286 699.249 515.534 699.897C516.798 700.553 518.137 701.809 519.529 703.839C520.908 705.849 522.32 708.593 523.751 712.199ZM523.751 709.599C522.615 707.009 521.481 704.917 520.354 703.273C518.91 701.168 517.457 699.769 515.994 699.01C514.515 698.242 513.047 698.14 511.63 698.591C510.23 699.037 508.916 700.011 507.692 701.333C505.248 703.974 503.057 708.127 501.189 712.77C499.316 717.424 497.75 722.618 496.576 727.382C496.066 729.451 495.85 731.568 495.85 733.688V825.312L468.051 820.218V715.931C468.051 712.849 468.53 709.799 469.622 706.937C472.054 700.558 475.786 692.092 480.148 684.631C482.329 680.9 484.662 677.43 487.062 674.601C489.442 671.795 491.864 669.649 494.243 668.487C497.04 668.171 499.941 669.056 502.83 670.775C505.745 672.511 508.613 675.077 511.292 678.033C516.614 683.906 521.132 691.253 523.751 696.468V709.599ZM364.089 856.082L364.48 856.746L379.33 881.946L379.402 882.069L379.399 882.212L378.499 919.562L378.486 920.123L377.93 920.045L349.13 915.995L348.694 915.934L348.699 915.494L349.149 877.244L349.151 877.088L349.242 876.96L363.642 856.71L364.089 856.082ZM350.147 877.412L349.704 915.066L377.513 918.977L378.396 882.331L364.01 857.918L350.147 877.412ZM683.98 912.546L683.588 911.882L683.141 912.511L668.742 932.761L668.651 932.888L668.649 933.044L668.199 966.794L668.193 967.254L668.652 967.298L697.002 969.998L697.526 970.048L697.549 969.522L698.898 938.022L698.905 937.874L698.83 937.746L683.98 912.546ZM669.205 966.346L669.647 933.213L683.51 913.718L697.893 938.127L696.572 968.953L669.205 966.346ZM427.989 867.782L428.38 868.446L443.23 893.646L443.303 893.769L443.299 893.912L442.399 931.262L442.386 931.823L441.83 931.745L413.03 927.695L412.594 927.634L412.6 927.194L413.05 888.944L413.051 888.788L413.142 888.66L427.542 868.41L427.989 867.782ZM414.048 889.112L413.605 926.766L441.413 930.677L442.296 894.031L427.91 869.618L414.048 889.112ZM300.582 844.146L300.19 843.482L299.743 844.11L285.343 864.36L285.253 864.488L285.251 864.644L284.801 902.894L284.796 903.334L285.231 903.395L314.031 907.445L314.587 907.523L314.601 906.962L315.501 869.612L315.504 869.469L315.432 869.346L300.582 844.146ZM285.806 902.466L286.249 864.812L300.111 845.318L314.497 869.731L313.614 906.377L285.806 902.466ZM619.69 900.182L620.081 900.846L634.931 926.046L635.004 926.169L635 926.312L634.1 963.662L634.087 964.223L633.531 964.145L604.731 960.095L604.295 960.034L604.301 959.594L604.751 921.344L604.752 921.188L604.843 921.06L619.243 900.81L619.69 900.182ZM605.749 921.512L605.306 959.166L633.114 963.077L633.997 926.431L619.611 902.018L605.749 921.512ZM492.281 877.446L491.889 876.782L491.443 877.41L477.042 897.66L476.952 897.788L476.95 897.944L476.5 936.194L476.495 936.634L476.93 936.695L505.73 940.745L506.286 940.823L506.3 940.262L507.2 902.912L507.203 902.769L507.131 902.646L492.281 877.446ZM477.505 935.766L477.948 898.112L491.811 878.618L506.197 903.031L505.314 939.677L477.505 935.766ZM555.789 888.482L556.181 889.147L571.031 914.347L571.103 914.47L571.1 914.612L570.2 951.962L570.186 952.524L569.63 952.445L540.831 948.396L540.395 948.334L540.4 947.895L540.85 909.645L540.852 909.488L540.943 909.361L555.343 889.111L555.789 888.482ZM541.848 909.813L541.405 947.466L569.214 951.377L570.097 914.731L555.711 890.318L541.848 909.813ZM267.701 819.88L226.401 832.747V923.586L267.701 912.863V819.88ZM268.701 912.822L338.351 923.731V832.196L268.701 819.797V912.822ZM339.351 832.374V923.887L397.751 933.033V842.77L339.351 832.374ZM398.751 842.948V933.19L461.651 943.041V854.145L398.751 842.948ZM462.651 854.323V943.198L524.651 952.908V865.36L462.651 854.323ZM525.651 865.538V953.064L589.451 963.057V876.895L525.651 865.538ZM590.451 877.073V963.213L652.001 972.853V888.03L590.451 877.073ZM225.401 923.846V833.058L180.951 846.907V935.386L225.401 923.846ZM179.951 935.646V847.219L130.101 862.75V948.589L179.951 935.646ZM129.101 948.848V863.061L88.2508 875.789V959.454L129.101 948.848ZM87.2508 959.714V876.1L38.3008 891.351V972.423L87.2508 959.714ZM58.5004 558.1C59.9363 558.1 61.1004 556.936 61.1004 555.5C61.1004 554.064 59.9363 552.9 58.5004 552.9C57.0644 552.9 55.9004 554.064 55.9004 555.5C55.9004 556.936 57.0644 558.1 58.5004 558.1ZM46.8008 534.75H57.2937L49.5972 527.054L50.3043 526.347L58.0008 534.043V518.6H59.0008V534.043L65.3472 527.697L66.0543 528.404L59.7079 534.75H72.0008V535.75H59.7079L66.5043 542.547L65.7972 543.254L59.0008 536.457V551.9H58.0008V536.457L52.5543 541.904L51.8472 541.197L57.2937 535.75H46.8008V534.75ZM166.399 320.6C166.399 322.036 165.235 323.2 163.799 323.2C162.363 323.2 161.199 322.036 161.199 320.6C161.199 319.164 162.363 318 163.799 318C165.235 318 166.399 319.164 166.399 320.6ZM510.299 415C511.735 415 512.899 413.836 512.899 412.4C512.899 410.964 511.735 409.8 510.299 409.8C508.863 409.8 507.699 410.964 507.699 412.4C507.699 413.836 508.863 415 510.299 415ZM774.901 64.9002C776.336 64.9002 777.501 63.7361 777.501 62.3002C777.501 60.8643 776.336 59.7002 774.901 59.7002C773.465 59.7002 772.301 60.8643 772.301 62.3002C772.301 63.7361 773.465 64.9002 774.901 64.9002ZM466.2 415C467.636 415 468.8 413.836 468.8 412.4C468.8 410.964 467.636 409.8 466.2 409.8C464.764 409.8 463.6 410.964 463.6 412.4C463.6 413.836 464.764 415 466.2 415ZM493.1 378.2C493.1 379.636 491.936 380.8 490.5 380.8C489.064 380.8 487.9 379.636 487.9 378.2C487.9 376.764 489.064 375.6 490.5 375.6C491.936 375.6 493.1 376.764 493.1 378.2ZM90.9008 323.2C92.3367 323.2 93.5008 322.036 93.5008 320.6C93.5008 319.164 92.3367 318 90.9008 318C89.4648 318 88.3008 319.164 88.3008 320.6C88.3008 322.036 89.4648 323.2 90.9008 323.2ZM360.719 323.233C351.753 325.459 343.14 327.992 334.952 330.76L392.532 5.5H414.974L395.688 316.486C383.576 318.169 371.874 320.464 360.719 323.233ZM530.289 617.936L543.1 616.696V560.907L530.289 617.936ZM544.1 560.202V616.734L560.012 619.665L544.1 560.202ZM560.2 620.716L544.1 617.75V663.5L560.2 665.195V620.716ZM560.2 666.2L544.103 664.506L544.128 669.35L560.2 671.044V666.2ZM560.2 672.05L544.134 670.356L544.363 713.912L560.2 716.029V672.05ZM560.2 717.038L544.368 714.922L544.396 720.2L560.2 721.893V717.038ZM837.006 774.694C838.243 773.555 840.162 773.611 841.332 774.818L851.865 785.691C852.405 786.249 852.716 786.989 852.737 787.766L854.907 869.802L828.5 833.438V783.88C828.5 783.013 828.863 782.186 829.501 781.599L837.006 774.694Z" fill="url(#paint0_linear_170_13896)"/>
</g>
<defs>
<linearGradient id="paint0_linear_170_13896" x1="463.259" y1="-0.699707" x2="463.259" y2="987.05" gradientUnits="userSpaceOnUse">
<stop offset="0.530039"/>
<stop offset="1" stop-opacity="0"/>
</linearGradient>
<clipPath id="clip0_170_13896">
<rect width="959" height="1014" fill="white"/>
</clipPath>
</defs>
</svg>
