<svg width="82" height="127" viewBox="0 0 82 127" fill="none" xmlns="http://www.w3.org/2000/svg">
<path d="M46.3826 35.2589L49.4104 38.782C49.8026 39.2383 50.4996 39.2661 50.9268 38.8424L52.8534 36.9318C53.4415 36.3485 53.7155 35.5194 53.5906 34.7006L53.452 33.7919C53.3355 33.0276 52.8838 32.3552 52.2203 31.9583L52.1428 31.9119C51.3071 31.412 50.2616 31.4227 49.4363 31.9396L46.6185 33.7044C46.0808 34.0412 45.969 34.7777 46.3826 35.2589Z" fill="url(#paint0_linear_170_17639)"/>
<path d="M39.1102 50.2605L45.7376 45.3729C46.8307 44.5668 47.5183 43.3242 47.6207 41.9698L47.67 41.3184C47.7488 40.276 47.4752 39.2373 46.8932 38.3689L45.9404 36.9475C45.4783 36.2581 44.7753 35.7663 43.9692 35.5685C42.845 35.2927 41.6582 35.6209 40.8354 36.4352L34.1516 43.0504C33.3446 43.849 32.9003 44.9436 32.9225 46.0788L32.9527 47.6291C32.9778 48.9173 33.7945 50.0567 35.0064 50.4941L35.7243 50.7533C36.8644 51.1648 38.1347 50.9799 39.1102 50.2605Z" fill="url(#paint1_linear_170_17639)"/>
<path d="M74.7379 3.26925L77.401 7.07559C77.7459 7.5686 78.4367 7.66542 78.9039 7.28625L81.0107 5.57635C81.6538 5.0544 82.0087 4.25654 81.9658 3.42939L81.9181 2.51142C81.878 1.73932 81.4953 1.02542 80.8745 0.5646L80.802 0.510752C80.02 -0.0697037 78.9787 -0.162867 78.1061 0.269565L75.1271 1.74592C74.5586 2.02766 74.3742 2.74937 74.7379 3.26925Z" fill="url(#paint2_linear_170_17639)"/>
<path d="M66.0123 17.4745L73.0922 13.2691C74.26 12.5754 75.0676 11.4073 75.304 10.0697L75.4176 9.42643C75.5996 8.39698 75.4305 7.33627 74.9375 6.41441L74.1306 4.90545C73.7393 4.17357 73.0885 3.61436 72.3061 3.33752C71.2148 2.95141 70.0013 3.16018 69.1017 3.88877L61.7941 9.80761C60.9118 10.5222 60.3611 11.5673 60.2704 12.699L60.1465 14.2447C60.0436 15.529 60.7432 16.7438 61.9056 17.2994L62.5943 17.6286C63.6879 18.1513 64.9702 18.0935 66.0123 17.4745Z" fill="url(#paint3_linear_170_17639)"/>
<path d="M46.4846 14.1743L43.3626 10.7343C42.9582 10.2887 43.0168 9.59363 43.4901 9.22204L45.6241 7.54631C46.2756 7.03478 47.1322 6.86538 47.9293 7.09048L48.8139 7.34028C49.558 7.5504 50.1694 8.08169 50.4812 8.78913L50.5177 8.8718C50.9105 9.7629 50.7707 10.799 50.1558 11.5541L48.0562 14.1322C47.6556 14.6242 46.911 14.6441 46.4846 14.1743Z" fill="url(#paint4_linear_170_17639)"/>
<path d="M30.6983 19.5379L36.3674 13.5653C37.3025 12.5801 38.6204 12.0514 39.9771 12.1171L40.6296 12.1488C41.6738 12.1994 42.6707 12.5992 43.4605 13.2841L44.7533 14.4052C45.3803 14.9489 45.7815 15.7074 45.8781 16.5317C46.0129 17.6814 45.5405 18.8186 44.6308 19.5344L37.2404 25.3495C36.3481 26.0516 35.207 26.3572 34.0833 26.1949L32.5486 25.9734C31.2734 25.7893 30.2437 24.838 29.9593 23.5813L29.7909 22.8369C29.5234 21.6547 29.8638 20.417 30.6983 19.5379Z" fill="url(#paint5_linear_170_17639)"/>
<path d="M12.2523 50.0819L16.2728 52.409C16.7936 52.7104 17.4607 52.5067 17.7243 51.9658L18.9128 49.5266C19.2756 48.782 19.2607 47.9089 18.8727 47.1771L18.4421 46.365C18.08 45.6819 17.4318 45.1962 16.6745 45.0404L16.586 45.0221C15.6322 44.8259 14.6488 45.1808 14.0402 45.9411L11.9623 48.5366C11.5658 49.0319 11.7032 49.764 12.2523 50.0819Z" fill="url(#paint6_linear_170_17639)"/>
<path d="M10.3341 66.6432L14.9783 59.8431C15.7443 58.7214 15.9835 57.3216 15.6334 56.0092L15.465 55.378C15.1956 54.368 14.5947 53.4777 13.7588 52.8499L12.3905 51.8224C11.7269 51.324 10.9009 51.0916 10.0747 51.1708C8.92243 51.2812 7.91031 51.9826 7.40221 53.0227L3.27461 61.4724C2.77628 62.4925 2.71797 63.6724 3.11331 64.7367L3.65323 66.1903C4.10187 67.3981 5.24872 68.2043 6.53709 68.2175L7.30031 68.2253C8.51232 68.2377 9.65051 67.6442 10.3341 66.6432Z" fill="url(#paint7_linear_170_17639)"/>
<path d="M2.12723 107.819L6.73408 107.221C7.33077 107.144 7.73647 106.576 7.61674 105.987L7.07684 103.327C6.91204 102.516 6.36924 101.832 5.61624 101.487L4.78055 101.104C4.07766 100.782 3.26772 100.79 2.5718 101.127L2.49048 101.167C1.61391 101.591 1.04911 102.471 1.02831 103.444L0.957286 106.768C0.943732 107.403 1.49802 107.9 2.12723 107.819Z" fill="url(#paint8_linear_170_17639)"/>
<path d="M10.6765 122.132L10.2278 113.909C10.1538 112.553 9.4924 111.296 8.41637 110.467L7.89885 110.069C7.07069 109.431 6.05227 109.089 5.00692 109.099L3.29585 109.116C2.46594 109.124 1.66895 109.442 1.06127 110.007C0.213686 110.795 -0.163254 111.967 0.0659467 113.102L1.92789 122.32C2.15269 123.433 2.82393 124.405 3.78501 125.009L5.0976 125.835C6.18825 126.521 7.58892 126.463 8.6197 125.69L9.23032 125.232C10.2 124.505 10.7426 123.342 10.6765 122.132Z" fill="url(#paint9_linear_170_17639)"/>
<path d="M19.8462 78.6465L24.4759 79.0288C25.0756 79.0783 25.5913 78.6087 25.598 78.0071L25.6281 75.2939C25.6373 74.4657 25.2502 73.6829 24.5863 73.1876L23.8496 72.6379C23.2299 72.1756 22.4362 72.014 21.6851 72.1973L21.5973 72.2187C20.6512 72.4496 19.9144 73.1913 19.6897 74.1389L18.9228 77.374C18.7764 77.9914 19.2139 78.5942 19.8462 78.6465Z" fill="url(#paint10_linear_170_17639)"/>
<path d="M25.2019 94.4351L26.4887 86.3015C26.7009 84.9599 26.318 83.5924 25.4398 82.5562L25.0175 82.0578C24.3416 81.2603 23.4175 80.7128 22.3934 80.5032L20.7169 80.1602C19.9038 79.9938 19.0579 80.1373 18.3451 80.5625C17.351 81.1555 16.7364 82.2226 16.7224 83.3801L16.6086 92.7833C16.5948 93.9186 17.0471 95.0099 17.8599 95.8026L18.9701 96.8852C19.8925 97.7848 21.274 98.0225 22.4441 97.483L23.1372 97.1634C24.2379 96.6559 25.0125 95.6323 25.2019 94.4351Z" fill="url(#paint11_linear_170_17639)"/>
<defs>
<linearGradient id="paint0_linear_170_17639" x1="40.9846" y1="1.1978e-07" x2="40.9846" y2="126.312" gradientUnits="userSpaceOnUse">
<stop offset="0.0443555" stop-opacity="0"/>
<stop offset="0.344355" stop-opacity="0.8"/>
<stop offset="0.549355" stop-opacity="0.8"/>
<stop offset="1" stop-opacity="0"/>
</linearGradient>
<linearGradient id="paint1_linear_170_17639" x1="40.9846" y1="1.1978e-07" x2="40.9846" y2="126.312" gradientUnits="userSpaceOnUse">
<stop offset="0.0443555" stop-opacity="0"/>
<stop offset="0.344355" stop-opacity="0.8"/>
<stop offset="0.549355" stop-opacity="0.8"/>
<stop offset="1" stop-opacity="0"/>
</linearGradient>
<linearGradient id="paint2_linear_170_17639" x1="40.9846" y1="1.1978e-07" x2="40.9846" y2="126.312" gradientUnits="userSpaceOnUse">
<stop offset="0.0443555" stop-opacity="0"/>
<stop offset="0.344355" stop-opacity="0.8"/>
<stop offset="0.549355" stop-opacity="0.8"/>
<stop offset="1" stop-opacity="0"/>
</linearGradient>
<linearGradient id="paint3_linear_170_17639" x1="40.9846" y1="1.1978e-07" x2="40.9846" y2="126.312" gradientUnits="userSpaceOnUse">
<stop offset="0.0443555" stop-opacity="0"/>
<stop offset="0.344355" stop-opacity="0.8"/>
<stop offset="0.549355" stop-opacity="0.8"/>
<stop offset="1" stop-opacity="0"/>
</linearGradient>
<linearGradient id="paint4_linear_170_17639" x1="40.9846" y1="1.1978e-07" x2="40.9846" y2="126.312" gradientUnits="userSpaceOnUse">
<stop offset="0.0443555" stop-opacity="0"/>
<stop offset="0.344355" stop-opacity="0.8"/>
<stop offset="0.549355" stop-opacity="0.8"/>
<stop offset="1" stop-opacity="0"/>
</linearGradient>
<linearGradient id="paint5_linear_170_17639" x1="40.9846" y1="1.1978e-07" x2="40.9846" y2="126.312" gradientUnits="userSpaceOnUse">
<stop offset="0.0443555" stop-opacity="0"/>
<stop offset="0.344355" stop-opacity="0.8"/>
<stop offset="0.549355" stop-opacity="0.8"/>
<stop offset="1" stop-opacity="0"/>
</linearGradient>
<linearGradient id="paint6_linear_170_17639" x1="40.9846" y1="1.1978e-07" x2="40.9846" y2="126.312" gradientUnits="userSpaceOnUse">
<stop offset="0.0443555" stop-opacity="0"/>
<stop offset="0.344355" stop-opacity="0.8"/>
<stop offset="0.549355" stop-opacity="0.8"/>
<stop offset="1" stop-opacity="0"/>
</linearGradient>
<linearGradient id="paint7_linear_170_17639" x1="40.9846" y1="1.1978e-07" x2="40.9846" y2="126.312" gradientUnits="userSpaceOnUse">
<stop offset="0.0443555" stop-opacity="0"/>
<stop offset="0.344355" stop-opacity="0.8"/>
<stop offset="0.549355" stop-opacity="0.8"/>
<stop offset="1" stop-opacity="0"/>
</linearGradient>
<linearGradient id="paint8_linear_170_17639" x1="40.9846" y1="1.1978e-07" x2="40.9846" y2="126.312" gradientUnits="userSpaceOnUse">
<stop offset="0.0443555" stop-opacity="0"/>
<stop offset="0.344355" stop-opacity="0.8"/>
<stop offset="0.549355" stop-opacity="0.8"/>
<stop offset="1" stop-opacity="0"/>
</linearGradient>
<linearGradient id="paint9_linear_170_17639" x1="40.9846" y1="1.1978e-07" x2="40.9846" y2="126.312" gradientUnits="userSpaceOnUse">
<stop offset="0.0443555" stop-opacity="0"/>
<stop offset="0.344355" stop-opacity="0.8"/>
<stop offset="0.549355" stop-opacity="0.8"/>
<stop offset="1" stop-opacity="0"/>
</linearGradient>
<linearGradient id="paint10_linear_170_17639" x1="40.9846" y1="1.1978e-07" x2="40.9846" y2="126.312" gradientUnits="userSpaceOnUse">
<stop offset="0.0443555" stop-opacity="0"/>
<stop offset="0.344355" stop-opacity="0.8"/>
<stop offset="0.549355" stop-opacity="0.8"/>
<stop offset="1" stop-opacity="0"/>
</linearGradient>
<linearGradient id="paint11_linear_170_17639" x1="40.9846" y1="1.1978e-07" x2="40.9846" y2="126.312" gradientUnits="userSpaceOnUse">
<stop offset="0.0443555" stop-opacity="0"/>
<stop offset="0.344355" stop-opacity="0.8"/>
<stop offset="0.549355" stop-opacity="0.8"/>
<stop offset="1" stop-opacity="0"/>
</linearGradient>
</defs>
</svg>
