<svg width="525" height="386" viewBox="0 0 525 386" fill="none" xmlns="http://www.w3.org/2000/svg">
<g clip-path="url(#clip0_2008_2227)">
<rect x="15.3046" y="-21.792" width="240" height="240" rx="24" transform="rotate(-6.43625 15.3046 -21.792)" fill="#FED686"/>
<path d="M61.8191 10.0906C61.5743 7.92041 61.6916 5.96292 62.171 4.21818C62.6743 2.47075 63.459 0.969332 64.525 -0.286075C65.5883 -1.56533 66.8866 -2.58127 68.4199 -3.33389C69.9743 -4.11306 71.6936 -4.60891 73.5776 -4.82144C75.4378 -5.03129 77.2005 -4.92823 78.8656 -4.51227C80.5519 -4.12284 82.0558 -3.42302 83.3774 -2.41279C84.6963 -1.42642 85.7837 -0.136193 86.6398 1.45789C87.5198 3.04928 88.0822 4.93009 88.327 7.10033C88.5449 9.03207 88.4657 10.792 88.0893 12.3802C87.7369 13.9658 87.1469 15.3728 86.3194 16.6013C85.4892 17.8059 84.4453 18.8294 83.1878 19.6717C81.9541 20.5112 80.5757 21.1377 79.0524 21.5511C79.8425 21.7035 80.6179 21.8334 81.3788 21.9407C82.1423 22.072 82.9175 22.0932 83.7046 22.0044C84.8731 21.8726 85.7061 21.5492 86.2035 21.0342C86.7009 20.5192 86.9743 19.9449 87.0236 19.3114C87.0437 18.6329 87.2962 18.3025 87.7813 18.3202C88.0013 18.3437 88.2082 18.4653 88.4021 18.6849C88.6171 18.878 88.8272 19.3495 89.0326 20.0992C89.3633 21.3178 89.4685 22.4652 89.3484 23.5415C89.231 24.6415 88.953 25.6028 88.5144 26.4251C88.1024 27.2686 87.539 27.9481 86.8243 28.4634C86.1361 29 85.3746 29.3153 84.5399 29.4095C83.7291 29.5009 82.9444 29.3962 82.1859 29.0954C81.4274 28.7945 80.6819 28.3955 79.9496 27.8985C79.2173 27.4015 78.5034 26.854 77.808 26.2562C77.1126 25.6584 76.4226 25.1083 75.738 24.6059C75.0533 24.1034 74.3675 23.6978 73.6806 23.3888C72.9936 23.0799 72.3043 22.9644 71.6127 23.0424C70.9926 23.1124 70.4603 23.3174 70.0156 23.6574C69.5709 23.9973 69.3754 24.4058 69.4292 24.8828C69.4615 25.169 69.5969 25.2986 69.8354 25.2717C69.9785 25.2556 70.152 25.1877 70.3559 25.0681C70.5624 24.9723 70.7901 24.85 71.039 24.7012C71.2906 24.5762 71.5422 24.4512 71.7938 24.3262C72.0719 24.2224 72.354 24.1543 72.6402 24.1221C72.9264 24.0898 73.1954 24.1198 73.4474 24.2121C73.7232 24.3018 73.9859 24.4895 74.2355 24.7754C74.602 25.2412 74.7937 25.763 74.8106 26.3408C74.8302 26.9424 74.7012 27.5124 74.4239 28.0509C74.173 28.6105 73.7802 29.0896 73.2455 29.488C72.7374 29.9076 72.1136 30.1591 71.3743 30.2425C70.8019 30.3071 70.2519 30.2484 69.7242 30.0664C69.223 29.9056 68.7707 29.6426 68.3672 29.2776C67.9664 28.9363 67.6291 28.5155 67.3553 28.015C67.1053 27.5119 66.9467 26.9622 66.8794 26.366C66.7503 25.2212 67.0004 24.2269 67.6298 23.3831C68.2618 22.563 69.2295 21.9346 70.5327 21.4978C69.3819 21.1445 68.3116 20.6494 67.322 20.0123C66.3296 19.3514 65.4537 18.5445 64.6941 17.5916C63.9345 16.6388 63.3032 15.5386 62.8002 14.2911C62.321 13.041 61.994 11.6408 61.8191 10.0906ZM69.4746 9.22705C69.7248 11.445 70.0763 13.2771 70.5293 14.7235C71.0062 16.1671 71.5461 17.3138 72.1492 18.1636C72.7495 18.9895 73.4051 19.5555 74.1159 19.8618C74.8479 20.1415 75.6074 20.237 76.3944 20.1482C77.1576 20.0621 77.8528 19.8025 78.4803 19.3695C79.1288 18.9099 79.6537 18.2106 80.055 17.2717C80.4536 16.309 80.7126 15.0721 80.832 13.5612C80.9752 12.0476 80.9217 10.1819 80.6715 7.96393C80.4213 5.746 80.0578 3.91521 79.581 2.47156C79.128 1.02522 78.6013 -0.110899 78.0009 -0.936805C77.3979 -1.78656 76.7304 -2.35129 75.9984 -2.631C75.2876 -2.93725 74.5506 -3.04733 73.7875 -2.96124C73.0004 -2.87246 72.2827 -2.59827 71.6341 -2.13867C71.0067 -1.70561 70.4937 -1.0077 70.0951 -0.0449556C69.6938 0.893945 69.4216 2.12019 69.2783 3.63379C69.1589 5.14469 69.2243 7.00911 69.4746 9.22705ZM103.688 15.6926C102.595 17.9896 100.891 19.2686 98.5779 19.5296C97.457 19.656 96.4536 19.5398 95.5678 19.1808C94.6793 18.798 93.9177 18.2559 93.2831 17.5546C92.6485 16.8534 92.1435 16.0167 91.7682 15.0446C91.3902 14.0487 91.1406 13.0142 91.0196 11.941L90.6523 8.68565C90.5797 8.04174 90.4607 7.41512 90.2954 6.80582C90.1539 6.19382 89.7793 5.65643 89.1716 5.19363C88.5692 4.77854 88.3552 4.38002 88.5295 3.99807C88.7249 3.58959 89.4295 3.30482 90.6431 3.14376C91.3081 3.04458 91.9757 2.86059 92.6458 2.59178C93.337 2.29643 93.9962 1.82356 94.6232 1.17317C94.8614 0.92894 95.0929 0.733751 95.318 0.587604C95.5403 0.417608 95.7469 0.321849 95.9377 0.300326C96.2239 0.268042 96.4693 0.409425 96.6739 0.724475C96.8785 1.03952 97.0252 1.59055 97.1139 2.37756L98.0018 10.2476C98.217 12.1555 98.5904 13.5384 99.1219 14.3962C99.6772 15.2514 100.265 15.644 100.885 15.574C101.314 15.5256 101.674 15.2917 101.965 14.8725C102.28 14.4506 102.524 13.94 102.698 13.3407C102.872 12.7414 102.982 12.1131 103.029 11.4557C103.075 10.7984 103.069 10.2073 103.01 9.68267L102.744 7.32165C102.671 6.67773 102.552 6.05112 102.387 5.44181C102.245 4.82982 101.871 4.29242 101.263 3.82963C100.684 3.41184 100.482 3.01198 100.657 2.63003C100.828 2.22424 101.521 1.94081 102.734 1.77976C103.423 1.67789 104.103 1.49255 104.773 1.22374C105.44 0.931081 106.099 0.458212 106.75 -0.194868C107.245 -0.73372 107.671 -1.02332 108.029 -1.06368C108.315 -1.09596 108.561 -0.95458 108.765 -0.63953C108.97 -0.324481 109.116 0.226548 109.205 1.01356L110.468 12.2105C110.538 12.8306 110.693 13.4532 110.933 14.0783C111.172 14.7033 111.413 15.2317 111.655 15.6633C112.067 16.3172 112.207 16.8086 112.075 17.1375C111.967 17.4637 111.638 17.6577 111.09 17.7196L105.867 18.3088C105.318 18.3707 104.846 18.2548 104.451 17.9613C104.077 17.6412 103.859 17.2069 103.797 16.6584L103.688 15.6926ZM119.24 7.27219C119.621 8.94392 120.222 10.2045 121.043 11.0539C121.863 11.9033 122.965 12.2499 124.348 12.0939C125.183 11.9997 125.986 11.7281 126.756 11.2789C127.548 10.8031 128.115 10.1594 128.458 9.34786C128.67 8.86514 128.906 8.60899 129.169 8.57939C129.312 8.56325 129.436 8.5975 129.543 8.68213C129.794 8.77447 129.96 8.96104 130.04 9.24185C130.118 9.4988 130.093 9.92423 129.967 10.5181C129.764 11.2897 129.426 12.0403 128.953 12.77C128.504 13.4969 127.936 14.1406 127.251 14.701C126.565 15.2613 125.797 15.7344 124.947 16.1201C124.121 16.5032 123.219 16.7498 122.241 16.8601C121.049 16.9946 119.867 16.8986 118.695 16.5719C117.544 16.2187 116.492 15.6731 115.539 14.9353C114.586 14.1974 113.781 13.2619 113.121 12.1286C112.483 10.9688 112.082 9.66156 111.918 8.20679C111.751 6.72816 111.863 5.36304 112.253 4.11142C112.643 2.85979 113.244 1.76551 114.057 0.828573C114.89 -0.134905 115.913 -0.914501 117.126 -1.51022C118.339 -2.10593 119.672 -2.48584 121.127 -2.64995C122.248 -2.7764 123.276 -2.75957 124.212 -2.59947C125.172 -2.44206 126.013 -2.16253 126.734 -1.76088C127.477 -1.38578 128.063 -0.896443 128.494 -0.292882C128.948 0.307988 129.218 0.990003 129.304 1.75316C129.396 2.56402 129.276 3.3262 128.946 4.0397C128.616 4.7532 128.156 5.38476 127.566 5.93437C126.976 6.48398 126.278 6.93704 125.473 7.29354C124.689 7.6235 123.88 7.83556 123.045 7.92972C122.377 8.00505 121.712 7.99556 121.049 7.90126C120.411 7.80427 119.807 7.59458 119.24 7.27219ZM122.323 1.85233C122.259 1.27996 122.148 0.833559 121.991 0.513128C121.855 0.166158 121.705 -0.0946503 121.541 -0.269298C121.373 -0.467794 121.202 -0.593399 121.027 -0.646113C120.852 -0.698827 120.705 -0.718459 120.586 -0.705007C119.966 -0.635058 119.49 -0.0379284 119.158 1.08638C118.823 2.18684 118.764 3.70295 118.982 5.63469C119.532 6.00747 120.057 6.16562 120.557 6.10912C121.249 6.0311 121.743 5.58899 122.038 4.78278C122.355 3.95004 122.45 2.97322 122.323 1.85233ZM148.148 8.53965C148.36 10.4237 147.762 11.8678 146.354 12.872C144.969 13.8735 142.965 14.5223 140.342 14.8182C139.388 14.9258 138.465 14.9817 137.571 14.9858C136.678 14.99 135.851 14.9384 135.09 14.831C134.351 14.697 133.702 14.5166 133.146 14.2896C132.589 14.0626 132.169 13.7718 131.888 13.4171C131.691 13.1736 131.537 12.877 131.425 12.5273C131.313 12.1777 131.283 11.8067 131.336 11.4143C131.385 10.9981 131.533 10.595 131.779 10.205C132.046 9.78847 132.452 9.42866 132.998 9.1256C133.294 8.97139 133.607 8.8516 133.935 8.76623C134.285 8.65433 134.627 8.57955 134.961 8.54188C135.39 8.49346 135.802 8.50734 136.197 8.58354C136.613 8.6332 136.965 8.75055 137.251 8.9356C137.538 9.12064 137.736 9.37607 137.845 9.70188C137.978 10.025 137.988 10.4345 137.875 10.9303C137.696 11.6992 137.795 12.2556 138.172 12.5995C138.573 12.9407 139.131 13.071 139.846 12.9903C140.538 12.9123 140.975 12.718 141.157 12.4076C141.337 12.0734 141.409 11.7513 141.374 11.4412C141.31 10.8689 141.015 10.3949 140.489 10.0195C139.964 9.644 139.322 9.30583 138.563 9.00496C137.829 8.7014 137.021 8.39399 136.141 8.08272C135.26 7.77145 134.433 7.39384 133.658 6.94988C132.904 6.47938 132.25 5.92522 131.695 5.28742C131.138 4.62576 130.802 3.79411 130.689 2.79246C130.584 1.86236 130.702 0.979596 131.043 0.144161C131.407 -0.693964 131.962 -1.44495 132.709 -2.10879C133.455 -2.77263 134.359 -3.32144 135.421 -3.75523C136.504 -4.21556 137.726 -4.5224 139.085 -4.67575C139.92 -4.76991 140.713 -4.79907 141.466 -4.76323C142.243 -4.73008 142.955 -4.62923 143.602 -4.46069C144.272 -4.29485 144.853 -4.07054 145.344 -3.78777C145.835 -3.50501 146.212 -3.16109 146.475 -2.75603C146.653 -2.46214 146.774 -2.13767 146.838 -1.78263C146.9 -1.45144 146.89 -1.11218 146.808 -0.764842C146.726 -0.417508 146.56 -0.0726818 146.309 0.269636C146.079 0.585415 145.761 0.874836 145.356 1.1379C144.723 1.52326 144.061 1.75496 143.37 1.83298C142.94 1.8814 142.528 1.86752 142.133 1.79132C141.759 1.68858 141.437 1.50757 141.166 1.24829C140.895 0.989008 140.7 0.648765 140.58 0.227558C140.457 -0.217496 140.468 -0.762164 140.613 -1.40644C140.745 -1.95264 140.737 -2.33825 140.591 -2.56329C140.466 -2.81486 140.165 -2.91375 139.688 -2.85994C139.044 -2.7873 138.531 -2.52406 138.147 -2.0702C137.785 -1.64288 137.635 -1.15497 137.696 -0.606445C137.764 -0.0102273 138.048 0.476962 138.55 0.855123C139.075 1.23059 139.694 1.58338 140.408 1.91348C141.143 2.21704 141.938 2.52579 142.795 2.83975C143.651 3.15371 144.446 3.55921 145.178 4.05625C145.932 4.52675 146.578 5.11802 147.117 5.83006C147.68 6.53941 148.024 7.44261 148.148 8.53965ZM157.279 -6.36589L160.176 -6.69277C160.463 -6.72505 160.7 -6.65521 160.888 -6.48326C161.074 -6.33515 161.182 -6.12993 161.211 -5.86759C161.244 -5.5814 161.187 -5.3335 161.042 -5.12388C160.894 -4.93811 160.676 -4.82908 160.39 -4.79679L157.493 -4.46992L158.76 6.76284C158.846 7.526 159.111 8.05165 159.554 8.3398C159.994 8.60409 160.453 8.70934 160.93 8.65553C161.43 8.59904 161.848 8.44329 162.181 8.1883C162.494 7.95984 162.774 7.87986 163.024 7.94835C163.273 8.01684 163.448 8.17822 163.549 8.43249C163.648 8.6629 163.657 8.9637 163.579 9.33488C163.5 9.70607 163.312 10.0774 163.016 10.449C162.759 10.7436 162.442 11.033 162.063 11.3172C161.682 11.5776 161.25 11.8195 160.768 12.043C160.308 12.2399 159.819 12.4037 159.302 12.5344C158.788 12.689 158.281 12.7945 157.78 12.851C156.063 13.0447 154.675 12.7303 153.616 11.9079C152.557 11.0854 151.943 9.9229 151.774 8.42043L150.41 -3.67088L147.941 -3.39243C147.655 -3.36015 147.419 -3.41806 147.233 -3.56617C147.045 -3.73813 146.934 -3.9672 146.902 -4.25338C146.873 -4.51572 146.92 -4.73843 147.044 -4.92151C147.192 -5.10728 147.396 -5.22689 147.656 -5.28033C148.533 -5.42757 149.294 -5.63425 149.941 -5.90037C150.584 -6.19034 151.136 -6.54244 151.597 -6.95667C152.057 -7.3709 152.437 -7.86053 152.735 -8.42555C153.058 -8.99327 153.326 -9.61523 153.539 -10.2914C153.716 -10.8669 153.894 -11.3217 154.074 -11.6559C154.253 -11.9902 154.429 -12.2515 154.601 -12.44C154.773 -12.6285 154.929 -12.7427 155.07 -12.7827C155.231 -12.8492 155.372 -12.8892 155.491 -12.9027C156.182 -12.9807 156.563 -12.7097 156.633 -12.0896L157.279 -6.36589ZM161.674 -11.3178C161.612 -11.8663 161.661 -12.3912 161.822 -12.8923C161.983 -13.3935 162.235 -13.8326 162.579 -14.2095C162.921 -14.6103 163.331 -14.9343 163.81 -15.1816C164.311 -15.4554 164.847 -15.6246 165.419 -15.6892C166.016 -15.7565 166.576 -15.711 167.101 -15.5529C167.647 -15.4213 168.12 -15.1968 168.518 -14.8794C168.937 -14.5886 169.281 -14.2168 169.549 -13.764C169.818 -13.3112 169.983 -12.8106 170.045 -12.2621C170.104 -11.7374 170.053 -11.2245 169.892 -10.7233C169.731 -10.2221 169.48 -9.77113 169.139 -9.37035C168.819 -8.99611 168.409 -8.67208 167.908 -8.39825C167.429 -8.15097 166.891 -7.99369 166.295 -7.92644C165.723 -7.86187 165.163 -7.89538 164.617 -8.02699C164.092 -8.18513 163.62 -8.40962 163.201 -8.70045C162.779 -9.01514 162.434 -9.39886 162.165 -9.85163C161.897 -10.3044 161.733 -10.7931 161.674 -11.3178ZM172.237 5.24252C172.307 5.86259 172.45 6.48651 172.665 7.11428C172.905 7.73936 173.158 8.26636 173.423 8.69528C173.811 9.35191 173.951 9.84332 173.843 10.1695C173.735 10.4957 173.407 10.6897 172.858 10.7516L165.775 11.5506C165.227 11.6125 164.851 11.4978 164.65 11.2066C164.471 10.9127 164.51 10.4011 164.766 9.67187C164.906 9.19722 165.023 8.62852 165.117 7.96578C165.211 7.30303 165.224 6.66162 165.154 6.04155L164.512 0.353629C164.439 -0.290286 164.32 -0.916897 164.155 -1.5262C164.014 -2.1382 163.639 -2.67559 163.031 -3.13839C162.453 -3.55617 162.251 -3.95604 162.425 -4.33798C162.597 -4.74378 163.289 -5.0272 164.503 -5.18826C165.168 -5.28744 165.835 -5.47143 166.506 -5.74024C167.197 -6.03559 167.856 -6.50846 168.483 -7.15885C168.721 -7.40308 168.953 -7.59827 169.178 -7.74442C169.4 -7.91441 169.607 -8.01017 169.797 -8.03169C170.084 -8.06398 170.329 -7.9226 170.534 -7.60755C170.738 -7.2925 170.885 -6.74147 170.974 -5.95446L172.237 5.24252ZM173.65 1.24284C173.484 -0.235785 173.595 -1.60091 173.986 -2.85253C174.376 -4.10416 174.965 -5.19709 175.753 -6.13134C176.563 -7.09213 177.55 -7.86769 178.715 -8.45802C179.88 -9.04836 181.154 -9.42154 182.538 -9.57758C183.921 -9.73362 185.234 -9.65234 186.478 -9.33373C187.745 -9.01781 188.868 -8.48035 189.848 -7.72133C190.848 -6.98886 191.678 -6.056 192.337 -4.92275C192.996 -3.7895 193.409 -2.48357 193.576 -1.00495C193.74 0.449825 193.629 1.81495 193.241 3.09042C192.851 4.34205 192.25 5.43633 191.438 6.37327C190.649 7.30751 189.674 8.08173 188.512 8.69591C187.37 9.28356 186.108 9.6554 184.725 9.81144C183.342 9.96748 182.016 9.88754 180.749 9.57162C179.479 9.23185 178.344 8.69573 177.343 7.96326C176.367 7.2281 175.549 6.29389 174.889 5.16064C174.228 4.00354 173.815 2.69761 173.65 1.24284ZM180.908 0.387854C181.102 2.10496 181.33 3.48012 181.591 4.51332C181.85 5.52267 182.129 6.28816 182.43 6.80978C182.73 7.33139 183.058 7.66876 183.414 7.82189C183.766 7.95117 184.133 7.99428 184.515 7.95124C184.897 7.90819 185.233 7.78571 185.524 7.58379C185.836 7.35534 186.081 6.9534 186.258 6.37798C186.434 5.80255 186.536 4.99402 186.564 3.95238C186.588 2.8869 186.504 1.4956 186.31 -0.22151C186.116 -1.93862 185.89 -3.30185 185.631 -4.3112C185.373 -5.32056 185.093 -6.08604 184.793 -6.60766C184.492 -7.12928 184.166 -7.45472 183.813 -7.584C183.484 -7.71597 183.129 -7.76043 182.747 -7.71738C182.366 -7.67434 182.018 -7.55051 181.702 -7.3459C181.387 -7.1413 181.142 -6.75128 180.965 -6.17586C180.788 -5.60043 180.686 -4.7919 180.659 -3.75027C180.632 -2.70863 180.715 -1.32925 180.908 0.387854ZM201.857 -8.49648C202.951 -10.7935 204.654 -12.0725 206.968 -12.3335C208.088 -12.4599 209.092 -12.3437 209.978 -11.9847C210.863 -11.6258 211.625 -11.0837 212.262 -10.3586C212.897 -9.6573 213.402 -8.82063 213.777 -7.84858C214.153 -6.87652 214.401 -5.8539 214.522 -4.78071L215.107 0.406392C215.177 1.02646 215.332 1.64903 215.571 2.27412C215.811 2.8992 216.052 3.42754 216.293 3.85915C216.705 4.5131 216.845 5.0045 216.713 5.33337C216.605 5.65954 216.277 5.85357 215.728 5.91545L208.645 6.71448C208.097 6.77636 207.734 6.66035 207.555 6.36646C207.377 6.07257 207.416 5.56099 207.672 4.83171C207.812 4.35706 207.917 3.78971 207.987 3.12965C208.082 2.4669 208.094 1.82549 208.024 1.20542L207.54 -3.08735C207.327 -4.9714 206.943 -6.34099 206.388 -7.19613C205.856 -8.05395 205.28 -8.44789 204.66 -8.37794C204.231 -8.32951 203.859 -8.09433 203.544 -7.6724C203.254 -7.25315 203.021 -6.7439 202.847 -6.14462C202.671 -5.5692 202.559 -4.9528 202.512 -4.29543C202.466 -3.63807 202.472 -3.04705 202.531 -2.52238L203.016 1.7704C203.086 2.39046 203.228 3.01438 203.444 3.64216C203.684 4.26724 203.936 4.79424 204.202 5.22315C204.59 5.87979 204.73 6.3712 204.622 6.69737C204.514 7.02355 204.186 7.21758 203.637 7.27945L196.554 8.07849C196.005 8.14037 195.63 8.0257 195.428 7.7345C195.25 7.44061 195.289 6.92903 195.545 6.19975C195.685 5.7251 195.802 5.1564 195.896 4.49365C195.99 3.8309 196.002 3.1895 195.933 2.56943L195.291 -3.11849C195.218 -3.76241 195.099 -4.38902 194.934 -4.99833C194.792 -5.61032 194.418 -6.14772 193.81 -6.61051C193.232 -7.0283 193.03 -7.42816 193.204 -7.81011C193.375 -8.2159 194.068 -8.49933 195.282 -8.66038C195.947 -8.75956 196.614 -8.94355 197.284 -9.21236C197.976 -9.50771 198.635 -9.98058 199.262 -10.631C199.5 -10.8752 199.731 -11.0704 199.957 -11.2165C200.179 -11.3865 200.385 -11.4823 200.576 -11.5038C200.862 -11.5361 201.108 -11.3947 201.312 -11.0797C201.517 -10.7646 201.664 -10.2136 201.752 -9.42658L201.857 -8.49648Z" fill="#CA8702"/>
<g opacity="0.4">
<path d="M138.69 24.6694L4.74041 334.826L343.069 296.66L138.69 24.6694Z" stroke="black"/>
<circle cx="161.854" cy="217.941" r="97.2224" transform="rotate(-6.43625 161.854 217.941)" stroke="black"/>
<line x1="138.341" y1="26.3063" x2="171.115" y2="316.836" stroke="black"/>
</g>
<path d="M163.903 121.743C164.152 123.948 164.66 126.166 165.427 128.398C166.279 130.621 167.177 132.495 168.122 134.02C169.502 136.354 169.999 138.102 169.615 139.261C169.231 140.421 168.063 141.111 166.113 141.331L139.53 144.33C137.579 144.55 136.288 144.137 135.654 143.092C135.021 142.047 135.117 140.233 135.942 137.65C136.524 135.953 136.939 133.931 137.19 131.584C137.525 129.227 137.569 126.947 137.32 124.742L131.279 71.1936C131.04 69.0737 130.326 67.6944 129.138 67.0556C127.94 66.332 126.558 65.8867 124.994 65.7197C123.429 65.5527 121.832 65.4753 120.202 65.4874C118.656 65.49 117.369 65.1199 116.341 64.3772C115.775 63.9258 115.369 63.3705 115.122 62.7113C114.867 61.9673 114.785 61.2465 114.879 60.549C115.056 59.8419 115.413 59.2005 115.95 58.6248C116.571 58.0395 117.465 57.5951 118.633 57.2916L150.028 48.984C151.695 48.5383 153.09 48.7244 154.213 49.5424C155.335 50.3603 155.992 51.6173 156.184 53.3132L163.903 121.743Z" fill="black"/>
</g>
<g clip-path="url(#clip1_2008_2227)">
<rect x="0.259766" y="276.054" width="240" height="240" rx="24" transform="rotate(-14.1807 0.259766 276.054)" fill="#58C3FE"/>
<g opacity="0.4">
<path d="M134.999 389.684C139.385 392.3 144.643 393.455 153.395 391.243C160.397 389.474 165.931 384.351 168.695 380.549" stroke="black"/>
<circle cx="75.0642" cy="412.898" r="64.5" transform="rotate(-14.1807 75.0642 412.898)" stroke="black"/>
<circle cx="232.613" cy="373.089" r="64.5" transform="rotate(-14.1807 232.613 373.089)" stroke="black"/>
</g>
<path d="M117.586 425.225C117.098 420.156 117.509 415.167 118.821 410.258C120.113 405.267 121.839 400.43 124 395.747C126.244 391.044 128.696 386.464 131.354 382.007C133.992 377.468 136.33 373.137 138.369 369.013C140.469 364.785 142.053 360.777 143.119 356.987C144.269 353.176 144.425 349.615 143.589 346.306C142.648 342.583 140.841 339.959 138.167 338.434C135.494 336.91 132.709 336.513 129.813 337.245C126.587 338.06 124.47 339.959 123.464 342.942C122.457 345.925 122.849 349.39 124.639 353.339C125.721 355.882 126.224 358.219 126.146 360.351C126.152 362.462 125.712 364.378 124.826 366.098C123.919 367.735 122.64 369.115 120.987 370.236C119.417 371.337 117.639 372.139 115.653 372.64C111.765 373.623 108.245 373.28 105.095 371.611C101.924 369.86 99.785 366.792 98.677 362.407C97.8199 359.015 97.8737 355.745 98.8385 352.597C99.8652 349.345 101.617 346.35 104.093 343.612C106.57 340.873 109.7 338.454 113.482 336.355C117.326 334.151 121.688 332.433 126.57 331.199C131.534 329.945 136.354 329.343 141.032 329.393C145.792 329.423 150.15 330.126 154.107 331.502C158.063 332.879 161.463 335.012 164.306 337.903C167.128 340.71 169.092 344.307 170.2 348.691C171.392 353.407 171.299 357.743 169.923 361.7C168.546 365.656 166.434 369.315 163.586 372.675C160.718 375.952 157.404 379.034 153.644 381.92C149.864 384.723 146.228 387.403 142.737 389.957C139.225 392.429 136.085 394.806 133.317 397.09C130.611 399.27 128.878 401.468 128.118 403.685L153.683 397.225C156.33 396.556 158.533 395.867 160.29 395.159C162.109 394.348 163.659 393.516 164.941 392.664C166.201 391.729 167.326 390.785 168.317 389.83C169.37 388.772 170.423 387.714 171.476 386.656C172.033 386.075 172.56 385.722 173.056 385.596C174.38 385.262 175.356 386.336 175.983 388.818L181.533 410.783C182.181 413.348 181.223 414.954 178.658 415.602L124.054 429.4C122.4 429.818 120.95 429.656 119.707 428.914C118.442 428.089 117.735 426.86 117.586 425.225Z" fill="black"/>
<path d="M50.6464 301.378C50.1113 299.26 49.9638 297.305 50.2037 295.512C50.467 293.712 51.0421 292.119 51.9292 290.731C52.8104 289.32 53.96 288.139 55.3779 287.186C56.8132 286.205 58.4499 285.482 60.2881 285.017C62.1031 284.559 63.8636 284.423 65.5695 284.611C67.2929 284.77 68.8774 285.261 70.3231 286.083C71.7629 286.883 73.0143 288.015 74.0774 289.479C75.1637 290.937 75.9744 292.725 76.5095 294.843C76.9857 296.728 77.1444 298.482 76.9855 300.107C76.8499 301.725 76.4549 303.199 75.8005 304.528C75.1402 305.833 74.2438 306.988 73.1112 307.992C72.002 308.99 70.7205 309.797 69.2668 310.412C70.0702 310.456 70.8561 310.48 71.6245 310.484C72.3987 310.511 73.1698 310.428 73.9376 310.234C75.0778 309.946 75.8596 309.513 76.2831 308.936C76.7066 308.358 76.9 307.753 76.8635 307.118C76.7919 306.443 76.9977 306.082 77.4807 306.034C77.7019 306.028 77.9233 306.12 78.145 306.312C78.384 306.474 78.6558 306.913 78.9603 307.628C79.4522 308.791 79.7111 309.914 79.7372 310.996C79.769 312.102 79.6231 313.092 79.2993 313.966C79.0047 314.857 78.538 315.607 77.8993 316.214C77.2897 316.838 76.5776 317.253 75.7632 317.459C74.9721 317.659 74.1805 317.661 73.3883 317.465C72.5962 317.269 71.8038 316.974 71.0112 316.58C70.2186 316.186 69.4374 315.74 68.6678 315.241C67.8982 314.743 67.1404 314.291 66.3943 313.885C65.6482 313.48 64.914 313.17 64.1916 312.956C63.4693 312.743 62.7707 312.721 62.096 312.892C61.491 313.045 60.9911 313.32 60.5962 313.716C60.2014 314.113 60.0628 314.544 60.1804 315.01C60.251 315.289 60.4026 315.399 60.6353 315.34C60.7749 315.305 60.9376 315.214 61.1235 315.068C61.3153 314.946 61.5245 314.794 61.751 314.613C61.9835 314.455 62.2159 314.297 62.4484 314.14C62.7099 313.999 62.9803 313.894 63.2596 313.823C63.5388 313.753 63.8094 313.746 64.0715 313.804C64.3569 313.855 64.6425 314.006 64.9283 314.256C65.3543 314.668 65.6146 315.159 65.7091 315.729C65.8096 316.323 65.7587 316.905 65.5564 317.476C65.3832 318.064 65.0586 318.592 64.5825 319.059C64.1355 319.543 63.5513 319.876 62.83 320.058C62.2715 320.199 61.7186 320.215 61.1712 320.106C60.6529 320.014 60.1692 319.815 59.7203 319.507C59.2772 319.223 58.8862 318.852 58.5474 318.393C58.232 317.928 58.0007 317.405 57.8537 316.823C57.5715 315.706 57.6853 314.687 58.1953 313.766C58.7111 312.868 59.5852 312.115 60.8177 311.507C59.6297 311.312 58.5025 310.965 57.4361 310.468C56.3637 309.946 55.387 309.265 54.5059 308.423C53.6248 307.581 52.851 306.576 52.1845 305.408C51.5412 304.234 51.0285 302.89 50.6464 301.378ZM58.1156 299.491C58.6624 301.655 59.2577 303.423 59.9014 304.795C60.5685 306.161 61.258 307.224 61.9701 307.985C62.6763 308.723 63.4021 309.195 64.1477 309.403C64.9107 309.581 65.6762 309.574 66.444 309.38C67.1886 309.191 67.8426 308.841 68.4059 308.327C68.9866 307.784 69.4125 307.02 69.6836 306.036C69.9489 305.028 70.0388 303.768 69.9535 302.255C69.8915 300.736 69.587 298.894 69.0402 296.73C68.4934 294.566 67.8865 292.801 67.2195 291.435C66.5758 290.063 65.9008 289.008 65.1946 288.27C64.4825 287.51 63.745 287.04 62.982 286.862C62.2364 286.654 61.4913 286.644 60.7467 286.832C59.9789 287.026 59.3046 287.395 58.7239 287.938C58.1605 288.451 57.7463 289.212 57.481 290.22C57.2099 291.204 57.1054 292.456 57.1674 293.975C57.2528 295.488 57.5688 297.327 58.1156 299.491ZM92.8882 301.287C92.1143 303.71 90.5989 305.207 88.3418 305.777C87.2482 306.054 86.2383 306.074 85.3122 305.837C84.3802 305.578 83.5525 305.143 82.8292 304.534C82.1059 303.925 81.4928 303.164 80.9899 302.251C80.4811 301.315 80.0944 300.324 79.8298 299.276L79.0273 296.1C78.8685 295.472 78.6662 294.867 78.4202 294.286C78.1976 293.698 77.754 293.216 77.0894 292.84C76.4367 292.51 76.1709 292.143 76.2921 291.742C76.4307 291.31 77.0904 290.933 78.2713 290.61C78.9169 290.422 79.5536 290.15 80.1814 289.793C80.8265 289.408 81.4159 288.85 81.9496 288.121C82.1526 287.847 82.3558 287.623 82.5591 287.447C82.7565 287.249 82.9483 287.126 83.1344 287.079C83.4137 287.009 83.6759 287.116 83.9211 287.4C84.1663 287.685 84.3859 288.211 84.5799 288.979L86.5201 296.658C86.9905 298.519 87.5468 299.839 88.1891 300.617C88.8546 301.39 89.4899 301.7 90.0948 301.547C90.5137 301.441 90.8389 301.161 91.0706 300.706C91.3256 300.246 91.4989 299.707 91.5904 299.09C91.682 298.472 91.7066 297.835 91.6642 297.177C91.6218 296.52 91.5359 295.935 91.4066 295.423L90.8245 293.119C90.6657 292.491 90.4634 291.886 90.2175 291.305C89.9948 290.717 89.5512 290.235 88.8866 289.859C88.2571 289.523 88.003 289.154 88.1242 288.752C88.2396 288.327 88.8877 287.952 90.0685 287.629C90.7374 287.436 91.3857 287.16 92.0135 286.804C92.6354 286.424 93.2248 285.866 93.7817 285.131C94.1993 284.531 94.5826 284.186 94.9317 284.098C95.2109 284.028 95.4731 284.135 95.7183 284.419C95.9635 284.704 96.1831 285.23 96.3771 285.998L99.1376 296.923C99.2904 297.528 99.5277 298.124 99.8493 298.711C100.171 299.298 100.481 299.789 100.779 300.184C101.275 300.777 101.48 301.245 101.393 301.588C101.33 301.926 101.031 302.163 100.496 302.298L95.3999 303.585C94.8647 303.721 94.3815 303.669 93.9501 303.432C93.5362 303.165 93.2616 302.764 93.1263 302.229L92.8882 301.287ZM107.163 290.847C107.767 292.452 108.532 293.621 109.46 294.352C110.387 295.083 111.526 295.278 112.875 294.937C113.689 294.731 114.448 294.354 115.151 293.805C115.871 293.227 116.347 292.512 116.578 291.662C116.722 291.155 116.922 290.869 117.178 290.805C117.318 290.769 117.446 290.787 117.562 290.856C117.824 290.914 118.014 291.076 118.131 291.344C118.242 291.588 118.275 292.013 118.23 292.618C118.133 293.41 117.9 294.199 117.529 294.986C117.182 295.767 116.706 296.481 116.102 297.129C115.499 297.777 114.802 298.349 114.011 298.846C113.244 299.336 112.384 299.702 111.43 299.943C110.266 300.237 109.082 300.302 107.876 300.136C106.688 299.941 105.573 299.542 104.529 298.939C103.486 298.337 102.561 297.518 101.755 296.484C100.967 295.421 100.393 294.18 100.035 292.76C99.67 291.317 99.5967 289.95 99.8147 288.657C100.033 287.364 100.481 286.199 101.159 285.161C101.855 284.094 102.764 283.184 103.885 282.43C105.007 281.676 106.277 281.12 107.697 280.761C108.79 280.485 109.811 280.363 110.76 280.396C111.733 280.422 112.603 280.586 113.372 280.887C114.159 281.158 114.806 281.564 115.314 282.104C115.845 282.638 116.204 283.278 116.392 284.022C116.592 284.814 116.577 285.585 116.346 286.336C116.115 287.088 115.744 287.776 115.234 288.4C114.723 289.024 114.093 289.567 113.343 290.029C112.611 290.461 111.837 290.78 111.023 290.986C110.371 291.151 109.711 291.231 109.041 291.227C108.395 291.217 107.769 291.09 107.163 290.847ZM109.489 285.061C109.348 284.503 109.178 284.076 108.979 283.779C108.798 283.454 108.614 283.216 108.427 283.065C108.235 282.891 108.048 282.789 107.868 282.76C107.687 282.732 107.539 282.732 107.422 282.762C106.817 282.914 106.426 283.57 106.248 284.729C106.065 285.865 106.211 287.375 106.688 289.26C107.282 289.555 107.824 289.641 108.312 289.517C108.987 289.347 109.417 288.842 109.601 288.004C109.802 287.136 109.765 286.155 109.489 285.061ZM135.978 288.208C136.443 290.046 136.045 291.558 134.785 292.742C133.548 293.921 131.65 294.834 129.09 295.481C128.159 295.716 127.252 295.896 126.367 296.02C125.483 296.145 124.657 296.205 123.888 296.201C123.137 296.168 122.47 296.077 121.888 295.927C121.306 295.777 120.851 295.545 120.524 295.232C120.297 295.017 120.104 294.744 119.946 294.413C119.788 294.081 119.708 293.718 119.707 293.322C119.7 292.903 119.793 292.483 119.984 292.064C120.192 291.615 120.546 291.204 121.046 290.83C121.319 290.637 121.612 290.476 121.926 290.348C122.258 290.19 122.586 290.069 122.912 289.987C123.331 289.881 123.741 289.839 124.143 289.862C124.562 289.855 124.926 289.924 125.235 290.069C125.544 290.213 125.774 290.44 125.926 290.748C126.102 291.05 126.167 291.454 126.121 291.961C126.048 292.747 126.221 293.285 126.641 293.575C127.084 293.859 127.654 293.913 128.352 293.737C129.027 293.566 129.434 293.315 129.573 292.983C129.706 292.627 129.734 292.298 129.658 291.996C129.517 291.437 129.16 291.007 128.589 290.706C128.018 290.405 127.336 290.156 126.544 289.96C125.775 289.759 124.934 289.563 124.019 289.373C123.105 289.183 122.234 288.921 121.407 288.585C120.597 288.22 119.874 287.76 119.238 287.202C118.596 286.622 118.152 285.843 117.905 284.866C117.676 283.958 117.673 283.068 117.898 282.194C118.146 281.314 118.595 280.495 119.245 279.737C119.895 278.979 120.717 278.313 121.711 277.74C122.722 277.138 123.891 276.669 125.218 276.334C126.032 276.128 126.815 275.993 127.565 275.927C128.339 275.855 129.058 275.859 129.722 275.939C130.409 276.013 131.015 276.157 131.539 276.371C132.064 276.585 132.483 276.875 132.799 277.241C133.015 277.508 133.178 277.813 133.29 278.156C133.396 278.476 133.431 278.814 133.397 279.169C133.363 279.524 133.245 279.888 133.042 280.261C132.857 280.605 132.581 280.935 132.215 281.25C131.64 281.717 131.015 282.036 130.34 282.206C129.921 282.312 129.511 282.354 129.109 282.332C128.725 282.28 128.381 282.144 128.078 281.924C127.775 281.703 127.535 281.393 127.36 280.991C127.178 280.567 127.116 280.026 127.172 279.368C127.229 278.809 127.17 278.428 126.995 278.224C126.837 277.992 126.526 277.935 126.06 278.052C125.432 278.211 124.958 278.541 124.639 279.042C124.338 279.515 124.255 280.018 124.39 280.554C124.537 281.135 124.885 281.58 125.432 281.887C126.004 282.188 126.665 282.454 127.416 282.685C128.185 282.887 129.015 283.086 129.906 283.281C130.797 283.477 131.639 283.772 132.432 284.165C133.242 284.53 133.962 285.029 134.592 285.662C135.246 286.289 135.708 287.137 135.978 288.208ZM143.018 272.208L145.845 271.493C146.124 271.423 146.369 271.46 146.579 271.605C146.783 271.727 146.917 271.916 146.982 272.172C147.052 272.451 147.03 272.704 146.914 272.931C146.792 273.135 146.592 273.273 146.312 273.343L143.485 274.058L146.254 285.017C146.443 285.762 146.776 286.247 147.253 286.473C147.725 286.675 148.194 286.718 148.66 286.6C149.148 286.477 149.541 286.266 149.837 285.969C150.115 285.7 150.383 285.583 150.639 285.617C150.895 285.652 151.091 285.788 151.225 286.026C151.354 286.241 151.404 286.538 151.376 286.916C151.348 287.295 151.212 287.688 150.968 288.096C150.754 288.423 150.478 288.752 150.141 289.085C149.799 289.394 149.404 289.692 148.956 289.978C148.526 290.236 148.064 290.464 147.57 290.663C147.081 290.885 146.593 291.058 146.104 291.182C144.429 291.605 143.011 291.481 141.851 290.808C140.691 290.136 139.926 289.067 139.555 287.601L136.574 275.804L134.166 276.412C133.887 276.483 133.645 276.457 133.441 276.336C133.231 276.191 133.091 275.979 133.02 275.699C132.956 275.443 132.973 275.216 133.071 275.018C133.193 274.814 133.379 274.668 133.629 274.58C134.478 274.316 135.205 274.009 135.809 273.658C136.408 273.284 136.907 272.861 137.308 272.388C137.708 271.916 138.018 271.379 138.238 270.779C138.481 270.173 138.663 269.521 138.783 268.822C138.881 268.228 138.996 267.753 139.129 267.398C139.262 267.042 139.401 266.76 139.546 266.55C139.691 266.34 139.83 266.206 139.964 266.147C140.115 266.06 140.249 266.001 140.365 265.972C141.04 265.801 141.454 266.018 141.607 266.623L143.018 272.208ZM146.705 266.709C146.57 266.174 146.548 265.647 146.64 265.129C146.732 264.61 146.923 264.141 147.213 263.721C147.497 263.278 147.86 262.902 148.302 262.592C148.761 262.254 149.269 262.014 149.828 261.873C150.409 261.726 150.971 261.695 151.513 261.781C152.072 261.838 152.57 261.997 153.007 262.257C153.462 262.489 153.852 262.811 154.179 263.224C154.506 263.636 154.737 264.11 154.873 264.645C155.002 265.157 155.021 265.672 154.929 266.19C154.837 266.709 154.649 267.189 154.365 267.632C154.098 268.046 153.736 268.423 153.277 268.762C152.835 269.071 152.323 269.299 151.742 269.446C151.183 269.588 150.624 269.63 150.065 269.573C149.524 269.487 149.026 269.328 148.571 269.096C148.111 268.842 147.717 268.508 147.39 268.095C147.063 267.683 146.835 267.221 146.705 266.709ZM159.404 281.695C159.556 282.3 159.782 282.899 160.08 283.492C160.402 284.079 160.723 284.567 161.045 284.956C161.518 285.554 161.722 286.022 161.659 286.36C161.596 286.698 161.297 286.934 160.762 287.07L153.851 288.816C153.316 288.951 152.929 288.888 152.689 288.627C152.473 288.36 152.443 287.847 152.598 287.09C152.672 286.601 152.712 286.022 152.716 285.352C152.72 284.683 152.646 284.046 152.493 283.441L151.091 277.891C150.932 277.263 150.729 276.658 150.483 276.077C150.261 275.489 149.817 275.007 149.153 274.631C148.523 274.295 148.269 273.926 148.39 273.524C148.506 273.098 149.154 272.724 150.335 272.401C150.98 272.213 151.617 271.941 152.245 271.584C152.89 271.199 153.479 270.641 154.013 269.912C154.216 269.638 154.419 269.414 154.622 269.238C154.82 269.04 155.012 268.917 155.198 268.87C155.477 268.8 155.739 268.907 155.984 269.191C156.23 269.476 156.449 270.002 156.643 270.77L159.404 281.695ZM160.265 277.541C159.901 276.098 159.828 274.731 160.046 273.438C160.263 272.145 160.7 270.983 161.355 269.951C162.028 268.89 162.901 267.988 163.976 267.246C165.051 266.504 166.264 265.963 167.613 265.622C168.963 265.281 170.275 265.184 171.55 265.332C172.849 265.475 174.034 265.856 175.107 266.476C176.197 267.067 177.145 267.879 177.951 268.913C178.757 269.948 179.342 271.186 179.706 272.629C180.065 274.048 180.138 275.416 179.926 276.732C179.708 278.025 179.26 279.19 178.582 280.228C177.927 281.26 177.064 282.158 175.995 282.923C174.944 283.659 173.743 284.198 172.393 284.539C171.044 284.88 169.72 284.979 168.421 284.837C167.117 284.672 165.92 284.293 164.83 283.702C163.763 283.106 162.827 282.29 162.021 281.256C161.209 280.199 160.624 278.96 160.265 277.541ZM167.342 275.716C167.765 277.391 168.176 278.723 168.574 279.712C168.967 280.677 169.347 281.398 169.715 281.874C170.083 282.35 170.453 282.641 170.826 282.744C171.193 282.825 171.562 282.818 171.935 282.724C172.307 282.63 172.624 282.463 172.885 282.224C173.164 281.956 173.352 281.524 173.45 280.93C173.547 280.336 173.539 279.521 173.426 278.486C173.307 277.427 173.036 276.059 172.612 274.384C172.189 272.709 171.781 271.388 171.389 270.423C170.996 269.458 170.616 268.737 170.248 268.261C169.88 267.784 169.513 267.506 169.146 267.425C168.802 267.339 168.444 267.343 168.072 267.437C167.7 267.531 167.371 267.7 167.087 267.945C166.802 268.191 166.611 268.61 166.513 269.204C166.416 269.798 166.424 270.613 166.537 271.649C166.65 272.685 166.919 274.04 167.342 275.716ZM186.903 264.089C187.677 261.666 189.192 260.169 191.449 259.599C192.543 259.322 193.553 259.302 194.479 259.539C195.405 259.775 196.232 260.21 196.962 260.842C197.685 261.452 198.298 262.213 198.801 263.125C199.304 264.038 199.688 265.018 199.952 266.065L201.231 271.126C201.384 271.731 201.621 272.327 201.943 272.914C202.264 273.501 202.574 273.992 202.872 274.387C203.368 274.979 203.573 275.448 203.487 275.791C203.424 276.129 203.124 276.365 202.589 276.501L195.678 278.247C195.143 278.382 194.768 278.316 194.552 278.049C194.336 277.782 194.305 277.27 194.46 276.512C194.535 276.023 194.562 275.447 194.543 274.783C194.547 274.114 194.473 273.477 194.32 272.872L193.262 268.684C192.797 266.845 192.232 265.54 191.567 264.767C190.925 263.989 190.301 263.676 189.696 263.829C189.277 263.935 188.94 264.218 188.685 264.679C188.454 265.133 188.292 265.669 188.2 266.286C188.103 266.88 188.075 267.506 188.118 268.164C188.16 268.822 188.246 269.406 188.375 269.918L189.434 274.107C189.587 274.712 189.812 275.311 190.111 275.904C190.432 276.491 190.754 276.979 191.075 277.368C191.548 277.966 191.753 278.434 191.69 278.772C191.626 279.11 191.327 279.346 190.792 279.482L183.881 281.228C183.346 281.363 182.959 281.3 182.719 281.039C182.503 280.771 182.473 280.259 182.628 279.502C182.703 279.013 182.742 278.434 182.746 277.764C182.75 277.095 182.676 276.458 182.523 275.853L181.121 270.303C180.962 269.675 180.76 269.07 180.514 268.489C180.291 267.901 179.847 267.419 179.183 267.043C178.553 266.707 178.299 266.338 178.42 265.936C178.536 265.51 179.184 265.136 180.365 264.813C181.01 264.625 181.647 264.353 182.275 263.996C182.92 263.61 183.509 263.053 184.043 262.324C184.246 262.05 184.449 261.825 184.653 261.65C184.85 261.452 185.042 261.329 185.228 261.282C185.507 261.212 185.769 261.319 186.015 261.603C186.26 261.888 186.479 262.414 186.673 263.182L186.903 264.089Z" fill="#0169A2"/>
</g>
<g clip-path="url(#clip2_2008_2227)">
<rect x="320.48" y="-27.2988" width="240" height="240" rx="24" transform="rotate(5.68609 320.48 -27.2988)" fill="#64EDAB"/>
<path opacity="0.4" d="M339.869 141.334L461.935 -49.3926L413.103 84.0729L516.68 61.1872L374.711 255.465L436.044 121.4L339.869 141.334Z" stroke="black"/>
<path d="M409.253 111.644C409.464 109.521 410.653 108.353 412.818 108.14C415.772 107.748 418.332 107.017 420.497 105.946C422.67 104.79 424.478 103.427 425.921 101.855C427.372 100.199 428.454 98.3773 429.166 96.3901C429.972 94.3264 430.476 92.2756 430.679 90.2377C430.874 88.2847 430.805 86.3912 430.473 84.5573C430.226 82.7319 429.746 81.0976 429.032 79.6544C428.318 78.2112 427.366 77.0017 426.177 76.0257C424.988 75.0498 423.544 74.4772 421.846 74.3081C418.874 74.0122 416.408 75.0959 414.448 77.5591C412.572 80.0308 411.805 83.4275 412.147 87.7493C412.301 90.5088 411.979 92.8779 411.182 94.8566C410.469 96.8438 409.404 98.4958 407.987 99.8125C406.578 101.044 404.906 101.907 402.97 102.4C401.119 102.902 399.175 103.051 397.137 102.848C393.146 102.451 389.953 100.933 387.557 98.2929C385.17 95.5683 384.2 91.9558 384.648 87.4554C384.995 83.9739 386.157 80.9167 388.134 78.2836C390.205 75.5741 392.87 73.3526 396.13 71.619C399.475 69.8939 403.367 68.695 407.808 68.0223C412.257 67.2647 417.071 67.1438 422.251 67.6595C427.091 68.1414 431.541 69.099 435.6 70.5323C439.753 71.889 443.26 73.6961 446.123 75.9535C449.078 78.1344 451.266 80.7105 452.685 83.6817C454.198 86.5765 454.777 89.8071 454.421 93.3735C454.176 95.8359 453.472 98.167 452.31 100.367C451.233 102.575 449.709 104.524 447.74 106.215C445.78 107.82 443.381 109.082 440.546 110C437.795 110.927 434.666 111.345 431.16 111.253C435.117 111.99 438.509 113.228 441.338 114.967C444.251 116.715 446.578 118.748 448.32 121.065C450.146 123.391 451.391 125.959 452.055 128.769C452.803 131.588 453.025 134.526 452.721 137.582C452.29 141.913 450.958 145.811 448.727 149.276C446.503 152.657 443.567 155.451 439.917 157.661C436.351 159.878 432.162 161.476 427.348 162.455C422.619 163.442 417.452 163.656 411.848 163.098C406.923 162.608 402.392 161.6 398.257 160.073C394.214 158.47 390.766 156.497 387.912 154.155C385.058 151.813 382.883 149.109 381.388 146.045C379.977 142.988 379.445 139.72 379.791 136.238C380.231 131.823 381.889 128.515 384.767 126.314C387.644 124.114 391.079 123.212 395.07 123.61C397.108 123.813 398.98 124.385 400.687 125.327C402.488 126.192 403.957 127.367 405.095 128.853C406.234 130.338 406.956 132.125 407.263 134.214C407.654 136.311 407.503 138.697 406.808 141.372C405.612 145.627 405.69 149.15 407.041 151.943C408.477 154.745 410.682 156.293 413.654 156.589C415.352 156.758 416.923 156.486 418.366 155.772C419.902 154.982 421.256 153.873 422.427 152.446C423.683 151.028 424.71 149.329 425.507 147.35C426.313 145.287 426.834 143.066 427.071 140.688C427.189 139.5 427.193 137.742 427.081 135.416C427.055 133.097 426.57 130.648 425.626 128.067C424.776 125.41 423.306 122.948 421.216 120.682C419.135 118.331 416.133 116.617 412.209 115.54C411.292 115.277 410.524 114.815 409.904 114.153C409.377 113.414 409.16 112.578 409.253 111.644Z" fill="black"/>
<path d="M359.264 13.6412C359.48 11.468 360.006 9.57877 360.841 7.97362C361.7 6.37084 362.783 5.06768 364.088 4.06412C365.397 3.03668 366.879 2.31604 368.536 1.90219C370.22 1.46684 372.005 1.34309 373.892 1.53094C375.754 1.71641 377.456 2.18733 378.997 2.9437C380.564 3.67856 381.887 4.6786 382.967 5.94383C384.049 7.18517 384.842 8.675 385.344 10.4133C385.87 12.154 386.025 14.111 385.809 16.2842C385.616 18.2187 385.169 19.9228 384.467 21.3965C383.79 22.8726 382.917 24.1244 381.85 25.1517C380.786 26.1552 379.55 26.9366 378.144 27.496C376.761 28.0578 375.282 28.3808 373.706 28.4651C374.447 28.78 375.177 29.0698 375.899 29.3346C376.618 29.6233 377.371 29.8068 378.159 29.8853C379.33 30.0018 380.212 29.8605 380.806 29.4615C381.401 29.0624 381.789 28.5583 381.97 27.9493C382.132 27.2901 382.448 27.0201 382.919 27.1393C383.129 27.2085 383.306 27.3708 383.449 27.6263C383.619 27.8602 383.725 28.3653 383.769 29.1414C383.836 30.4023 383.698 31.5462 383.355 32.5733C383.009 33.6242 382.535 34.5056 381.934 35.2175C381.354 35.9556 380.66 36.5016 379.853 36.8554C379.068 37.2354 378.257 37.3838 377.421 37.3006C376.609 37.2198 375.864 36.9526 375.185 36.4992C374.507 36.0457 373.862 35.4991 373.25 34.8594C372.639 34.2196 372.056 33.5345 371.501 32.804C370.947 32.0735 370.388 31.3907 369.824 30.7557C369.26 30.1207 368.675 29.5801 368.068 29.1338C367.461 28.6875 366.812 28.4298 366.119 28.3609C365.498 28.299 364.935 28.3876 364.428 28.6267C363.922 28.8657 363.645 29.224 363.598 29.7017C363.569 29.9882 363.674 30.1434 363.913 30.1672C364.057 30.1815 364.24 30.1515 364.465 30.0774C364.687 30.0272 364.935 29.9554 365.21 29.8622C365.482 29.7928 365.754 29.7234 366.027 29.6541C366.32 29.6109 366.61 29.6037 366.897 29.6322C367.184 29.6607 367.44 29.7466 367.667 29.8898C367.918 30.0353 368.135 30.2741 368.319 30.6059C368.58 31.1384 368.658 31.6888 368.553 32.2572C368.446 32.8495 368.2 33.3797 367.816 33.848C367.453 34.3425 366.968 34.7283 366.362 35.0056C365.777 35.3092 365.114 35.4241 364.374 35.3504C363.801 35.2933 363.275 35.1204 362.798 34.8316C362.341 34.5691 361.954 34.2171 361.637 33.7754C361.316 33.3576 361.075 32.8753 360.912 32.3285C360.774 31.7841 360.734 31.2134 360.793 30.6163C360.908 29.47 361.361 28.5504 362.153 27.8575C362.944 27.1885 364.022 26.7773 365.388 26.6238C364.337 26.0368 363.394 25.328 362.56 24.4973C361.729 23.6427 361.042 22.6698 360.499 21.5787C359.957 20.4876 359.571 19.2794 359.341 17.9541C359.135 16.6312 359.109 15.1936 359.264 13.6412ZM366.93 14.4045C366.709 16.6255 366.668 18.4907 366.807 19.9999C366.97 21.5115 367.257 22.746 367.668 23.7034C368.082 24.637 368.604 25.3281 369.234 25.7768C369.891 26.204 370.614 26.4568 371.402 26.5353C372.166 26.6114 372.9 26.5036 373.605 26.212C374.335 25.8988 374.996 25.3254 375.585 24.4917C376.177 23.6341 376.69 22.4793 377.124 21.0271C377.582 19.5773 377.921 17.742 378.142 15.5209C378.364 13.2999 378.393 11.4336 378.23 9.92202C378.09 8.41281 377.814 7.19142 377.401 6.25786C376.989 5.30041 376.455 4.60809 375.798 4.1809C375.168 3.73221 374.47 3.46982 373.706 3.39373C372.918 3.31526 372.159 3.4326 371.428 3.74575C370.724 4.0374 370.076 4.61201 369.484 5.46959C368.894 6.30329 368.37 7.44502 367.913 8.89478C367.479 10.3469 367.151 12.1835 366.93 14.4045ZM399.023 27.9107C397.471 29.9269 395.537 30.8197 393.221 30.589C392.098 30.4772 391.142 30.1529 390.351 29.6159C389.563 29.055 388.932 28.3651 388.459 27.5462C387.986 26.7273 387.668 25.8033 387.505 24.7741C387.344 23.721 387.318 22.6571 387.425 21.5824L387.749 18.3225C387.813 17.6777 387.829 17.0401 387.795 16.4097C387.785 15.7816 387.532 15.1775 387.035 14.5974C386.533 14.0651 386.407 13.6305 386.658 13.2937C386.935 12.9354 387.683 12.8049 388.904 12.9023C389.575 12.945 390.266 12.9053 390.978 12.7832C391.716 12.6396 392.459 12.3157 393.209 11.8115C393.493 11.6227 393.761 11.4805 394.011 11.3848C394.264 11.2653 394.486 11.2151 394.677 11.2341C394.964 11.2626 395.174 11.4524 395.308 11.8034C395.442 12.1544 395.47 12.7239 395.391 13.512L394.607 21.3931C394.416 23.3036 394.491 24.7341 394.831 25.6844C395.194 26.6371 395.686 27.1443 396.307 27.2062C396.737 27.249 397.138 27.0959 397.51 26.7471C397.907 26.4007 398.253 25.9528 398.549 25.4034C398.845 24.854 399.084 24.2628 399.268 23.6299C399.452 22.997 399.57 22.4178 399.622 21.8924L399.857 19.5281C399.921 18.8833 399.937 18.2457 399.903 17.6152C399.893 16.9872 399.64 16.3831 399.143 15.803C398.665 15.2731 398.551 14.8397 398.802 14.5028C399.055 14.1421 399.792 14.0105 401.012 14.1079C401.707 14.1529 402.41 14.1144 403.122 13.9923C403.836 13.8463 404.579 13.5224 405.353 13.0206C405.95 12.5977 406.427 12.404 406.786 12.4397C407.072 12.4682 407.282 12.658 407.416 13.009C407.55 13.36 407.578 13.9295 407.499 14.7176L406.383 25.9302C406.321 26.5511 406.342 27.1923 406.445 27.8538C406.548 28.5152 406.672 29.0823 406.818 29.5551C407.083 30.281 407.117 30.7908 406.919 31.0846C406.745 31.3808 406.383 31.5016 405.834 31.4469L400.604 30.9262C400.054 30.8715 399.617 30.6591 399.292 30.2891C398.994 29.8976 398.872 29.4272 398.926 28.8779L399.023 27.9107ZM415.996 22.9439C416.018 24.6585 416.341 26.0172 416.965 27.0199C417.588 28.0227 418.593 28.593 419.978 28.7309C420.814 28.8141 421.655 28.7171 422.503 28.4397C423.377 28.1408 424.067 27.6306 424.573 26.9092C424.881 26.4816 425.166 26.2809 425.429 26.3071C425.572 26.3213 425.687 26.381 425.773 26.486C426 26.6292 426.123 26.8465 426.142 27.1378C426.164 27.4053 426.05 27.8161 425.802 28.3702C425.442 29.082 424.954 29.7449 424.338 30.3589C423.746 30.9753 423.056 31.4855 422.268 31.8894C421.48 32.2933 420.63 32.5946 419.718 32.7932C418.83 32.9941 417.896 33.0459 416.917 32.9484C415.723 32.8295 414.587 32.4873 413.51 31.9218C412.459 31.3348 411.545 30.5805 410.769 29.659C409.992 28.7376 409.401 27.6536 408.994 26.4072C408.614 25.1393 408.496 23.777 408.641 22.3202C408.789 20.8395 409.185 19.5283 409.829 18.3865C410.473 17.2447 411.291 16.301 412.281 15.5555C413.298 14.7885 414.462 14.2412 415.773 13.9134C417.084 13.5857 418.468 13.4944 419.925 13.6394C421.047 13.7512 422.049 13.9836 422.931 14.3366C423.836 14.6921 424.599 15.1419 425.22 15.6861C425.868 16.2088 426.338 16.8104 426.632 17.4909C426.95 18.1738 427.071 18.8973 426.995 19.6615C426.914 20.4735 426.637 21.1936 426.165 21.8219C425.692 22.4502 425.11 22.971 424.417 23.3845C423.725 23.7979 422.948 24.0944 422.086 24.2738C421.25 24.4318 420.414 24.4692 419.578 24.386C418.91 24.3194 418.261 24.1704 417.633 23.939C417.029 23.71 416.483 23.3783 415.996 22.9439ZM420.149 18.2925C420.206 17.7193 420.191 17.2596 420.105 16.9134C420.045 16.5457 419.953 16.2591 419.829 16.0538C419.707 15.8246 419.566 15.6659 419.406 15.5776C419.246 15.4893 419.107 15.4392 418.987 15.4273C418.366 15.3655 417.775 15.8493 417.215 16.8788C416.656 17.8844 416.281 19.3545 416.088 21.2889C416.547 21.7687 417.027 22.0336 417.528 22.0835C418.221 22.1525 418.796 21.8239 419.255 21.0977C419.739 20.35 420.037 19.415 420.149 18.2925ZM443.993 30.2538C443.805 32.1404 442.917 33.4268 441.329 34.1129C439.766 34.8013 437.67 35.0147 435.043 34.7532C434.088 34.6581 433.173 34.5188 432.299 34.3352C431.425 34.1517 430.627 33.9276 429.906 33.6628C429.211 33.3766 428.615 33.064 428.118 32.7251C427.621 32.3862 427.272 32.0138 427.071 31.6079C426.93 31.3285 426.842 31.0062 426.806 30.6408C426.77 30.2755 426.819 29.9065 426.952 29.5339C427.088 29.1374 427.317 28.7743 427.64 28.4446C427.988 28.0934 428.461 27.827 429.058 27.6452C429.38 27.5567 429.711 27.5052 430.05 27.4907C430.415 27.4548 430.765 27.4534 431.1 27.4867C431.529 27.5295 431.93 27.6296 432.3 27.7871C432.696 27.9231 433.015 28.1116 433.256 28.3527C433.498 28.5938 433.638 28.885 433.676 29.2265C433.738 29.5704 433.662 29.9728 433.447 30.4338C433.111 31.148 433.091 31.7128 433.387 32.1282C433.707 32.546 434.225 32.7905 434.942 32.8619C435.635 32.9308 436.103 32.8327 436.346 32.5675C436.592 32.2785 436.73 31.9787 436.761 31.6682C436.818 31.0951 436.629 30.5698 436.194 30.0923C435.76 29.6149 435.203 29.1495 434.525 28.696C433.87 28.2449 433.145 27.7748 432.35 27.2856C431.554 26.7964 430.824 26.2534 430.16 25.6566C429.522 25.0384 428.999 24.3592 428.59 23.6191C428.184 22.8551 428.031 21.9715 428.131 20.9685C428.224 20.0371 428.524 19.1988 429.032 18.4535C429.565 17.7105 430.265 17.0929 431.134 16.6006C432.003 16.1083 433.003 15.7616 434.132 15.5605C435.288 15.3379 436.546 15.2944 437.908 15.4299C438.744 15.5131 439.526 15.6513 440.254 15.8444C441.006 16.0399 441.681 16.288 442.278 16.5887C442.899 16.8917 443.42 17.233 443.841 17.6125C444.261 17.992 444.557 18.4074 444.729 18.8587C444.842 19.1834 444.892 19.5261 444.88 19.8867C444.871 20.2234 444.79 20.553 444.637 20.8755C444.485 21.1979 444.249 21.5001 443.932 21.7821C443.641 22.0425 443.269 22.2588 442.818 22.4309C442.119 22.6748 441.422 22.7622 440.73 22.6933C440.3 22.6505 439.9 22.5504 439.53 22.3929C439.186 22.2139 438.909 21.9693 438.698 21.6589C438.488 21.3486 438.369 20.9749 438.34 20.5379C438.313 20.077 438.438 19.5468 438.715 18.9472C438.958 18.4409 439.032 18.0623 438.937 17.8116C438.867 17.5394 438.594 17.3795 438.116 17.3319C437.471 17.2677 436.914 17.4172 436.444 17.7804C436 18.1221 435.75 18.5676 435.695 19.1169C435.636 19.7139 435.812 20.25 436.223 20.725C436.658 21.2025 437.189 21.6775 437.817 22.15C438.472 22.6011 439.185 23.0701 439.957 23.5569C440.728 24.0437 441.42 24.607 442.031 25.2468C442.669 25.865 443.177 26.5789 443.555 27.3883C443.956 28.2 444.102 29.1552 443.993 30.2538ZM456.051 17.5982L458.952 17.8871C459.239 17.9156 459.456 18.0337 459.604 18.2414C459.755 18.4253 459.817 18.6485 459.791 18.9112C459.762 19.1978 459.655 19.4283 459.469 19.6027C459.285 19.7532 459.05 19.8142 458.763 19.7857L455.862 19.4968L454.742 30.7452C454.666 31.5094 454.814 32.0789 455.187 32.4536C455.562 32.8045 455.988 33.0038 456.466 33.0513C456.967 33.1013 457.408 33.0366 457.787 32.8573C458.141 32.6996 458.432 32.6803 458.661 32.7996C458.891 32.9189 459.028 33.1135 459.074 33.3833C459.121 33.6293 459.068 33.9254 458.913 34.2718C458.758 34.6181 458.496 34.9418 458.129 35.2429C457.816 35.477 457.445 35.6933 457.015 35.8917C456.588 36.0662 456.115 36.2121 455.597 36.3293C455.105 36.4251 454.592 36.4826 454.06 36.5019C453.525 36.5452 453.007 36.5418 452.505 36.4919C450.786 36.3207 449.495 35.7218 448.632 34.6953C447.77 33.6688 447.413 32.4032 447.563 30.8987L448.769 18.7906L446.297 18.5444C446.01 18.5159 445.792 18.4097 445.641 18.2259C445.493 18.0182 445.433 17.7711 445.462 17.4845C445.488 17.2218 445.581 17.014 445.741 16.8611C445.925 16.7105 446.149 16.6364 446.414 16.6387C447.303 16.6789 448.091 16.6368 448.778 16.5123C449.469 16.364 450.082 16.1356 450.619 15.8273C451.157 15.519 451.63 15.12 452.041 14.6303C452.475 14.1429 452.868 13.5911 453.219 12.9748C453.512 12.4493 453.782 12.0421 454.028 11.753C454.274 11.4639 454.5 11.2453 454.708 11.0972C454.916 10.949 455.093 10.8701 455.238 10.8605C455.41 10.8294 455.556 10.8198 455.675 10.8317C456.368 10.9006 456.683 11.2456 456.621 11.8665L456.051 17.5982ZM461.388 13.6797C461.442 13.1304 461.601 12.6276 461.863 12.1714C462.126 11.7151 462.465 11.3389 462.88 11.0426C463.298 10.7224 463.767 10.4917 464.288 10.3506C464.835 10.188 465.395 10.1352 465.968 10.1923C466.565 10.2517 467.103 10.4139 467.583 10.6788C468.09 10.9221 468.504 11.2408 468.827 11.6347C469.176 12.0071 469.434 12.4428 469.601 12.9418C469.769 13.4408 469.825 13.965 469.77 14.5143C469.718 15.0397 469.56 15.5305 469.298 15.9868C469.035 16.443 468.695 16.8312 468.278 17.1514C467.886 17.4501 467.417 17.6807 466.87 17.8433C466.35 17.9845 465.791 18.0253 465.194 17.9658C464.621 17.9088 464.081 17.7586 463.574 17.5152C463.094 17.2503 462.68 16.9317 462.331 16.5593C461.985 16.163 461.728 15.7154 461.56 15.2163C461.393 14.7173 461.335 14.2051 461.388 13.6797ZM468.237 32.0889C468.176 32.7098 468.184 33.3498 468.263 34.0089C468.366 34.6704 468.503 35.2387 468.672 35.7138C468.914 36.4373 468.948 36.9472 468.773 37.2434C468.599 37.5396 468.237 37.6603 467.688 37.6056L460.595 36.8994C460.046 36.8447 459.703 36.6538 459.567 36.3267C459.454 36.002 459.6 35.51 460.003 34.8507C460.239 34.4159 460.473 33.8845 460.705 33.2563C460.936 32.6282 461.083 32.0036 461.144 31.3827L461.712 25.6868C461.776 25.042 461.791 24.4044 461.757 23.774C461.747 23.1459 461.494 22.5418 460.997 21.9617C460.519 21.4318 460.406 20.9984 460.656 20.6616C460.909 20.3008 461.646 20.1692 462.866 20.2666C463.537 20.3093 464.229 20.2696 464.94 20.1475C465.678 20.0039 466.422 19.68 467.172 19.1758C467.456 18.987 467.723 18.8448 467.974 18.7491C468.227 18.6296 468.449 18.5794 468.64 18.5984C468.927 18.6269 469.137 18.8167 469.271 19.1677C469.405 19.5187 469.432 20.0882 469.354 20.8763L468.237 32.0889ZM470.459 28.4753C470.607 26.9946 471.003 25.6834 471.647 24.5416C472.291 23.3998 473.097 22.455 474.064 21.7071C475.057 20.9377 476.185 20.3868 477.448 20.0543C478.711 19.7218 480.036 19.6245 481.421 19.7624C482.806 19.9003 484.073 20.2556 485.222 20.8283C486.395 21.4033 487.38 22.1647 488.178 23.1124C489.002 24.0386 489.618 25.125 490.024 26.3714C490.431 27.6178 490.56 28.9813 490.413 30.462C490.268 31.9188 489.872 33.23 489.225 34.3957C488.581 35.5375 487.763 36.4811 486.773 37.2266C485.806 37.9745 484.69 38.5266 483.424 38.883C482.185 39.2179 480.873 39.3163 479.487 39.1784C478.102 39.0405 476.823 38.684 475.651 38.109C474.48 37.5101 473.483 36.7475 472.658 35.8213C471.858 34.8975 471.255 33.8123 470.848 32.5659C470.444 31.2956 470.314 29.9321 470.459 28.4753ZM477.735 29.1635C477.564 30.883 477.498 32.2753 477.536 33.3404C477.577 34.3816 477.69 35.1887 477.874 35.7618C478.058 36.3348 478.308 36.7335 478.623 36.9579C478.941 37.1583 479.291 37.2776 479.673 37.3156C480.055 37.3537 480.41 37.3046 480.737 37.1683C481.09 37.0105 481.414 36.6689 481.707 36.1434C482.001 35.6179 482.27 34.8488 482.516 33.8362C482.764 32.7996 482.973 31.4216 483.144 29.7021C483.316 27.9826 483.381 26.6023 483.34 25.5611C483.299 24.5199 483.186 23.7128 483.002 23.1397C482.818 22.5666 482.567 22.1799 482.249 21.9794C481.955 21.7813 481.617 21.6633 481.235 21.6252C480.853 21.5872 480.487 21.6351 480.136 21.769C479.785 21.9029 479.462 22.2326 479.169 22.7581C478.875 23.2836 478.606 24.0526 478.36 25.0653C478.115 26.078 477.906 27.444 477.735 29.1635ZM500.083 24.8766C501.634 22.8604 503.568 21.9676 505.885 22.1983C507.007 22.31 507.964 22.6344 508.754 23.1714C509.545 23.7084 510.176 24.3982 510.647 25.241C511.12 26.0599 511.438 26.984 511.601 28.0132C511.763 29.0424 511.791 30.0943 511.684 31.169L511.167 36.3633C511.105 36.9843 511.126 37.6255 511.229 38.2869C511.332 38.9484 511.456 39.5155 511.602 39.9883C511.868 40.7141 511.901 41.224 511.703 41.5178C511.529 41.814 511.167 41.9348 510.618 41.8801L503.525 41.1738C502.976 41.1191 502.645 40.9294 502.532 40.6047C502.42 40.28 502.566 39.788 502.969 39.1287C503.205 38.6939 503.427 38.1613 503.634 37.5308C503.866 36.9026 504.012 36.278 504.074 35.6571L504.502 31.3584C504.69 29.4717 504.602 28.052 504.239 27.0993C503.899 26.149 503.419 25.6429 502.798 25.5811C502.368 25.5383 501.955 25.6901 501.559 26.0366C501.187 26.3854 500.853 26.8345 500.557 27.3839C500.263 27.9094 500.025 28.4886 499.841 29.1215C499.657 29.7544 499.539 30.3336 499.487 30.859L499.059 35.1578C498.997 35.7787 499.006 36.4187 499.085 37.0778C499.188 37.7392 499.324 38.3075 499.494 38.7827C499.736 39.5062 499.769 40.016 499.595 40.3122C499.421 40.6084 499.059 40.7292 498.51 40.6745L491.417 39.9682C490.868 39.9136 490.525 39.7227 490.388 39.3955C490.276 39.0708 490.422 38.5788 490.825 37.9195C491.061 37.4848 491.295 36.9533 491.526 36.3252C491.758 35.697 491.904 35.0725 491.966 34.4515L492.533 28.7557C492.597 28.1109 492.613 27.4733 492.579 26.8428C492.569 26.2147 492.316 25.6107 491.819 25.0306C491.341 24.5006 491.227 24.0672 491.478 23.7304C491.731 23.3697 492.468 23.238 493.688 23.3354C494.359 23.3781 495.05 23.3384 495.762 23.2163C496.5 23.0727 497.244 22.7488 497.993 22.2446C498.277 22.0558 498.545 21.9136 498.795 21.818C499.049 21.6985 499.271 21.6482 499.462 21.6673C499.748 21.6958 499.958 21.8856 500.092 22.2366C500.226 22.5875 500.254 23.1571 500.175 23.9452L500.083 24.8766Z" fill="#119254"/>
</g>
<g clip-path="url(#clip3_2008_2227)">
<rect x="329.213" y="240.011" width="240" height="240" rx="24" transform="rotate(9.40078 329.213 240.011)" fill="#FFA68F"/>
<path d="M381.526 392.354C381.805 390.67 382.435 388.958 383.415 387.217C384.395 385.476 385.459 384.009 386.609 382.816L424.406 347.296C425.639 346.117 427.125 345.238 428.864 344.661C430.687 344.098 432.441 343.956 434.124 344.235L444.606 345.97C446.29 346.249 447.553 346.977 448.396 348.154C449.239 349.332 449.521 350.763 449.242 352.446L441.925 396.645L444.829 397.125C446.513 397.404 447.734 398.125 448.493 399.289C449.336 400.466 449.618 401.897 449.339 403.581L447.478 414.82C447.2 416.504 446.472 417.767 445.294 418.61C444.201 419.467 442.812 419.756 441.128 419.477L438.224 418.996L438.14 419.501C437.778 421.69 437.661 423.963 437.79 426.32C438.003 428.69 438.356 430.738 438.849 432.463C439.539 435.086 439.541 436.903 438.855 437.913C438.168 438.924 436.857 439.269 434.921 438.949L408.654 434.6C406.718 434.279 405.546 433.523 405.138 432.331C404.814 431.153 405.443 429.441 407.026 427.195C407.964 425.706 408.916 423.875 409.882 421.699C410.848 419.524 411.512 417.342 411.874 415.153L411.958 414.648L384.302 410.069C382.618 409.79 381.355 409.062 380.512 407.884C379.669 406.707 379.387 405.276 379.666 403.593L381.526 392.354ZM415.658 392.296L420.99 360.094L391.033 388.219L415.658 392.296Z" fill="black"/>
<path opacity="0.3" d="M451.951 367.638L452.223 368.039L452.272 368.006L452.312 367.961L451.951 367.638ZM388.701 410.51L388.455 410.928L388.719 411.084L388.973 410.912L388.701 410.51ZM466.803 360.816L466.867 361.297L466.986 361.281L467.084 361.212L466.803 360.816ZM518.317 324.276L518.598 324.671L518.687 324.608L518.74 324.513L518.317 324.276ZM523.877 320.507L524.115 320.084L524.115 320.084L523.877 320.507ZM544.659 306.719L544.366 306.333L544.659 306.719ZM557.24 297.893L557.331 297.416L557.331 297.416L557.24 297.893ZM560.255 302.341L560.678 302.578L560.678 302.578L560.255 302.341ZM478.357 361.1L478.634 361.498L478.634 361.498L478.357 361.1ZM394.521 419.53L394.243 419.132L394.125 419.214L394.071 419.348L394.521 419.53ZM376.442 433.428L376.465 432.943L376.303 432.936L376.17 433.026L376.442 433.428ZM349.752 451.519L349.48 451.118L349.458 451.133L349.437 451.15L349.752 451.519ZM337.519 459.811L337.455 459.33L337.455 459.33L337.519 459.811ZM331.6 465.446L331.927 465.805L331.985 465.752L332.023 465.683L331.6 465.446ZM322.704 471.476L322.612 471.953L322.612 471.953L322.704 471.476ZM307.172 486.873L306.877 487.258L306.877 487.258L307.172 486.873ZM297.41 477.26L297.008 477.532L297.028 477.561L297.051 477.586L297.41 477.26ZM308.456 460.034L308.56 460.508L308.456 460.034ZM316.637 457.736L316.364 457.335L316.701 458.217L316.637 457.736ZM346.663 437.384L346.935 437.785L346.991 437.747L347.035 437.695L346.663 437.384ZM357.03 428.734L356.898 428.267L357.03 428.734ZM371.486 418.934L371.797 419.307L371.844 419.268L371.88 419.219L371.486 418.934ZM383.324 407.665L383.561 407.242L383.561 407.242L383.324 407.665ZM384.89 408.476L384.672 408.909L384.672 408.909L384.89 408.476ZM451.678 367.236L388.429 410.109L388.973 410.912L452.223 368.039L451.678 367.236ZM460.495 360.223C460.37 360.039 460.184 359.943 459.994 359.918C459.823 359.895 459.658 359.928 459.523 359.972C459.252 360.059 458.948 360.236 458.638 360.449C458.007 360.884 457.217 361.567 456.387 362.347C454.721 363.913 452.826 365.933 451.589 367.314L452.312 367.961C453.539 366.591 455.413 364.594 457.052 363.054C457.874 362.282 458.62 361.64 459.188 361.248C459.478 361.049 459.688 360.938 459.82 360.896C459.886 360.874 459.894 360.883 459.865 360.879C459.817 360.873 459.741 360.84 459.692 360.767L460.495 360.223ZM466.739 360.335C465.76 360.465 464.256 360.605 462.931 360.603C462.266 360.602 461.665 360.565 461.205 360.481C460.974 360.438 460.796 360.387 460.668 360.331C460.605 360.303 460.561 360.278 460.532 360.256C460.518 360.246 460.509 360.238 460.503 360.232C460.497 360.226 460.495 360.223 460.495 360.223L459.692 360.767C459.84 360.986 460.064 361.125 460.279 361.22C460.5 361.316 460.758 361.385 461.029 361.435C461.573 361.535 462.24 361.572 462.929 361.573C464.311 361.575 465.861 361.431 466.867 361.297L466.739 360.335ZM518.036 323.88L466.523 360.421L467.084 361.212L518.598 324.671L518.036 323.88ZM524.115 320.084C522.777 319.333 521.395 320.034 520.361 320.928C519.299 321.848 518.401 323.135 517.894 324.038L518.74 324.513C519.214 323.67 520.047 322.484 520.997 321.662C521.974 320.815 522.882 320.504 523.64 320.93L524.115 320.084ZM544.366 306.333C539.954 309.687 535.15 313.342 531.257 316.05C529.309 317.406 527.603 318.515 526.296 319.231C525.64 319.59 525.102 319.84 524.695 319.975C524.491 320.042 524.337 320.075 524.228 320.083C524.112 320.092 524.092 320.071 524.115 320.084L523.64 320.93C523.853 321.049 524.094 321.067 524.303 321.05C524.519 321.033 524.754 320.977 524.999 320.896C525.489 320.734 526.086 320.452 526.761 320.082C528.116 319.341 529.857 318.207 531.811 316.847C535.724 314.124 540.547 310.456 544.953 307.105L544.366 306.333ZM557.331 297.416C557.171 297.386 557.016 297.417 556.909 297.447C556.79 297.48 556.663 297.531 556.532 297.591C556.269 297.712 555.947 297.894 555.579 298.12C554.842 298.575 553.874 299.24 552.743 300.054C550.478 301.684 547.522 303.932 544.366 306.333L544.953 307.105C548.113 304.701 551.058 302.462 553.31 300.842C554.436 300.031 555.381 299.382 556.088 298.946C556.443 298.727 556.727 298.57 556.938 298.473C557.043 298.424 557.119 298.396 557.169 298.382C557.232 298.364 557.211 298.381 557.148 298.369L557.331 297.416ZM560.678 302.578C561.086 301.851 561.232 301.163 561.147 300.527C561.063 299.893 560.756 299.362 560.35 298.934C559.551 298.095 558.321 297.606 557.331 297.416L557.148 298.369C558.024 298.537 559.037 298.963 559.647 299.603C559.945 299.916 560.134 300.266 560.186 300.655C560.237 301.043 560.159 301.521 559.832 302.104L560.678 302.578ZM478.634 361.498C492.04 352.141 512.222 337.974 529.2 325.884C537.688 319.84 545.378 314.313 551.019 310.166C553.84 308.092 556.151 306.362 557.796 305.083C558.617 304.444 559.276 303.914 559.751 303.51C559.987 303.308 560.183 303.133 560.331 302.988C560.465 302.858 560.602 302.713 560.678 302.578L559.832 302.104C559.834 302.1 559.795 302.156 559.654 302.293C559.528 302.417 559.35 302.576 559.121 302.772C558.663 303.162 558.017 303.681 557.2 304.317C555.566 305.588 553.263 307.312 550.445 309.384C544.809 313.527 537.124 319.05 528.637 325.094C511.662 337.181 491.483 351.346 478.079 360.702L478.634 361.498ZM394.798 419.928L478.634 361.498L478.079 360.702L394.243 419.132L394.798 419.928ZM376.419 433.913C378.019 433.989 379.84 433.456 381.676 432.57C383.521 431.681 385.422 430.417 387.196 428.982C390.727 426.123 393.834 422.515 394.97 419.712L394.071 419.348C393.025 421.929 390.063 425.412 386.585 428.227C384.854 429.629 383.016 430.847 381.255 431.696C379.486 432.549 377.835 433.009 376.465 432.943L376.419 433.913ZM350.024 451.921L376.714 433.83L376.17 433.026L349.48 451.118L350.024 451.921ZM337.583 460.292C338.284 460.199 339.228 459.758 340.244 459.172C341.281 458.574 342.461 457.784 343.655 456.928C346.044 455.213 348.517 453.21 350.067 451.888L349.437 451.15C347.902 452.46 345.45 454.445 343.089 456.139C341.908 456.987 340.757 457.756 339.759 458.332C338.741 458.919 337.946 459.265 337.455 459.33L337.583 460.292ZM332.023 465.683C332.499 464.836 333.362 463.539 334.391 462.421C335.441 461.28 336.574 460.426 337.583 460.292L337.455 459.33C336.082 459.513 334.746 460.603 333.677 461.764C332.587 462.947 331.682 464.309 331.177 465.208L332.023 465.683ZM322.612 471.953C322.918 472.011 323.253 471.949 323.566 471.849C323.89 471.745 324.248 471.583 324.623 471.382C325.373 470.981 326.24 470.403 327.12 469.759C328.882 468.468 330.747 466.877 331.927 465.805L331.274 465.087C330.111 466.144 328.273 467.712 326.547 468.976C325.682 469.609 324.857 470.157 324.165 470.527C323.819 470.712 323.518 470.846 323.271 470.925C323.013 471.007 322.863 471.013 322.795 471L322.612 471.953ZM318.336 480.929C318.352 480.953 318.336 480.942 318.325 480.851C318.316 480.767 318.316 480.649 318.33 480.493C318.358 480.18 318.439 479.77 318.568 479.288C318.826 478.326 319.261 477.137 319.779 475.987C320.299 474.834 320.891 473.745 321.456 472.975C321.741 472.588 322.002 472.304 322.228 472.13C322.465 471.948 322.583 471.947 322.612 471.953L322.795 471C322.358 470.916 321.953 471.117 321.636 471.361C321.308 471.614 320.984 471.98 320.674 472.401C320.053 473.247 319.428 474.403 318.895 475.588C318.36 476.775 317.905 478.014 317.631 479.036C317.494 479.546 317.398 480.016 317.363 480.406C317.346 480.601 317.342 480.789 317.361 480.959C317.379 481.121 317.423 481.311 317.533 481.473L318.336 480.929ZM306.877 487.258C307.894 488.037 309.218 488.042 310.507 487.702C311.805 487.359 313.166 486.642 314.373 485.824C315.582 485.005 316.666 484.063 317.405 483.245C317.773 482.838 318.072 482.444 318.256 482.097C318.347 481.925 318.422 481.741 318.453 481.557C318.484 481.375 318.479 481.14 318.336 480.929L317.533 481.473C317.484 481.402 317.504 481.352 317.497 481.396C317.489 481.438 317.464 481.519 317.398 481.643C317.268 481.889 317.028 482.215 316.685 482.594C316.005 483.347 314.983 484.239 313.829 485.021C312.672 485.805 311.413 486.459 310.259 486.764C309.096 487.071 308.137 487.001 307.467 486.488L306.877 487.258ZM297.051 477.586C299.175 479.923 304.138 485.161 306.877 487.258L307.467 486.488C304.809 484.453 299.904 479.284 297.769 476.934L297.051 477.586ZM308.353 459.56C301.105 461.144 298.02 465.308 296.883 469.254C296.32 471.211 296.239 473.099 296.346 474.569C296.4 475.305 296.501 475.942 296.616 476.436C296.673 476.684 296.734 476.9 296.797 477.077C296.856 477.246 296.925 477.41 297.008 477.532L297.811 476.988C297.8 476.971 297.763 476.902 297.712 476.757C297.664 476.62 297.612 476.439 297.561 476.218C297.459 475.776 297.364 475.188 297.314 474.498C297.213 473.117 297.29 471.348 297.816 469.523C298.857 465.907 301.672 462.014 308.56 460.508L308.353 459.56ZM316.701 458.217C317.207 458.15 317.605 458.114 317.763 458.121C317.821 458.124 317.766 458.13 317.688 458.092C317.653 458.076 317.471 457.982 317.435 457.747C317.399 457.52 317.534 457.379 317.555 457.357C317.61 457.301 317.653 457.291 317.589 457.32C317.547 457.338 317.479 457.365 317.376 457.4C316.528 457.688 314.017 458.322 308.353 459.56L308.56 460.508C314.204 459.274 316.776 458.628 317.687 458.319C317.804 458.279 317.904 458.242 317.984 458.206C318.042 458.18 318.16 458.126 318.25 458.034C318.289 457.994 318.431 457.837 318.393 457.597C318.354 457.348 318.161 457.243 318.106 457.217C317.987 457.16 317.857 457.154 317.809 457.152C317.548 457.139 317.059 457.191 316.573 457.255L316.701 458.217ZM346.39 436.982L316.364 457.335L316.909 458.138L346.935 437.785L346.39 436.982ZM356.898 428.267C356.006 428.517 355.029 429.05 354.049 429.721C353.064 430.396 352.049 431.229 351.079 432.106C349.138 433.859 347.348 435.808 346.291 437.072L347.035 437.695C348.069 436.459 349.827 434.543 351.729 432.826C352.679 431.968 353.659 431.164 354.598 430.522C355.541 429.876 356.417 429.41 357.161 429.201L356.898 428.267ZM371.176 418.562C369.455 419.998 366.669 422.21 363.908 424.175C362.527 425.158 361.158 426.076 359.935 426.803C358.702 427.536 357.651 428.055 356.898 428.267L357.161 429.201C358.044 428.953 359.186 428.377 360.431 427.637C361.685 426.891 363.078 425.957 364.47 424.966C367.256 422.982 370.062 420.755 371.797 419.307L371.176 418.562ZM383.561 407.242C383.137 407.003 382.65 407.034 382.197 407.173C381.74 407.314 381.249 407.585 380.746 407.933C379.737 408.631 378.584 409.707 377.42 410.932C375.086 413.386 372.637 416.517 371.093 418.65L371.88 419.219C373.409 417.105 375.83 414.013 378.123 411.6C379.272 410.391 380.371 409.372 381.298 408.731C381.763 408.409 382.161 408.2 382.482 408.101C382.807 408 382.987 408.032 383.086 408.088L383.561 407.242ZM385.108 408.042C384.473 407.723 383.945 407.457 383.561 407.242L383.086 408.088C383.493 408.316 384.045 408.593 384.672 408.909L385.108 408.042ZM388.947 410.092C387.567 409.279 386.194 408.589 385.108 408.042L384.672 408.909C385.76 409.457 387.106 410.134 388.455 410.928L388.947 410.092Z" fill="black"/>
<path d="M365.262 283.377C365.619 281.223 366.266 279.372 367.204 277.824C368.165 276.28 369.329 275.05 370.697 274.133C372.069 273.193 373.596 272.569 375.276 272.264C376.984 271.938 378.774 271.931 380.644 272.24C382.491 272.546 384.159 273.126 385.647 273.981C387.163 274.816 388.419 275.899 389.415 277.232C390.414 278.541 391.108 280.079 391.497 281.846C391.909 283.617 391.937 285.58 391.58 287.735C391.263 289.653 390.706 291.324 389.911 292.749C389.139 294.178 388.187 295.371 387.056 296.327C385.928 297.259 384.645 297.959 383.205 298.426C381.789 298.897 380.292 299.124 378.714 299.106C379.432 299.468 380.143 299.805 380.846 300.116C381.544 300.45 382.284 300.682 383.066 300.812C384.226 301.004 385.116 300.92 385.735 300.56C386.354 300.2 386.773 299.723 386.994 299.127C387.198 298.479 387.531 298.23 387.993 298.38C388.198 298.462 388.364 298.636 388.491 298.9C388.645 299.145 388.719 299.655 388.711 300.433C388.697 301.695 388.485 302.828 388.076 303.831C387.663 304.857 387.133 305.706 386.487 306.377C385.86 307.076 385.133 307.576 384.304 307.877C383.496 308.205 382.677 308.301 381.849 308.164C381.044 308.03 380.317 307.715 379.67 307.219C379.022 306.722 378.414 306.135 377.845 305.457C377.276 304.779 376.739 304.058 376.233 303.293C375.727 302.528 375.213 301.81 374.692 301.14C374.17 300.47 373.621 299.893 373.044 299.408C372.468 298.923 371.836 298.624 371.15 298.51C370.534 298.408 369.966 298.46 369.445 298.666C368.925 298.872 368.625 299.211 368.547 299.685C368.5 299.969 368.595 300.131 368.831 300.17C368.973 300.193 369.159 300.176 369.388 300.116C369.613 300.08 369.865 300.025 370.145 299.95C370.421 299.898 370.697 299.846 370.973 299.795C371.269 299.771 371.559 299.782 371.843 299.829C372.128 299.876 372.378 299.979 372.595 300.136C372.836 300.298 373.038 300.55 373.2 300.893C373.425 301.441 373.467 301.996 373.326 302.556C373.181 303.14 372.901 303.653 372.487 304.096C372.093 304.566 371.585 304.919 370.961 305.157C370.358 305.422 369.689 305.494 368.955 305.372C368.387 305.278 367.874 305.071 367.416 304.752C366.978 304.461 366.614 304.084 366.326 303.623C366.033 303.185 365.824 302.688 365.697 302.132C365.594 301.58 365.591 301.008 365.689 300.416C365.877 299.279 366.389 298.391 367.225 297.751C368.057 297.135 369.159 296.794 370.532 296.73C369.521 296.076 368.627 295.307 367.849 294.424C367.074 293.518 366.452 292.502 365.981 291.378C365.51 290.254 365.203 289.024 365.06 287.686C364.94 286.353 365.008 284.917 365.262 283.377ZM372.863 284.636C372.498 286.838 372.337 288.696 372.378 290.211C372.442 291.73 372.649 292.981 372.997 293.963C373.349 294.921 373.826 295.645 374.426 296.134C375.054 296.602 375.758 296.902 376.54 297.031C377.297 297.156 378.037 297.096 378.759 296.851C379.508 296.586 380.204 296.056 380.846 295.263C381.493 294.445 382.079 293.326 382.606 291.905C383.157 290.488 383.615 288.678 383.98 286.476C384.344 284.274 384.494 282.414 384.429 280.895C384.388 279.38 384.192 278.143 383.839 277.185C383.491 276.203 383.003 275.477 382.375 275.008C381.775 274.52 381.096 274.213 380.338 274.087C379.557 273.958 378.792 274.026 378.042 274.291C377.32 274.536 376.636 275.068 375.99 275.885C375.348 276.679 374.751 277.784 374.2 279.201C373.673 280.622 373.227 282.434 372.863 284.636ZM404.013 300.193C402.334 302.104 400.347 302.87 398.05 302.49C396.937 302.305 396.004 301.92 395.249 301.333C394.499 300.722 393.914 299.993 393.495 299.145C393.076 298.297 392.818 297.354 392.723 296.317C392.631 295.255 392.673 294.192 392.849 293.126L393.385 289.894C393.49 289.255 393.547 288.62 393.554 287.989C393.585 287.361 393.371 286.742 392.913 286.131C392.447 285.567 392.35 285.125 392.622 284.805C392.921 284.466 393.677 284.384 394.888 284.56C395.555 284.646 396.247 284.652 396.965 284.576C397.711 284.48 398.474 284.205 399.255 283.751C399.551 283.581 399.827 283.456 400.083 283.377C400.343 283.274 400.568 283.238 400.758 283.27C401.042 283.317 401.239 283.52 401.35 283.879C401.461 284.238 401.452 284.808 401.322 285.589L400.029 293.403C399.715 295.297 399.697 296.729 399.974 297.7C400.275 298.674 400.733 299.212 401.349 299.314C401.775 299.384 402.185 299.258 402.58 298.934C402.997 298.614 403.372 298.189 403.703 297.66C404.034 297.131 404.311 296.557 404.535 295.937C404.76 295.317 404.915 294.747 405.001 294.226L405.389 291.882C405.495 291.243 405.551 290.607 405.559 289.976C405.59 289.349 405.376 288.729 404.918 288.118C404.475 287.559 404.39 287.119 404.662 286.799C404.937 286.455 405.681 286.372 406.893 286.548C407.583 286.638 408.287 286.645 409.005 286.569C409.727 286.47 410.491 286.195 411.295 285.744C411.918 285.361 412.407 285.199 412.762 285.257C413.046 285.304 413.244 285.507 413.355 285.866C413.466 286.225 413.456 286.795 413.327 287.577L411.486 298.693C411.385 299.309 411.363 299.95 411.423 300.617C411.483 301.284 411.571 301.858 411.686 302.339C411.903 303.08 411.904 303.591 411.687 303.872C411.494 304.156 411.125 304.253 410.581 304.163L405.395 303.304C404.851 303.214 404.428 302.974 404.128 302.584C403.855 302.174 403.764 301.696 403.854 301.152L404.013 300.193ZM421.272 296.336C421.183 298.049 421.418 299.425 421.975 300.466C422.533 301.507 423.498 302.142 424.871 302.369C425.7 302.506 426.546 302.464 427.41 302.242C428.302 302 429.023 301.536 429.575 300.849C429.91 300.442 430.207 300.26 430.468 300.303C430.61 300.327 430.72 300.394 430.799 300.504C431.017 300.662 431.125 300.887 431.126 301.179C431.13 301.447 430.99 301.85 430.707 302.386C430.301 303.073 429.771 303.703 429.117 304.276C428.486 304.853 427.765 305.317 426.952 305.669C426.14 306.021 425.272 306.267 424.349 306.406C423.449 306.549 422.514 306.54 421.544 306.379C420.36 306.183 419.249 305.768 418.21 305.134C417.199 304.48 416.336 303.668 415.621 302.699C414.906 301.729 414.386 300.609 414.061 299.339C413.764 298.049 413.735 296.682 413.974 295.237C414.217 293.769 414.697 292.486 415.414 291.389C416.131 290.291 417.008 289.402 418.045 288.723C419.109 288.023 420.306 287.552 421.635 287.31C422.965 287.068 424.352 287.067 425.796 287.306C426.909 287.49 427.894 287.787 428.75 288.196C429.631 288.61 430.363 289.108 430.948 289.691C431.56 290.255 431.991 290.886 432.24 291.584C432.513 292.286 432.587 293.016 432.461 293.773C432.328 294.578 432.005 295.279 431.493 295.875C430.981 296.472 430.366 296.954 429.648 297.321C428.93 297.689 428.135 297.935 427.264 298.058C426.419 298.161 425.583 298.145 424.754 298.007C424.091 297.898 423.454 297.707 422.842 297.435C422.254 297.168 421.731 296.801 421.272 296.336ZM425.718 291.964C425.812 291.395 425.828 290.936 425.764 290.585C425.728 290.214 425.655 289.922 425.544 289.709C425.437 289.472 425.307 289.305 425.153 289.206C424.999 289.108 424.863 289.049 424.744 289.029C424.129 288.927 423.508 289.372 422.882 290.363C422.259 291.33 421.789 292.773 421.472 294.691C421.898 295.199 422.36 295.495 422.858 295.577C423.544 295.691 424.14 295.4 424.644 294.705C425.176 293.99 425.534 293.076 425.718 291.964ZM448.737 305.445C448.427 307.315 447.458 308.541 445.829 309.123C444.224 309.709 442.119 309.786 439.515 309.355C438.567 309.198 437.664 309 436.803 308.76C435.943 308.52 435.161 308.245 434.459 307.934C433.784 307.603 433.209 307.253 432.735 306.882C432.262 306.512 431.938 306.118 431.764 305.7C431.641 305.412 431.573 305.084 431.561 304.717C431.549 304.35 431.622 303.985 431.779 303.622C431.94 303.235 432.193 302.888 432.535 302.58C432.906 302.252 433.395 302.017 434.002 301.874C434.33 301.806 434.663 301.776 435.003 301.784C435.37 301.772 435.719 301.793 436.05 301.848C436.476 301.919 436.869 302.044 437.228 302.225C437.615 302.387 437.921 302.596 438.146 302.852C438.372 303.108 438.492 303.408 438.508 303.751C438.548 304.098 438.446 304.495 438.202 304.941C437.82 305.632 437.763 306.194 438.032 306.628C438.325 307.066 438.826 307.343 439.536 307.461C440.223 307.574 440.696 307.507 440.956 307.258C441.22 306.985 441.378 306.695 441.429 306.388C441.523 305.819 441.369 305.283 440.966 304.778C440.563 304.274 440.037 303.773 439.39 303.277C438.766 302.784 438.073 302.268 437.311 301.728C436.549 301.189 435.856 300.599 435.231 299.961C434.635 299.303 434.157 298.591 433.797 297.826C433.441 297.037 433.345 296.146 433.51 295.151C433.663 294.228 434.017 293.411 434.573 292.7C435.152 291.993 435.891 291.422 436.79 290.987C437.689 290.552 438.709 290.271 439.849 290.143C441.017 289.996 442.275 290.034 443.625 290.258C444.454 290.395 445.225 290.583 445.94 290.823C446.678 291.067 447.335 291.358 447.912 291.697C448.512 292.04 449.009 292.414 449.404 292.82C449.799 293.226 450.068 293.66 450.21 294.121C450.302 294.452 450.33 294.798 450.294 295.157C450.263 295.492 450.161 295.816 449.988 296.128C449.814 296.44 449.56 296.726 449.225 296.987C448.918 297.228 448.533 297.419 448.072 297.562C447.358 297.76 446.657 297.802 445.971 297.689C445.545 297.618 445.152 297.492 444.793 297.311C444.461 297.11 444.2 296.848 444.011 296.525C443.821 296.201 443.726 295.821 443.725 295.383C443.729 294.921 443.888 294.4 444.203 293.82C444.479 293.33 444.577 292.957 444.498 292.701C444.446 292.425 444.184 292.248 443.71 292.169C443.071 292.063 442.505 292.176 442.012 292.508C441.547 292.821 441.269 293.249 441.179 293.793C441.081 294.385 441.221 294.932 441.601 295.432C442.004 295.937 442.503 296.445 443.1 296.958C443.724 297.45 444.405 297.964 445.143 298.5C445.882 299.036 446.535 299.643 447.104 300.321C447.701 300.979 448.161 301.724 448.485 302.557C448.834 303.393 448.917 304.355 448.737 305.445ZM461.59 293.597L464.466 294.073C464.751 294.12 464.96 294.252 465.094 294.469C465.232 294.662 465.28 294.889 465.237 295.149C465.19 295.433 465.068 295.657 464.871 295.819C464.678 295.957 464.439 296.002 464.155 295.955L461.278 295.479L459.432 306.631C459.306 307.389 459.417 307.967 459.765 308.365C460.116 308.739 460.529 308.966 461.002 309.044C461.5 309.127 461.944 309.091 462.334 308.936C462.697 308.802 462.989 308.801 463.21 308.935C463.431 309.069 463.556 309.272 463.583 309.545C463.615 309.793 463.543 310.085 463.365 310.421C463.188 310.756 462.906 311.062 462.52 311.339C462.193 311.552 461.808 311.744 461.367 311.914C460.929 312.061 460.448 312.176 459.923 312.259C459.426 312.323 458.911 312.347 458.378 312.332C457.842 312.34 457.325 312.303 456.828 312.221C455.123 311.939 453.873 311.258 453.079 310.177C452.285 309.097 452.011 307.811 452.258 306.319L454.246 294.315L451.795 293.909C451.511 293.862 451.3 293.742 451.161 293.549C451.027 293.332 450.983 293.081 451.03 292.797C451.073 292.537 451.18 292.335 451.349 292.193C451.542 292.055 451.771 291.996 452.036 292.015C452.92 292.113 453.709 292.122 454.403 292.042C455.101 291.939 455.728 291.751 456.284 291.478C456.84 291.205 457.339 290.837 457.781 290.375C458.246 289.917 458.673 289.392 459.063 288.8C459.39 288.294 459.686 287.905 459.95 287.633C460.214 287.36 460.454 287.157 460.671 287.022C460.888 286.888 461.069 286.821 461.215 286.821C461.389 286.801 461.535 286.801 461.653 286.82C462.34 286.934 462.632 287.298 462.53 287.914L461.59 293.597ZM467.169 290.032C467.259 289.488 467.45 288.996 467.742 288.558C468.033 288.12 468.396 287.766 468.829 287.497C469.267 287.205 469.75 287.005 470.279 286.898C470.835 286.771 471.397 286.755 471.966 286.849C472.557 286.947 473.084 287.144 473.546 287.439C474.036 287.715 474.429 288.06 474.725 288.474C475.049 288.868 475.279 289.319 475.413 289.828C475.548 290.337 475.57 290.864 475.48 291.408C475.394 291.929 475.205 292.409 474.913 292.847C474.622 293.285 474.257 293.651 473.82 293.943C473.41 294.216 472.927 294.416 472.37 294.542C471.842 294.649 471.281 294.654 470.69 294.556C470.121 294.462 469.592 294.277 469.103 294.001C468.641 293.706 468.248 293.361 467.924 292.967C467.604 292.549 467.377 292.086 467.242 291.577C467.107 291.068 467.083 290.553 467.169 290.032ZM472.812 308.847C472.71 309.462 472.677 310.101 472.713 310.764C472.773 311.431 472.872 312.007 473.011 312.492C473.205 313.23 473.206 313.741 473.013 314.025C472.82 314.309 472.451 314.406 471.906 314.316L464.874 313.152C464.329 313.062 464 312.849 463.885 312.514C463.794 312.182 463.971 311.701 464.416 311.069C464.68 310.651 464.948 310.135 465.219 309.524C465.491 308.912 465.678 308.298 465.78 307.682L466.714 302.035C466.82 301.396 466.877 300.761 466.884 300.129C466.915 299.502 466.701 298.883 466.243 298.272C465.8 297.712 465.715 297.272 465.987 296.952C466.263 296.609 467.006 296.525 468.218 296.701C468.885 296.787 469.577 296.792 470.295 296.717C471.041 296.621 471.804 296.346 472.585 295.892C472.881 295.722 473.157 295.597 473.413 295.518C473.673 295.415 473.898 295.379 474.088 295.411C474.372 295.458 474.569 295.661 474.68 296.019C474.791 296.378 474.782 296.949 474.652 297.73L472.812 308.847ZM475.263 305.385C475.506 303.917 475.986 302.634 476.703 301.536C477.42 300.438 478.285 299.548 479.299 298.864C480.339 298.161 481.501 297.684 482.783 297.434C484.065 297.184 485.393 297.173 486.766 297.4C488.139 297.628 489.381 298.064 490.49 298.71C491.623 299.36 492.557 300.183 493.292 301.181C494.055 302.159 494.598 303.282 494.923 304.553C495.248 305.823 495.289 307.192 495.046 308.66C494.807 310.104 494.327 311.387 493.606 312.508C492.889 313.606 492.012 314.495 490.975 315.174C489.962 315.858 488.812 316.337 487.526 316.61C486.268 316.864 484.952 316.877 483.579 316.65C482.206 316.423 480.952 315.984 479.819 315.334C478.69 314.661 477.744 313.835 476.982 312.858C476.243 311.884 475.711 310.762 475.386 309.492C475.065 308.198 475.024 306.829 475.263 305.385ZM482.479 306.543C482.197 308.247 482.041 309.633 482.01 310.698C481.984 311.74 482.044 312.552 482.19 313.136C482.337 313.72 482.56 314.134 482.86 314.378C483.164 314.599 483.506 314.741 483.885 314.803C484.264 314.866 484.621 314.84 484.956 314.725C485.319 314.591 485.664 314.271 485.991 313.765C486.317 313.26 486.636 312.51 486.947 311.515C487.261 310.497 487.56 309.135 487.842 307.431C488.124 305.726 488.279 304.353 488.305 303.311C488.332 302.269 488.272 301.457 488.125 300.873C487.978 300.289 487.753 299.887 487.449 299.666C487.169 299.449 486.839 299.31 486.46 299.247C486.081 299.184 485.713 299.208 485.354 299.319C484.995 299.43 484.652 299.738 484.325 300.244C483.998 300.749 483.679 301.499 483.368 302.494C483.058 303.488 482.761 304.838 482.479 306.543ZM505.058 303.713C506.736 301.801 508.724 301.036 511.021 301.416C512.134 301.6 513.067 301.986 513.821 302.573C514.576 303.16 515.16 303.889 515.576 304.761C515.995 305.609 516.252 306.551 516.348 307.589C516.444 308.626 516.404 309.678 516.227 310.743L515.374 315.893C515.273 316.509 515.252 317.15 515.311 317.817C515.371 318.484 515.459 319.058 515.574 319.539C515.791 320.28 515.792 320.791 515.575 321.072C515.382 321.356 515.014 321.453 514.469 321.363L507.437 320.199C506.892 320.108 506.574 319.898 506.483 319.566C506.392 319.235 506.569 318.754 507.014 318.122C507.278 317.703 507.534 317.186 507.782 316.57C508.054 315.958 508.24 315.345 508.342 314.729L509.048 310.467C509.358 308.597 509.362 307.174 509.061 306.2C508.784 305.23 508.337 304.694 507.722 304.592C507.296 304.521 506.873 304.646 506.456 304.966C506.061 305.29 505.699 305.716 505.368 306.245C505.041 306.751 504.765 307.313 504.541 307.933C504.317 308.553 504.162 309.123 504.076 309.644L503.37 313.906C503.268 314.521 503.235 315.161 503.271 315.824C503.331 316.49 503.43 317.066 503.569 317.551C503.763 318.289 503.764 318.8 503.571 319.084C503.378 319.369 503.009 319.466 502.464 319.375L495.432 318.211C494.887 318.121 494.558 317.908 494.443 317.573C494.352 317.242 494.529 316.76 494.974 316.128C495.238 315.71 495.506 315.195 495.777 314.583C496.049 313.971 496.236 313.357 496.338 312.742L497.273 307.094C497.378 306.455 497.435 305.82 497.442 305.189C497.473 304.561 497.259 303.942 496.801 303.331C496.358 302.771 496.273 302.331 496.545 302.011C496.821 301.668 497.565 301.584 498.776 301.76C499.443 301.846 500.135 301.852 500.853 301.776C501.599 301.68 502.362 301.405 503.143 300.951C503.439 300.781 503.715 300.656 503.971 300.577C504.231 300.474 504.456 300.438 504.646 300.47C504.93 300.517 505.127 300.72 505.238 301.079C505.349 301.438 505.34 302.008 505.21 302.789L505.058 303.713Z" fill="#A32200"/>
</g>
<defs>
<clipPath id="clip0_2008_2227">
<rect x="15.3046" y="-21.792" width="240" height="240" rx="24" transform="rotate(-6.43625 15.3046 -21.792)" fill="white"/>
</clipPath>
<clipPath id="clip1_2008_2227">
<rect x="0.259766" y="276.054" width="240" height="240" rx="24" transform="rotate(-14.1807 0.259766 276.054)" fill="white"/>
</clipPath>
<clipPath id="clip2_2008_2227">
<rect x="320.48" y="-27.2988" width="240" height="240" rx="24" transform="rotate(5.68609 320.48 -27.2988)" fill="white"/>
</clipPath>
<clipPath id="clip3_2008_2227">
<rect x="329.213" y="240.011" width="240" height="240" rx="24" transform="rotate(9.40078 329.213 240.011)" fill="white"/>
</clipPath>
</defs>
</svg>
