<svg width="441" height="641" viewBox="0 0 441 641" fill="none" xmlns="http://www.w3.org/2000/svg">
<g clip-path="url(#clip0_187_151)">
<rect x="0.325684" y="0.0366211" width="440" height="640" rx="36" fill="#58C3FE"/>
<g clip-path="url(#clip1_187_151)">
<path fill-rule="evenodd" clip-rule="evenodd" d="M362.826 -15.0631C362.826 -13.6271 361.662 -12.4631 360.226 -12.4631C358.79 -12.4631 357.626 -13.6271 357.626 -15.0631C357.626 -16.499 358.79 -17.6631 360.226 -17.6631C361.662 -17.6631 362.826 -16.499 362.826 -15.0631ZM360.273 -11.4634C362.239 -11.4882 363.826 -13.0903 363.826 -15.0631C363.826 -17.0513 362.214 -18.6631 360.226 -18.6631C358.238 -18.6631 356.626 -17.0513 356.626 -15.0631C356.626 -13.0903 358.213 -11.4882 360.18 -11.4634H360.176V43.5795L351.58 34.9831L350.873 35.6902L359.469 44.2866H318.826C318.799 42.3215 317.198 40.7368 315.226 40.7368C313.238 40.7368 311.626 42.3486 311.626 44.3368C311.626 46.325 313.238 47.9368 315.226 47.9368C316.886 47.9368 318.283 46.814 318.7 45.2866H359.469L342.323 62.4331L343.03 63.1402L360.176 45.9937V103.705L360.176 103.705L341.425 396.368L341.306 396.412L341.405 396.676L337.226 461.905L337.206 462.216L337.477 462.371L343.525 465.827V493.694L121.775 437.248V351.504C132.039 358.196 144.927 366.729 154.076 375.215V443.937H155.076V375.211L163.118 360.021L163.25 359.771L163.104 359.53L155.039 346.087L53.3568 -13.3993L53.2539 -13.7632H52.8757H-93.3743H-93.7468L-93.8534 -13.4062L-205.903 361.894L-205.933 361.994C-205.985 362.07 -206.037 362.146 -206.088 362.221L-205.749 362.451L-197.824 374.338V374.614L-197.955 374.765L-197.824 374.878V492.418L-197.961 492.584L-197.805 492.713L-197.745 492.806L-183.424 515.183V767.104L-191.383 765.645L-191.508 765.622L-191.628 765.661L-249.025 784.313V752.237H-240.604C-240.015 752.237 -239.488 752.019 -239.087 751.666L-238.946 751.735L-238.682 751.201C-238.34 750.681 -238.205 750.023 -238.378 749.357L-330.489 395.827C-330.743 394.854 -331.472 394.295 -332.274 394.147V387.287H-325.574H-324.968L-325.083 386.692L-332.103 350.274C-330.435 349.96 -329.174 348.496 -329.174 346.737C-329.174 344.918 -330.522 343.414 -332.274 343.171V303.845L-323.679 312.44L-322.972 311.733L-331.568 303.137H-299.475V302.637C-299.475 304.625 -297.863 306.237 -295.875 306.237C-293.887 306.237 -292.275 304.625 -292.275 302.637C-292.275 300.648 -293.887 299.037 -295.875 299.037C-297.863 299.037 -299.475 300.648 -299.475 302.637V302.137H-331.568L-320.272 290.84L-320.979 290.133L-332.274 301.429V264.836H-332.726C-330.76 264.811 -329.174 263.209 -329.174 261.237C-329.174 259.249 -330.785 257.637 -332.774 257.637C-334.762 257.637 -336.374 259.249 -336.374 261.237C-336.374 263.209 -334.787 264.811 -332.821 264.836H-333.274V301.431L-342.772 291.933L-343.479 292.64L-333.982 302.137H-365.208C-365.451 300.385 -366.955 299.037 -368.774 299.037C-370.762 299.037 -372.374 300.648 -372.374 302.637C-372.374 304.625 -370.762 306.237 -368.774 306.237C-366.955 306.237 -365.451 304.888 -365.208 303.137H-333.982L-347.079 316.233L-346.372 316.94L-333.274 303.843V343.171C-335.025 343.415 -336.374 344.918 -336.374 346.737C-336.374 348.499 -335.107 349.966 -333.434 350.276L-340.016 386.698L-340.122 387.287H-339.524H-333.274V394.172C-334.041 394.355 -334.72 394.92 -334.95 395.863L-393.925 638.383V572.637V572.585L-393.935 572.534L-400.579 541.088C-398.874 540.805 -397.574 539.323 -397.574 537.537C-397.574 535.549 -399.186 533.937 -401.174 533.937C-403.162 533.937 -404.774 535.549 -404.774 537.537C-404.774 539.329 -403.464 540.815 -401.75 541.091L-407.068 572.554L-407.075 572.595V572.637V692.459L-420.92 749.393C-421.015 749.786 -421.004 750.175 -420.907 750.534C-421.062 750.674 -421.203 750.808 -421.329 750.933L-420.622 751.64C-420.599 751.618 -420.577 751.596 -420.553 751.573C-420.526 751.547 -420.499 751.52 -420.47 751.493L-420.421 751.446C-420.004 751.926 -419.388 752.237 -418.685 752.237H-414.733L-416.068 838.595L-460.278 852.961L-459.969 853.912L-416.085 839.652L-416.086 839.729L-415.42 839.512L-249.37 785.512L-249.025 785.4V785.364L-191.974 766.825V800.869L-233.922 813.938L-279.372 828.099L-330.222 843.941L-372.072 856.98L-422.022 872.542L-460.272 884.459L-459.975 885.414L-422.374 873.699V954.719L-460.249 964.553L-459.998 965.521L-421.748 955.59L-371.798 942.621L-329.948 931.756L-279.098 918.553L-233.648 906.753L-191.974 895.933V969.087H-190.974V895.871L-120.901 906.846L-61.5009 916.148L2.39911 926.156L65.3991 936.023L130.199 946.172L192.749 955.968L192.765 955.97L192.781 955.972L267.026 962.793V962.837H267.526H385.876H386.376V962.337V863.987L395.723 854.215L396.318 855.035L396.281 853.632L396.426 853.48L396.271 853.268L394.062 769.776C394.035 768.749 393.623 767.769 392.909 767.031L382.376 756.159C380.829 754.562 378.291 754.489 376.655 755.994L369.15 762.899C368.306 763.676 367.825 764.77 367.825 765.917V814.202L355.763 797.637H355.775V706.87L361.05 707.681L361.626 707.77V707.187V694.786L369.176 696.772V710.337V710.691L369.509 710.809L377.159 713.509L377.826 713.744V713.037V698.838L383.563 700.368L383.126 713.921L384.126 713.953L384.576 700.003L384.577 699.966L384.573 699.929L380.083 661.319L392.208 611.952L406.076 661.356V718.887L406.075 965.487H407.075V719.527L411.855 720.722L412.476 720.877V720.237V707.836L420.026 709.822V723.387V723.756L420.379 723.865L426.229 725.665L426.876 725.864V725.187V712.8L432.176 714.314V726.537H433.176V713.937V713.908L433.173 713.88L428.233 670.769L439.917 623.168L453.776 670.808V729.687V730.069L454.144 730.169L459.094 731.519L459.726 731.692V731.037V719.559L463.582 720.716L463.87 719.758L459.37 718.408L458.726 718.215V718.887V730.382L454.776 729.305V670.737V670.666L454.756 670.597L440.356 621.097L439.835 619.306L439.39 621.118L427.24 670.618L427.219 670.705L427.229 670.794L432.094 713.251L426.513 711.656L425.876 711.474V712.137V724.51L421.026 723.018V709.437V709.052L420.653 708.953L412.103 706.703L411.476 706.538V707.187V719.597L407.076 718.497V661.287V661.218L407.057 661.152L392.657 609.852L392.144 608.022L391.69 609.868L379.09 661.168L379.069 661.255L379.079 661.345L383.494 699.314L377.455 697.704L376.826 697.536V698.187V712.33L370.176 709.983V696.387V696.002L369.803 695.904L361.253 693.654L360.626 693.488V694.137V706.604L355.786 705.86L357.126 645.998L357.127 645.923L357.107 645.851L341.807 591.851L341.304 590.074L340.842 591.862L326.892 645.862L326.863 645.975L326.886 646.089L338.461 701.737H331.926V689.637V689.269L331.575 689.16L324.375 686.91L323.726 686.707V687.387V700.697L319.326 699.597V684.237V683.842L318.942 683.751L309.492 681.501L308.876 681.354V681.987V695.816L303.126 695.049V632.937V632.87L303.108 632.805L286.908 573.405L285.939 573.423L271.989 632.823L271.963 632.935L271.988 633.048L281.711 675.917L274.84 674.3L274.226 674.156V674.787V689.047L269.826 688.313V672.987V672.621L269.477 672.511L259.577 669.361L258.926 669.153V669.837V682.837H253.19L254.976 617.651L254.978 617.569L254.954 617.492L236.504 556.742L235.959 554.945L235.539 556.775L221.589 617.525L221.565 617.628L221.585 617.731L229.553 659.343L202.326 655.453V605.487V605.413L202.304 605.342L184.304 545.942L183.78 544.21L183.341 545.966L168.891 603.764L122.197 473.019L121.775 473.17V438.28L343.89 494.819L354.037 497.907L395.788 572.431L395.932 572.687H396.225H413.325H413.825V572.187V512.077L467.204 525.422L467.447 524.451L413.825 511.046V465.744L417.278 462.29L417.458 462.111L417.419 461.859L361.176 103.708V45.9937L378.323 63.1402L379.03 62.4331L361.883 45.2866H406.126V44.3368C406.126 46.325 407.738 47.9368 409.726 47.9368C411.714 47.9368 413.326 46.325 413.326 44.3368C413.326 42.3486 411.714 40.7368 409.726 40.7368C407.738 40.7368 406.126 42.3486 406.126 44.3368V44.2866H361.883L373.63 32.5402L372.923 31.8331L361.176 43.5795V-11.4634H360.273ZM354.775 706.716V796.279L343.625 780.967V753.997C343.625 752.7 343.012 751.479 341.97 750.706L330.034 741.839C328.47 740.677 326.303 740.776 324.852 742.077L315.189 750.742C314.321 751.519 313.825 752.629 313.825 753.794V778.64L303.126 792.503V696.058L309.31 696.883L309.876 696.958V696.387V682.62L318.326 684.632V699.987V700.377L318.705 700.472L324.105 701.822L324.726 701.977V701.337V688.067L330.926 690.005V702.237V702.737H331.426H339.076H339.691L339.565 702.135L327.889 645.999L341.348 593.9L356.124 646.051L354.776 706.276L354.776 706.287H354.775V706.333L354.766 706.714L354.775 706.716ZM314.667 779.187H314.825V778.981L328.264 761.57L394.191 852.11C372.076 841.651 344.951 839.494 319.886 841.08C295.058 842.652 272.196 847.9 258.117 852.453L260.425 849.462L260.544 849.483L260.728 849.232L263.117 845.974L314.667 779.187ZM314.825 777.345V753.794C314.825 752.913 315.2 752.074 315.856 751.486L325.52 742.822C326.617 741.838 328.255 741.763 329.438 742.642L341.374 751.509C342.161 752.094 342.625 753.016 342.625 753.997V779.594L328.68 760.443L328.288 759.903L327.88 760.431L314.825 777.345ZM121.775 474.81V513.237V513.431L121.644 513.574L97.5463 539.903L138.808 657.857L151.985 660.799L151.876 661.287L152.331 661.08L154.581 666.03L154.626 666.128V666.237V829.057L168.476 831.595V605.574L121.775 474.81ZM153.626 828.874V716.145L101.526 705.458V819.325L108.626 820.627V733.637C108.626 732.986 108.902 732.366 109.385 731.93L118.999 723.246C121.301 721.167 124.82 721.225 127.051 723.38L135.924 731.946C136.373 732.38 136.626 732.977 136.626 733.601V825.758L153.626 828.874ZM109.626 733.637V820.81L135.626 825.575V733.601C135.626 733.248 135.483 732.911 135.229 732.666L126.357 724.099C124.504 722.31 121.581 722.261 119.669 723.988L110.055 732.672C109.782 732.918 109.626 733.269 109.626 733.637ZM97.5876 819.62L108.626 821.643V821.676L109.032 821.754L136.032 826.928L136.626 827.042V826.775L168.476 832.612V832.704L168.887 832.779L201.287 838.629L201.874 838.735V838.733L218.425 841.766V842.013L218.838 842.086L259.314 849.265L256.33 853.131L256.056 853.487L256.38 853.798L267.026 864V882.092L192.914 869.156L192.913 869.156L130.364 858.021L65.5641 846.486L2.56412 835.271L-61.3359 823.895L-120.736 813.321L-190.974 800.818V766.737L84.3268 817.19L84.3279 817.41L84.7435 817.48L97.5876 819.62ZM267.872 863.426L257.671 853.65C271.603 849.067 294.761 843.672 319.949 842.078C345.39 840.468 372.841 842.739 394.944 853.583L385.515 863.441L385.376 863.586V863.787V961.837H268.026V863.787V863.573L267.872 863.426ZM282.876 818.738L302.126 793.798V695.487V633.004L286.462 575.57L272.989 632.939L282.863 676.476L282.876 676.531V676.587V690.537L282.876 818.738ZM281.876 820.034L265.797 840.866L267.116 761.312C267.123 760.84 266.986 760.378 266.722 759.987L247.539 731.581C245.381 728.386 240.788 728.085 238.232 730.972L219.003 752.694C218.631 753.115 218.425 753.657 218.425 754.219V840.749L201.877 837.716L202.324 656.463L230.105 660.432L230.799 660.531L230.667 659.843L222.587 617.646L236.093 558.829L253.974 617.705L252.176 683.323L252.162 683.837H252.676H259.426H259.926V683.337V670.521L268.826 673.353V688.737V689.161L269.244 689.23L274.644 690.13L275.226 690.227V689.637V675.418L281.876 676.983V690.537L281.876 820.034ZM262.317 845.375L260.005 848.37L219.425 840.932V754.219C219.425 753.901 219.541 753.595 219.752 753.357L238.981 731.635C241.103 729.237 244.918 729.487 246.71 732.141L265.893 760.546C266.043 760.767 266.12 761.029 266.116 761.295L264.778 842.019L262.317 845.375ZM153.626 715.124V710.745L101.526 700.057V704.487V704.694L101.576 704.447L153.626 715.124ZM153.626 709.724V666.645L101.526 655.958V698.637V699.294L101.576 699.047L153.626 709.724ZM153.265 665.55L151.524 661.72L101.526 650.56V653.637V655.194L101.576 654.947L153.265 665.55ZM101.526 649.814L101.585 649.549L137.659 657.601L97.8485 543.796L85.1491 541.074L101.509 602.207L101.526 602.271V602.337V647.786V649.814ZM169.476 831.778L200.877 837.533L201.326 655.887V655.885V605.561L183.872 547.964L169.476 605.548V831.778ZM96.5346 540.04L97.4618 542.69L84.8588 539.989L84.4087 538.307L83.4378 538.327L83.1468 539.623L48.4265 532.182V522.914L51.8557 519.913L52.0784 519.718L52.0148 519.429L39.1901 461.161C50.0305 462.526 62.5688 464.159 74.4247 465.953V513.237V513.417L74.5401 513.556L96.5346 540.04ZM412.326 44.3368C412.326 45.7728 411.162 46.9368 409.726 46.9368C408.29 46.9368 407.126 45.7728 407.126 44.3368C407.126 42.9009 408.29 41.7368 409.726 41.7368C411.162 41.7368 412.326 42.9009 412.326 44.3368ZM-332.774 263.837C-331.338 263.837 -330.174 262.673 -330.174 261.237C-330.174 259.801 -331.338 258.637 -332.774 258.637C-334.209 258.637 -335.374 259.801 -335.374 261.237C-335.374 262.673 -334.209 263.837 -332.774 263.837ZM342.26 398.963L338.244 461.658L344.273 465.103L344.525 465.247V465.537V493.966L354.52 497.008L354.713 497.067L354.811 497.242L363.325 512.439V455.277L342.26 398.963ZM364.024 513.687L395.726 570.273V454.787H364.325V455.187V513.687H364.024ZM396.726 571.687V454.348L407.964 408.099L416.391 461.763L412.971 465.183L412.825 465.33V465.537V571.687H396.726ZM360.884 108.292L407.645 406.068L407.44 406.019L395.833 453.787H364.325V453.387H363.685L342.417 396.526L360.884 108.292ZM74.4247 443.02V464.941C62.4713 463.135 49.8392 461.493 38.962 460.124L34.0363 437.744C46.6617 439.216 60.5756 440.925 74.4247 443.02ZM74.4247 350.094V442.009C60.4824 439.902 46.4831 438.187 33.8089 436.711L31.3253 425.427V395.644L37.2217 401.541L37.9288 400.833L32.0324 394.937H47.0594C47.3028 396.689 48.8064 398.037 50.6249 398.037C52.6131 398.037 54.2249 396.425 54.2249 394.437C54.2249 392.449 52.6131 390.837 50.6249 390.837C48.8063 390.837 47.3027 392.185 47.0593 393.937H31.7015L37.1057 384.791L36.2448 384.283L31.3253 392.608V363.802C33.0772 363.559 34.4261 362.056 34.4261 360.237C34.4261 358.249 32.8143 356.637 30.8261 356.637C28.8379 356.637 27.2261 358.249 27.2261 360.237C27.2261 362.055 28.5741 363.558 30.3253 363.802V393.23L27.5789 390.483L26.8717 391.191L29.6182 393.937H10.0909C9.84781 392.185 8.34406 390.836 6.5253 390.836C4.53708 390.836 2.92529 392.448 2.92529 394.436C2.92529 396.425 4.53708 398.036 6.5253 398.036C8.34366 398.036 9.84717 396.688 10.0908 394.937H29.6182L23.2717 401.283L23.9789 401.991L30.3253 395.644V425.444L28.272 435.911C27.9866 435.879 27.7015 435.848 27.4167 435.817C-31.3491 429.4 -76.5692 430.168 -112.661 439.253C-148.158 448.189 -174.809 465.167 -196.824 491.225V374.989C-175.535 350.665 -133.416 329.766 -83.4448 319.587C-33.3657 309.387 24.513 309.973 77.0465 328.608L66.8772 341.934L66.6119 342.281L66.9211 342.59L74.4247 350.094ZM79.8513 324.933L77.6836 327.773C24.866 308.961 -33.3282 308.359 -83.6443 318.607C-133.305 328.722 -175.378 349.426 -197.036 373.718L-204.785 362.095C-197.983 352.457 -184.766 341.869 -166.798 332.051C-148.415 322.006 -125.103 312.792 -98.7143 306.24C-45.9334 293.137 19.1142 290.696 81.6262 313.509L81.777 313.096L79.8513 324.933ZM83.5406 302.255L81.8686 312.533C32.7499 294.629 -17.9061 292.26 -62.9761 298.384L-43.6797 -12.7632H1.6817L22.8146 297.07L23.8123 297.001L2.68402 -12.7632H27.7898L83.5406 302.255ZM95.1312 231.007L84.0269 299.265L28.8053 -12.7632H52.4975L154.095 346.423L154.113 346.487L154.147 346.544L161.622 359.003C149.014 348.405 133.562 338.073 120.263 330.277L115.889 324.915L96.114 230.984L95.1312 231.007ZM117.988 330.109L118.339 329.501L115.037 325.453L114.96 325.359L114.935 325.24L95.6877 233.813L80.8182 325.217L80.7981 325.341L80.7221 325.44L67.9375 342.193L75.2782 349.533L75.4247 349.68V349.887V513.056L96.993 539.026L120.775 513.043V350.852L120.664 350.78L120.775 350.61V349.887V349.671L120.931 349.523L128.693 342.193L119.602 331.048C119.06 330.731 118.522 330.418 117.988 330.109ZM121.775 350.102V350.31C132.006 356.976 145.103 365.6 154.47 374.218L161.767 360.435C149.798 350.266 135.091 340.286 122.096 332.523L129.762 341.921L130.056 342.281L129.718 342.6L121.775 350.102ZM85.3224 816.356L97.7634 818.636L100.526 819.096V704.936L84.727 703.243L85.3224 816.356ZM65.0764 812.646L84.3214 816.172L83.7241 702.689L83.6909 696.389L83.4565 651.839L83.4257 645.989V645.987V599.737L70.4757 600.99V647.786L69.4995 647.939L47.7978 580.176L33.0615 606.183L32.871 606.519L32.8702 606.519L32.4977 606.42L32.4969 606.42L18.9976 602.82L18.9969 602.82L18.6265 602.721L18.6257 602.721V602.337V595.181L-6.92432 686.555V799.45L7.37646 802.071V697.968C7.37646 694.783 7.8718 691.609 9.01312 688.617C11.4587 682.205 15.2127 673.685 19.6104 666.163C21.8093 662.401 24.175 658.879 26.6251 655.991C29.0706 653.108 31.6255 650.827 34.2101 649.586L34.2845 649.55L34.3663 649.54C37.4833 649.163 40.6367 650.149 43.6667 651.953C46.6977 653.757 49.6409 656.4 52.3582 659.398C57.7928 665.396 62.3842 672.884 65.0237 678.163L65.0764 678.269V678.387V812.646ZM69.4757 644.586L48.4265 578.861V533.205L82.9276 540.598L69.4878 600.427L69.4757 600.481V600.536V644.586ZM32.3812 605.354L19.6265 601.953V522.687V522.368L19.3379 522.234L12.9424 519.249L30.8546 427.941L38.1112 460.911L38.0971 461.023L38.137 461.028L50.9745 519.355L47.5972 522.311L47.4265 522.46V522.687V578.803V578.805L32.3812 605.354ZM-7.90585 686.352L18.6265 591.465V523.005L12.165 519.99L11.8105 519.824L11.8858 519.441L23.7079 459.177C-31.7652 453.154 -72.4856 453.831 -104.765 462.541C-137.1 471.266 -160.998 488.06 -182.779 514.336L-182.503 514.767L-182.424 514.891V515.037V767.287L-7.92432 799.267V686.487V686.418L-7.90585 686.352ZM28.0789 436.896L23.9012 458.192C-31.6561 452.154 -72.5493 452.812 -105.025 461.575C-137.487 470.334 -161.506 487.182 -183.345 513.452L-196.683 492.611C-174.683 466.294 -148.047 449.192 -112.417 440.223C-76.4932 431.18 -31.4098 430.399 27.3081 436.811L27.7536 436.86L28.0789 436.896ZM-204.175 359.6C-196.919 350.318 -184.132 340.383 -167.278 331.173C-155.344 324.652 -141.352 318.485 -125.803 313.164L-68.105 -12.7632H-93.0018L-204.175 359.6ZM-330.174 346.737C-330.174 348.173 -331.338 349.337 -332.774 349.337C-334.209 349.337 -335.374 348.173 -335.374 346.737C-335.374 345.301 -334.209 344.137 -332.774 344.137C-331.338 344.137 -330.174 345.301 -330.174 346.737ZM-332.758 352.161L-338.925 386.287H-332.774H-326.18L-332.758 352.161ZM-398.614 661.896L-333.978 396.1C-333.659 394.787 -331.798 394.772 -331.457 396.079L-239.346 749.609C-239.274 749.886 -239.296 750.161 -239.39 750.403C-289.736 725.791 -333.058 723.808 -364.862 729.025C-380.855 731.648 -393.932 736.091 -403.524 740.389C-411.522 743.973 -417.125 747.47 -419.97 749.742C-419.965 749.704 -419.957 749.667 -419.948 749.629L-406.152 692.897L-406.089 692.904L-398.614 661.896ZM-399.588 661.671L-394.925 642.328V572.689L-401.12 543.364L-406.075 572.679V688.347L-399.588 661.671ZM-415.063 838.268L-250.025 784.638V751.737V751.237H-249.525H-240.604C-240.439 751.237 -240.282 751.206 -240.138 751.151C-290.155 726.778 -333.154 724.837 -364.7 730.012C-380.602 732.62 -393.596 737.036 -403.115 741.302C-411.43 745.028 -417.063 748.625 -419.67 750.785C-419.434 751.059 -419.084 751.237 -418.685 751.237H-414.225H-413.717L-413.725 751.744L-415.063 838.268ZM267.026 883.107V961.789L193.327 955.018V870.243L267.026 883.107ZM64.0764 694.235V812.462L37.1753 807.532V715.724C37.1753 713.673 37.3849 711.637 37.8729 709.658C39.039 704.927 40.5913 699.779 42.442 695.18C44.2971 690.569 46.4342 686.554 48.7517 684.049C49.9087 682.799 51.0831 681.955 52.2591 681.581C53.4176 681.212 54.6113 681.286 55.8594 681.934C57.1235 682.59 58.4631 683.846 59.8549 685.875C61.2338 687.886 62.6458 690.63 64.0764 694.235ZM64.0764 691.636C62.9403 689.045 61.807 686.954 60.6797 685.31C59.2357 683.204 57.7832 681.806 56.3201 681.046C54.841 680.279 53.3726 680.176 51.9555 680.628C50.556 681.074 49.2415 682.047 48.0178 683.37C45.5739 686.011 43.3824 690.163 41.5142 694.806C39.6415 699.461 38.0759 704.655 36.9019 709.418C36.3918 711.488 36.1753 713.605 36.1753 715.724V807.349L8.37646 802.254V697.968C8.37646 694.886 8.85587 691.836 9.94748 688.973C12.3801 682.595 16.1117 674.129 20.4737 666.667C22.6548 662.936 24.9875 659.467 27.3877 656.637C29.7678 653.832 32.1894 651.686 34.5684 650.523C37.3662 650.208 40.2669 651.093 43.1552 652.812C46.0708 654.548 48.9383 657.114 51.6172 660.07C56.9392 665.943 61.4577 673.29 64.0764 678.505V691.636ZM-95.5858 838.119L-95.1943 838.783L-80.3443 863.983L-80.2718 864.106L-80.2752 864.249L-81.1752 901.599L-81.1888 902.16L-81.7447 902.082L-110.545 898.032L-110.98 897.971L-110.975 897.531L-110.525 859.281L-110.523 859.124L-110.433 858.997L-96.0326 838.747L-95.5858 838.119ZM-109.527 859.449L-109.97 897.103L-82.1614 901.013L-81.2784 864.367L-95.6644 839.955L-109.527 859.449ZM224.305 894.583L223.914 893.919L223.467 894.547L209.067 914.797L208.977 914.924L208.975 915.08L208.525 948.83L208.519 949.291L208.977 949.335L237.327 952.035L237.852 952.085L237.874 951.558L239.224 920.058L239.231 919.911L239.155 919.783L224.305 894.583ZM209.531 948.383L209.973 915.25L223.835 895.755L238.219 920.163L236.898 950.989L209.531 948.383ZM-31.6854 849.819L-31.2939 850.483L-16.4439 875.683L-16.3714 875.806L-16.3748 875.949L-17.2748 913.299L-17.2884 913.86L-17.8443 913.782L-46.6443 909.732L-47.0798 909.671L-47.0747 909.231L-46.6247 870.981L-46.6228 870.825L-46.5322 870.697L-32.1322 850.447L-31.6854 849.819ZM-45.6266 871.149L-46.0696 908.803L-18.261 912.714L-17.378 876.068L-31.764 851.655L-45.6266 871.149ZM-159.093 826.183L-159.484 825.518L-159.931 826.147L-174.331 846.397L-174.422 846.524L-174.423 846.681L-174.874 884.931L-174.879 885.37L-174.443 885.432L-145.643 889.482L-145.087 889.56L-145.074 888.999L-144.174 851.649L-144.17 851.506L-144.243 851.383L-159.093 826.183ZM-173.868 884.503L-173.425 846.849L-159.563 827.355L-145.177 851.767L-146.06 888.413L-173.868 884.503ZM160.016 882.219L160.407 882.883L175.257 908.083L175.33 908.206L175.326 908.349L174.426 945.699L174.413 946.26L173.857 946.182L145.057 942.132L144.621 942.071L144.626 941.631L145.076 903.381L145.078 903.224L145.169 903.097L159.569 882.847L160.016 882.219ZM146.074 903.549L145.631 941.203L173.44 945.113L174.323 908.467L159.937 884.055L146.074 903.549ZM32.6064 859.483L32.215 858.819L31.7682 859.447L17.3682 879.697L17.2776 879.825L17.2757 879.981L16.8257 918.231L16.8206 918.671L17.256 918.732L46.0561 922.782L46.612 922.86L46.6255 922.299L47.5255 884.949L47.529 884.806L47.4565 884.683L32.6064 859.483ZM17.8308 917.803L18.2738 880.149L32.1364 860.655L46.5224 885.068L45.6393 921.714L17.8308 917.803ZM96.1152 870.519L96.5066 871.183L111.357 896.383L111.429 896.506L111.426 896.649L110.526 933.999L110.512 934.56L109.956 934.482L81.1562 930.432L80.7207 930.371L80.7259 929.931L81.1759 891.681L81.1778 891.525L81.2684 891.397L95.6684 871.147L96.1152 870.519ZM82.174 891.849L81.731 929.503L109.54 933.414L110.423 896.768L96.0365 872.355L82.174 891.849ZM-191.974 801.916L-233.274 814.784V905.623L-191.974 894.9V801.916ZM-190.974 894.859L-121.324 905.767V814.232L-190.974 801.834V894.859ZM-120.324 814.41V905.924L-61.9235 915.07V824.807L-120.324 814.41ZM-60.9235 824.984V915.227L1.97647 925.078V836.182L-60.9235 824.984ZM2.97647 836.36V925.234L64.9765 934.944V847.397L2.97647 836.36ZM65.9765 847.575V935.101L129.777 945.093V858.932L65.9765 847.575ZM130.777 859.11V945.25L192.327 954.889V870.067L130.777 859.11ZM-234.274 905.882V815.095L-278.724 828.944V917.423L-234.274 905.882ZM-279.724 917.683V829.255L-329.574 844.787V930.625L-279.724 917.683ZM-330.574 930.885V845.098L-371.424 857.825V941.491L-330.574 930.885ZM-372.424 941.75V858.137L-421.374 873.388V954.459L-372.424 941.75ZM-401.174 540.137C-399.738 540.137 -398.574 538.973 -398.574 537.537C-398.574 536.101 -399.738 534.937 -401.174 534.937C-402.61 534.937 -403.774 536.101 -403.774 537.537C-403.774 538.973 -402.61 540.137 -401.174 540.137ZM-412.874 516.787H-402.381L-410.077 509.09L-409.37 508.383L-401.674 516.08V500.637H-400.674V516.08L-394.327 509.733L-393.62 510.44L-399.966 516.787H-387.674V517.787H-399.966L-393.17 524.583L-393.877 525.29L-400.674 518.494V533.937H-401.674V518.494L-407.12 523.94L-407.827 523.233L-402.381 517.787H-412.874V516.787ZM-293.275 302.637C-293.275 304.073 -294.439 305.237 -295.875 305.237C-297.311 305.237 -298.475 304.073 -298.475 302.637C-298.475 301.201 -297.311 300.037 -295.875 300.037C-294.439 300.037 -293.275 301.201 -293.275 302.637ZM50.6249 397.037C52.0608 397.037 53.2249 395.873 53.2249 394.437C53.2249 393.001 52.0608 391.837 50.6249 391.837C49.189 391.837 48.0249 393.001 48.0249 394.437C48.0249 395.873 49.189 397.037 50.6249 397.037ZM315.226 46.9368C316.662 46.9368 317.826 45.7728 317.826 44.3368C317.826 42.9009 316.662 41.7368 315.226 41.7368C313.79 41.7368 312.626 42.9009 312.626 44.3368C312.626 45.7728 313.79 46.9368 315.226 46.9368ZM6.5253 397.036C7.96124 397.036 9.12531 395.872 9.12531 394.436C9.12531 393 7.96124 391.836 6.5253 391.836C5.08936 391.836 3.92529 393 3.92529 394.436C3.92529 395.872 5.08936 397.036 6.5253 397.036ZM33.4261 360.237C33.4261 361.673 32.262 362.837 30.8261 362.837C29.3901 362.837 28.2261 361.673 28.2261 360.237C28.2261 358.801 29.3901 357.637 30.8261 357.637C32.262 357.637 33.4261 358.801 33.4261 360.237ZM-368.774 305.237C-367.338 305.237 -366.174 304.073 -366.174 302.637C-366.174 301.201 -367.338 300.037 -368.774 300.037C-370.209 300.037 -371.374 301.201 -371.374 302.637C-371.374 304.073 -370.209 305.237 -368.774 305.237ZM-98.9552 305.27C-107.921 307.496 -116.534 310.028 -124.722 312.797L-67.1426 -12.4634H-44.7002L-63.9867 298.523C-76.0979 300.206 -87.8004 302.501 -98.9552 305.27ZM70.6149 599.972L83.4257 598.733V542.944L70.6149 599.972ZM84.4257 542.239V598.77L100.338 601.701L84.4257 542.239ZM100.526 602.753L84.4257 599.787V645.536L100.526 647.231V602.753ZM100.526 648.237L84.4286 646.542L84.4541 651.386L100.526 653.081V648.237ZM100.526 654.087L84.4594 652.392L84.6886 695.949L100.526 698.065V654.087ZM100.526 699.074L84.6939 696.958L84.7218 702.237L100.526 703.93V699.074ZM377.332 756.73C378.569 755.592 380.488 755.647 381.658 756.855L392.19 767.727C392.731 768.285 393.042 769.026 393.063 769.802L395.233 851.839L368.825 815.474V765.917C368.825 765.05 369.189 764.222 369.827 763.635L377.332 756.73Z" fill="url(#paint0_linear_187_151)"/>
</g>
</g>
<defs>
<linearGradient id="paint0_linear_187_151" x1="3.58435" y1="-18.6631" x2="3.58435" y2="969.087" gradientUnits="userSpaceOnUse">
<stop offset="0.530039"/>
<stop offset="1" stop-opacity="0"/>
</linearGradient>
<clipPath id="clip0_187_151">
<rect x="0.325684" y="0.0366211" width="440" height="640" rx="36" fill="white"/>
</clipPath>
<clipPath id="clip1_187_151">
<rect width="959" height="1014" fill="white" transform="translate(-459.674 -17.9634)"/>
</clipPath>
</defs>
</svg>
