<svg width="314" height="404" viewBox="0 0 314 404" fill="none" xmlns="http://www.w3.org/2000/svg">
<g filter="url(#filter0_d_184_104)">
<path d="M307.263 378.462C304.814 382.161 298.041 370.121 293.646 370.351C289.25 370.582 289.827 381.594 285.421 381.825C281.015 382.056 280.448 371.043 276.053 371.273C271.657 371.504 272.234 382.516 267.839 382.747C263.443 382.977 262.866 371.964 258.47 372.195C254.075 372.425 254.652 383.438 250.256 383.668C245.86 383.899 245.283 372.886 240.888 373.116C236.492 373.346 237.069 384.359 232.674 384.59C228.278 384.82 227.701 373.807 223.305 374.038C218.909 374.268 219.487 385.281 215.091 385.511C210.695 385.741 210.118 374.729 205.722 374.959C201.327 375.189 201.904 386.202 197.508 386.433C193.113 386.663 192.536 375.65 188.14 375.88C183.744 376.111 184.321 387.124 179.926 387.354C175.53 387.584 174.953 376.572 170.557 376.802C166.162 377.032 166.739 388.045 162.343 388.276C157.948 388.506 157.37 377.493 152.965 377.724C148.559 377.955 149.146 388.967 144.74 389.198C140.334 389.429 139.767 378.416 135.362 378.646C130.956 378.877 131.543 389.89 127.137 390.121C122.731 390.351 122.165 379.338 117.759 379.569C113.353 379.8 113.94 390.812 109.534 391.043C105.129 391.274 104.562 380.261 100.156 380.492C95.7499 380.722 96.3373 391.735 91.9315 391.966C87.5256 392.197 86.9586 381.183 82.5528 381.414C78.1572 381.644 78.7343 392.657 74.3285 392.888C69.9227 393.119 69.3557 382.106 64.9499 382.337C60.5441 382.567 61.1212 393.58 56.7256 393.811C52.3299 394.041 51.7528 383.028 47.3469 383.259C42.9411 383.49 43.5183 394.503 39.1226 394.733C34.727 394.964 37.0364 389.579 34.2144 386.156C30.4548 381.585 24.2879 384.034 23.9761 378.085C23.6643 372.136 34.5522 371.576 34.2404 365.627C33.9287 359.678 23.0418 360.259 22.7306 354.32C22.4194 348.381 33.3067 347.811 32.995 341.862C32.6832 335.913 21.7964 336.494 21.4851 330.555C21.1739 324.616 32.0613 324.046 31.7495 318.097C31.4377 312.148 20.5509 312.729 20.2391 306.78C19.9273 300.831 30.8152 300.27 30.5035 294.321C30.1917 288.372 19.3049 288.953 18.9936 283.015C18.6824 277.076 29.5698 276.505 29.258 270.556C28.9462 264.607 18.0594 265.188 17.7476 259.239C17.4359 253.29 28.3238 252.73 28.012 246.781C27.7002 240.832 16.8134 241.413 16.5022 235.474C16.1909 229.536 27.0783 228.965 26.7671 223.026C26.4558 217.088 15.5679 217.648 15.2567 211.709C14.9454 205.77 25.8328 205.2 25.5216 199.261C25.2103 193.323 14.3224 193.883 14.0112 187.944C13.7 182.005 24.5873 181.435 24.2756 175.486C23.9638 169.537 13.077 170.118 12.7652 164.169C12.4534 158.22 23.3413 157.66 23.0296 151.711C22.7178 145.762 11.831 146.342 11.5197 140.404C11.2085 134.465 22.0953 133.884 21.7841 127.945C21.4728 122.007 10.5849 122.567 10.2737 116.628C9.96248 110.69 20.8498 110.119 20.5381 104.17C20.2263 98.2211 9.33893 98.7917 9.0277 92.853C8.71646 86.9143 19.6038 86.3438 19.2921 80.3948C18.9803 74.4458 8.09292 75.0164 7.78168 69.0777C7.47045 63.139 18.3573 62.5581 18.046 56.6194C17.7348 50.6807 6.8469 51.241 6.53567 45.3023C6.22444 39.3637 17.1113 38.7828 16.7995 32.8338C16.4877 26.8848 2.92315 23.0959 6.20471 18.1558C8.64325 14.4571 15.4165 26.4972 19.8121 26.2668C24.2078 26.0364 23.6408 15.0231 28.0364 14.7927C32.4321 14.5623 33.0092 25.5752 37.4049 25.3448C41.8005 25.1144 41.2234 14.1016 45.6292 13.8707C50.035 13.6398 50.602 24.6532 54.9977 24.4228C59.3933 24.1924 58.8161 13.1796 63.2118 12.9492C67.6074 12.7189 68.1846 23.7317 72.5802 23.5013C76.9759 23.271 76.4089 12.2576 80.8046 12.0273C85.2002 11.7969 85.7774 22.8097 90.173 22.5793C94.5687 22.349 93.9915 11.3362 98.3871 11.1058C102.783 10.8754 103.36 21.8882 107.756 21.6579C112.151 21.4275 111.574 10.4147 115.98 10.1838C120.386 9.95289 120.953 20.9662 125.348 20.7359C129.744 20.5055 129.167 9.49269 133.562 9.26233C137.958 9.03196 138.535 20.0448 142.931 19.8144C147.327 19.584 146.749 8.57123 151.145 8.34086C155.541 8.11049 156.118 19.1233 160.524 18.8924C164.93 18.6615 164.342 7.64923 168.748 7.41833C173.154 7.18743 173.721 18.2008 178.127 17.9699C182.532 17.739 181.945 6.7267 186.351 6.4958C190.757 6.2649 191.324 17.2783 195.73 17.0474C200.135 16.8165 199.548 5.80417 203.954 5.57327C208.36 5.34237 208.927 16.3557 213.333 16.1248C217.738 15.8939 217.151 4.88164 221.557 4.65074C225.963 4.41984 226.53 15.4332 230.935 15.2023C235.341 14.9714 234.754 3.95911 239.16 3.72821C243.566 3.49731 244.133 14.5107 248.538 14.2798C252.944 14.0489 252.367 3.03604 256.763 2.80568C261.158 2.57531 261.735 13.5881 266.141 13.3572C270.547 13.1263 269.97 2.11351 274.366 1.88314C278.761 1.65278 276.452 7.03733 279.274 10.4604C283.044 15.0309 289.211 12.5817 289.522 18.5307C289.834 24.4797 278.946 25.0399 279.258 30.9889C279.57 36.9379 290.457 36.357 290.768 42.306C291.08 48.255 280.192 48.8153 280.504 54.7643C280.816 60.7133 291.703 60.1324 292.014 66.0814C292.326 72.0303 281.438 72.5906 281.75 78.5396C282.062 84.4886 292.949 83.9077 293.26 89.8567C293.572 95.8057 282.684 96.366 282.996 102.315C283.308 108.264 294.195 107.683 294.506 113.632C294.818 119.581 283.93 120.141 284.242 126.09C284.554 132.039 295.441 131.458 295.752 137.407C296.064 143.356 285.176 143.917 285.488 149.866C285.8 155.815 296.687 155.234 296.998 161.172C297.309 167.111 286.422 167.682 286.733 173.62C287.044 179.559 297.932 178.989 298.243 184.938C298.555 190.886 287.667 191.447 287.978 197.385C288.29 203.324 299.177 202.754 299.489 208.703C299.801 214.652 288.913 215.212 289.224 221.161C289.536 227.1 300.423 226.529 300.735 232.478C301.046 238.417 290.159 238.987 290.471 244.936C290.782 250.875 301.669 250.304 301.981 256.253C302.293 262.202 291.405 262.773 291.717 268.712C292.028 274.65 302.915 274.08 303.227 280.029C303.539 285.978 292.651 286.538 292.963 292.487C293.274 298.436 304.162 297.865 304.473 303.804C304.784 309.743 293.897 310.313 294.209 316.262C294.52 322.211 305.407 321.63 305.719 327.579C306.031 333.528 295.143 334.099 295.455 340.038C295.766 345.976 306.653 345.406 306.965 351.355C307.277 357.304 294.846 360.153 297.114 365.659C300.304 373.377 310.567 373.551 307.296 378.501L307.263 378.462Z" fill="#F4EAD3"/>
<g clip-path="url(#clip0_184_104)">
<rect x="28.0804" y="43.6837" width="241.2" height="322.2" rx="18" transform="rotate(-3 28.0804 43.6837)" fill="#FFA68F"/>
<mask id="path-3-inside-1_184_104" fill="white">
<path fill-rule="evenodd" clip-rule="evenodd" d="M238.191 243.17C247.661 239.328 253.058 235.048 252.834 230.766C252.218 219.025 209.567 211.716 157.569 214.441C105.57 217.166 63.9166 228.893 64.5319 240.635C64.7563 244.917 70.5709 248.609 80.3903 251.44C65.3987 267.887 56.9018 288.749 58.0689 311.019C60.6475 360.222 109.423 397.662 167.012 394.643C224.602 391.625 269.197 349.292 266.618 300.09C265.451 277.82 254.82 257.96 238.191 243.17Z"/>
</mask>
<path d="M238.191 243.17L237.853 242.336L236.511 242.881L237.593 243.843L238.191 243.17ZM157.569 214.441L157.521 213.542L157.569 214.441ZM80.3903 251.44L81.0555 252.046L82.0308 250.976L80.6397 250.575L80.3903 251.44ZM58.0689 311.019L57.1701 311.066L58.0689 311.019ZM251.935 230.813C252.025 232.532 250.994 234.425 248.572 236.441C246.169 238.442 242.549 240.431 237.853 242.336L238.53 244.004C243.304 242.067 247.117 239.995 249.724 237.825C252.312 235.67 253.867 233.282 253.732 230.719L251.935 230.813ZM157.616 215.339C183.569 213.979 207.161 215.125 224.318 218.066C232.903 219.537 239.827 221.449 244.619 223.694C247.016 224.816 248.835 226.002 250.062 227.22C251.283 228.434 251.873 229.634 251.935 230.813L253.732 230.719C253.64 228.963 252.763 227.366 251.331 225.943C249.904 224.526 247.883 223.235 245.383 222.064C240.38 219.721 233.276 217.774 224.622 216.291C207.299 213.323 183.567 212.177 157.521 213.542L157.616 215.339ZM65.4307 240.588C65.3688 239.408 65.8299 238.153 66.9178 236.819C68.0101 235.478 69.6955 234.109 71.9619 232.742C76.4933 230.009 83.1794 227.384 91.5641 225.023C108.319 220.306 131.663 216.7 157.616 215.339L157.521 213.542C131.476 214.907 107.994 218.527 91.0763 223.29C82.6247 225.67 75.7628 228.348 71.0322 231.201C68.6676 232.627 66.7935 234.122 65.5225 235.681C64.2472 237.246 63.5411 238.926 63.6331 240.682L65.4307 240.588ZM80.6397 250.575C75.7706 249.171 71.9623 247.572 69.3634 245.833C66.7441 244.081 65.5207 242.307 65.4307 240.588L63.6331 240.682C63.7674 243.245 65.5636 245.457 68.3626 247.329C71.1819 249.215 75.1906 250.878 80.141 252.305L80.6397 250.575ZM58.9677 310.972C57.8146 288.971 66.2057 268.338 81.0555 252.046L79.7252 250.834C64.5917 267.436 55.9889 288.528 57.1701 311.066L58.9677 310.972ZM166.965 393.745C109.735 396.744 61.5136 359.551 58.9677 310.972L57.1701 311.066C59.7814 360.893 109.112 398.579 167.06 395.542L166.965 393.745ZM265.719 300.137C268.265 348.715 224.196 390.745 166.965 393.745L167.06 395.542C225.007 392.505 270.128 349.869 267.517 300.043L265.719 300.137ZM237.593 243.843C254.064 258.492 264.566 278.136 265.719 300.137L267.517 300.043C266.336 277.504 255.575 257.427 238.789 242.498L237.593 243.843Z" fill="black" mask="url(#path-3-inside-1_184_104)"/>
<path d="M252.384 230.79C252.454 232.113 251.931 233.475 250.797 234.867C249.66 236.262 247.927 237.662 245.636 239.044C241.055 241.807 234.325 244.446 225.923 246.811C209.128 251.54 185.749 255.15 159.773 256.511C133.797 257.872 110.17 256.726 92.9719 253.779C84.3693 252.305 77.4002 250.384 72.5553 248.115C70.1325 246.98 68.263 245.768 66.9864 244.5C65.7124 243.234 65.0507 241.935 64.9813 240.611C64.9119 239.288 65.4342 237.926 66.569 236.534C67.706 235.139 69.4385 233.739 71.7295 232.357C76.3107 229.594 83.0407 226.955 91.4422 224.59C108.238 219.861 131.616 216.251 157.592 214.89C183.568 213.529 207.196 214.675 224.394 217.622C232.996 219.096 239.965 221.017 244.81 223.286C247.233 224.421 249.102 225.633 250.379 226.901C251.653 228.167 252.315 229.466 252.384 230.79Z" stroke="black" stroke-width="0.9"/>
<path d="M246.53 230.957C246.584 232.003 246.11 233.103 245.045 234.254C243.978 235.405 242.354 236.569 240.202 237.722C235.902 240.027 229.592 242.243 221.72 244.242C205.983 248.24 184.097 251.353 159.795 252.626C135.493 253.9 113.401 253.092 97.3327 250.761C89.2948 249.595 82.7877 248.052 78.27 246.208C76.01 245.286 74.2725 244.299 73.0918 243.266C71.9118 242.233 71.325 241.188 71.2702 240.142C71.2154 239.097 71.6898 237.997 72.7554 236.846C73.8216 235.695 75.4463 234.531 77.5976 233.378C81.8979 231.073 88.2079 228.857 96.0799 226.857C111.817 222.86 133.703 219.747 158.005 218.473C182.307 217.2 204.399 218.008 220.467 220.339C228.505 221.504 235.012 223.048 239.53 224.891C241.79 225.813 243.527 226.801 244.708 227.834C245.888 228.867 246.475 229.912 246.53 230.957Z" stroke="black" stroke-width="0.9"/>
<g clip-path="url(#clip1_184_104)">
<path d="M112.983 234.859L116.08 230.436C117.312 228.676 119.193 227.478 121.309 227.105C123.424 226.732 125.601 227.214 127.361 228.447C129.121 229.679 130.319 231.56 130.692 233.675C131.065 235.791 130.582 237.968 129.35 239.728L126.253 244.151" stroke="black" stroke-width="0.9" stroke-linecap="round" stroke-linejoin="round"/>
<path d="M125.737 244.888C125.464 245.279 125.046 245.546 124.575 245.629C124.105 245.712 123.622 245.604 123.23 245.33L122.493 244.814C122.102 244.54 121.836 244.122 121.753 243.652C121.67 243.182 121.777 242.698 122.051 242.307L123.6 240.096C123.874 239.705 124.292 239.438 124.762 239.355C125.232 239.272 125.716 239.38 126.107 239.654L128.318 241.202L125.737 244.888ZM112.467 235.596C112.193 235.988 112.086 236.471 112.169 236.941C112.252 237.412 112.518 237.83 112.909 238.103L113.646 238.62C114.037 238.893 114.521 239.001 114.991 238.918C115.462 238.835 115.879 238.569 116.153 238.178L117.702 235.966C117.976 235.575 118.083 235.091 118 234.621C117.917 234.151 117.651 233.733 117.26 233.459L115.048 231.91L112.467 235.596Z" stroke="black" stroke-width="0.9" stroke-linecap="round" stroke-linejoin="round"/>
</g>
<g clip-path="url(#clip2_184_104)">
<path d="M187.257 201.859L189.694 198.625C190.664 197.338 192.105 196.489 193.7 196.265C195.296 196.041 196.915 196.459 198.202 197.429C199.488 198.399 200.337 199.84 200.562 201.435C200.786 203.031 200.367 204.65 199.397 205.937L196.96 209.171" stroke="black" stroke-width="0.9" stroke-linecap="round" stroke-linejoin="round"/>
<path d="M196.554 209.71C196.338 209.996 196.018 210.185 195.664 210.235C195.309 210.284 194.949 210.191 194.663 209.976L194.124 209.57C193.838 209.354 193.65 209.034 193.6 208.679C193.55 208.325 193.643 207.965 193.858 207.679L195.077 206.062C195.293 205.776 195.613 205.587 195.967 205.537C196.322 205.488 196.682 205.581 196.968 205.796L198.585 207.015L196.554 209.71ZM186.85 202.398C186.635 202.684 186.542 203.044 186.592 203.398C186.642 203.753 186.83 204.073 187.116 204.289L187.655 204.695C187.941 204.91 188.301 205.004 188.656 204.954C189.01 204.904 189.33 204.715 189.546 204.429L190.765 202.812C190.98 202.526 191.073 202.166 191.023 201.812C190.973 201.457 190.785 201.137 190.499 200.921L188.882 199.703L186.85 202.398Z" stroke="black" stroke-width="0.9" stroke-linecap="round" stroke-linejoin="round"/>
</g>
<g clip-path="url(#clip3_184_104)">
<path d="M190.48 235.081L192.318 231.472C193.05 230.037 194.321 228.95 195.854 228.453C197.386 227.955 199.053 228.086 200.489 228.817C201.925 229.549 203.011 230.821 203.509 232.353C204.007 233.885 203.875 235.553 203.144 236.988L201.305 240.597" stroke="black" stroke-width="0.9" stroke-linecap="round" stroke-linejoin="round"/>
<path d="M201 241.198C200.838 241.517 200.555 241.759 200.214 241.869C199.874 241.98 199.503 241.951 199.184 241.788L198.583 241.482C198.264 241.319 198.022 241.037 197.912 240.696C197.801 240.356 197.83 239.985 197.993 239.666L198.912 237.862C199.075 237.543 199.357 237.301 199.698 237.191C200.038 237.08 200.409 237.109 200.728 237.272L202.532 238.191L201 241.198ZM190.174 235.682C190.012 236.001 189.983 236.372 190.093 236.712C190.204 237.053 190.445 237.335 190.764 237.498L191.366 237.804C191.685 237.967 192.055 237.996 192.396 237.886C192.736 237.775 193.019 237.533 193.181 237.214L194.101 235.41C194.263 235.091 194.293 234.721 194.182 234.38C194.071 234.04 193.83 233.757 193.511 233.594L191.707 232.675L190.174 235.682Z" stroke="black" stroke-width="0.9" stroke-linecap="round" stroke-linejoin="round"/>
</g>
<g clip-path="url(#clip4_184_104)">
<path d="M147.916 192.639L148.854 187.321C149.227 185.205 150.425 183.325 152.185 182.092C153.945 180.86 156.122 180.378 158.238 180.751C160.353 181.124 162.234 182.322 163.466 184.082C164.698 185.841 165.181 188.018 164.808 190.134L163.87 195.452" stroke="black" stroke-width="0.9" stroke-linecap="round" stroke-linejoin="round"/>
<path d="M163.714 196.338C163.631 196.809 163.365 197.226 162.974 197.5C162.583 197.774 162.099 197.881 161.629 197.798L160.742 197.642C160.272 197.559 159.854 197.293 159.581 196.902C159.307 196.511 159.199 196.027 159.282 195.557L159.751 192.898C159.834 192.428 160.1 192.01 160.491 191.736C160.882 191.462 161.366 191.355 161.836 191.438L164.495 191.907L163.714 196.338ZM147.76 193.525C147.677 193.995 147.784 194.479 148.058 194.87C148.332 195.261 148.75 195.528 149.22 195.61L150.107 195.767C150.577 195.85 151.06 195.742 151.452 195.469C151.843 195.195 152.109 194.777 152.192 194.307L152.661 191.648C152.743 191.178 152.636 190.694 152.362 190.303C152.089 189.912 151.671 189.645 151.2 189.562L148.542 189.094L147.76 193.525Z" stroke="black" stroke-width="0.9" stroke-linecap="round" stroke-linejoin="round"/>
</g>
<path d="M154.506 323.651L154.223 318.258C154.111 316.113 154.855 314.011 156.293 312.414C157.73 310.818 159.743 309.858 161.888 309.745C164.033 309.633 166.136 310.377 167.732 311.815C169.328 313.252 170.288 315.265 170.401 317.41L170.684 322.803" stroke="black" stroke-width="0.9" stroke-linecap="round" stroke-linejoin="round"/>
<path d="M170.731 323.702C170.756 324.178 170.591 324.645 170.271 325C169.952 325.355 169.504 325.568 169.028 325.593L168.129 325.64C167.652 325.665 167.185 325.5 166.83 325.181C166.476 324.861 166.262 324.414 166.237 323.937L166.096 321.241C166.071 320.764 166.236 320.297 166.556 319.942C166.875 319.587 167.323 319.374 167.799 319.349L170.496 319.208L170.731 323.702ZM154.553 324.549C154.578 325.026 154.792 325.473 155.146 325.793C155.501 326.112 155.968 326.278 156.445 326.253L157.344 326.206C157.821 326.181 158.268 325.967 158.587 325.613C158.907 325.258 159.072 324.791 159.047 324.314L158.906 321.618C158.881 321.141 158.667 320.694 158.313 320.374C157.958 320.055 157.491 319.889 157.014 319.914L154.318 320.056L154.553 324.549Z" stroke="black" stroke-width="0.9" stroke-linecap="round" stroke-linejoin="round"/>
<g clip-path="url(#clip5_184_104)">
<path d="M114.737 201.233L113.869 198.205C113.523 197.001 113.67 195.708 114.278 194.612C114.885 193.516 115.904 192.706 117.108 192.361C118.313 192.015 119.605 192.163 120.701 192.77C121.797 193.378 122.607 194.396 122.952 195.6L123.821 198.628" stroke="black" stroke-width="0.9" stroke-linecap="round" stroke-linejoin="round"/>
<path d="M123.966 199.133C124.043 199.401 124.01 199.688 123.875 199.931C123.74 200.175 123.514 200.355 123.246 200.432L122.742 200.576C122.474 200.653 122.187 200.62 121.943 200.485C121.7 200.35 121.52 200.124 121.443 199.856L121.009 198.342C120.932 198.075 120.965 197.788 121.1 197.544C121.235 197.3 121.461 197.12 121.729 197.044L123.243 196.61L123.966 199.133ZM114.882 201.738C114.959 202.005 115.139 202.232 115.383 202.367C115.626 202.502 115.913 202.534 116.181 202.458L116.686 202.313C116.953 202.236 117.18 202.056 117.315 201.813C117.45 201.569 117.482 201.282 117.406 201.014L116.971 199.5C116.895 199.232 116.715 199.006 116.471 198.871C116.228 198.736 115.94 198.703 115.673 198.78L114.159 199.214L114.882 201.738Z" stroke="black" stroke-width="0.9" stroke-linecap="round" stroke-linejoin="round"/>
</g>
<g clip-path="url(#clip6_184_104)">
<path d="M161.71 232.665L160.718 229.205C160.323 227.828 160.491 226.351 161.185 225.098C161.88 223.846 163.043 222.92 164.42 222.526C165.797 222.131 167.274 222.299 168.526 222.993C169.779 223.688 170.704 224.851 171.099 226.228L172.091 229.688" stroke="black" stroke-width="0.9" stroke-linecap="round" stroke-linejoin="round"/>
<path d="M172.257 230.265C172.345 230.571 172.307 230.899 172.153 231.178C171.999 231.456 171.74 231.662 171.434 231.749L170.857 231.915C170.552 232.002 170.223 231.965 169.945 231.811C169.667 231.656 169.461 231.398 169.373 231.092L168.877 229.362C168.789 229.056 168.827 228.727 168.981 228.449C169.135 228.171 169.394 227.965 169.7 227.877L171.43 227.381L172.257 230.265ZM161.875 233.242C161.963 233.548 162.169 233.806 162.447 233.961C162.725 234.115 163.054 234.152 163.36 234.065L163.936 233.899C164.242 233.812 164.501 233.606 164.655 233.328C164.809 233.049 164.847 232.721 164.759 232.415L164.263 230.685C164.175 230.379 163.97 230.12 163.691 229.966C163.413 229.812 163.085 229.774 162.779 229.862L161.048 230.358L161.875 233.242Z" stroke="black" stroke-width="0.9" stroke-linecap="round" stroke-linejoin="round"/>
</g>
<path d="M192.421 316.256C193.293 332.885 180.519 347.071 163.891 347.943C147.262 348.814 133.075 336.041 132.204 319.412C131.332 302.784 144.106 288.597 160.735 287.726C177.363 286.854 191.55 299.628 192.421 316.256Z" stroke="black" stroke-width="0.9"/>
</g>
</g>
<defs>
<filter id="filter0_d_184_104" x="-0.4" y="-0.663403" width="314.298" height="405.143" filterUnits="userSpaceOnUse" color-interpolation-filters="sRGB">
<feFlood flood-opacity="0" result="BackgroundImageFix"/>
<feColorMatrix in="SourceAlpha" type="matrix" values="0 0 0 0 0 0 0 0 0 0 0 0 0 0 0 0 0 0 127 0" result="hardAlpha"/>
<feOffset dy="3.6"/>
<feGaussianBlur stdDeviation="2.7"/>
<feComposite in2="hardAlpha" operator="out"/>
<feColorMatrix type="matrix" values="0 0 0 0 0 0 0 0 0 0 0 0 0 0 0 0 0 0 0.1 0"/>
<feBlend mode="normal" in2="BackgroundImageFix" result="effect1_dropShadow_184_104"/>
<feBlend mode="normal" in="SourceGraphic" in2="effect1_dropShadow_184_104" result="shape"/>
</filter>
<clipPath id="clip0_184_104">
<rect x="28.0804" y="43.6837" width="241.2" height="322.2" rx="18" transform="rotate(-3 28.0804 43.6837)" fill="white"/>
</clipPath>
<clipPath id="clip1_184_104">
<rect width="21.6" height="21.6" fill="white" transform="translate(120.063 220.04) rotate(35)"/>
</clipPath>
<clipPath id="clip2_184_104">
<rect width="16.2" height="16.2" fill="white" transform="translate(192.951 190.937) rotate(37)"/>
</clipPath>
<clipPath id="clip3_184_104">
<rect width="16.2" height="16.2" fill="white" transform="translate(194.192 223.336) rotate(27)"/>
</clipPath>
<clipPath id="clip4_184_104">
<rect width="21.6" height="21.6" fill="white" transform="translate(148.07 176.216) rotate(10)"/>
</clipPath>
<clipPath id="clip5_184_104">
<rect width="12.6" height="12.6" fill="white" transform="translate(110.619 192.583) rotate(-16)"/>
</clipPath>
<clipPath id="clip6_184_104">
<rect width="14.4" height="14.4" fill="white" transform="translate(157.002 222.78) rotate(-16)"/>
</clipPath>
</defs>
</svg>
