<svg width="424" height="368" viewBox="0 0 424 368" fill="none" xmlns="http://www.w3.org/2000/svg">
<g clip-path="url(#clip0_170_13966)">
<path fill-rule="evenodd" clip-rule="evenodd" d="M42.9087 0.226836C42.7047 0.198205 42.4871 0.186937 42.2915 0.231466C42.2776 0.234295 42.2637 0.23774 42.2498 0.241812C41.7417 0.375452 40.8925 0.805163 39.851 1.3987C38.7725 2.01329 37.4259 2.84064 35.9128 3.80501C32.8855 5.73435 29.1737 8.22371 25.5726 10.6836C21.9706 13.144 18.4761 15.5771 15.8822 17.395C14.5852 18.304 13.5133 19.0593 12.7655 19.5873C12.3917 19.8514 12.0988 20.0586 11.8994 20.1998L11.6719 20.3611L11.6276 20.3925L3.57816 24.3073C3.53064 24.3304 3.48709 24.3609 3.4491 24.3976L-108.513 132.746L-160.961 135.862C-161.106 135.87 -161.24 135.941 -161.328 136.057L-200.549 187.256L-227.654 177.088C-227.896 176.997 -228.166 177.105 -228.279 177.337L-261.742 246.02C-261.863 246.268 -261.76 246.567 -261.512 246.688C-261.264 246.809 -260.964 246.706 -260.843 246.458L-227.58 178.184L-200.812 188.225L-200.755 188.514C-200.685 188.875 -200.585 189.397 -200.465 190.039C-200.224 191.324 -199.903 193.091 -199.582 195.018C-198.937 198.887 -198.302 203.352 -198.302 205.878C-198.302 207.237 -197.857 209.441 -197.215 211.931C-196.569 214.439 -195.709 217.292 -194.85 219.979C-193.991 222.667 -193.133 225.192 -192.489 227.046C-192.167 227.973 -191.899 228.732 -191.711 229.26C-191.617 229.523 -191.543 229.729 -191.493 229.869L-191.436 230.029L-191.421 230.07L-191.417 230.08L-191.416 230.083L-191.416 230.084L-191.411 230.082L-191.416 230.084C-191.412 230.094 -191.408 230.103 -191.404 230.113L-191.399 230.125C-191.396 230.13 -191.393 230.136 -191.39 230.142C-191.387 230.147 -191.384 230.153 -191.381 230.159L-172.595 263.49L-174.714 275.976C-174.76 276.249 -174.577 276.507 -174.305 276.553C-174.033 276.599 -173.774 276.416 -173.728 276.144L-171.579 263.482C-171.56 263.369 -171.58 263.253 -171.637 263.153L-190.49 229.704L-190.495 229.689L-190.552 229.531C-190.602 229.392 -190.676 229.187 -190.769 228.924C-190.956 228.399 -191.224 227.642 -191.545 226.718C-192.187 224.869 -193.042 222.352 -193.898 219.675C-194.753 216.996 -195.607 214.163 -196.247 211.681C-196.891 209.181 -197.302 207.093 -197.302 205.878C-197.302 203.255 -197.953 198.708 -198.596 194.853C-198.918 192.918 -199.24 191.145 -199.482 189.855C-199.603 189.21 -199.703 188.686 -199.774 188.323L-199.812 188.127L-199.841 187.977L-160.673 136.846L-108.268 133.734C-108.149 133.726 -108.036 133.677 -107.95 133.594L4.08722 25.1717L12.1021 21.2738C12.1268 21.2617 12.1505 21.2477 12.1729 21.2318L11.8834 20.8241C12.1729 21.2318 12.173 21.2317 12.1732 21.2316L12.1741 21.2309L12.1778 21.2283L12.1924 21.2179L12.2505 21.1767L12.4774 21.0159C12.6765 20.8749 12.9689 20.6679 13.3424 20.4042C14.0893 19.8767 15.1603 19.1221 16.4561 18.2139C19.0481 16.3974 22.5391 13.9667 26.1366 11.5093C29.7349 9.05144 33.4364 6.56909 36.4502 4.6483C37.9576 3.6876 39.2884 2.87028 40.3461 2.26753C41.1326 1.81936 41.7371 1.50836 42.1427 1.33818L50.4554 17.7259C50.5803 17.9722 50.8812 18.0706 51.1275 17.9457C51.3738 17.8207 51.4721 17.5198 51.3472 17.2736L43.2557 1.32187C43.2982 1.33328 43.3423 1.34555 43.3879 1.35869C43.8964 1.50507 44.5598 1.74801 45.3619 2.07934C46.964 2.74108 49.076 3.73715 51.5254 4.9625C56.4219 7.41204 62.6338 10.7613 68.7439 14.1405C74.8527 17.5191 80.8548 20.925 85.3301 23.4864C87.5676 24.7671 89.4232 25.8365 90.7194 26.5857C91.3675 26.9604 91.8757 27.2549 92.2218 27.4558L92.6167 27.6851L92.6982 27.7325L151.889 85.6625C151.897 85.6706 151.906 85.6784 151.915 85.6859C151.922 85.6921 151.93 85.6981 151.937 85.7039L188.793 113.573C188.909 113.661 189.058 113.694 189.201 113.663L220.55 106.886L234.882 137.252L233.253 141.911C233.162 142.172 233.3 142.457 233.56 142.548C233.821 142.639 234.106 142.502 234.197 142.241L235.894 137.389C235.937 137.265 235.93 137.129 235.874 137.01L221.923 107.452L236.856 115.319L255.69 130.735L255.7 130.743L309.747 172.801C309.83 172.866 309.932 172.903 310.037 172.907L335.31 173.754L336.135 206.323L330.566 207.123C330.331 207.157 330.152 207.352 330.138 207.589L329.29 222.174C329.283 222.296 329.321 222.417 329.396 222.513L342.169 238.708L344.489 264.264C344.514 264.539 344.757 264.742 345.032 264.717C345.307 264.692 345.51 264.449 345.485 264.174L343.152 238.469C343.143 238.373 343.107 238.281 343.047 238.205L330.299 222.043L331.113 208.055L336.717 207.25C336.968 207.214 337.152 206.996 337.146 206.742L336.341 174.97L391.129 255.108C391.285 255.336 391.596 255.395 391.824 255.239C392.052 255.083 392.11 254.772 391.954 254.544L336.261 173.082C336.185 172.895 336.001 172.766 335.788 172.77L335.785 172.77L310.233 171.913L256.324 129.962L256.314 129.954L237.45 114.513C237.441 114.506 237.432 114.499 237.422 114.492L237.41 114.483C237.396 114.474 237.381 114.466 237.367 114.458L221.066 105.871C221.014 105.843 220.957 105.825 220.898 105.817C220.835 105.809 220.77 105.812 220.706 105.829L189.213 112.637L152.566 84.9255L93.3531 26.9743C93.3236 26.9454 93.2907 26.9203 93.255 26.8996L93.0034 27.3316C93.255 26.8996 93.2549 26.8995 93.2545 26.8993L93.2528 26.8983L93.2464 26.8945L93.2207 26.8796L93.1193 26.8206L92.7237 26.5909C92.3771 26.3897 91.8684 26.0949 91.2198 25.72C89.9226 24.9701 88.0657 23.9 85.8268 22.6185C81.3491 20.0557 75.3425 16.6473 69.2278 13.2655C63.1144 9.88435 56.8881 6.52712 51.9728 4.06817C49.5164 2.83928 47.3791 1.8306 45.7437 1.15508C44.9271 0.817779 44.2247 0.558972 43.6646 0.397722C43.3848 0.317171 43.1303 0.257949 42.9087 0.226836ZM-176.089 286.984C-175.816 287.03 -175.633 287.288 -175.68 287.56L-178.44 303.779L-173.285 360.372C-173.26 360.647 -173.463 360.89 -173.738 360.915C-174.013 360.94 -174.256 360.738 -174.281 360.463L-179.441 303.805C-179.445 303.762 -179.444 303.718 -179.436 303.676L-176.665 287.393C-176.619 287.12 -176.361 286.937 -176.089 286.984ZM402.251 232.303C402.339 232.099 402.551 231.979 402.771 232.006L423.355 234.595C423.629 234.63 423.824 234.88 423.789 235.154C423.755 235.428 423.505 235.622 423.231 235.587L403.018 233.045L388.578 266.188C388.521 266.317 388.412 266.417 388.278 266.462L370.454 272.412L349.102 311.723C348.97 311.965 348.666 312.055 348.423 311.923C348.181 311.791 348.091 311.488 348.223 311.245L369.669 271.762C369.729 271.65 369.83 271.566 369.95 271.526L387.75 265.584L402.251 232.303ZM346.275 272.917C346.25 272.642 346.007 272.439 345.732 272.464C345.457 272.489 345.254 272.732 345.279 273.007L346.439 285.782C346.464 286.057 346.707 286.259 346.982 286.234C347.257 286.209 347.46 285.966 347.435 285.691L346.275 272.917ZM231.881 148.903C231.971 148.643 231.833 148.358 231.573 148.267C231.312 148.176 231.027 148.314 230.936 148.575L228.08 156.794C228.023 156.959 228.056 157.142 228.167 157.276L252.186 186.475C252.361 186.688 252.676 186.719 252.89 186.544C253.103 186.368 253.134 186.053 252.958 185.84L229.117 156.858L231.881 148.903ZM56.2108 26.8509C56.0858 26.6047 55.7849 26.5063 55.5387 26.6313C55.2924 26.7562 55.1941 27.0571 55.319 27.3034L70.1516 56.539L56.5719 85.4099L48.9295 92.203C48.7809 92.3351 48.7247 92.5426 48.7863 92.7317L60.181 127.688C60.2135 127.788 60.2766 127.875 60.3613 127.937L115.879 168.524C116.022 168.629 116.211 168.65 116.374 168.579C116.537 168.507 116.65 168.355 116.67 168.178L120.875 131.949L146.858 143.692C146.877 143.701 146.897 143.708 146.918 143.715L174.882 152.245C175.121 152.318 175.378 152.202 175.482 151.974L189.549 121.12C189.664 120.869 189.553 120.572 189.301 120.458C189.05 120.343 188.754 120.454 188.639 120.705L174.754 151.161L147.24 142.767L120.663 130.756C120.518 130.69 120.35 130.698 120.211 130.776C120.072 130.855 119.979 130.995 119.961 131.154L115.776 167.21L61.0818 127.225L49.8385 92.7329L57.3129 86.0892C57.3635 86.0443 57.4044 85.9895 57.4332 85.9283L71.1605 56.7435C71.2261 56.604 71.2237 56.442 71.154 56.3045L56.2108 26.8509ZM-239.321 348.219C-239.191 347.976 -239.282 347.673 -239.525 347.542C-239.768 347.411 -240.072 347.503 -240.202 347.746L-250.579 367.056C-250.71 367.299 -250.619 367.603 -250.375 367.733C-250.132 367.864 -249.829 367.773 -249.698 367.529L-239.321 348.219ZM-208.741 211.995C-208.486 211.888 -208.193 212.008 -208.086 212.262L-205.075 219.435C-205.049 219.496 -205.036 219.562 -205.036 219.628V247.102C-205.036 247.215 -205.075 247.325 -205.146 247.414L-215.438 260.287C-215.539 260.414 -215.697 260.484 -215.859 260.474L-229.193 259.65L-235.873 281.383L-223.106 305.235C-223.044 305.352 -223.03 305.489 -223.069 305.616L-231.65 333.952C-231.66 333.984 -231.672 334.014 -231.688 334.044L-234.219 338.755C-234.349 338.998 -234.652 339.089 -234.896 338.958C-235.139 338.828 -235.23 338.525 -235.1 338.281L-232.593 333.614L-224.086 305.524L-236.853 281.672C-236.916 281.554 -236.929 281.416 -236.89 281.289L-230.033 258.979C-229.966 258.759 -229.755 258.613 -229.525 258.627L-216.057 259.46L-206.036 246.926V219.729L-209.008 212.65C-209.115 212.395 -208.996 212.102 -208.741 211.995ZM-218.801 186.812C-218.908 186.558 -219.201 186.438 -219.456 186.546C-219.71 186.653 -219.83 186.946 -219.723 187.2L-212.159 205.167C-212.052 205.421 -211.759 205.541 -211.504 205.434C-211.25 205.326 -211.13 205.033 -211.237 204.779L-218.801 186.812Z" fill="url(#paint0_linear_170_13966)"/>
</g>
<defs>
<linearGradient id="paint0_linear_170_13966" x1="81" y1="0.20166" x2="81" y2="367.793" gradientUnits="userSpaceOnUse">
<stop/>
<stop offset="0.864355" stop-opacity="0"/>
</linearGradient>
<clipPath id="clip0_170_13966">
<rect width="686" height="368" fill="white" transform="translate(-262)"/>
</clipPath>
</defs>
</svg>
