<svg width="441" height="640" viewBox="0 0 441 640" fill="none" xmlns="http://www.w3.org/2000/svg">
<g clip-path="url(#clip0_187_340)">
<rect x="0.325684" width="440" height="640" rx="36" fill="#FED686"/>
<g clip-path="url(#clip1_187_340)">
<path fill-rule="evenodd" clip-rule="evenodd" d="M362.826 -15.0997C362.826 -13.6638 361.662 -12.4997 360.226 -12.4997C358.79 -12.4997 357.626 -13.6638 357.626 -15.0997C357.626 -16.5356 358.79 -17.6997 360.226 -17.6997C361.662 -17.6997 362.826 -16.5356 362.826 -15.0997ZM360.273 -11.5C362.239 -11.5248 363.826 -13.127 363.826 -15.0997C363.826 -17.0879 362.214 -18.6997 360.226 -18.6997C358.238 -18.6997 356.626 -17.0879 356.626 -15.0997C356.626 -13.127 358.213 -11.5248 360.18 -11.5H360.176V43.5429L351.58 34.9464L350.873 35.6536L359.469 44.25H318.826C318.799 42.2849 317.198 40.7002 315.226 40.7002C313.238 40.7002 311.626 42.312 311.626 44.3002C311.626 46.2884 313.238 47.9002 315.226 47.9002C316.886 47.9002 318.283 46.7774 318.7 45.25H359.469L342.323 62.3964L343.03 63.1036L360.176 45.9571V103.668L360.176 103.668L341.425 396.331L341.306 396.375L341.405 396.639L337.226 461.868L337.206 462.18L337.477 462.334L343.525 465.79V493.657L121.775 437.212V351.467C132.039 358.159 144.927 366.692 154.076 375.178V443.9H155.076V375.174L163.118 359.984L163.25 359.735L163.104 359.493L155.039 346.05L53.3568 -13.4359L53.2539 -13.7998H52.8757H-93.3743H-93.7468L-93.8534 -13.4428L-205.903 361.857L-205.933 361.957C-205.985 362.033 -206.037 362.109 -206.088 362.185L-205.749 362.414L-197.824 374.302V374.578L-197.955 374.729L-197.824 374.841V492.382L-197.962 492.547L-197.805 492.677L-197.745 492.77L-183.424 515.146V767.067L-191.383 765.608L-191.508 765.586L-191.628 765.625L-249.025 784.276V752.2H-240.604C-240.015 752.2 -239.488 751.982 -239.087 751.629L-238.946 751.699L-238.682 751.164C-238.34 750.645 -238.205 749.986 -238.378 749.32L-330.489 395.79C-330.743 394.818 -331.472 394.259 -332.274 394.11V387.25H-325.574H-324.968L-325.083 386.656L-332.103 350.238C-330.435 349.924 -329.174 348.459 -329.174 346.7C-329.174 344.881 -330.522 343.378 -332.274 343.134V303.808L-323.679 312.404L-322.972 311.697L-331.568 303.1H-299.475V302.6C-299.475 304.588 -297.863 306.2 -295.875 306.2C-293.887 306.2 -292.275 304.588 -292.275 302.6C-292.275 300.612 -293.887 299 -295.875 299C-297.863 299 -299.475 300.612 -299.475 302.6V302.1H-331.568L-320.272 290.804L-320.979 290.097L-332.274 301.392V264.8H-332.726C-330.76 264.774 -329.174 263.173 -329.174 261.2C-329.174 259.212 -330.785 257.6 -332.774 257.6C-334.762 257.6 -336.374 259.212 -336.374 261.2C-336.374 263.173 -334.787 264.774 -332.821 264.8H-333.274V301.394L-342.772 291.897L-343.479 292.604L-333.982 302.1H-365.208C-365.451 300.348 -366.955 299 -368.774 299C-370.762 299 -372.374 300.612 -372.374 302.6C-372.374 304.588 -370.762 306.2 -368.774 306.2C-366.955 306.2 -365.451 304.852 -365.208 303.1H-333.982L-347.079 316.197L-346.372 316.904L-333.274 303.806V343.135C-335.025 343.378 -336.374 344.882 -336.374 346.7C-336.374 348.463 -335.107 349.93 -333.434 350.24L-340.016 386.661L-340.122 387.25H-339.524H-333.274V394.136C-334.041 394.319 -334.72 394.883 -334.95 395.827L-393.925 638.346V572.6V572.548L-393.936 572.497L-400.579 541.051C-398.874 540.768 -397.574 539.286 -397.574 537.5C-397.574 535.512 -399.186 533.9 -401.174 533.9C-403.162 533.9 -404.774 535.512 -404.774 537.5C-404.774 539.292 -403.464 540.779 -401.75 541.055L-407.068 572.517L-407.075 572.558V572.6V692.422L-420.92 749.357C-421.015 749.75 -421.004 750.139 -420.907 750.497C-421.062 750.638 -421.203 750.771 -421.329 750.897L-420.622 751.604C-420.599 751.582 -420.577 751.559 -420.553 751.536C-420.526 751.51 -420.499 751.483 -420.47 751.456L-420.421 751.409C-420.004 751.889 -419.388 752.2 -418.685 752.2H-414.733L-416.068 838.558L-460.278 852.925L-459.969 853.876L-416.085 839.615L-416.086 839.692L-415.42 839.475L-249.37 785.475L-249.025 785.363V785.328L-191.974 766.788V800.832L-233.922 813.902L-279.372 828.062L-330.222 843.905L-372.072 856.943L-422.022 872.506L-460.272 884.423L-459.975 885.377L-422.374 873.662V954.682L-460.249 964.516L-459.998 965.484L-421.748 955.553L-371.798 942.585L-329.948 931.719L-279.098 918.517L-233.648 906.716L-191.974 895.896V969.05H-190.974V895.834L-120.901 906.809L-61.5009 916.112L2.39909 926.12L65.3991 935.986L130.199 946.135L192.749 955.931L192.765 955.934L192.781 955.935L267.026 962.756V962.8H267.526H385.876H386.376V962.3V863.951L395.723 854.179L396.318 854.998L396.281 853.596L396.426 853.444L396.271 853.231L394.062 769.739C394.035 768.712 393.623 767.733 392.909 766.995L382.376 756.122C380.829 754.525 378.291 754.452 376.655 755.958L369.15 762.863C368.306 763.639 367.825 764.733 367.825 765.88V814.166L355.763 797.6H355.775V706.833L361.05 707.645L361.626 707.733V707.15V694.749L369.176 696.736V710.3V710.654L369.509 710.772L377.159 713.472L377.826 713.707V713V698.801L383.563 700.331L383.126 713.884L384.126 713.917L384.576 699.967L384.577 699.929L384.573 699.893L380.083 661.282L392.208 611.915L406.076 661.319V718.85L406.075 965.45H407.075V719.491L411.855 720.685L412.476 720.841V720.2V707.799L420.026 709.786V723.35V723.72L420.379 723.828L426.229 725.628L426.876 725.827V725.15V712.763L432.176 714.278V726.5H433.176V713.9V713.872L433.173 713.844L428.233 670.733L439.917 623.131L453.776 670.772V729.65V730.032L454.144 730.133L459.094 731.483L459.726 731.655V731V719.522L463.582 720.679L463.87 719.721L459.37 718.371L458.726 718.178V718.85V730.346L454.776 729.269V670.7V670.629L454.756 670.561L440.356 621.061L439.835 619.27L439.39 621.081L427.24 670.581L427.219 670.668L427.229 670.757L432.094 713.214L426.513 711.62L425.876 711.438V712.1V724.473L421.026 722.981V709.4V709.015L420.653 708.917L412.103 706.667L411.476 706.502V707.15V719.56L407.076 718.46V661.25V661.182L407.057 661.115L392.657 609.815L392.144 607.985L391.69 609.831L379.09 661.131L379.069 661.219L379.079 661.308L383.494 699.278L377.455 697.667L376.826 697.5V698.15V712.294L370.176 709.947V696.35V695.965L369.803 695.867L361.253 693.617L360.626 693.452V694.1V706.568L355.786 705.823L357.126 645.962L357.127 645.886L357.107 645.814L341.807 591.814L341.304 590.038L340.842 591.825L326.892 645.825L326.863 645.938L326.886 646.052L338.461 701.7H331.926V689.6V689.233L331.575 689.123L324.375 686.873L323.726 686.67V687.35V700.66L319.326 699.56V684.2V683.805L318.942 683.714L309.492 681.464L308.876 681.317V681.95V695.779L303.126 695.013V632.9V632.833L303.108 632.769L286.908 573.369L285.939 573.386L271.989 632.786L271.963 632.898L271.988 633.011L281.711 675.88L274.84 674.264L274.226 674.119V674.75V689.01L269.826 688.277V672.95V672.585L269.477 672.474L259.577 669.324L258.926 669.117V669.8V682.8H253.19L254.976 617.614L254.978 617.533L254.954 617.455L236.504 556.705L235.959 554.909L235.539 556.739L221.589 617.489L221.565 617.591L221.585 617.694L229.553 659.306L202.326 655.417V605.45V605.376L202.304 605.305L184.304 545.905L183.78 544.174L183.341 545.929L168.891 603.727L122.197 472.982L121.775 473.133V438.243L343.89 494.782L354.037 497.87L395.788 572.395L395.932 572.65H396.225H413.325H413.825V572.15V512.04L467.204 525.385L467.447 524.415L413.825 511.009V465.707L417.278 462.254L417.458 462.074L417.419 461.823L361.176 103.671V45.9571L378.323 63.1036L379.03 62.3964L361.883 45.25H406.126V44.3002C406.126 46.2884 407.738 47.9002 409.726 47.9002C411.714 47.9002 413.326 46.2884 413.326 44.3002C413.326 42.312 411.714 40.7002 409.726 40.7002C407.738 40.7002 406.126 42.312 406.126 44.3002V44.25H361.883L373.63 32.5036L372.923 31.7964L361.176 43.5429V-11.5H360.273ZM354.775 706.679V796.242L343.625 780.931V753.961C343.625 752.663 343.012 751.443 341.97 750.669L330.034 741.802C328.47 740.64 326.303 740.74 324.852 742.041L315.188 750.705C314.321 751.483 313.825 752.593 313.825 753.758V778.604L303.126 792.466V696.021L309.31 696.846L309.876 696.922V696.35V682.583L318.326 684.595V699.95V700.341L318.705 700.435L324.105 701.785L324.726 701.941V701.3V688.031L330.926 689.968V702.2V702.7H331.426H339.076H339.691L339.565 702.099L327.889 645.963L341.348 593.863L356.124 646.014L354.776 706.239L354.776 706.25H354.775V706.296L354.766 706.678L354.775 706.679ZM314.667 779.15H314.825V778.945L328.264 761.534L394.191 852.074C372.076 841.615 344.951 839.457 319.886 841.044C295.058 842.615 272.196 847.864 258.117 852.416L260.425 849.425L260.544 849.446L260.728 849.195L263.117 845.938L314.667 779.15ZM314.825 777.308V753.758C314.825 752.877 315.2 752.037 315.856 751.449L325.52 742.785C326.617 741.802 328.255 741.726 329.438 742.605L341.374 751.472C342.161 752.057 342.625 752.98 342.625 753.961V779.558L328.68 760.406L328.287 759.867L327.88 760.395L314.825 777.308ZM121.775 474.774V513.2V513.395L121.644 513.538L97.5463 539.866L138.808 657.821L151.985 660.762L151.876 661.25L152.331 661.043L154.581 665.993L154.626 666.092V666.2V829.02L168.476 831.559V605.537L121.775 474.774ZM153.626 828.837V716.108L101.526 705.421V819.289L108.626 820.59V733.6C108.626 732.949 108.902 732.329 109.385 731.893L118.999 723.209C121.301 721.13 124.82 721.189 127.051 723.343L135.924 731.91C136.373 732.343 136.626 732.94 136.626 733.564V825.722L153.626 828.837ZM109.626 733.6V820.773L135.626 825.538V733.564C135.626 733.212 135.483 732.874 135.229 732.629L126.357 724.063C124.503 722.273 121.581 722.225 119.669 723.951L110.055 732.635C109.782 732.882 109.626 733.232 109.626 733.6ZM97.5876 819.584L108.626 821.607V821.64L109.032 821.718L136.032 826.891L136.626 827.005V826.738L168.476 832.575V832.668L168.887 832.742L201.287 838.592L201.874 838.698V838.696L218.425 841.729V841.976L218.838 842.049L259.314 849.228L256.33 853.095L256.056 853.45L256.38 853.761L267.026 863.964V882.055L192.914 869.119L192.912 869.119L130.364 857.984L65.5641 846.449L2.5641 835.234L-61.3359 823.859L-120.736 813.285L-190.974 800.781V766.7L84.3267 817.154L84.3279 817.374L84.7435 817.443L97.5876 819.584ZM267.872 863.389L257.671 853.613C271.603 849.03 294.761 843.636 319.949 842.042C345.39 840.431 372.841 842.702 394.944 853.546L385.515 863.405L385.376 863.55V863.75V961.8H268.026V863.75V863.537L267.872 863.389ZM282.876 818.702L302.126 793.762V695.45V632.967L286.462 575.533L272.989 632.902L282.863 676.44L282.876 676.494V676.55V690.5L282.876 818.702ZM281.876 819.997L265.797 840.829L267.116 761.275C267.123 760.804 266.986 760.341 266.722 759.95L247.539 731.545C245.381 728.349 240.788 728.049 238.232 730.936L219.003 752.658C218.631 753.078 218.425 753.62 218.425 754.182V840.713L201.877 837.68L202.324 656.427L230.105 660.395L230.799 660.494L230.667 659.806L222.587 617.61L236.093 558.792L253.974 617.668L252.176 683.287L252.162 683.8H252.676H259.426H259.926V683.3V670.484L268.826 673.316V688.7V689.124L269.244 689.194L274.644 690.094L275.226 690.191V689.6V675.382L281.876 676.946V690.5L281.876 819.997ZM262.317 845.338L260.005 848.333L219.425 840.896V754.182C219.425 753.865 219.541 753.558 219.752 753.32L238.981 731.599C241.103 729.201 244.918 729.45 246.71 732.104L265.893 760.51C266.042 760.731 266.12 760.992 266.116 761.259L264.778 841.982L262.317 845.338ZM153.626 715.087V710.708L101.526 700.021V704.45V704.658L101.576 704.411L153.626 715.087ZM153.626 709.687V666.608L101.526 655.921V698.6V699.257L101.576 699.01L153.626 709.687ZM153.265 665.513L151.524 661.684L101.526 650.523V653.6V655.158L101.576 654.911L153.265 665.513ZM101.526 649.777L101.585 649.512L137.659 657.564L97.8485 543.759L85.1491 541.038L101.509 602.171L101.526 602.234V602.3V647.75V649.777ZM169.476 831.742L200.877 837.497L201.326 655.85V655.849V605.525L183.872 547.927L169.476 605.512V831.742ZM96.5346 540.003L97.4617 542.653L84.8588 539.953L84.4086 538.271L83.4378 538.29L83.1468 539.586L48.4265 532.146V522.877L51.8557 519.876L52.0784 519.682L52.0148 519.393L39.1901 461.124C50.0305 462.489 62.5687 464.122 74.4247 465.916V513.2V513.381L74.5401 513.52L96.5346 540.003ZM412.326 44.3002C412.326 45.7361 411.162 46.9002 409.726 46.9002C408.29 46.9002 407.126 45.7361 407.126 44.3002C407.126 42.8643 408.29 41.7002 409.726 41.7002C411.162 41.7002 412.326 42.8643 412.326 44.3002ZM-332.774 263.8C-331.338 263.8 -330.174 262.636 -330.174 261.2C-330.174 259.764 -331.338 258.6 -332.774 258.6C-334.209 258.6 -335.374 259.764 -335.374 261.2C-335.374 262.636 -334.209 263.8 -332.774 263.8ZM342.26 398.926L338.244 461.621L344.273 465.066L344.525 465.21V465.5V493.93L354.52 496.972L354.713 497.03L354.811 497.206L363.325 512.402V455.241L342.26 398.926ZM364.024 513.65L395.726 570.237V454.75H364.325V455.15V513.65H364.024ZM396.726 571.65V454.312L407.964 408.062L416.391 461.727L412.971 465.147L412.825 465.293V465.5V571.65H396.726ZM360.884 108.255L407.645 406.032L407.44 405.982L395.833 453.75H364.325V453.35H363.685L342.417 396.489L360.884 108.255ZM74.4247 442.983V464.905C62.4713 463.098 49.8392 461.456 38.962 460.088L34.0363 437.708C46.6617 439.18 60.5756 440.888 74.4247 442.983ZM74.4247 350.057V441.972C60.4824 439.865 46.483 438.15 33.8089 436.675L31.3253 425.39V395.607L37.2217 401.504L37.9288 400.797L32.0324 394.9H47.0593C47.3027 396.652 48.8064 398 50.6249 398C52.6131 398 54.2249 396.389 54.2249 394.4C54.2249 392.412 52.6131 390.8 50.6249 390.8C48.8063 390.8 47.3027 392.149 47.0593 393.9H31.7015L37.1057 384.755L36.2448 384.246L31.3253 392.571V363.766C33.0772 363.523 34.4261 362.019 34.4261 360.2C34.4261 358.212 32.8143 356.6 30.8261 356.6C28.8378 356.6 27.2261 358.212 27.2261 360.2C27.2261 362.018 28.5741 363.522 30.3253 363.766V393.193L27.5788 390.447L26.8717 391.154L29.6182 393.9H10.0909C9.84779 392.149 8.34404 390.8 6.52528 390.8C4.53706 390.8 2.92528 392.412 2.92528 394.4C2.92528 396.388 4.53706 398 6.52528 398C8.34364 398 9.84715 396.652 10.0908 394.9H29.6182L23.2717 401.247L23.9788 401.954L30.3253 395.607V425.408L28.272 435.874C27.9866 435.843 27.7015 435.811 27.4166 435.78C-31.3491 429.363 -76.5693 430.131 -112.661 439.216C-148.158 448.152 -174.809 465.13 -196.824 491.188V374.952C-175.535 350.628 -133.416 329.729 -83.4448 319.551C-33.3657 309.35 24.513 309.936 77.0465 328.572L66.8772 341.897L66.6119 342.245L66.9211 342.554L74.4247 350.057ZM79.8513 324.896L77.6836 327.737C24.866 308.924 -33.3282 308.322 -83.6444 318.571C-133.305 328.686 -175.378 349.389 -197.036 373.681L-204.785 362.058C-197.983 352.421 -184.766 341.832 -166.798 332.014C-148.415 321.969 -125.103 312.755 -98.7143 306.204C-45.9334 293.101 19.1142 290.659 81.6262 313.472L81.777 313.059L79.8513 324.896ZM83.5405 302.218L81.8685 312.496C32.7499 294.593 -17.9061 292.223 -62.9762 298.347L-43.6797 -12.7998H1.68169L22.8146 297.033L23.8123 296.965L2.68401 -12.7998H27.7898L83.5405 302.218ZM95.1312 230.97L84.0269 299.228L28.8053 -12.7998H52.4975L154.095 346.386L154.113 346.45L154.147 346.507L161.622 358.966C149.014 348.368 133.562 338.037 120.263 330.24L115.889 324.878L96.114 230.947L95.1312 230.97ZM117.988 330.073L118.339 329.464L115.037 325.416L114.96 325.322L114.935 325.203L95.6877 233.777L80.8182 325.181L80.7981 325.304L80.7221 325.404L67.9375 342.156L75.2782 349.497L75.4247 349.643V349.85V513.02L96.993 538.99L120.775 513.006V350.815L120.664 350.743L120.775 350.573V349.85V349.635L120.931 349.487L128.693 342.156L119.602 331.012C119.06 330.695 118.522 330.382 117.988 330.073ZM121.775 350.066V350.273C132.006 356.94 145.103 365.564 154.47 374.181L161.767 360.398C149.798 350.229 135.091 340.25 122.096 332.487L129.762 341.884L130.056 342.245L129.718 342.564L121.775 350.066ZM85.3223 816.319L97.7634 818.599L100.526 819.06V704.899L84.727 703.207L85.3223 816.319ZM65.0764 812.609L84.3214 816.136L83.7241 702.653L83.6909 696.353L83.4564 651.803L83.4257 645.953V645.95V599.701L70.4757 600.954V647.75L69.4995 647.902L47.7977 580.14L33.0615 606.147L32.871 606.483L32.8702 606.483L32.4976 606.383L32.4968 606.383L18.9976 602.783L18.9968 602.783L18.6264 602.684L18.6257 602.684V602.3V595.145L-6.92433 686.518V799.414L7.37645 802.034V697.931C7.37645 694.747 7.87178 691.573 9.01311 688.58C11.4587 682.168 15.2127 673.649 19.6104 666.126C21.8093 662.365 24.1749 658.842 26.6251 655.954C29.0706 653.071 31.6255 650.79 34.2101 649.549L34.2844 649.514L34.3663 649.504C37.4833 649.126 40.6366 650.112 43.6667 651.916C46.6977 653.72 49.6409 656.363 52.3582 659.362C57.7928 665.359 62.3842 672.848 65.0237 678.126L65.0764 678.232V678.35V812.609ZM69.4757 644.549L48.4265 578.824V533.169L82.9276 540.562L69.4878 600.39L69.4757 600.444V600.5V644.549ZM32.3811 605.317L19.6264 601.916V522.65V522.332L19.3379 522.197L12.9424 519.213L30.8546 427.904L38.1112 460.874L38.0971 460.987L38.137 460.992L50.9745 519.319L47.5972 522.274L47.4265 522.423V522.65V578.767V578.768L32.3811 605.317ZM-7.90587 686.315L18.6264 591.429V522.969L12.165 519.953L11.8105 519.788L11.8858 519.404L23.7079 459.14C-31.7652 453.117 -72.4856 453.794 -104.765 462.504C-137.1 471.229 -160.998 488.024 -182.779 514.299L-182.503 514.731L-182.424 514.854V515V767.25L-7.92433 799.23V686.45V686.381L-7.90587 686.315ZM28.0788 436.859L23.9011 458.155C-31.6561 452.118 -72.5493 452.776 -105.025 461.539C-137.487 470.298 -161.506 487.145 -183.345 513.415L-196.683 492.574C-174.683 466.257 -148.047 449.156 -112.417 440.186C-76.4932 431.143 -31.4098 430.362 27.3081 436.774L27.7536 436.823L28.0788 436.859ZM-204.175 359.563C-196.919 350.282 -184.132 340.346 -167.278 331.137C-155.344 324.616 -141.352 318.448 -125.803 313.128L-68.1051 -12.7998H-93.0018L-204.175 359.563ZM-330.174 346.7C-330.174 348.136 -331.338 349.3 -332.774 349.3C-334.209 349.3 -335.374 348.136 -335.374 346.7C-335.374 345.264 -334.209 344.1 -332.774 344.1C-331.338 344.1 -330.174 345.264 -330.174 346.7ZM-332.758 352.124L-338.925 386.25H-332.774H-326.18L-332.758 352.124ZM-398.614 661.86L-333.978 396.063C-333.659 394.75 -331.798 394.735 -331.457 396.042L-239.346 749.572C-239.274 749.849 -239.296 750.124 -239.39 750.367C-289.736 725.755 -333.058 723.772 -364.862 728.988C-380.855 731.611 -393.932 736.054 -403.524 740.353C-411.522 743.937 -417.125 747.433 -419.97 749.705C-419.965 749.668 -419.957 749.63 -419.948 749.593L-406.152 692.86L-406.089 692.868L-398.614 661.86ZM-399.588 661.634L-394.925 642.291V572.653L-401.12 543.328L-406.075 572.642V688.31L-399.588 661.634ZM-415.063 838.232L-250.025 784.601V751.7V751.2H-249.525H-240.604C-240.439 751.2 -240.282 751.169 -240.138 751.114C-290.155 726.741 -333.154 724.801 -364.7 729.975C-380.602 732.583 -393.596 736.999 -403.115 741.265C-411.43 744.991 -417.063 748.589 -419.67 750.749C-419.434 751.023 -419.084 751.2 -418.685 751.2H-414.225H-413.717L-413.725 751.708L-415.063 838.232ZM267.026 883.07V961.752L193.326 954.981V870.206L267.026 883.07ZM64.0764 694.199V812.426L37.1753 807.496V715.688C37.1753 713.636 37.3849 711.601 37.8728 709.621C39.039 704.89 40.5913 699.743 42.4419 695.143C44.2971 690.532 46.4342 686.517 48.7517 684.013C49.9087 682.762 51.0831 681.919 52.259 681.544C53.4176 681.175 54.6113 681.249 55.8594 681.897C57.1235 682.553 58.4631 683.809 59.8549 685.839C61.2338 687.849 62.6458 690.593 64.0764 694.199ZM64.0764 691.599C62.9403 689.009 61.807 686.917 60.6796 685.273C59.2357 683.168 57.7832 681.769 56.3201 681.01C54.841 680.242 53.3726 680.14 51.9555 680.591C50.556 681.037 49.2415 682.011 48.0177 683.333C45.5739 685.974 43.3823 690.127 41.5142 694.77C39.6415 699.424 38.0759 704.618 36.9019 709.382C36.3918 711.451 36.1753 713.568 36.1753 715.688V807.312L8.37645 802.218V697.931C8.37645 694.849 8.85585 691.799 9.94746 688.937C12.3801 682.558 16.1117 674.092 20.4737 666.631C22.6547 662.9 24.9875 659.43 27.3877 656.601C29.7677 653.795 32.1894 651.649 34.5684 650.487C37.3662 650.171 40.2669 651.056 43.1552 652.775C46.0708 654.511 48.9383 657.077 51.6172 660.033C56.9392 665.906 61.4577 673.253 64.0764 678.468V691.599ZM-95.5858 838.082L-95.1944 838.746L-80.3443 863.946L-80.2718 864.069L-80.2753 864.212L-81.1752 901.562L-81.1888 902.123L-81.7447 902.045L-110.545 897.995L-110.98 897.934L-110.975 897.494L-110.525 859.244L-110.523 859.088L-110.433 858.96L-96.0326 838.71L-95.5858 838.082ZM-109.527 859.412L-109.97 897.066L-82.1615 900.977L-81.2784 864.331L-95.6644 839.918L-109.527 859.412ZM224.305 894.546L223.914 893.882L223.467 894.511L209.067 914.761L208.977 914.888L208.975 915.044L208.525 948.794L208.519 949.254L208.977 949.298L237.327 951.998L237.852 952.048L237.874 951.522L239.224 920.022L239.231 919.874L239.155 919.746L224.305 894.546ZM209.531 948.346L209.973 915.213L223.835 895.718L238.219 920.127L236.898 950.953L209.531 948.346ZM-31.6854 849.782L-31.294 850.446L-16.444 875.646L-16.3714 875.769L-16.3749 875.912L-17.2749 913.262L-17.2884 913.823L-17.8443 913.745L-46.6444 909.695L-47.0798 909.634L-47.0747 909.194L-46.6247 870.944L-46.6228 870.788L-46.5322 870.66L-32.1322 850.41L-31.6854 849.782ZM-45.6266 871.112L-46.0696 908.766L-18.2611 912.677L-17.378 876.031L-31.7641 851.618L-45.6266 871.112ZM-159.093 826.146L-159.484 825.482L-159.931 826.11L-174.331 846.36L-174.422 846.488L-174.424 846.644L-174.874 884.894L-174.879 885.334L-174.443 885.395L-145.643 889.445L-145.087 889.523L-145.074 888.962L-144.174 851.612L-144.17 851.469L-144.243 851.346L-159.093 826.146ZM-173.868 884.466L-173.425 846.812L-159.563 827.318L-145.177 851.731L-146.06 888.377L-173.868 884.466ZM160.016 882.182L160.407 882.846L175.257 908.046L175.33 908.169L175.326 908.312L174.426 945.662L174.413 946.223L173.857 946.145L145.057 942.095L144.621 942.034L144.626 941.594L145.076 903.344L145.078 903.188L145.169 903.06L159.569 882.81L160.016 882.182ZM146.074 903.512L145.631 941.166L173.44 945.077L174.323 908.431L159.937 884.018L146.074 903.512ZM32.6064 859.446L32.215 858.782L31.7682 859.41L17.3682 879.66L17.2775 879.788L17.2757 879.944L16.8257 918.194L16.8205 918.634L17.256 918.695L46.056 922.745L46.612 922.823L46.6255 922.262L47.5255 884.912L47.529 884.769L47.4564 884.646L32.6064 859.446ZM17.8308 917.766L18.2738 880.112L32.1363 860.618L46.5224 885.031L45.6393 921.677L17.8308 917.766ZM96.1152 870.482L96.5066 871.147L111.357 896.347L111.429 896.47L111.426 896.612L110.526 933.962L110.512 934.524L109.956 934.445L81.1562 930.396L80.7207 930.334L80.7259 929.895L81.1759 891.645L81.1777 891.488L81.2684 891.361L95.6684 871.111L96.1152 870.482ZM82.174 891.813L81.731 929.466L109.54 933.377L110.423 896.731L96.0365 872.318L82.174 891.813ZM-191.974 801.88L-233.274 814.747V905.586L-191.974 894.863V801.88ZM-190.974 894.822L-121.324 905.731V814.196L-190.974 801.797V894.822ZM-120.324 814.374V905.887L-61.9235 915.033V824.77L-120.324 814.374ZM-60.9235 824.948V915.19L1.97646 925.041V836.145L-60.9235 824.948ZM2.97646 836.323V925.198L64.9765 934.908V847.36L2.97646 836.323ZM65.9765 847.538V935.064L129.777 945.057V858.895L65.9765 847.538ZM130.777 859.073V945.213L192.326 954.853V870.03L130.777 859.073ZM-234.274 905.846V815.058L-278.724 828.907V917.386L-234.274 905.846ZM-279.724 917.646V829.219L-329.574 844.75V930.589L-279.724 917.646ZM-330.574 930.848V845.061L-371.424 857.789V941.454L-330.574 930.848ZM-372.424 941.714V858.1L-421.374 873.351V954.423L-372.424 941.714ZM-401.174 540.1C-399.738 540.1 -398.574 538.936 -398.574 537.5C-398.574 536.064 -399.738 534.9 -401.174 534.9C-402.61 534.9 -403.774 536.064 -403.774 537.5C-403.774 538.936 -402.61 540.1 -401.174 540.1ZM-412.874 516.75H-402.381L-410.077 509.054L-409.37 508.347L-401.674 516.043V500.6H-400.674V516.043L-394.327 509.697L-393.62 510.404L-399.966 516.75H-387.674V517.75H-399.966L-393.17 524.547L-393.877 525.254L-400.674 518.457V533.9H-401.674V518.457L-407.12 523.904L-407.827 523.197L-402.381 517.75H-412.874V516.75ZM-293.275 302.6C-293.275 304.036 -294.439 305.2 -295.875 305.2C-297.311 305.2 -298.475 304.036 -298.475 302.6C-298.475 301.164 -297.311 300 -295.875 300C-294.439 300 -293.275 301.164 -293.275 302.6ZM50.6249 397C52.0608 397 53.2249 395.836 53.2249 394.4C53.2249 392.964 52.0608 391.8 50.6249 391.8C49.1889 391.8 48.0249 392.964 48.0249 394.4C48.0249 395.836 49.1889 397 50.6249 397ZM315.226 46.9002C316.662 46.9002 317.826 45.7361 317.826 44.3002C317.826 42.8643 316.662 41.7002 315.226 41.7002C313.79 41.7002 312.626 42.8643 312.626 44.3002C312.626 45.7361 313.79 46.9002 315.226 46.9002ZM6.52528 397C7.96123 397 9.12529 395.836 9.12529 394.4C9.12529 392.964 7.96123 391.8 6.52528 391.8C5.08934 391.8 3.92528 392.964 3.92528 394.4C3.92528 395.836 5.08934 397 6.52528 397ZM33.4261 360.2C33.4261 361.636 32.262 362.8 30.8261 362.8C29.3901 362.8 28.2261 361.636 28.2261 360.2C28.2261 358.764 29.3901 357.6 30.8261 357.6C32.262 357.6 33.4261 358.764 33.4261 360.2ZM-368.774 305.2C-367.338 305.2 -366.174 304.036 -366.174 302.6C-366.174 301.164 -367.338 300 -368.774 300C-370.209 300 -371.374 301.164 -371.374 302.6C-371.374 304.036 -370.209 305.2 -368.774 305.2ZM-98.9552 305.233C-107.921 307.459 -116.534 309.992 -124.722 312.76L-67.1426 -12.5H-44.7002L-63.9867 298.486C-76.0979 300.169 -87.8005 302.464 -98.9552 305.233ZM70.6149 599.936L83.4257 598.696V542.907L70.6149 599.936ZM84.4257 542.202V598.734L100.338 601.665L84.4257 542.202ZM100.526 602.716L84.4257 599.75V645.5L100.526 647.195V602.716ZM100.526 648.2L84.4286 646.506L84.4541 651.35L100.526 653.044V648.2ZM100.526 654.05L84.4594 652.356L84.6886 695.912L100.526 698.029V654.05ZM100.526 699.038L84.6939 696.922L84.7218 702.2L100.526 703.893V699.038ZM377.332 756.694C378.569 755.555 380.488 755.611 381.657 756.818L392.19 767.691C392.731 768.249 393.042 768.989 393.063 769.766L395.233 851.802L368.825 815.438V765.88C368.825 765.013 369.189 764.186 369.827 763.599L377.332 756.694Z" fill="url(#paint0_linear_187_340)"/>
</g>
</g>
<defs>
<linearGradient id="paint0_linear_187_340" x1="3.58434" y1="-18.6997" x2="3.58434" y2="969.05" gradientUnits="userSpaceOnUse">
<stop offset="0.530039"/>
<stop offset="1" stop-opacity="0"/>
</linearGradient>
<clipPath id="clip0_187_340">
<rect x="0.325684" width="440" height="640" rx="36" fill="white"/>
</clipPath>
<clipPath id="clip1_187_340">
<rect width="959" height="1014" fill="white" transform="translate(-459.674 -18)"/>
</clipPath>
</defs>
</svg>
