<svg width="326" height="413" viewBox="0 0 326 413" fill="none" xmlns="http://www.w3.org/2000/svg">
<g filter="url(#filter0_d_184_137)">
<path d="M319.729 377.692C317.411 381.474 310.221 369.678 305.836 370.062C301.452 370.445 302.413 381.431 298.018 381.816C293.623 382.2 292.672 371.214 288.287 371.597C283.902 371.981 284.863 382.967 280.478 383.35C276.093 383.734 275.132 372.748 270.747 373.132C266.362 373.515 267.323 384.501 262.938 384.885C258.553 385.269 257.592 374.283 253.207 374.666C248.822 375.05 249.783 386.036 245.398 386.419C241.014 386.803 240.052 375.817 235.667 376.201C231.283 376.584 232.244 387.57 227.859 387.954C223.474 388.338 222.513 377.352 218.128 377.735C213.743 378.119 214.704 389.105 210.319 389.488C205.934 389.872 204.973 378.886 200.588 379.27C196.203 379.653 197.164 390.639 192.779 391.023C188.394 391.407 187.433 380.421 183.048 380.804C178.663 381.188 179.625 392.174 175.24 392.558C170.855 392.941 169.894 381.955 165.498 382.34C161.103 382.724 162.075 393.709 157.68 394.094C153.284 394.478 152.333 383.491 147.938 383.876C143.543 384.261 144.515 395.246 140.12 395.63C135.724 396.015 134.773 385.028 130.378 385.412C125.983 385.797 126.955 396.782 122.56 397.166C118.164 397.551 117.213 386.564 112.818 386.949C108.423 387.333 109.395 398.318 105 398.703C100.604 399.087 99.6534 388.1 95.2584 388.485C90.8734 388.869 91.8346 399.855 87.4395 400.239C83.0444 400.624 82.0934 389.637 77.6983 390.021C73.3033 390.406 74.2644 401.392 69.8795 401.775C65.4945 402.159 64.5334 391.173 60.1383 391.558C55.7432 391.942 56.7044 402.928 52.3195 403.312C47.9345 403.695 50.0546 398.233 47.1149 394.911C43.198 390.474 37.1203 393.137 36.6011 387.202C36.0819 381.268 46.9436 380.328 46.4244 374.393C45.9052 368.459 35.0453 369.419 34.527 363.495C34.0087 357.571 44.8695 356.621 44.3503 350.686C43.8311 344.752 32.9712 345.712 32.4529 339.788C31.9346 333.864 42.7954 332.914 42.2762 326.979C41.757 321.045 30.8971 322.005 30.3779 316.071C29.8587 310.136 40.7204 309.196 40.2012 303.262C39.682 297.327 28.8221 298.288 28.3038 292.364C27.7855 286.439 38.6463 285.489 38.1271 279.555C37.6079 273.62 26.748 274.581 26.2288 268.646C25.7096 262.712 36.5713 261.772 36.0521 255.837C35.5329 249.903 24.673 250.863 24.1547 244.939C23.6364 239.015 34.4972 238.065 33.9789 232.14C33.4606 226.216 22.5989 227.156 22.0806 221.232C21.5623 215.308 32.4231 214.358 31.9048 208.433C31.3865 202.509 20.5248 203.449 20.0065 197.525C19.4882 191.601 30.349 190.65 29.8298 184.716C29.3106 178.782 18.4507 179.742 17.9315 173.808C17.4123 167.873 28.274 166.933 27.7548 160.999C27.2356 155.064 16.3757 156.025 15.8574 150.1C15.3391 144.176 26.199 143.216 25.6807 137.292C25.1624 131.367 14.3007 132.307 13.7824 126.383C13.2641 120.459 24.1249 119.509 23.6057 113.574C23.0865 107.64 12.2257 108.59 11.7074 102.666C11.1891 96.7414 22.0499 95.7912 21.5307 89.8568C21.0115 83.9223 10.1507 84.8725 9.63237 78.9483C9.11407 73.0241 19.974 72.0636 19.4557 66.1394C18.9374 60.2152 8.07567 61.1551 7.55737 55.2309C7.03907 49.3067 17.899 48.3462 17.3798 42.4117C16.8606 36.4773 3.17206 33.1641 6.27921 28.1124C8.58719 24.3309 15.7765 36.1272 20.1614 35.7436C24.5463 35.36 23.5953 24.3731 27.9803 23.9895C32.3652 23.6059 33.3264 34.5918 37.7113 34.2082C42.0962 33.8246 41.1351 22.8386 45.5301 22.4541C49.9252 22.0696 50.8762 33.0564 55.2612 32.6728C59.6461 32.2891 58.6849 21.3032 63.0699 20.9195C67.4548 20.5359 68.4159 31.5219 72.8009 31.1383C77.1858 30.7546 76.2348 19.7678 80.6197 19.3841C85.0047 19.0005 85.9658 29.9865 90.3507 29.6028C94.7357 29.2192 93.7745 18.2332 98.1594 17.8496C102.544 17.466 103.506 28.4519 107.89 28.0683C112.275 27.6847 111.314 16.6987 115.709 16.3142C120.104 15.9297 121.055 26.9165 125.44 26.5329C129.825 26.1493 128.864 15.1633 133.249 14.7797C137.634 14.396 138.595 25.382 142.98 24.9984C147.365 24.6147 146.404 13.6288 150.789 13.2451C155.174 12.8615 156.135 23.8475 160.53 23.463C164.925 23.0784 163.954 12.0934 168.349 11.7088C172.744 11.3243 173.695 22.3112 178.09 21.9267C182.485 21.5421 181.514 10.5571 185.909 10.1725C190.304 9.78801 191.255 20.7749 195.65 20.3904C200.045 20.0058 199.074 9.02075 203.469 8.63623C207.864 8.25171 208.815 19.2386 213.21 18.854C217.605 18.4695 216.634 7.48445 221.029 7.09993C225.424 6.71541 226.375 17.7023 230.77 17.3177C235.165 16.9332 234.194 5.94814 238.589 5.56362C242.984 5.1791 243.935 16.166 248.33 15.7814C252.725 15.3969 251.764 4.41095 256.149 4.02732C260.534 3.64369 261.495 14.6297 265.89 14.2451C270.285 13.8606 269.324 2.87465 273.709 2.49102C278.094 2.10739 275.974 7.56925 278.913 10.8917C282.84 15.3279 288.918 12.665 289.437 18.5994C289.957 24.5339 279.095 25.4739 279.614 31.4083C280.133 37.3428 290.993 36.3823 291.512 42.3168C292.032 48.2513 281.17 49.1912 281.689 55.1257C282.208 61.0602 293.068 60.0997 293.587 66.0342C294.107 71.9687 283.245 72.9086 283.764 78.8431C284.283 84.7776 295.143 83.8171 295.662 89.7516C296.182 95.6861 285.32 96.626 285.839 102.56C286.358 108.495 297.218 107.534 297.737 113.469C298.257 119.403 287.395 120.343 287.914 126.278C288.433 132.212 299.293 131.252 299.812 137.186C300.332 143.121 289.47 144.061 289.989 149.995C290.508 155.93 301.368 154.969 301.886 160.893C302.405 166.818 291.544 167.768 292.062 173.692C292.581 179.616 303.441 178.666 303.961 184.601C304.48 190.535 293.618 191.475 294.136 197.399C294.655 203.323 305.515 202.373 306.035 208.308C306.554 214.242 295.692 215.182 296.211 221.117C296.73 227.041 307.59 226.091 308.11 232.025C308.628 237.949 297.767 238.899 298.286 244.834C298.805 250.758 309.665 249.808 310.185 255.742C310.704 261.677 299.843 262.627 300.361 268.551C300.88 274.476 311.74 273.525 312.26 279.46C312.779 285.394 301.917 286.334 302.436 292.269C302.956 298.203 313.816 297.253 314.335 303.177C314.853 309.101 303.992 310.052 304.511 315.986C305.031 321.921 315.891 320.96 316.41 326.895C316.929 332.829 306.068 333.779 306.586 339.703C307.105 345.628 317.966 344.677 318.485 350.612C319.004 356.546 306.68 359.828 309.139 365.252C312.596 372.853 322.859 372.669 319.763 377.73L319.729 377.692Z" fill="#F4EAD3"/>
<g clip-path="url(#clip0_184_137)">
<rect x="29.4406" y="52.7717" width="241.2" height="322.2" rx="18" transform="rotate(-5 29.4406 52.7717)" fill="#FED686"/>
<mask id="path-3-inside-1_184_137" fill="white">
<path fill-rule="evenodd" clip-rule="evenodd" d="M246.386 244.804C255.716 240.634 260.96 236.168 260.586 231.897C259.561 220.184 216.681 214.368 164.809 218.906C112.938 223.444 71.7187 236.618 72.7435 248.331C73.1172 252.602 79.0569 256.089 88.9689 258.576C74.5604 275.536 66.7968 296.682 68.7404 318.898C73.0346 367.98 123.087 403.695 180.536 398.669C237.985 393.643 281.075 349.779 276.781 300.697C274.838 278.481 263.52 259.004 246.386 244.804Z"/>
</mask>
<path d="M246.386 244.804L246.018 243.982L244.697 244.573L245.811 245.497L246.386 244.804ZM164.809 218.906L164.888 219.802L164.809 218.906ZM88.9689 258.576L89.6548 259.159L90.5921 258.055L89.1879 257.703L88.9689 258.576ZM68.7404 318.898L67.8438 318.976L68.7404 318.898ZM259.689 231.975C259.839 233.69 258.875 235.618 256.525 237.717C254.193 239.8 250.645 241.915 246.018 243.982L246.753 245.626C251.456 243.523 255.195 241.319 257.724 239.059C260.235 236.816 261.706 234.375 261.483 231.818L259.689 231.975ZM164.888 219.802C190.777 217.537 214.396 217.859 231.644 220.199C240.276 221.37 247.262 223.039 252.13 225.115C254.565 226.153 256.424 227.275 257.692 228.45C258.955 229.62 259.587 230.798 259.689 231.975L261.483 231.818C261.329 230.067 260.396 228.501 258.916 227.129C257.44 225.762 255.376 224.543 252.836 223.459C247.754 221.292 240.587 219.595 231.886 218.415C214.47 216.053 190.713 215.736 164.731 218.009L164.888 219.802ZM73.64 248.252C73.5371 247.076 73.954 245.806 74.9947 244.434C76.0396 243.056 77.6761 241.629 79.8935 240.184C84.3268 237.294 90.9172 234.437 99.2144 231.785C115.795 226.486 138.998 222.067 164.888 219.802L164.731 218.009C138.749 220.282 115.407 224.72 98.6664 230.07C90.3029 232.744 83.5387 235.659 78.9106 238.676C76.5972 240.184 74.7764 241.743 73.5606 243.346C72.3406 244.954 71.6936 246.658 71.8469 248.409L73.64 248.252ZM89.1879 257.703C84.273 256.47 80.4113 255.004 77.7533 253.358C75.0745 251.698 73.7901 249.967 73.64 248.252L71.8469 248.409C72.0706 250.966 73.9428 253.114 76.8053 254.888C79.6886 256.674 83.7528 258.195 88.7499 259.449L89.1879 257.703ZM69.637 318.819C67.7168 296.872 75.3826 275.958 89.6548 259.159L88.283 257.993C73.7381 275.114 65.8768 296.493 67.8438 318.976L69.637 318.819ZM180.458 397.772C123.366 402.767 73.8767 367.28 69.637 318.819L67.8438 318.976C72.1925 368.681 122.808 404.623 180.614 399.566L180.458 397.772ZM275.885 300.775C280.124 349.235 237.549 392.778 180.458 397.772L180.614 399.566C238.421 394.508 282.026 350.323 277.678 300.618L275.885 300.775ZM245.811 245.497C262.784 259.563 273.964 278.828 275.885 300.775L277.678 300.618C275.711 278.135 264.256 258.446 246.96 244.111L245.811 245.497Z" fill="black" mask="url(#path-3-inside-1_184_137)"/>
<path d="M260.138 231.936C260.253 233.256 259.779 234.635 258.693 236.066C257.606 237.5 255.923 238.96 253.682 240.421C249.2 243.342 242.566 246.214 234.252 248.871C217.632 254.183 194.394 258.606 168.481 260.874C142.568 263.141 118.915 262.82 101.625 260.475C92.9759 259.301 85.9441 257.625 81.023 255.526C78.562 254.477 76.6514 253.331 75.3313 252.108C74.0138 250.887 73.3072 249.612 73.1917 248.292C73.0762 246.971 73.5506 245.593 74.6361 244.162C75.7237 242.728 77.4064 241.268 79.6477 239.807C84.1297 236.886 90.7635 234.014 99.0773 231.356C115.698 226.044 138.936 221.621 164.848 219.354C190.761 217.087 214.414 217.408 231.705 219.753C240.353 220.926 247.385 222.603 252.306 224.701C254.767 225.751 256.678 226.896 257.998 228.12C259.316 229.34 260.022 230.616 260.138 231.936Z" stroke="black" stroke-width="0.9"/>
<path d="M254.293 232.308C254.385 233.351 253.949 234.467 252.924 235.654C251.899 236.842 250.316 238.061 248.206 239.289C243.989 241.743 237.76 244.177 229.962 246.451C214.375 250.995 192.61 254.87 168.368 256.991C144.125 259.112 122.018 259.075 105.878 257.306C97.8046 256.422 91.2477 255.106 86.6684 253.422C84.3776 252.579 82.6067 251.653 81.3906 250.661C80.1753 249.67 79.5524 248.647 79.4611 247.604C79.3699 246.561 79.8055 245.444 80.8303 244.257C81.8557 243.069 83.4389 241.85 85.5486 240.622C89.7658 238.169 95.9947 235.734 103.792 233.461C119.38 228.916 141.144 225.042 165.387 222.921C189.63 220.8 211.736 220.836 227.876 222.605C235.95 223.49 242.507 224.805 247.086 226.49C249.377 227.332 251.148 228.258 252.364 229.25C253.579 230.241 254.202 231.265 254.293 232.308Z" stroke="black" stroke-width="0.9"/>
<g clip-path="url(#clip1_184_137)">
<path d="M127.681 229.157L132.21 232.098C133.011 232.618 133.572 233.435 133.771 234.369C133.969 235.302 133.788 236.277 133.268 237.078L126.406 247.645C126.796 247.044 126.932 246.314 126.783 245.613C126.634 244.913 126.213 244.3 125.612 243.91L120.329 240.479L127.681 229.157Z" stroke="black" stroke-width="0.9" stroke-linecap="round" stroke-linejoin="round"/>
<path d="M142.777 238.96L138.248 236.019C137.448 235.499 136.473 235.319 135.539 235.517C134.605 235.716 133.788 236.277 133.268 237.078L126.406 247.645C126.796 247.045 127.409 246.624 128.109 246.475C128.809 246.326 129.54 246.461 130.141 246.851L135.425 250.282L142.777 238.96Z" stroke="black" stroke-width="0.9" stroke-linecap="round" stroke-linejoin="round"/>
</g>
<g clip-path="url(#clip2_184_137)">
<path d="M199.56 196.209L202.877 198.532C203.464 198.943 203.863 199.57 203.988 200.275C204.112 200.98 203.951 201.706 203.54 202.293L198.12 210.034C198.428 209.594 198.549 209.049 198.456 208.52C198.362 207.992 198.063 207.521 197.623 207.213L193.752 204.503L199.56 196.209Z" stroke="black" stroke-width="0.9" stroke-linecap="round" stroke-linejoin="round"/>
<path d="M210.619 203.953L207.301 201.63C206.715 201.219 205.989 201.058 205.284 201.182C204.579 201.307 203.952 201.706 203.541 202.293L198.121 210.034C198.429 209.594 198.899 209.294 199.428 209.201C199.957 209.108 200.501 209.228 200.941 209.536L204.812 212.247L210.619 203.953Z" stroke="black" stroke-width="0.9" stroke-linecap="round" stroke-linejoin="round"/>
</g>
<g clip-path="url(#clip3_184_137)">
<path d="M200.397 229.043L204.309 230.092C205 230.277 205.59 230.729 205.948 231.35C206.306 231.97 206.403 232.707 206.218 233.398L203.772 242.526C203.911 242.008 203.838 241.455 203.57 240.99C203.301 240.525 202.859 240.185 202.34 240.046L197.776 238.823L200.397 229.043Z" stroke="black" stroke-width="0.9" stroke-linecap="round" stroke-linejoin="round"/>
<path d="M213.436 232.537L209.524 231.489C208.833 231.304 208.096 231.401 207.475 231.759C206.855 232.117 206.403 232.707 206.217 233.398L203.772 242.526C203.911 242.008 204.25 241.565 204.715 241.297C205.18 241.028 205.733 240.956 206.252 241.095L210.816 242.317L213.436 232.537Z" stroke="black" stroke-width="0.9" stroke-linecap="round" stroke-linejoin="round"/>
</g>
<g clip-path="url(#clip4_184_137)">
<path d="M155.101 184.353L160.449 185.105C161.394 185.237 162.248 185.74 162.823 186.503C163.397 187.265 163.646 188.225 163.513 189.171L161.759 201.648C161.859 200.939 161.673 200.219 161.242 199.647C160.811 199.075 160.17 198.698 159.461 198.598L153.222 197.722L155.101 184.353Z" stroke="black" stroke-width="0.9" stroke-linecap="round" stroke-linejoin="round"/>
<path d="M172.926 186.858L167.578 186.106C166.633 185.974 165.673 186.222 164.911 186.796C164.148 187.371 163.645 188.225 163.512 189.17L161.759 201.648C161.858 200.939 162.236 200.298 162.808 199.867C163.38 199.436 164.099 199.25 164.808 199.35L171.047 200.227L172.926 186.858Z" stroke="black" stroke-width="0.9" stroke-linecap="round" stroke-linejoin="round"/>
</g>
<g clip-path="url(#clip5_184_137)">
<path d="M163.486 314.786L168.865 314.315C169.817 314.232 170.762 314.53 171.493 315.144C172.225 315.757 172.682 316.637 172.765 317.588L173.864 330.14C173.801 329.426 173.458 328.767 172.909 328.307C172.361 327.847 171.652 327.623 170.939 327.685L164.663 328.234L163.486 314.786Z" stroke="black" stroke-width="0.9" stroke-linecap="round" stroke-linejoin="round"/>
<path d="M181.417 313.217L176.037 313.688C175.086 313.771 174.207 314.228 173.593 314.96C172.98 315.691 172.681 316.637 172.765 317.588L173.863 330.14C173.8 329.426 174.024 328.717 174.484 328.169C174.945 327.62 175.604 327.277 176.317 327.215L182.593 326.666L181.417 313.217Z" stroke="black" stroke-width="0.9" stroke-linecap="round" stroke-linejoin="round"/>
</g>
<g clip-path="url(#clip6_184_137)">
<path d="M118.476 199.524L121.488 198.603C122.021 198.44 122.596 198.495 123.088 198.757C123.58 199.018 123.947 199.464 124.11 199.997L126.259 207.026C126.137 206.626 125.861 206.292 125.492 206.096C125.124 205.899 124.692 205.858 124.293 205.98L120.778 207.054L118.476 199.524Z" stroke="black" stroke-width="0.9" stroke-linecap="round" stroke-linejoin="round"/>
<path d="M128.517 196.454L125.504 197.375C124.972 197.537 124.526 197.905 124.264 198.397C124.003 198.889 123.947 199.464 124.11 199.997L126.259 207.026C126.137 206.626 126.178 206.195 126.375 205.826C126.571 205.457 126.905 205.181 127.305 205.059L130.819 203.985L128.517 196.454Z" stroke="black" stroke-width="0.9" stroke-linecap="round" stroke-linejoin="round"/>
</g>
<g clip-path="url(#clip7_184_137)">
<path d="M166.62 228.215L170.044 227.102C170.649 226.906 171.308 226.958 171.875 227.247C172.442 227.535 172.871 228.038 173.068 228.643L175.664 236.632C175.516 236.178 175.194 235.801 174.769 235.585C174.344 235.368 173.85 235.329 173.396 235.476L169.401 236.774L166.62 228.215Z" stroke="black" stroke-width="0.9" stroke-linecap="round" stroke-linejoin="round"/>
<path d="M178.032 224.507L174.608 225.619C174.003 225.816 173.501 226.245 173.212 226.812C172.923 227.379 172.871 228.038 173.068 228.643L175.663 236.632C175.516 236.178 175.555 235.684 175.771 235.259C175.988 234.833 176.365 234.512 176.819 234.364L180.813 233.066L178.032 224.507Z" stroke="black" stroke-width="0.9" stroke-linecap="round" stroke-linejoin="round"/>
</g>
<path d="M203.194 319.443C204.646 336.031 192.375 350.655 175.787 352.106C159.199 353.557 144.575 341.286 143.124 324.698C141.673 308.11 153.943 293.487 170.531 292.035C187.119 290.584 201.743 302.855 203.194 319.443Z" stroke="black" stroke-width="0.9"/>
</g>
</g>
<defs>
<filter id="filter0_d_184_137" x="-0.4" y="-0.552258" width="326.839" height="414.106" filterUnits="userSpaceOnUse" color-interpolation-filters="sRGB">
<feFlood flood-opacity="0" result="BackgroundImageFix"/>
<feColorMatrix in="SourceAlpha" type="matrix" values="0 0 0 0 0 0 0 0 0 0 0 0 0 0 0 0 0 0 127 0" result="hardAlpha"/>
<feOffset dy="3.6"/>
<feGaussianBlur stdDeviation="2.7"/>
<feComposite in2="hardAlpha" operator="out"/>
<feColorMatrix type="matrix" values="0 0 0 0 0 0 0 0 0 0 0 0 0 0 0 0 0 0 0.1 0"/>
<feBlend mode="normal" in2="BackgroundImageFix" result="effect1_dropShadow_184_137"/>
<feBlend mode="normal" in="SourceGraphic" in2="effect1_dropShadow_184_137" result="shape"/>
</filter>
<clipPath id="clip0_184_137">
<rect x="29.4406" y="52.7717" width="241.2" height="322.2" rx="18" transform="rotate(-5 29.4406 52.7717)" fill="white"/>
</clipPath>
<clipPath id="clip1_184_137">
<rect width="21.6" height="21.6" fill="white" transform="translate(127.642 225.912) rotate(33)"/>
</clipPath>
<clipPath id="clip2_184_137">
<rect width="16.2" height="16.2" fill="white" transform="translate(199.616 193.776) rotate(35)"/>
</clipPath>
<clipPath id="clip3_184_137">
<rect width="16.2" height="16.2" fill="white" transform="translate(199.616 226.738) rotate(15)"/>
</clipPath>
<clipPath id="clip4_184_137">
<rect width="21.6" height="21.6" fill="white" transform="translate(153.695 181.429) rotate(8)"/>
</clipPath>
<clipPath id="clip5_184_137">
<rect width="21.6" height="21.6" fill="white" transform="translate(161.458 312.253) rotate(-5)"/>
</clipPath>
<clipPath id="clip6_184_137">
<rect width="12.6" height="12.6" fill="white" transform="translate(117.011 198.324) rotate(-17)"/>
</clipPath>
<clipPath id="clip7_184_137">
<rect width="14.4" height="14.4" fill="white" transform="translate(164.922 226.874) rotate(-18)"/>
</clipPath>
</defs>
</svg>
