<svg width="314" height="404" viewBox="0 0 314 404" fill="none" xmlns="http://www.w3.org/2000/svg">
<g filter="url(#filter0_d_184_210)">
<path d="M287.72 393.071C284.898 396.494 279.42 383.812 275.025 383.582C270.629 383.351 270.052 394.364 265.646 394.133C261.24 393.902 261.827 382.89 257.432 382.66C253.036 382.429 252.459 393.442 248.063 393.212C243.668 392.981 244.245 381.969 239.849 381.738C235.454 381.508 234.876 392.521 230.481 392.29C226.085 392.06 226.662 381.047 222.267 380.817C217.871 380.586 217.294 391.599 212.898 391.369C208.503 391.138 209.08 380.126 204.684 379.895C200.288 379.665 199.711 390.678 195.316 390.447C190.92 390.217 191.497 379.204 187.101 378.974C182.706 378.743 182.129 389.756 177.733 389.526C173.337 389.296 173.915 378.283 169.519 378.052C165.123 377.822 164.546 388.835 160.15 388.604C155.755 388.374 156.332 377.361 151.936 377.131C147.541 376.901 146.964 387.913 142.568 387.683C138.172 387.453 138.749 376.44 134.344 376.209C129.938 375.978 129.371 386.991 124.965 386.76C120.559 386.53 121.146 375.517 116.741 375.286C112.335 375.055 111.768 386.069 107.362 385.838C102.956 385.607 103.544 374.595 99.1377 374.364C94.7319 374.133 94.1649 385.146 89.7591 384.915C85.3532 384.684 85.9406 373.672 81.5347 373.441C77.1289 373.21 76.5619 384.224 72.1561 383.993C67.7503 383.762 68.3376 372.75 63.9318 372.519C59.5362 372.288 58.959 383.301 54.5532 383.07C50.1474 382.839 50.7347 371.827 46.3289 371.596C41.9231 371.365 41.3459 382.378 36.9502 382.148C32.5546 381.917 33.1318 370.905 28.7259 370.674C24.3201 370.443 23.743 381.456 19.3473 381.225C14.9517 380.995 17.8112 375.881 15.3625 372.182C12.1013 367.243 5.71215 369.034 6.02392 363.085C6.3357 357.136 17.2225 357.717 17.5343 351.768C17.8461 345.819 6.95816 345.259 7.2694 339.32C7.58063 333.381 18.468 333.952 18.7798 328.003C19.0915 322.054 8.20364 321.494 8.51487 315.555C8.8261 309.616 19.7135 310.187 20.0252 304.238C20.337 298.289 9.44911 297.729 9.76088 291.78C10.0727 285.831 20.9595 286.412 21.2713 280.463C21.583 274.514 10.6951 273.953 11.0064 268.015C11.3176 262.076 22.205 262.647 22.5167 256.698C22.8285 250.749 11.9406 250.188 12.2524 244.239C12.5641 238.29 23.451 238.871 23.7627 232.922C24.0745 226.973 13.1866 226.413 13.4978 220.474C13.8091 214.536 24.6964 215.106 25.0077 209.167C25.3189 203.229 14.4321 202.648 14.7433 196.709C15.0546 190.77 25.9419 191.341 26.2531 185.402C26.5644 179.464 15.6776 178.883 15.9888 172.944C16.3 167.005 27.1874 167.576 27.4992 161.627C27.8109 155.678 16.923 155.118 17.2348 149.169C17.5466 143.22 28.4334 143.801 28.7452 137.852C29.0569 131.903 18.169 131.342 18.4803 125.404C18.7915 119.465 29.6794 120.025 29.9906 114.087C30.3019 108.148 19.4151 107.567 19.7263 101.628C20.0375 95.6897 30.9249 96.2603 31.2367 90.3113C31.5484 84.3623 20.6611 83.7917 20.9723 77.853C21.2835 71.9143 32.1709 72.4849 32.4827 66.5359C32.7944 60.587 21.9071 60.0164 22.2183 54.0777C22.5295 48.139 33.4175 48.6993 33.7287 42.7606C34.0399 36.8219 23.1531 36.241 23.4643 30.3023C23.7756 24.3637 34.6635 24.9239 34.9752 18.975C35.287 13.026 22.1928 7.83994 25.9728 3.26992C28.7846 -0.153661 34.2622 12.5285 38.6578 12.7588C43.0535 12.9892 43.6408 1.97692 48.0364 2.20729C52.4321 2.43765 51.8549 13.4505 56.2506 13.6808C60.6462 13.9112 61.2234 2.89839 65.6292 3.12929C70.035 3.36019 69.4477 14.3725 73.8433 14.6028C78.239 14.8332 78.8161 3.82038 83.2118 4.05075C87.6074 4.28112 87.0303 15.2939 91.4259 15.5243C95.8216 15.7547 96.4089 4.74238 100.805 4.97275C105.2 5.20311 104.623 16.2159 109.019 16.4463C113.414 16.6767 113.991 5.66385 118.387 5.89421C122.783 6.12458 122.206 17.1374 126.601 17.3678C130.997 17.5981 131.574 6.58531 135.98 6.81621C140.386 7.04711 139.798 18.0594 144.194 18.2898C148.59 18.5201 149.167 7.50731 153.562 7.73767C157.958 7.96804 157.381 18.9809 161.777 19.2112C166.172 19.4416 166.749 8.42877 171.145 8.65914C175.541 8.88951 174.964 19.9023 179.369 20.1332C183.775 20.3641 184.342 9.35077 188.748 9.58167C193.154 9.81257 192.567 20.8249 196.972 21.0558C201.378 21.2867 201.945 10.2733 206.351 10.5042C210.757 10.7351 210.169 21.7474 214.575 21.9783C218.981 22.2092 219.548 11.1958 223.954 11.4267C228.36 11.6576 227.772 22.6699 232.178 22.9008C236.584 23.1317 237.151 12.1184 241.557 12.3493C245.963 12.5802 245.375 23.5925 249.781 23.8233C254.187 24.0542 254.754 13.0409 259.16 13.2718C263.566 13.5027 262.978 24.515 267.384 24.7459C271.79 24.9768 272.367 13.964 276.763 14.1943C281.158 14.4247 280.581 25.4375 284.987 25.6684C289.393 25.8993 289.97 14.8865 294.366 15.1169C298.761 15.3472 295.902 20.4609 298.35 24.1601C301.622 29.0997 308.011 27.3085 307.699 33.2575C307.387 39.2065 296.501 38.6256 296.189 44.5746C295.877 50.5236 306.765 51.0839 306.453 57.0328C306.141 62.9818 295.255 62.4009 294.943 68.3499C294.631 74.2989 305.519 74.8592 305.207 80.8082C304.895 86.7572 294.009 86.1763 293.697 92.1253C293.385 98.0743 304.273 98.6345 303.961 104.584C303.649 110.533 292.763 109.952 292.451 115.901C292.139 121.85 303.027 122.41 302.715 128.359C302.403 134.308 291.517 133.727 291.205 139.676C290.893 145.625 301.781 146.185 301.469 152.134C301.157 158.083 290.271 157.502 289.959 163.451C289.647 169.4 300.535 169.961 300.224 175.899C299.912 181.838 289.025 181.267 288.714 187.206C288.403 193.145 299.29 193.715 298.978 199.664C298.666 205.613 287.78 205.032 287.468 210.971C287.157 216.91 298.044 217.48 297.733 223.429C297.421 229.378 286.534 228.797 286.222 234.746C285.911 240.685 296.798 241.256 296.487 247.205C296.175 253.143 285.288 252.573 284.976 258.522C284.665 264.461 295.552 265.031 295.241 270.98C294.929 276.929 284.042 276.358 283.73 282.297C283.419 288.236 294.306 288.806 293.995 294.755C293.683 300.704 282.796 300.124 282.484 306.073C282.173 312.021 293.06 312.592 292.749 318.531C292.437 324.469 281.55 323.899 281.238 329.848C280.927 335.797 291.814 336.357 291.503 342.306C291.191 348.255 280.303 347.685 279.992 353.623C279.681 359.562 290.568 360.132 290.257 366.081C289.945 372.03 277.284 373.565 278.964 379.278C281.33 387.287 291.519 388.533 287.748 393.114L287.72 393.071Z" fill="#F4EAD3"/>
<g clip-path="url(#clip0_184_210)">
<rect x="45.8873" y="30.9342" width="241.2" height="322.2" rx="18" transform="rotate(3 45.8873 30.9342)" fill="#64EDAB"/>
<mask id="path-3-inside-1_184_210" fill="white">
<path fill-rule="evenodd" clip-rule="evenodd" d="M233.997 251.29C243.816 248.459 249.631 244.767 249.855 240.485C250.47 228.744 208.816 217.016 156.818 214.291C104.82 211.566 62.1686 218.875 61.5532 230.617C61.3288 234.899 66.7259 239.179 76.1961 243.021C59.5677 257.811 48.9368 277.671 47.7697 299.94C45.1911 349.143 89.7861 391.476 147.375 394.494C204.965 397.512 253.74 360.072 256.319 310.87C257.486 288.6 248.989 267.737 233.997 251.29Z"/>
</mask>
<path d="M233.997 251.29L233.748 250.426L232.357 250.827L233.332 251.897L233.997 251.29ZM156.818 214.291L156.771 215.19L156.818 214.291ZM76.1961 243.021L76.7942 243.694L77.876 242.731L76.5345 242.187L76.1961 243.021ZM47.7697 299.94L48.6685 299.987L47.7697 299.94ZM248.956 240.438C248.866 242.157 247.643 243.932 245.024 245.684C242.425 247.422 238.617 249.022 233.748 250.426L234.247 252.155C239.197 250.728 243.205 249.066 246.025 247.18C248.823 245.308 250.619 243.095 250.754 240.532L248.956 240.438ZM156.771 215.19C182.724 216.55 206.068 220.156 222.823 224.873C231.207 227.234 237.894 229.86 242.425 232.593C244.691 233.96 246.377 235.329 247.469 236.669C248.557 238.004 249.018 239.259 248.956 240.438L250.754 240.532C250.846 238.777 250.14 237.097 248.864 235.532C247.593 233.973 245.719 232.478 243.355 231.052C238.624 228.198 231.762 225.52 223.311 223.141C206.393 218.378 182.911 214.757 156.865 213.392L156.771 215.19ZM62.452 230.664C62.5138 229.484 63.1035 228.285 64.3249 227.071C65.5514 225.852 67.3706 224.667 69.7675 223.544C74.5598 221.3 81.4837 219.387 90.0692 217.916C107.226 214.976 130.818 213.83 156.771 215.19L156.865 213.392C130.82 212.028 107.088 213.173 89.7652 216.142C81.1111 217.625 74.0069 219.571 69.004 221.914C66.5033 223.086 64.4832 224.376 63.0562 225.794C61.6243 227.217 60.7465 228.814 60.6545 230.57L62.452 230.664ZM76.5345 242.187C71.8386 240.282 68.2181 238.293 65.815 236.292C63.3931 234.276 62.3619 232.383 62.452 230.664L60.6545 230.57C60.5201 233.133 62.0753 235.521 64.6633 237.676C67.2702 239.846 71.0834 241.918 75.8577 243.855L76.5345 242.187ZM48.6685 299.987C49.8215 277.986 60.3232 258.343 76.7942 243.694L75.598 242.349C58.8122 257.278 48.0521 277.355 46.871 299.893L48.6685 299.987ZM147.422 393.595C90.1917 390.596 46.1226 348.566 48.6685 299.987L46.871 299.893C44.2597 349.719 89.3805 392.356 147.328 395.393L147.422 393.595ZM255.42 310.823C252.874 359.401 204.653 396.594 147.422 393.595L147.328 395.393C205.276 398.43 254.606 360.743 257.218 310.917L255.42 310.823ZM233.332 251.897C248.182 268.188 256.573 288.821 255.42 310.823L257.218 310.917C258.399 288.378 249.796 267.287 234.663 250.684L233.332 251.897Z" fill="black" mask="url(#path-3-inside-1_184_210)"/>
<path d="M249.406 240.462C249.336 241.785 248.674 243.085 247.4 244.351C246.124 245.619 244.254 246.831 241.832 247.965C236.987 250.235 230.018 252.155 221.415 253.63C204.217 256.577 180.589 257.723 154.613 256.362C128.637 255 105.259 251.391 88.4635 246.662C80.0621 244.297 73.332 241.658 68.7508 238.895C66.4598 237.513 64.7273 236.112 63.5903 234.717C62.4555 233.325 61.9333 231.964 62.0026 230.64C62.072 229.317 62.7337 228.018 64.0078 226.752C65.2843 225.483 67.1538 224.272 69.5766 223.137C74.4216 220.868 81.3906 218.947 89.9932 217.473C107.191 214.525 130.819 213.379 156.795 214.741C182.771 216.102 206.149 219.712 222.945 224.44C231.346 226.806 238.076 229.444 242.657 232.208C244.948 233.589 246.681 234.99 247.818 236.385C248.953 237.777 249.475 239.138 249.406 240.462Z" stroke="black" stroke-width="0.9"/>
<path d="M243.566 240.016C243.511 241.062 242.925 242.107 241.745 243.14C240.564 244.173 238.826 245.16 236.566 246.082C232.049 247.926 225.542 249.469 217.504 250.635C201.435 252.966 179.344 253.774 155.041 252.501C130.739 251.227 108.853 248.114 93.1164 244.117C85.2444 242.117 78.9344 239.901 74.6341 237.596C72.4828 236.443 70.858 235.279 69.7918 234.128C68.7262 232.977 68.2519 231.877 68.3067 230.831C68.3615 229.786 68.9483 228.741 70.1283 227.708C71.309 226.675 73.0465 225.687 75.3065 224.765C79.8242 222.922 86.3313 221.379 94.3692 220.213C110.438 217.882 132.529 217.074 156.831 218.347C181.134 219.621 203.02 222.734 218.756 226.731C226.628 228.731 232.939 230.947 237.239 233.252C239.39 234.405 241.015 235.569 242.081 236.72C243.147 237.871 243.621 238.971 243.566 240.016Z" stroke="black" stroke-width="0.9"/>
<g clip-path="url(#clip1_184_210)">
<path d="M123.556 225.948L117.798 225.713L115.081 223.351L111.538 227.426L114.255 229.788L115.289 235.457L123.556 225.948Z" stroke="black" stroke-width="0.9" stroke-linecap="round" stroke-linejoin="round"/>
<path d="M129.079 230.665C129.245 233.046 128.459 235.395 126.894 237.196C125.328 238.997 123.111 240.103 120.73 240.27M124.597 230.979C124.68 232.169 124.287 233.344 123.504 234.244C122.722 235.145 121.613 235.697 120.423 235.781" stroke="black" stroke-width="0.9" stroke-linecap="round" stroke-linejoin="round"/>
</g>
<g clip-path="url(#clip2_184_210)">
<path d="M197.735 202.033L193.425 201.706L191.451 199.865L188.689 202.827L190.663 204.668L191.29 208.944L197.735 202.033Z" stroke="black" stroke-width="0.9" stroke-linecap="round" stroke-linejoin="round"/>
<path d="M201.752 205.713C201.814 207.502 201.163 209.242 199.942 210.552C198.722 211.861 197.031 212.631 195.242 212.694M198.384 205.831C198.415 206.725 198.09 207.596 197.479 208.25C196.869 208.905 196.024 209.29 195.129 209.321" stroke="black" stroke-width="0.9" stroke-linecap="round" stroke-linejoin="round"/>
</g>
<g clip-path="url(#clip3_184_210)">
<path d="M195.483 232.84L191.321 234.007L188.836 232.952L187.253 236.68L189.739 237.735L191.79 241.539L195.483 232.84Z" stroke="black" stroke-width="0.9" stroke-linecap="round" stroke-linejoin="round"/>
<path d="M200.515 234.925C201.185 236.584 201.169 238.442 200.469 240.09C199.77 241.738 198.445 243.04 196.785 243.711M197.39 236.187C197.725 237.017 197.717 237.946 197.368 238.77C197.018 239.593 196.355 240.245 195.526 240.58" stroke="black" stroke-width="0.9" stroke-linecap="round" stroke-linejoin="round"/>
</g>
<g clip-path="url(#clip4_184_210)">
<path d="M159.233 182.833L153.916 185.054L150.455 184.061L148.967 189.252L152.427 190.244L155.76 194.945L159.233 182.833Z" stroke="black" stroke-width="0.9" stroke-linecap="round" stroke-linejoin="round"/>
<path d="M166.233 184.775C167.39 186.862 167.67 189.324 167.012 191.618C166.354 193.912 164.812 195.851 162.725 197.008M162.303 186.953C162.882 187.997 163.022 189.227 162.693 190.374C162.364 191.522 161.593 192.491 160.549 193.07" stroke="black" stroke-width="0.9" stroke-linecap="round" stroke-linejoin="round"/>
</g>
<path d="M150.158 311.275L145.476 314.635L141.881 314.447L141.598 319.839L145.194 320.028L149.499 323.858L150.158 311.275Z" stroke="black" stroke-width="0.9" stroke-linecap="round" stroke-linejoin="round"/>
<path d="M157.413 311.593C159.01 313.366 159.837 315.702 159.712 318.085C159.587 320.468 158.52 322.704 156.747 324.301M154.074 314.599C154.873 315.486 155.286 316.653 155.224 317.845C155.161 319.037 154.628 320.155 153.741 320.953" stroke="black" stroke-width="0.9" stroke-linecap="round" stroke-linejoin="round"/>
<g clip-path="url(#clip5_184_210)">
<path d="M120.169 188.842L117.067 190.137L115.048 189.559L114.18 192.587L116.198 193.165L118.143 195.908L120.169 188.842Z" stroke="black" stroke-width="0.9" stroke-linecap="round" stroke-linejoin="round"/>
<path d="M124.251 189.975C124.926 191.193 125.09 192.628 124.706 193.967C124.322 195.305 123.423 196.436 122.205 197.111M121.959 191.246C122.297 191.854 122.378 192.572 122.186 193.241C121.995 193.91 121.545 194.476 120.936 194.813" stroke="black" stroke-width="0.9" stroke-linecap="round" stroke-linejoin="round"/>
</g>
<g clip-path="url(#clip6_184_210)">
<path d="M162.612 223.947L160.074 226.831L157.711 227.248L158.336 230.793L160.699 230.376L164.071 232.219L162.612 223.947Z" stroke="black" stroke-width="0.9" stroke-linecap="round" stroke-linejoin="round"/>
<path d="M167.372 223.064C168.676 223.977 169.563 225.37 169.839 226.937C170.115 228.504 169.758 230.116 168.846 231.419M165.654 225.518C166.306 225.974 166.75 226.671 166.888 227.454C167.026 228.238 166.847 229.044 166.391 229.695" stroke="black" stroke-width="0.9" stroke-linecap="round" stroke-linejoin="round"/>
</g>
<path d="M180.836 319.192C179.964 335.821 165.778 348.594 149.149 347.723C132.52 346.851 119.747 332.665 120.618 316.036C121.49 299.408 135.676 286.634 152.305 287.505C168.933 288.377 181.707 302.563 180.836 319.192Z" stroke="black" stroke-width="0.9"/>
</g>
</g>
<defs>
<filter id="filter0_d_184_210" x="-0.287634" y="-0.8" width="314.298" height="405.143" filterUnits="userSpaceOnUse" color-interpolation-filters="sRGB">
<feFlood flood-opacity="0" result="BackgroundImageFix"/>
<feColorMatrix in="SourceAlpha" type="matrix" values="0 0 0 0 0 0 0 0 0 0 0 0 0 0 0 0 0 0 127 0" result="hardAlpha"/>
<feOffset dy="3.6"/>
<feGaussianBlur stdDeviation="2.7"/>
<feComposite in2="hardAlpha" operator="out"/>
<feColorMatrix type="matrix" values="0 0 0 0 0 0 0 0 0 0 0 0 0 0 0 0 0 0 0.1 0"/>
<feBlend mode="normal" in2="BackgroundImageFix" result="effect1_dropShadow_184_210"/>
<feBlend mode="normal" in="SourceGraphic" in2="effect1_dropShadow_184_210" result="shape"/>
</filter>
<clipPath id="clip0_184_210">
<rect x="45.8873" y="30.9342" width="241.2" height="322.2" rx="18" transform="rotate(3 45.8873 30.9342)" fill="white"/>
</clipPath>
<clipPath id="clip1_184_210">
<rect width="21.6" height="21.6" fill="white" transform="translate(119.037 216.057) rotate(41)"/>
</clipPath>
<clipPath id="clip2_184_210">
<rect width="16.2" height="16.2" fill="white" transform="translate(194.607 194.501) rotate(43)"/>
</clipPath>
<clipPath id="clip3_184_210">
<rect width="16.2" height="16.2" fill="white" transform="translate(189.966 226.832) rotate(23)"/>
</clipPath>
<clipPath id="clip4_184_210">
<rect width="21.6" height="21.6" fill="white" transform="translate(150.957 175.779) rotate(16)"/>
</clipPath>
<clipPath id="clip5_184_210">
<rect width="12.6" height="12.6" fill="white" transform="translate(115.34 184.727) rotate(16)"/>
</clipPath>
<clipPath id="clip6_184_210">
<rect width="14.4" height="14.4" fill="white" transform="translate(155.591 222.138) rotate(-10)"/>
</clipPath>
</defs>
</svg>
