<svg width="1440" height="509" viewBox="0 0 1440 509" fill="none" xmlns="http://www.w3.org/2000/svg">
<g clip-path="url(#clip0_2004_2225)">
<path d="M882.94 79.0699V79.2699C882.96 79.1999 882.97 79.1399 882.99 79.0699H882.94Z" stroke="#1E1E1E" stroke-miterlimit="10"/>
<path d="M838.59 81.15H837.63V83.06H838.59V81.15Z" fill="#1E1E1E"/>
<path d="M834.63 79.0699H833.47V85.1299H834.63V79.0699Z" fill="#1E1E1E"/>
<path d="M967.76 61.06C967.76 61.56 967.72 62.05 967.69 62.53C968.07 62.16 968.32 61.64 968.32 61.06C968.32 60.48 968.08 59.96 967.69 59.59C967.73 60.08 967.76 60.57 967.76 61.06Z" stroke="#1E1E1E" stroke-miterlimit="10"/>
<path d="M961.25 74.91V86.2H974.23L964.15 71.83C963.3 72.96 962.34 74 961.25 74.91Z" stroke="#1E1E1E" stroke-miterlimit="10"/>
<path d="M882.94 45.56V76.07H884.16C886.38 72 890.7 69.23 895.66 69.23C900.62 69.23 904.94 72 907.16 76.07H910.4C912.62 72 916.94 69.23 921.9 69.23C926.86 69.23 931.18 72 933.4 76.07H936.65C938.87 72 943.19 69.23 948.15 69.23C952.03 69.23 955.52 70.94 957.92 73.63C962.03 70.95 964.75 66.32 964.75 61.06C964.75 52.79 958.02 46.06 949.74 46.06H917.6C916.77 46.06 916.1 45.39 916.1 44.56V36.25H882.94V45.56Z" stroke="#1E1E1E" stroke-miterlimit="10"/>
<path d="M879.94 76.07V25.28H851.15V76.07H879.94ZM854.43 48V30.49C854.43 29.66 855.1 28.99 855.93 28.99H876.4C877.23 28.99 877.9 29.66 877.9 30.49V48C877.9 48.83 877.23 49.5 876.4 49.5H855.93C855.1 49.5 854.43 48.83 854.43 48Z" stroke="#1E1E1E" stroke-miterlimit="10"/>
<path d="M879.53 23.5799H880.42C881.46 23.5799 882.3 22.7399 882.3 21.6999C882.3 20.6599 881.46 19.8199 880.42 19.8199H832.35C831.31 19.8199 830.47 20.6599 830.47 21.6999C830.47 22.7399 831.31 23.5799 832.35 23.5799H879.52H879.53Z" stroke="#1E1E1E" stroke-miterlimit="10"/>
<path d="M978.25 89.2H959.29C959.12 89.47 958.95 89.73 958.76 89.99C958.84 90.2 959.05 90.36 959.3 90.36H978.26C978.58 90.36 978.84 90.1 978.84 89.78C978.84 89.46 978.58 89.2 978.26 89.2H978.25Z" fill="#1E1E1E"/>
<path d="M893.68 79.55C891.63 78.46 890.85 75.9 891.93 73.85C892.19 73.36 892.54 72.95 892.94 72.61C888.69 73.8 885.56 77.7 885.56 82.32C885.56 87.88 890.09 92.41 895.65 92.41C900.04 92.41 903.78 89.58 905.16 85.66L893.67 79.55H893.68Z" stroke="#1E1E1E" stroke-miterlimit="10"/>
<path d="M920.33 79.55C918.28 78.46 917.5 75.9 918.58 73.85C918.88 73.29 919.29 72.82 919.78 72.45C916.05 73.25 913.09 76.13 912.14 79.81L923.88 86.05C925.91 87.13 926.69 89.63 925.66 91.67C928.4 90.57 930.55 88.3 931.48 85.47L920.32 79.54L920.33 79.55Z" stroke="#1E1E1E" stroke-miterlimit="10"/>
<path d="M958.25 82.32C958.25 76.76 953.72 72.23 948.16 72.23C943.53 72.23 939.62 75.37 938.44 79.63L950.53 86.05C952.49 87.09 953.27 89.46 952.39 91.46C955.84 89.85 958.25 86.36 958.25 82.31V82.32Z" stroke="#1E1E1E" stroke-miterlimit="10"/>
<path d="M944.72 28.11H935V43.06H944.72V28.11Z" stroke="#1E1E1E" stroke-miterlimit="10"/>
<path d="M909.26 11.59H894.79V33.25H909.26V11.59Z" stroke="#1E1E1E" stroke-miterlimit="10"/>
<path d="M910.76 8.59H913.65V0.5H890.4V8.59H893.29H910.76Z" stroke="#1E1E1E" stroke-miterlimit="10"/>
<path d="M946.22 25.11H949.37V17.02H930.35V25.11H933.5H946.22Z" stroke="#1E1E1E" stroke-miterlimit="10"/>
<path d="M921.34 90.85C921.92 91.16 922.68 90.92 922.98 90.35C923.29 89.76 923.07 89.02 922.48 88.71L896.23 74.76C896.05 74.66 895.86 74.62 895.66 74.62C895.21 74.62 894.79 74.87 894.58 75.27C894.27 75.86 894.49 76.6 895.08 76.91L921.33 90.86L921.34 90.85Z" stroke="#1E1E1E" stroke-miterlimit="10"/>
<path d="M947.98 90.85C948.56 91.16 949.32 90.92 949.62 90.35C949.93 89.76 949.71 89.02 949.12 88.71L922.87 74.76C922.69 74.66 922.5 74.62 922.3 74.62C921.85 74.62 921.43 74.87 921.22 75.27C920.91 75.86 921.13 76.6 921.72 76.91L947.97 90.86L947.98 90.85Z" stroke="#1E1E1E" stroke-miterlimit="10"/>
<path d="M841.6 85.13H851.89C852.95 82.14 855.8 79.99 859.15 79.99C862.5 79.99 865.35 82.14 866.41 85.13H867.81C868.87 82.14 871.72 79.99 875.07 79.99C876.92 79.99 878.61 80.64 879.94 81.73V79.08H841.59V85.14L841.6 85.13Z" stroke="#1E1E1E" stroke-miterlimit="10"/>
<path d="M859.15 82.99C856.55 82.99 854.44 85.1 854.44 87.7C854.44 90.3 856.55 92.41 859.15 92.41C861.75 92.41 863.86 90.3 863.86 87.7C863.86 85.1 861.75 82.99 859.15 82.99Z" stroke="#1E1E1E" stroke-miterlimit="10"/>
<path d="M879.79 87.7C879.79 85.1 877.68 82.99 875.08 82.99C872.48 82.99 870.37 85.1 870.37 87.7C870.37 90.3 872.48 92.41 875.08 92.41C877.68 92.41 879.79 90.3 879.79 87.7Z" stroke="#1E1E1E" stroke-miterlimit="10"/>
<path d="M761.79 29.03V76.15H817.89V29.03H761.79ZM810.35 56.98C810.35 57.81 809.68 58.48 808.85 58.48H771.32C770.49 58.48 769.82 57.81 769.82 56.98V35.87C769.82 35.04 770.49 34.37 771.32 34.37H808.85C809.68 34.37 810.35 35.04 810.35 35.87V56.98Z" stroke="#1E1E1E" stroke-miterlimit="10"/>
<path d="M705.62 58.02V52.59V29.03H696.37V76.15H705.62V58.02Z" stroke="#1E1E1E" stroke-miterlimit="10"/>
<path d="M733.7 26.03H760.29H817.89V20.7H696.37V26.03H707.12H733.7Z" stroke="#1E1E1E" stroke-miterlimit="10"/>
<path d="M690.55 81.21H687.99V83.09H690.55V81.21Z" fill="#1E1E1E"/>
<path d="M684.98 79.15H683.78V85.16H684.98V79.15Z" fill="#1E1E1E"/>
<path d="M826.27 81.22H824.86V83.1H826.27V81.22Z" fill="#1E1E1E"/>
<path d="M830.47 79.15H829.27V85.16H830.47V79.15Z" fill="#1E1E1E"/>
<path d="M693.54 85.16H696C697.06 82.18 699.9 80.04 703.23 80.04C706.56 80.04 709.4 82.18 710.46 85.16H711.84C712.9 82.18 715.74 80.04 719.07 80.04C722.4 80.04 725.24 82.18 726.3 85.16H727.73C728.79 82.18 731.63 80.04 734.96 80.04C738.29 80.04 741.13 82.18 742.19 85.16H773.16C774.22 82.18 777.06 80.04 780.39 80.04C783.72 80.04 786.56 82.18 787.62 85.16H789C790.06 82.18 792.9 80.04 796.23 80.04C799.56 80.04 802.41 82.18 803.46 85.16H804.89C805.95 82.18 808.79 80.04 812.12 80.04C815.45 80.04 818.29 82.18 819.35 85.16H821.81V79.15H693.5V85.16H693.54Z" stroke="#1E1E1E" stroke-miterlimit="10"/>
<path d="M703.23 83.04C700.65 83.04 698.55 85.14 698.55 87.72C698.55 90.3 700.65 92.4 703.23 92.4C705.81 92.4 707.91 90.3 707.91 87.72C707.91 85.14 705.81 83.04 703.23 83.04Z" stroke="#1E1E1E" stroke-miterlimit="10"/>
<path d="M719.08 83.04C716.5 83.04 714.4 85.14 714.4 87.72C714.4 90.3 716.5 92.4 719.08 92.4C721.66 92.4 723.76 90.3 723.76 87.72C723.76 85.14 721.66 83.04 719.08 83.04Z" stroke="#1E1E1E" stroke-miterlimit="10"/>
<path d="M734.98 83.04C732.4 83.04 730.3 85.14 730.3 87.72C730.3 90.3 732.4 92.4 734.98 92.4C737.56 92.4 739.66 90.3 739.66 87.72C739.66 85.14 737.56 83.04 734.98 83.04Z" stroke="#1E1E1E" stroke-miterlimit="10"/>
<path d="M780.42 83.04C777.84 83.04 775.74 85.14 775.74 87.72C775.74 90.3 777.84 92.4 780.42 92.4C783 92.4 785.1 90.3 785.1 87.72C785.1 85.14 783 83.04 780.42 83.04Z" stroke="#1E1E1E" stroke-miterlimit="10"/>
<path d="M796.27 83.04C793.69 83.04 791.59 85.14 791.59 87.72C791.59 90.3 793.69 92.4 796.27 92.4C798.85 92.4 800.95 90.3 800.95 87.72C800.95 85.14 798.85 83.04 796.27 83.04Z" stroke="#1E1E1E" stroke-miterlimit="10"/>
<path d="M812.17 83.04C809.59 83.04 807.49 85.14 807.49 87.72C807.49 90.3 809.59 92.4 812.17 92.4C814.75 92.4 816.85 90.3 816.85 87.72C816.85 85.14 814.75 83.04 812.17 83.04Z" stroke="#1E1E1E" stroke-miterlimit="10"/>
<path d="M708.62 51.09H712.42V49.98C712.42 49.15 713.09 48.48 713.92 48.48H720.42C721.25 48.48 721.92 49.15 721.92 49.98V51.09H732.21V29.03H708.63V51.09H708.62Z" stroke="#1E1E1E" stroke-miterlimit="10"/>
<path d="M732.2 59.52H721.91V60.63C721.91 61.46 721.24 62.13 720.41 62.13H713.91C713.08 62.13 712.41 61.46 712.41 60.63V59.52H708.61V76.15H732.19V59.52H732.2Z" stroke="#1E1E1E" stroke-miterlimit="10"/>
<path d="M735.2 51.09H745.49V49.98C745.49 49.15 746.16 48.48 746.99 48.48H753.49C754.32 48.48 754.99 49.15 754.99 49.98V51.09H758.79V29.03H735.21V51.09H735.2Z" stroke="#1E1E1E" stroke-miterlimit="10"/>
<path d="M758.79 59.52H754.99V60.63C754.99 61.46 754.32 62.13 753.49 62.13H746.99C746.16 62.13 745.49 61.46 745.49 60.63V59.52H735.2V76.15H758.78V59.52H758.79Z" stroke="#1E1E1E" stroke-miterlimit="10"/>
<path d="M712.42 54.09H708.62V56.52H712.42V54.09Z" stroke="#1E1E1E" stroke-miterlimit="10"/>
<path d="M758.79 54.09H754.99V56.52H758.79V54.09Z" stroke="#1E1E1E" stroke-miterlimit="10"/>
<path d="M745.49 54.09H721.92V56.52H745.49V54.09Z" stroke="#1E1E1E" stroke-miterlimit="10"/>
<path d="M751.99 51.48H748.49V59.13H751.99V51.48Z" stroke="#1E1E1E" stroke-miterlimit="10"/>
<path d="M718.92 51.48H715.42V59.13H718.92V51.48Z" stroke="#1E1E1E" stroke-miterlimit="10"/>
<path d="M823.41 17.6999C822.54 15.7599 820.61 14.4399 818.4 14.4399H695.86C693.65 14.4399 691.72 15.7599 690.85 17.6999H823.41Z" stroke="#1E1E1E" stroke-miterlimit="10"/>
<path d="M668.76 29.23H547.79V76.13H668.76V29.23ZM667.05 50.06C667.05 50.79 666.86 51.47 666.56 52.09C666.86 52.36 667.05 52.75 667.05 53.19V58.43C667.05 59.26 666.38 59.93 665.55 59.93H550.85C550.02 59.93 549.35 59.26 549.35 58.43V53.19C549.35 52.75 549.54 52.36 549.84 52.09C549.54 51.47 549.35 50.79 549.35 50.06V34.75C549.35 32.2 551.43 30.12 553.98 30.12H572.34C574.89 30.12 576.97 32.2 576.97 34.75V50.06C576.97 50.64 576.85 51.18 576.66 51.69H579.69C579.5 51.18 579.38 50.64 579.38 50.06V34.75C579.38 32.2 581.46 30.12 584.01 30.12H602.37C604.92 30.12 607 32.2 607 34.75V50.06C607 50.64 606.88 51.18 606.69 51.69H609.72C609.53 51.18 609.41 50.64 609.41 50.06V34.75C609.41 32.2 611.49 30.12 614.04 30.12H632.4C634.95 30.12 637.03 32.2 637.03 34.75V50.06C637.03 50.64 636.91 51.18 636.72 51.69H639.75C639.56 51.18 639.44 50.64 639.44 50.06V34.75C639.44 32.2 641.52 30.12 644.07 30.12H662.43C664.98 30.12 667.06 32.2 667.06 34.75V50.06H667.05Z" stroke="#1E1E1E" stroke-miterlimit="10"/>
<path d="M668.76 20.9399H547.79V26.2299H668.76V20.9399Z" stroke="#1E1E1E" stroke-miterlimit="10"/>
<path d="M674.26 17.94C673.39 16.02 671.48 14.71 669.28 14.71H547.28C545.08 14.71 543.17 16.02 542.3 17.94H674.26Z" stroke="#1E1E1E" stroke-miterlimit="10"/>
<path d="M540.72 81.2H538.16V83.09H540.72V81.2Z" fill="#1E1E1E"/>
<path d="M535.17 79.13H533.96V85.15H535.17V79.13Z" fill="#1E1E1E"/>
<path d="M676.58 81.2H675.16V83.09H676.58V81.2Z" fill="#1E1E1E"/>
<path d="M680.79 79.13H679.58V85.15H680.79V79.13Z" fill="#1E1E1E"/>
<path d="M543.72 85.16H546.18C547.24 82.18 550.08 80.04 553.42 80.04C556.76 80.04 559.6 82.18 560.66 85.16H562.04C563.1 82.18 565.94 80.04 569.28 80.04C572.62 80.04 575.46 82.18 576.52 85.16H577.95C579.01 82.18 581.85 80.04 585.19 80.04C588.53 80.04 591.37 82.18 592.43 85.16H623.43C624.49 82.18 627.33 80.04 630.67 80.04C634.01 80.04 636.85 82.18 637.91 85.16H639.29C640.35 82.18 643.19 80.04 646.53 80.04C649.87 80.04 652.71 82.18 653.77 85.16H655.2C656.26 82.18 659.1 80.04 662.44 80.04C665.78 80.04 668.62 82.18 669.68 85.16H672.14V79.14H543.7V85.16H543.72Z" stroke="#1E1E1E" stroke-miterlimit="10"/>
<path d="M553.43 83.03C550.84 83.03 548.74 85.13 548.74 87.72C548.74 90.31 550.84 92.41 553.43 92.41C556.02 92.41 558.12 90.31 558.12 87.72C558.12 85.13 556.02 83.03 553.43 83.03Z" stroke="#1E1E1E" stroke-miterlimit="10"/>
<path d="M569.29 83.03C566.7 83.03 564.6 85.13 564.6 87.72C564.6 90.31 566.7 92.41 569.29 92.41C571.88 92.41 573.98 90.31 573.98 87.72C573.98 85.13 571.88 83.03 569.29 83.03Z" stroke="#1E1E1E" stroke-miterlimit="10"/>
<path d="M585.2 83.03C582.61 83.03 580.51 85.13 580.51 87.72C580.51 90.31 582.61 92.41 585.2 92.41C587.79 92.41 589.89 90.31 589.89 87.72C589.89 85.13 587.79 83.03 585.2 83.03Z" stroke="#1E1E1E" stroke-miterlimit="10"/>
<path d="M630.68 83.03C628.09 83.03 625.99 85.13 625.99 87.72C625.99 90.31 628.09 92.41 630.68 92.41C633.27 92.41 635.37 90.31 635.37 87.72C635.37 85.13 633.27 83.03 630.68 83.03Z" stroke="#1E1E1E" stroke-miterlimit="10"/>
<path d="M646.54 83.03C643.95 83.03 641.85 85.13 641.85 87.72C641.85 90.31 643.95 92.41 646.54 92.41C649.13 92.41 651.23 90.31 651.23 87.72C651.23 85.13 649.13 83.03 646.54 83.03Z" stroke="#1E1E1E" stroke-miterlimit="10"/>
<path d="M662.46 83.03C659.87 83.03 657.77 85.13 657.77 87.72C657.77 90.31 659.87 92.41 662.46 92.41C665.05 92.41 667.15 90.31 667.15 87.72C667.15 85.13 665.05 83.03 662.46 83.03Z" stroke="#1E1E1E" stroke-miterlimit="10"/>
<path d="M573.98 38.41V34.75C573.98 33.85 573.25 33.12 572.35 33.12H553.99C553.09 33.12 552.36 33.85 552.36 34.75V38.41H573.98Z" stroke="#1E1E1E" stroke-miterlimit="10"/>
<path d="M604 38.41V34.75C604 33.85 603.27 33.12 602.37 33.12H584.01C583.11 33.12 582.38 33.85 582.38 34.75V38.41H604Z" stroke="#1E1E1E" stroke-miterlimit="10"/>
<path d="M634.03 38.41V34.75C634.03 33.85 633.3 33.12 632.4 33.12H614.04C613.14 33.12 612.41 33.85 612.41 34.75V38.41H634.03Z" stroke="#1E1E1E" stroke-miterlimit="10"/>
<path d="M664.05 38.41V34.75C664.05 33.85 663.32 33.12 662.42 33.12H644.06C643.16 33.12 642.43 33.85 642.43 34.75V38.41H664.05Z" stroke="#1E1E1E" stroke-miterlimit="10"/>
<path d="M632.4 54.6899H614.04H602.37H584.01H572.35H553.98H552.35V56.9299H664.05V54.6899H662.42H644.06H632.4Z" stroke="#1E1E1E" stroke-miterlimit="10"/>
<path d="M516.9 29.0701H395.93V75.9701H516.9V29.0701ZM515.19 49.9001C515.19 50.6301 515 51.3101 514.7 51.9301C515 52.2001 515.19 52.5901 515.19 53.0301V58.2701C515.19 59.1001 514.52 59.7701 513.69 59.7701H398.99C398.16 59.7701 397.49 59.1001 397.49 58.2701V53.0301C397.49 52.5901 397.68 52.2001 397.98 51.9301C397.68 51.3101 397.49 50.6301 397.49 49.9001V34.5901C397.49 32.0401 399.57 29.9601 402.12 29.9601H420.48C423.03 29.9601 425.11 32.0401 425.11 34.5901V49.9001C425.11 50.4801 424.99 51.0201 424.8 51.5301H427.83C427.64 51.0201 427.52 50.4801 427.52 49.9001V34.5901C427.52 32.0401 429.6 29.9601 432.15 29.9601H450.51C453.06 29.9601 455.14 32.0401 455.14 34.5901V49.9001C455.14 50.4801 455.02 51.0201 454.83 51.5301H457.86C457.67 51.0201 457.55 50.4801 457.55 49.9001V34.5901C457.55 32.0401 459.63 29.9601 462.18 29.9601H480.54C483.09 29.9601 485.17 32.0401 485.17 34.5901V49.9001C485.17 50.4801 485.05 51.0201 484.86 51.5301H487.89C487.7 51.0201 487.58 50.4801 487.58 49.9001V34.5901C487.58 32.0401 489.66 29.9601 492.21 29.9601H510.57C513.12 29.9601 515.2 32.0401 515.2 34.5901V49.9001H515.19Z" stroke="#1E1E1E" stroke-miterlimit="10"/>
<path d="M516.9 20.78H395.93V26.07H516.9V20.78Z" stroke="#1E1E1E" stroke-miterlimit="10"/>
<path d="M522.39 17.78C521.52 15.86 519.61 14.55 517.41 14.55H395.41C393.21 14.55 391.3 15.86 390.43 17.78H522.39Z" stroke="#1E1E1E" stroke-miterlimit="10"/>
<path d="M388.86 81.04H386.3V82.93H388.86V81.04Z" fill="#1E1E1E"/>
<path d="M383.3 78.9701H382.09V84.9901H383.3V78.9701Z" fill="#1E1E1E"/>
<path d="M526.87 81.04H524.31V82.93H526.87V81.04Z" fill="#1E1E1E"/>
<path d="M531.08 78.9701H529.87V84.9901H531.08V78.9701Z" fill="#1E1E1E"/>
<path d="M391.86 85.0001H394.32C395.38 82.0201 398.22 79.8801 401.56 79.8801C404.9 79.8801 407.74 82.0201 408.8 85.0001H410.18C411.24 82.0201 414.08 79.8801 417.42 79.8801C420.76 79.8801 423.6 82.0201 424.66 85.0001H426.09C427.15 82.0201 429.99 79.8801 433.33 79.8801C436.67 79.8801 439.51 82.0201 440.57 85.0001H471.57C472.63 82.0201 475.47 79.8801 478.81 79.8801C482.15 79.8801 484.99 82.0201 486.05 85.0001H487.43C488.49 82.0201 491.33 79.8801 494.67 79.8801C498.01 79.8801 500.85 82.0201 501.91 85.0001H503.34C504.4 82.0201 507.24 79.8801 510.58 79.8801C513.92 79.8801 516.76 82.0201 517.82 85.0001H520.28V78.9801H391.84V85.0001H391.86Z" stroke="#1E1E1E" stroke-miterlimit="10"/>
<path d="M401.56 82.87C398.97 82.87 396.87 84.97 396.87 87.56C396.87 90.15 398.97 92.25 401.56 92.25C404.15 92.25 406.25 90.15 406.25 87.56C406.25 84.97 404.15 82.87 401.56 82.87Z" stroke="#1E1E1E" stroke-miterlimit="10"/>
<path d="M417.42 82.87C414.83 82.87 412.73 84.97 412.73 87.56C412.73 90.15 414.83 92.25 417.42 92.25C420.01 92.25 422.11 90.15 422.11 87.56C422.11 84.97 420.01 82.87 417.42 82.87Z" stroke="#1E1E1E" stroke-miterlimit="10"/>
<path d="M433.34 82.87C430.75 82.87 428.65 84.97 428.65 87.56C428.65 90.15 430.75 92.25 433.34 92.25C435.93 92.25 438.03 90.15 438.03 87.56C438.03 84.97 435.93 82.87 433.34 82.87Z" stroke="#1E1E1E" stroke-miterlimit="10"/>
<path d="M478.82 82.87C476.23 82.87 474.13 84.97 474.13 87.56C474.13 90.15 476.23 92.25 478.82 92.25C481.41 92.25 483.51 90.15 483.51 87.56C483.51 84.97 481.41 82.87 478.82 82.87Z" stroke="#1E1E1E" stroke-miterlimit="10"/>
<path d="M494.68 82.87C492.09 82.87 489.99 84.97 489.99 87.56C489.99 90.15 492.09 92.25 494.68 92.25C497.27 92.25 499.37 90.15 499.37 87.56C499.37 84.97 497.27 82.87 494.68 82.87Z" stroke="#1E1E1E" stroke-miterlimit="10"/>
<path d="M510.59 82.87C508 82.87 505.9 84.97 505.9 87.56C505.9 90.15 508 92.25 510.59 92.25C513.18 92.25 515.28 90.15 515.28 87.56C515.28 84.97 513.18 82.87 510.59 82.87Z" stroke="#1E1E1E" stroke-miterlimit="10"/>
<path d="M422.11 38.2501V34.5901C422.11 33.6901 421.38 32.9601 420.48 32.9601H402.12C401.22 32.9601 400.49 33.6901 400.49 34.5901V38.2501H422.11Z" stroke="#1E1E1E" stroke-miterlimit="10"/>
<path d="M452.14 38.2501V34.5901C452.14 33.6901 451.41 32.9601 450.51 32.9601H432.15C431.25 32.9601 430.52 33.6901 430.52 34.5901V38.2501H452.14Z" stroke="#1E1E1E" stroke-miterlimit="10"/>
<path d="M482.16 38.2501V34.5901C482.16 33.6901 481.43 32.9601 480.53 32.9601H462.17C461.27 32.9601 460.54 33.6901 460.54 34.5901V38.2501H482.16Z" stroke="#1E1E1E" stroke-miterlimit="10"/>
<path d="M512.19 38.2501V34.5901C512.19 33.6901 511.46 32.9601 510.56 32.9601H492.2C491.3 32.9601 490.57 33.6901 490.57 34.5901V38.2501H512.19Z" stroke="#1E1E1E" stroke-miterlimit="10"/>
<path d="M480.53 54.53H462.17H450.51H432.15H420.48H402.12H400.49V56.77H512.19V54.53H510.56H492.2H480.53Z" stroke="#1E1E1E" stroke-miterlimit="10"/>
<path d="M365.03 29.0701H244.06V75.9701H365.03V29.0701ZM363.33 49.9001C363.33 50.6301 363.14 51.3101 362.84 51.9301C363.14 52.2001 363.33 52.5901 363.33 53.0301V58.2701C363.33 59.1001 362.66 59.7701 361.83 59.7701H247.13C246.3 59.7701 245.63 59.1001 245.63 58.2701V53.0301C245.63 52.5901 245.82 52.2001 246.12 51.9301C245.82 51.3101 245.63 50.6301 245.63 49.9001V34.5901C245.63 32.0401 247.71 29.9601 250.26 29.9601H268.62C271.17 29.9601 273.25 32.0401 273.25 34.5901V49.9001C273.25 50.4801 273.13 51.0201 272.94 51.5301H275.97C275.78 51.0201 275.66 50.4801 275.66 49.9001V34.5901C275.66 32.0401 277.74 29.9601 280.29 29.9601H298.65C301.2 29.9601 303.28 32.0401 303.28 34.5901V49.9001C303.28 50.4801 303.16 51.0201 302.97 51.5301H306C305.81 51.0201 305.69 50.4801 305.69 49.9001V34.5901C305.69 32.0401 307.77 29.9601 310.32 29.9601H328.68C331.23 29.9601 333.31 32.0401 333.31 34.5901V49.9001C333.31 50.4801 333.19 51.0201 333 51.5301H336.03C335.84 51.0201 335.72 50.4801 335.72 49.9001V34.5901C335.72 32.0401 337.8 29.9601 340.35 29.9601H358.71C361.26 29.9601 363.34 32.0401 363.34 34.5901V49.9001H363.33Z" stroke="#1E1E1E" stroke-miterlimit="10"/>
<path d="M365.03 20.78H244.06V26.07H365.03V20.78Z" stroke="#1E1E1E" stroke-miterlimit="10"/>
<path d="M370.53 17.78C369.66 15.86 367.75 14.55 365.55 14.55H243.55C241.35 14.55 239.44 15.86 238.57 17.78H370.53Z" stroke="#1E1E1E" stroke-miterlimit="10"/>
<path d="M236.99 81.04H234.43V82.93H236.99V81.04Z" fill="#1E1E1E"/>
<path d="M231.44 78.9701H230.23V84.9901H231.44V78.9701Z" fill="#1E1E1E"/>
<path d="M375.01 81.04H372.45V82.93H375.01V81.04Z" fill="#1E1E1E"/>
<path d="M379.22 78.9701H378.01V84.9901H379.22V78.9701Z" fill="#1E1E1E"/>
<path d="M239.99 85.0001H242.45C243.51 82.0201 246.35 79.8801 249.69 79.8801C253.03 79.8801 255.87 82.0201 256.93 85.0001H258.31C259.37 82.0201 262.21 79.8801 265.55 79.8801C268.89 79.8801 271.73 82.0201 272.79 85.0001H274.22C275.28 82.0201 278.12 79.8801 281.46 79.8801C284.8 79.8801 287.64 82.0201 288.7 85.0001H319.7C320.76 82.0201 323.6 79.8801 326.94 79.8801C330.28 79.8801 333.12 82.0201 334.18 85.0001H335.56C336.62 82.0201 339.46 79.8801 342.8 79.8801C346.14 79.8801 348.98 82.0201 350.04 85.0001H351.47C352.53 82.0201 355.37 79.8801 358.71 79.8801C362.05 79.8801 364.89 82.0201 365.95 85.0001H368.41V78.9801H239.97V85.0001H239.99Z" stroke="#1E1E1E" stroke-miterlimit="10"/>
<path d="M249.7 82.87C247.11 82.87 245.01 84.97 245.01 87.56C245.01 90.15 247.11 92.25 249.7 92.25C252.29 92.25 254.39 90.15 254.39 87.56C254.39 84.97 252.29 82.87 249.7 82.87Z" stroke="#1E1E1E" stroke-miterlimit="10"/>
<path d="M265.56 82.87C262.97 82.87 260.87 84.97 260.87 87.56C260.87 90.15 262.97 92.25 265.56 92.25C268.15 92.25 270.25 90.15 270.25 87.56C270.25 84.97 268.15 82.87 265.56 82.87Z" stroke="#1E1E1E" stroke-miterlimit="10"/>
<path d="M281.47 82.87C278.88 82.87 276.78 84.97 276.78 87.56C276.78 90.15 278.88 92.25 281.47 92.25C284.06 92.25 286.16 90.15 286.16 87.56C286.16 84.97 284.06 82.87 281.47 82.87Z" stroke="#1E1E1E" stroke-miterlimit="10"/>
<path d="M326.96 82.87C324.37 82.87 322.27 84.97 322.27 87.56C322.27 90.15 324.37 92.25 326.96 92.25C329.55 92.25 331.65 90.15 331.65 87.56C331.65 84.97 329.55 82.87 326.96 82.87Z" stroke="#1E1E1E" stroke-miterlimit="10"/>
<path d="M342.82 82.87C340.23 82.87 338.13 84.97 338.13 87.56C338.13 90.15 340.23 92.25 342.82 92.25C345.41 92.25 347.51 90.15 347.51 87.56C347.51 84.97 345.41 82.87 342.82 82.87Z" stroke="#1E1E1E" stroke-miterlimit="10"/>
<path d="M358.73 82.87C356.14 82.87 354.04 84.97 354.04 87.56C354.04 90.15 356.14 92.25 358.73 92.25C361.32 92.25 363.42 90.15 363.42 87.56C363.42 84.97 361.32 82.87 358.73 82.87Z" stroke="#1E1E1E" stroke-miterlimit="10"/>
<path d="M270.25 38.2501V34.5901C270.25 33.6901 269.52 32.9601 268.62 32.9601H250.26C249.36 32.9601 248.63 33.6901 248.63 34.5901V38.2501H270.25Z" stroke="#1E1E1E" stroke-miterlimit="10"/>
<path d="M300.27 38.2501V34.5901C300.27 33.6901 299.54 32.9601 298.64 32.9601H280.28C279.38 32.9601 278.65 33.6901 278.65 34.5901V38.2501H300.27Z" stroke="#1E1E1E" stroke-miterlimit="10"/>
<path d="M330.3 38.2501V34.5901C330.3 33.6901 329.57 32.9601 328.67 32.9601H310.31C309.41 32.9601 308.68 33.6901 308.68 34.5901V38.2501H330.3Z" stroke="#1E1E1E" stroke-miterlimit="10"/>
<path d="M360.33 38.2501V34.5901C360.33 33.6901 359.6 32.9601 358.7 32.9601H340.34C339.44 32.9601 338.71 33.6901 338.71 34.5901V38.2501H360.33Z" stroke="#1E1E1E" stroke-miterlimit="10"/>
<path d="M328.67 54.53H310.31H298.64H280.28H268.62H250.26H248.63V56.77H360.33V54.53H358.7H340.33H328.67Z" stroke="#1E1E1E" stroke-miterlimit="10"/>
<path d="M213.17 29.0701H92.2V75.9701H213.17V29.0701ZM211.46 49.9001C211.46 50.6301 211.27 51.3101 210.97 51.9301C211.27 52.2001 211.46 52.5901 211.46 53.0301V58.2701C211.46 59.1001 210.79 59.7701 209.96 59.7701H95.2599C94.4299 59.7701 93.7599 59.1001 93.7599 58.2701V53.0301C93.7599 52.5901 93.95 52.2001 94.25 51.9301C93.95 51.3101 93.7599 50.6301 93.7599 49.9001V34.5901C93.7599 32.0401 95.84 29.9601 98.39 29.9601H116.75C119.3 29.9601 121.38 32.0401 121.38 34.5901V49.9001C121.38 50.4801 121.26 51.0201 121.07 51.5301H124.1C123.91 51.0201 123.79 50.4801 123.79 49.9001V34.5901C123.79 32.0401 125.87 29.9601 128.42 29.9601H146.78C149.33 29.9601 151.41 32.0401 151.41 34.5901V49.9001C151.41 50.4801 151.29 51.0201 151.1 51.5301H154.13C153.94 51.0201 153.82 50.4801 153.82 49.9001V34.5901C153.82 32.0401 155.9 29.9601 158.45 29.9601H176.81C179.36 29.9601 181.44 32.0401 181.44 34.5901V49.9001C181.44 50.4801 181.32 51.0201 181.13 51.5301H184.16C183.97 51.0201 183.85 50.4801 183.85 49.9001V34.5901C183.85 32.0401 185.93 29.9601 188.48 29.9601H206.84C209.39 29.9601 211.47 32.0401 211.47 34.5901V49.9001H211.46Z" stroke="#1E1E1E" stroke-miterlimit="10"/>
<path d="M213.17 20.78H92.2V26.07H213.17V20.78Z" stroke="#1E1E1E" stroke-miterlimit="10"/>
<path d="M218.66 17.78C217.79 15.86 215.88 14.55 213.68 14.55H91.6799C89.4799 14.55 87.57 15.86 86.7 17.78H218.66Z" stroke="#1E1E1E" stroke-miterlimit="10"/>
<path d="M85.1299 81.04H82.5699V82.93H85.1299V81.04Z" fill="#1E1E1E"/>
<path d="M79.57 78.9701H78.36V84.9901H79.57V78.9701Z" fill="#1E1E1E"/>
<path d="M223.14 81.04H220.58V82.93H223.14V81.04Z" fill="#1E1E1E"/>
<path d="M227.35 78.9701H226.14V84.9901H227.35V78.9701Z" fill="#1E1E1E"/>
<path d="M88.13 85.0001H90.59C91.65 82.0201 94.49 79.8801 97.83 79.8801C101.17 79.8801 104.01 82.0201 105.07 85.0001H106.45C107.51 82.0201 110.35 79.8801 113.69 79.8801C117.03 79.8801 119.87 82.0201 120.93 85.0001H122.36C123.42 82.0201 126.26 79.8801 129.6 79.8801C132.94 79.8801 135.78 82.0201 136.84 85.0001H167.84C168.9 82.0201 171.74 79.8801 175.08 79.8801C178.42 79.8801 181.26 82.0201 182.32 85.0001H183.7C184.76 82.0201 187.6 79.8801 190.94 79.8801C194.28 79.8801 197.12 82.0201 198.18 85.0001H199.61C200.67 82.0201 203.51 79.8801 206.85 79.8801C210.19 79.8801 213.03 82.0201 214.09 85.0001H216.55V78.9801H88.11V85.0001H88.13Z" stroke="#1E1E1E" stroke-miterlimit="10"/>
<path d="M97.83 82.87C95.24 82.87 93.14 84.97 93.14 87.56C93.14 90.15 95.24 92.25 97.83 92.25C100.42 92.25 102.52 90.15 102.52 87.56C102.52 84.97 100.42 82.87 97.83 82.87Z" stroke="#1E1E1E" stroke-miterlimit="10"/>
<path d="M113.7 82.87C111.11 82.87 109.01 84.97 109.01 87.56C109.01 90.15 111.11 92.25 113.7 92.25C116.29 92.25 118.39 90.15 118.39 87.56C118.39 84.97 116.29 82.87 113.7 82.87Z" stroke="#1E1E1E" stroke-miterlimit="10"/>
<path d="M129.61 82.87C127.02 82.87 124.92 84.97 124.92 87.56C124.92 90.15 127.02 92.25 129.61 92.25C132.2 92.25 134.3 90.15 134.3 87.56C134.3 84.97 132.2 82.87 129.61 82.87Z" stroke="#1E1E1E" stroke-miterlimit="10"/>
<path d="M175.09 82.87C172.5 82.87 170.4 84.97 170.4 87.56C170.4 90.15 172.5 92.25 175.09 92.25C177.68 92.25 179.78 90.15 179.78 87.56C179.78 84.97 177.68 82.87 175.09 82.87Z" stroke="#1E1E1E" stroke-miterlimit="10"/>
<path d="M190.95 82.87C188.36 82.87 186.26 84.97 186.26 87.56C186.26 90.15 188.36 92.25 190.95 92.25C193.54 92.25 195.64 90.15 195.64 87.56C195.64 84.97 193.54 82.87 190.95 82.87Z" stroke="#1E1E1E" stroke-miterlimit="10"/>
<path d="M206.87 82.87C204.28 82.87 202.18 84.97 202.18 87.56C202.18 90.15 204.28 92.25 206.87 92.25C209.46 92.25 211.56 90.15 211.56 87.56C211.56 84.97 209.46 82.87 206.87 82.87Z" stroke="#1E1E1E" stroke-miterlimit="10"/>
<path d="M118.38 38.2501V34.5901C118.38 33.6901 117.65 32.9601 116.75 32.9601H98.39C97.49 32.9601 96.76 33.6901 96.76 34.5901V38.2501H118.38Z" stroke="#1E1E1E" stroke-miterlimit="10"/>
<path d="M148.41 38.2501V34.5901C148.41 33.6901 147.68 32.9601 146.78 32.9601H128.42C127.52 32.9601 126.79 33.6901 126.79 34.5901V38.2501H148.41Z" stroke="#1E1E1E" stroke-miterlimit="10"/>
<path d="M178.44 38.2501V34.5901C178.44 33.6901 177.71 32.9601 176.81 32.9601H158.45C157.55 32.9601 156.82 33.6901 156.82 34.5901V38.2501H178.44Z" stroke="#1E1E1E" stroke-miterlimit="10"/>
<path d="M208.46 38.2501V34.5901C208.46 33.6901 207.73 32.9601 206.83 32.9601H188.47C187.57 32.9601 186.84 33.6901 186.84 34.5901V38.2501H208.46Z" stroke="#1E1E1E" stroke-miterlimit="10"/>
<path d="M176.81 54.53H158.44H146.78H128.42H116.75H98.39H96.76V56.77H208.46V54.53H206.83H188.47H176.81Z" stroke="#1E1E1E" stroke-miterlimit="10"/>
<path d="M61.3 29.0701H-59.66V75.9701H61.31V29.0701H61.3ZM59.6 49.9001C59.6 50.6301 59.41 51.3101 59.11 51.9301C59.41 52.2001 59.6 52.5901 59.6 53.0301V58.2701C59.6 59.1001 58.93 59.7701 58.1 59.7701H-56.6C-57.43 59.7701 -58.1 59.1001 -58.1 58.2701V53.0301C-58.1 52.5901 -57.91 52.2001 -57.61 51.9301C-57.91 51.3101 -58.1 50.6301 -58.1 49.9001V34.5901C-58.1 32.0401 -56.02 29.9601 -53.47 29.9601H-35.11C-32.56 29.9601 -30.48 32.0401 -30.48 34.5901V49.9001C-30.48 50.4801 -30.6 51.0201 -30.79 51.5301H-27.76C-27.95 51.0201 -28.07 50.4801 -28.07 49.9001V34.5901C-28.07 32.0401 -25.99 29.9601 -23.44 29.9601H-5.08004C-2.53004 29.9601 -0.450031 32.0401 -0.450031 34.5901V49.9001C-0.450031 50.4801 -0.570036 51.0201 -0.760036 51.5301H2.26996C2.07996 51.0201 1.95996 50.4801 1.95996 49.9001V34.5901C1.95996 32.0401 4.03997 29.9601 6.58997 29.9601H24.95C27.5 29.9601 29.58 32.0401 29.58 34.5901V49.9001C29.58 50.4801 29.46 51.0201 29.27 51.5301H32.3C32.11 51.0201 31.99 50.4801 31.99 49.9001V34.5901C31.99 32.0401 34.07 29.9601 36.62 29.9601H54.98C57.53 29.9601 59.61 32.0401 59.61 34.5901V49.9001H59.6Z" stroke="#1E1E1E" stroke-miterlimit="10"/>
<path d="M61.31 20.78H-59.66V26.07H61.31V20.78Z" stroke="#1E1E1E" stroke-miterlimit="10"/>
<path d="M66.8 17.78C65.93 15.86 64.02 14.55 61.82 14.55H-60.18C-62.38 14.55 -64.29 15.86 -65.16 17.78H66.8Z" stroke="#1E1E1E" stroke-miterlimit="10"/>
<path d="M71.28 81.04H68.72V82.93H71.28V81.04Z" fill="#1E1E1E"/>
<path d="M75.49 78.9701H74.28V84.9901H75.49V78.9701Z" fill="#1E1E1E"/>
<path d="M-63.73 85.0001H-61.27C-60.21 82.0201 -57.37 79.8801 -54.03 79.8801C-50.69 79.8801 -47.85 82.0201 -46.79 85.0001H-45.41C-44.35 82.0201 -41.51 79.8801 -38.17 79.8801C-34.83 79.8801 -31.99 82.0201 -30.93 85.0001H-29.5C-28.44 82.0201 -25.6 79.8801 -22.26 79.8801C-18.92 79.8801 -16.08 82.0201 -15.02 85.0001H15.98C17.04 82.0201 19.88 79.8801 23.22 79.8801C26.56 79.8801 29.4 82.0201 30.46 85.0001H31.84C32.9 82.0201 35.74 79.8801 39.08 79.8801C42.42 79.8801 45.26 82.0201 46.32 85.0001H47.75C48.81 82.0201 51.65 79.8801 54.99 79.8801C58.33 79.8801 61.17 82.0201 62.23 85.0001H64.69V78.9801H-63.73V85.0001Z" stroke="#1E1E1E" stroke-miterlimit="10"/>
<path d="M23.2299 82.87C20.6399 82.87 18.5399 84.97 18.5399 87.56C18.5399 90.15 20.6399 92.25 23.2299 92.25C25.8199 92.25 27.9199 90.15 27.9199 87.56C27.9199 84.97 25.8199 82.87 23.2299 82.87Z" stroke="#1E1E1E" stroke-miterlimit="10"/>
<path d="M39.0899 82.87C36.4999 82.87 34.3999 84.97 34.3999 87.56C34.3999 90.15 36.4999 92.25 39.0899 92.25C41.6799 92.25 43.7799 90.15 43.7799 87.56C43.7799 84.97 41.6799 82.87 39.0899 82.87Z" stroke="#1E1E1E" stroke-miterlimit="10"/>
<path d="M54.9999 82.87C52.4099 82.87 50.3099 84.97 50.3099 87.56C50.3099 90.15 52.4099 92.25 54.9999 92.25C57.5899 92.25 59.6899 90.15 59.6899 87.56C59.6899 84.97 57.5899 82.87 54.9999 82.87Z" stroke="#1E1E1E" stroke-miterlimit="10"/>
<path d="M26.57 38.2501V34.5901C26.57 33.6901 25.84 32.9601 24.94 32.9601H6.57996C5.67996 32.9601 4.94995 33.6901 4.94995 34.5901V38.2501H26.57Z" stroke="#1E1E1E" stroke-miterlimit="10"/>
<path d="M56.6 38.2501V34.5901C56.6 33.6901 55.87 32.9601 54.97 32.9601H36.61C35.71 32.9601 34.98 33.6901 34.98 34.5901V38.2501H56.6Z" stroke="#1E1E1E" stroke-miterlimit="10"/>
<path d="M24.94 54.53H6.58002H-5.07998H-23.45H-35.11H-53.47H-55.1V56.77H56.6V54.53H54.97H36.61H24.94Z" stroke="#1E1E1E" stroke-miterlimit="10"/>
</g>
<g opacity="0.8" clip-path="url(#clip1_2004_2225)">
<path d="M417.456 929.327V342.671C416.448 278.663 389.635 150.647 290.448 150.647C191.26 150.647 169.488 278.663 171 342.671V903.623M134.639 900.599V342.671C133.631 278.663 106.818 150.647 7.6312 150.647C-91.556 150.647 -113.329 278.663 -111.817 342.671V926.303M700.272 840.119V342.671C699.264 278.663 672.451 150.647 573.264 150.647C474.077 150.647 452.304 278.663 453.816 342.671V935.375M983.088 720.671V342.671C982.08 278.663 955.268 150.647 856.08 150.647C756.893 150.647 735.12 278.663 736.632 342.671V823.487M1265.9 607.271V342.671C1264.9 278.663 1238.08 150.647 1138.9 150.647C1039.71 150.647 1017.94 278.663 1019.45 342.671V704.039M1548.72 926.303V342.671C1547.71 278.663 1520.9 150.647 1421.71 150.647C1322.53 150.647 1300.75 278.663 1302.27 342.671V593.663M-27.2167 90.1675H1451.52M0 850.704C72.576 870.36 99.792 899.088 110.376 899.088C120.96 899.088 323.568 914.208 364.392 920.256C405.216 926.304 453.6 936.888 471.744 936.888C489.888 936.888 932.904 725.208 1439.42 543.768M0 678.336C22.68 678.336 127.008 672.288 133.056 673.8" stroke="url(#paint0_linear_2004_2225)" stroke-width="1.008"/>
</g>
<defs>
<linearGradient id="paint0_linear_2004_2225" x1="718.416" y1="90.1675" x2="718.416" y2="936.888" gradientUnits="userSpaceOnUse">
<stop/>
<stop offset="0.545039" stop-opacity="0"/>
</linearGradient>
<clipPath id="clip0_2004_2225">
<rect width="1053.32" height="92.91" fill="white" transform="translate(-74)"/>
</clipPath>
<clipPath id="clip1_2004_2225">
<rect width="1440" height="440" fill="white" transform="translate(0 69)"/>
</clipPath>
</defs>
</svg>
