<svg width="153" height="200" viewBox="0 0 153 200" fill="none" xmlns="http://www.w3.org/2000/svg">
<path d="M49.8947 103.349C61.5551 100.303 71.4735 97.3186 80.5041 94.0352M139.882 61.7029C127.4 70.3959 116.807 77.1301 106.18 82.7194M106.18 82.7194C119.24 84.7702 126.769 83.4585 140.74 74.5739M106.18 82.7194C97.9405 87.0533 89.6806 90.6988 80.5041 94.0352M126.37 82.1758C132.189 85.5112 136.449 85.606 145.137 83.8276M80.5041 94.0352C86.7237 88.6818 91.7704 84.0327 96.6633 79.8309M119.156 64.0802C110.087 68.9232 103.526 73.937 96.6633 79.8309M96.6633 79.8309C97.306 74.5331 98.2825 71.5765 104.154 66.3938" stroke="#6F6F6F"/>
<path d="M-43.7051 129.006C-34.1613 124.348 -25.2286 120.105 -16.76 116.132M131.956 31.1639C128.314 34.6918 124.168 37.6143 119.931 40.2615M119.931 40.2615C121.293 34.0527 122.244 30.8628 124.894 26.6627M119.931 40.2615C109.835 47.7267 100.384 54.2681 91.3111 60.1498M49.2845 84.5502C58.9456 72.5917 67.1772 59.629 73.5653 49.7432M49.2845 84.5502C63.0535 77.3924 76.6912 69.6275 91.3111 60.1498M49.2845 84.5502C28.7855 95.2066 7.99544 104.517 -16.76 116.132M81.9352 37.4449C88.0285 29.5686 91.5057 25.4354 98.0528 19.6622M81.9352 37.4449L81.6839 27.7158M81.9352 37.4449C79.6757 40.347 76.8666 44.6342 73.5653 49.7432M81.6839 27.7158L87.2805 16.2041M81.6839 27.7158C79.2495 23.2691 78.6167 20.8037 78.2668 16.4475M73.5653 49.7432C80.2391 47.0376 84.047 45.333 91.4164 40.6312M91.4164 40.6312C97.2227 35.6386 100.575 32.7049 107.006 26.8616M91.4164 40.6312C99.9944 39.8202 104.502 39.0185 111.814 34.5365M91.3111 60.1498C100.515 59.2437 105.91 58.1917 116.05 55.0983M116.05 55.0983C124.835 51.0508 129.629 48.5665 136.944 42.1284M116.05 55.0983C125.787 55.8777 131.148 55.0205 140.469 50.2469M-16.76 116.132C9.06987 111.443 23.6518 108.636 49.5036 103.428C49.7553 103.377 50.0246 103.404 50.2614 103.503C64.7048 109.565 73.1451 111.898 88.5107 113.94M88.5107 113.94C96.5994 114.033 103.258 113.805 109.562 113.088M88.5107 113.94C96.1768 120.744 102.343 125.172 109.217 128.435M140.227 105.636C128.204 109.702 119.307 111.979 109.562 113.088M122.971 111.123C127.549 103.016 131.037 99.9817 139.136 97.6335M109.562 113.088C113.581 117.617 116.847 120.381 120.847 122.078M131.132 124.342C126.961 123.964 123.715 123.295 120.847 122.078M120.847 122.078C124.326 119.418 126.354 118.175 130.485 117.623M129.533 134.951C121.361 133.125 115.035 131.198 109.217 128.435M109.217 128.435C114.414 138.311 118.123 142.559 127.646 145.419" stroke="#6F6F6F"/>
<path d="M-17.1886 54.8514C-13.2459 52.2236 -9.55938 49.7879 -6.04099 47.5282M49.9876 23.76C42.5509 25.2206 36.046 26.9493 30.0057 29.0325M11.4108 37.1644C17.4989 39.5943 22.6127 40.8101 28.2794 40.8945M11.4108 37.1644C17.4601 33.9639 23.4602 31.29 30.0057 29.0325M11.4108 37.1644C5.79465 40.1357 0.136022 43.5609 -6.04099 47.5282M49.0716 37.682C40.4671 39.8805 34.0833 40.981 28.2794 40.8945M28.2794 40.8945C33.1073 45.9333 36.944 47.073 44.6695 47.8001M30.0057 29.0325C34.3834 23.1903 36.995 20.0104 44.1247 15.8351M-6.04099 47.5282C-1.74927 42.4078 1.90763 37.9098 5.43621 33.7648M34.129 7.33676C25.2924 13.5244 19.0124 19.0507 13.3458 24.9488M13.3458 24.9488C14.6759 17.9923 15.5116 14.0644 25.7176 4.38554M13.3458 24.9488C10.6399 27.7652 8.07392 30.6664 5.43621 33.7648M5.43621 33.7648C4.39878 29.8498 3.78311 26.5006 3.53104 22.9045M4.13913 7.04062C3.46014 13.7028 3.22156 18.4896 3.53104 22.9045M3.53104 22.9045C0.285165 19.4667 -1.03801 16.9506 -1.71297 10.4656" stroke="#6F6F6F"/>
<path d="M-55.4319 198.462C-31.6158 191.518 -14.0382 181.886 2.81353 173.115M69.7251 151.405C60.8355 152.028 52.8222 153.413 45.3679 155.357M26.7236 161.664C41.8483 164.152 50.531 165.394 70.6663 164.114M26.7236 161.664C32.6485 159.22 38.7906 157.071 45.3679 155.357M26.7236 161.664C18.5304 165.042 10.7525 168.983 2.81353 173.115M48.4439 165.196C54.9671 169.274 58.7177 171.46 66.9548 173.727M45.3679 155.357C48.5198 150.531 50.7166 147.927 59.7635 144.512M2.81353 173.115C4.19143 166.919 6.03242 161.956 8.98473 157.234M27.6093 137.797C23.0367 141.607 19.3114 144.959 16.2485 148.137M8.98473 157.234L20.9218 150.318M8.98473 157.234C10.8869 154.191 13.2503 151.247 16.2485 148.137M32.8588 143.403L20.9218 150.318M20.9218 150.318L33.8337 148.189M16.2485 148.137L19.4827 137.077" stroke="#6F6F6F"/>
</svg>
