<svg width="1072" height="623" viewBox="0 0 1072 623" fill="none" xmlns="http://www.w3.org/2000/svg">
<g filter="url(#filter0_d_170_14096)">
<path d="M1048.3 613.258C1034.08 621.521 1025.55 587.912 1009.23 587.912C992.914 587.912 992.914 615 976.589 615C960.274 615 960.274 587.912 943.949 587.912C927.634 587.912 927.634 615 911.309 615C894.984 615 894.995 587.912 878.68 587.912C862.366 587.912 862.366 615 846.051 615C829.736 615 829.736 587.912 813.422 587.912C797.107 587.912 797.107 615 780.793 615C764.478 615 764.478 587.912 748.163 587.912C731.849 587.912 731.849 615 715.524 615C699.209 615 699.209 587.912 682.884 587.912C666.569 587.912 666.569 615 650.255 615C633.94 615 633.94 587.912 617.626 587.912C601.311 587.912 601.311 615 584.986 615C568.671 615 568.671 587.912 552.346 587.912C536.032 587.912 536.032 615 519.706 615C503.381 615 503.392 587.912 487.067 587.912C470.742 587.912 470.752 615 454.427 615C438.102 615 438.112 587.912 421.787 587.912C405.462 587.912 405.473 615 389.148 615C372.822 615 372.833 587.912 356.508 587.912C340.183 587.912 340.183 615 323.868 615C307.554 615 307.543 587.912 291.228 587.912C274.914 587.912 274.914 615 258.589 615C242.274 615 242.274 587.912 225.949 587.912C209.624 587.912 209.624 615 193.309 615C176.984 615 176.984 587.912 160.67 587.912C144.344 587.912 144.344 615 128.03 615C111.705 615 111.705 587.912 95.3901 587.912C79.065 587.912 79.065 615 62.7399 615C46.4147 615 50.7463 597.918 36.5185 589.654C28.5404 585.005 17 591.973 17 582.502C17 573.03 43.2214 573.019 43.2214 563.536C43.2214 554.053 17 554.053 17 544.57C17 535.087 43.2214 535.087 43.2214 525.605C43.2214 516.122 17 516.122 17 506.65C17 497.178 43.2214 497.167 43.2214 487.684C43.2214 478.201 17 478.201 17 468.719C17 459.236 43.2214 459.236 43.2214 449.753C43.2214 440.27 17 440.281 17 430.798C17 421.315 43.2214 421.315 43.2214 411.833C43.2214 402.35 17 402.35 17 392.867C17 383.384 43.2214 383.384 43.2214 373.901C43.2214 364.419 17 364.419 17 354.936C17 345.453 43.2214 345.453 43.2214 335.97C43.2214 326.487 17 326.498 17 317.015C17 307.533 43.2214 307.533 43.2214 298.05C43.2214 288.567 17 288.567 17 279.084C17 269.601 43.2214 269.601 43.2214 260.119C43.2214 250.636 17 250.636 17 241.153C17 231.67 43.2214 231.67 43.2214 222.187C43.2214 212.705 17 212.705 17 203.222C17 193.739 43.2214 193.739 43.2214 184.256C43.2214 174.773 17 174.773 17 165.291C17 155.808 43.2214 155.808 43.2214 146.325C43.2214 136.842 17 136.842 17 127.359C17 117.876 43.2214 117.876 43.2214 108.394C43.2214 98.9108 17 98.9108 17 89.428C17 79.9452 43.2214 79.9452 43.2214 70.4624C43.2214 60.9796 17 60.9796 17 51.4968C17 42.014 43.2214 42.014 43.2214 32.5203C43.2214 23.0266 15.6826 6.39083 23.6818 1.74196C37.8991 -6.52147 46.4253 27.0875 62.7504 27.0875C79.0755 27.0875 79.065 0 95.3796 0C111.694 0 111.694 27.0875 128.019 27.0875C144.344 27.0875 144.344 0 160.659 0C176.974 0 176.974 27.0875 193.288 27.0875C209.603 27.0875 209.603 0 225.917 0C242.232 0 242.232 27.0875 258.547 27.0875C274.861 27.0875 274.872 0 291.186 0C307.501 0 307.501 27.0875 323.815 27.0875C340.13 27.0875 340.141 0 356.455 0C372.77 0 372.77 27.0875 389.095 27.0875C405.42 27.0875 405.409 0 421.724 0C438.039 0 438.039 27.0875 454.353 27.0875C470.668 27.0875 470.678 0 486.993 0C503.308 0 503.308 27.0875 519.633 27.0875C535.958 27.0875 535.947 0 552.272 0C568.598 0 568.587 27.0875 584.912 27.0875C601.237 27.0875 601.227 0 617.552 0C633.877 0 633.866 27.0875 650.192 27.0875C666.517 27.0875 666.506 0 682.831 0C699.156 0 699.146 27.0875 715.471 27.0875C731.796 27.0875 731.796 0 748.111 0C764.425 0 764.436 27.0875 780.75 27.0875C797.065 27.0875 797.065 0 813.39 0C829.715 0 829.705 27.0875 846.03 27.0875C862.355 27.0875 862.355 0 878.67 0C894.984 0 894.995 27.0875 911.309 27.0875C927.624 27.0875 927.634 0 943.949 0C960.264 0 960.274 27.0875 976.589 27.0875C992.903 27.0875 992.914 0 1009.24 0C1025.56 0 1021.23 17.0821 1035.46 25.3456C1043.46 29.9944 1055 23.0157 1055 32.4985C1055 41.9813 1028.78 41.9813 1028.78 51.4641C1028.78 60.9469 1055 60.9469 1055 70.4297C1055 79.9125 1028.78 79.9125 1028.78 89.3954C1028.78 98.8782 1055 98.8782 1055 108.361C1055 117.844 1028.78 117.844 1028.78 127.327C1028.78 136.809 1055 136.809 1055 146.292C1055 155.775 1028.78 155.775 1028.78 165.258C1028.78 174.741 1055 174.741 1055 184.223C1055 193.706 1028.78 193.706 1028.78 203.189C1028.78 212.672 1055 212.672 1055 222.155C1055 231.638 1028.78 231.638 1028.78 241.12C1028.78 250.603 1055 250.603 1055 260.086C1055 269.569 1028.78 269.569 1028.78 279.052C1028.78 288.534 1055 288.534 1055 298.017C1055 307.5 1028.78 307.5 1028.78 316.983C1028.78 326.466 1055 326.466 1055 335.948C1055 345.431 1028.78 345.431 1028.78 354.914C1028.78 364.397 1055 364.397 1055 373.88C1055 383.362 1028.78 383.362 1028.78 392.845C1028.78 402.328 1055 402.328 1055 411.811C1055 421.294 1028.78 421.294 1028.78 430.777C1028.78 440.259 1055 440.259 1055 449.742C1055 459.225 1028.78 459.225 1028.78 468.708C1028.78 478.191 1055 478.191 1055 487.673C1055 497.156 1028.78 497.156 1028.78 506.639C1028.78 516.122 1055 516.122 1055 525.605C1055 535.087 1028.78 535.087 1028.78 544.57C1028.78 554.053 1055 554.053 1055 563.536C1055 573.019 1026.55 577.755 1029.44 586.758C1034.52 602.643 1056.33 608.631 1048.32 613.28L1048.3 613.258Z" fill="#F4EAD3"/>
</g>
<defs>
<filter id="filter0_d_170_14096" x="-4" y="0" width="1080" height="623" filterUnits="userSpaceOnUse" color-interpolation-filters="sRGB">
<feFlood flood-opacity="0" result="BackgroundImageFix"/>
<feColorMatrix in="SourceAlpha" type="matrix" values="0 0 0 0 0 0 0 0 0 0 0 0 0 0 0 0 0 0 127 0" result="hardAlpha"/>
<feOffset dy="4"/>
<feGaussianBlur stdDeviation="2"/>
<feComposite in2="hardAlpha" operator="out"/>
<feColorMatrix type="matrix" values="0 0 0 0 0 0 0 0 0 0 0 0 0 0 0 0 0 0 0.15 0"/>
<feBlend mode="normal" in2="BackgroundImageFix" result="effect1_dropShadow_170_14096"/>
<feBlend mode="normal" in="SourceGraphic" in2="effect1_dropShadow_170_14096" result="shape"/>
</filter>
</defs>
</svg>
