<svg width="325" height="412" viewBox="0 0 325 412" fill="none" xmlns="http://www.w3.org/2000/svg">
<g filter="url(#filter0_d_184_170)">
<path d="M286.877 402.001C283.937 405.324 278.905 392.458 274.52 392.074C270.135 391.691 269.174 402.677 264.779 402.292C260.384 401.908 261.355 390.923 256.971 390.539C252.586 390.155 251.624 401.141 247.24 400.758C242.855 400.374 243.816 389.388 239.431 389.004C235.046 388.621 234.085 399.607 229.7 399.223C225.315 398.84 226.276 387.854 221.891 387.47C217.506 387.086 216.545 398.072 212.16 397.689C207.775 397.305 208.736 386.319 204.351 385.935C199.966 385.552 199.005 396.538 194.62 396.154C190.235 395.77 191.197 384.784 186.812 384.401C182.427 384.017 181.466 395.003 177.081 394.62C172.696 394.236 173.657 383.25 169.272 382.866C164.887 382.483 163.926 393.469 159.541 393.085C155.156 392.701 156.117 381.715 151.732 381.332C147.347 380.948 146.386 391.934 142.001 391.551C137.616 391.167 138.577 380.181 134.182 379.796C129.787 379.412 128.836 390.399 124.441 390.014C120.046 389.63 121.017 378.645 116.622 378.26C112.227 377.876 111.276 388.862 106.881 388.478C102.486 388.093 103.457 377.108 99.0623 376.724C94.6672 376.339 93.7162 387.326 89.3212 386.942C84.9261 386.557 85.8974 375.572 81.5023 375.187C77.1072 374.803 76.1562 385.79 71.7611 385.405C67.3661 385.021 68.3374 374.036 63.9423 373.651C59.5574 373.268 58.5962 384.254 54.2011 383.869C49.806 383.484 50.7773 372.499 46.3823 372.115C41.9872 371.73 41.026 382.716 36.6411 382.333C32.2562 381.949 33.2173 370.963 28.8222 370.579C24.4272 370.194 23.466 381.18 19.0811 380.796C14.6962 380.413 17.7324 375.402 15.4143 371.62C12.3275 366.57 5.87969 368.137 6.39889 362.202C6.91809 356.268 17.778 357.228 18.2972 351.294C18.8164 345.359 7.9547 344.419 8.473 338.495C8.9913 332.571 19.8521 333.521 20.3713 327.587C20.8905 321.652 10.0288 320.712 10.5471 314.788C11.0654 308.864 21.9262 309.814 22.4454 303.88C22.9646 297.945 12.1029 297.005 12.6221 291.071C13.1413 285.136 24.0012 286.097 24.5204 280.162C25.0396 274.228 14.1779 273.288 14.6962 267.364C15.2145 261.439 26.0753 262.39 26.5945 256.455C27.1137 250.521 16.252 249.581 16.7712 243.646C17.2904 237.712 28.1503 238.672 28.6695 232.738C29.1887 226.803 18.327 225.863 18.8453 219.939C19.3636 214.015 30.2244 214.965 30.7427 209.041C31.261 203.117 20.4011 202.156 20.9194 196.232C21.4377 190.308 32.2985 191.258 32.8168 185.334C33.3351 179.41 22.4752 178.449 22.9935 172.525C23.5118 166.601 34.3726 167.551 34.8918 161.616C35.411 155.682 24.5493 154.742 25.0685 148.808C25.5877 142.873 36.4476 143.834 36.9668 137.899C37.486 131.965 26.6243 131.025 27.1426 125.1C27.6609 119.176 38.5226 120.116 39.0409 114.192C39.5592 108.268 28.6993 107.307 29.2176 101.383C29.7359 95.4588 40.5967 96.409 41.1159 90.4745C41.6351 84.5401 30.7743 83.5899 31.2926 77.6657C31.8109 71.7414 42.6717 72.6916 43.1909 66.7572C43.7101 60.8227 32.8493 59.8725 33.3676 53.9483C33.8859 48.0241 44.7476 48.964 45.2659 43.0398C45.7842 37.1156 34.9243 36.1551 35.4426 30.2309C35.9609 24.3067 46.8226 25.2466 47.3418 19.3121C47.861 13.3777 34.9558 7.73781 38.893 3.30248C41.8225 -0.0208783 46.8542 12.8447 51.2391 13.2283C55.6241 13.612 56.5953 2.62688 60.9803 3.01051C65.3652 3.39415 64.4041 14.3801 68.789 14.7637C73.1739 15.1474 74.1351 4.16141 78.5301 4.54593C82.9252 4.93045 81.9539 15.9155 86.3389 16.2992C90.7238 16.6828 91.6849 5.69682 96.0699 6.08045C100.455 6.46409 99.4936 17.4501 103.879 17.8337C108.264 18.2173 109.235 7.23224 113.62 7.61587C118.005 7.9995 117.044 18.9855 121.428 19.3691C125.813 19.7527 126.775 8.76676 131.159 9.1504C135.544 9.53403 134.583 20.52 138.968 20.9036C143.353 21.2873 144.314 10.3013 148.709 10.6858C153.104 11.0703 152.133 22.0554 156.518 22.439C160.903 22.8227 161.864 11.8367 166.249 12.2203C170.634 12.604 169.673 23.5899 174.058 23.9736C178.443 24.3572 179.404 13.3712 183.789 13.7549C188.174 14.1385 187.213 25.1245 191.608 25.509C196.003 25.8935 196.954 14.9066 201.349 15.2912C205.744 15.6757 204.773 26.6608 209.168 27.0453C213.563 27.4298 214.514 16.4429 218.909 16.8275C223.304 17.212 222.333 28.1971 226.728 28.5816C231.123 28.9661 232.074 17.9793 236.469 18.3638C240.864 18.7483 239.893 29.7334 244.288 30.1179C248.683 30.5024 249.634 19.5156 254.029 19.9001C258.424 20.2846 257.453 31.2697 261.848 31.6542C266.243 32.0387 267.194 21.0519 271.589 21.4364C275.984 21.8209 275.013 32.806 279.408 33.1905C283.803 33.575 284.764 22.589 289.149 22.9727C293.534 23.3563 292.573 34.3423 296.968 34.7268C301.363 35.1113 302.324 24.1253 306.709 24.509C311.094 24.8926 308.058 29.9034 310.376 33.6858C313.473 38.7366 319.92 37.1694 319.401 43.1039C318.882 49.0384 308.022 48.0779 307.503 54.0124C306.984 59.9469 317.845 60.8868 317.326 66.8213C316.807 72.7558 305.947 71.7953 305.428 77.7298C304.909 83.6643 315.77 84.6042 315.251 90.5387C314.732 96.4731 303.872 95.5127 303.353 101.447C302.834 107.382 313.695 108.322 313.176 114.256C312.657 120.191 301.797 119.23 301.278 125.165C300.759 131.099 311.62 132.039 311.101 137.973C310.582 143.908 299.722 142.947 299.203 148.882C298.684 154.816 309.545 155.756 309.026 161.691C308.507 167.625 297.647 166.665 297.128 172.599C296.609 178.534 307.47 179.474 306.952 185.398C306.434 191.322 295.573 190.372 295.055 196.296C294.536 202.22 305.397 203.171 304.878 209.105C304.359 215.04 293.499 214.079 292.981 220.003C292.462 225.927 303.323 226.878 302.804 232.812C302.285 238.747 291.425 237.786 290.906 243.721C290.387 249.645 301.248 250.595 300.729 256.53C300.211 262.454 289.35 261.504 288.831 267.438C288.312 273.362 299.173 274.312 298.654 280.247C298.135 286.181 287.274 285.231 286.756 291.155C286.237 297.08 297.098 298.03 296.579 303.964C296.06 309.899 285.2 308.938 284.681 314.873C284.161 320.807 295.022 321.757 294.504 327.682C293.986 333.606 283.125 332.656 282.606 338.59C282.086 344.525 292.948 345.465 292.429 351.399C291.91 357.334 281.049 356.383 280.531 362.308C280.012 368.232 290.873 369.182 290.354 375.116C289.835 381.051 277.128 382.143 278.608 387.911C280.692 395.997 290.831 397.598 286.904 402.045L286.877 402.001Z" fill="#F4EAD3"/>
<g clip-path="url(#clip0_184_170)">
<rect x="57.5825" y="31.6233" width="241.2" height="322.2" rx="18" transform="rotate(5 57.5825 31.6233)" fill="#58C3FE"/>
<mask id="path-3-inside-1_184_170" fill="white">
<path fill-rule="evenodd" clip-rule="evenodd" d="M237.887 258.41C247.799 255.924 253.739 252.436 254.113 248.165C255.138 236.452 213.918 223.278 162.047 218.74C110.176 214.202 67.2951 220.018 66.2704 231.731C65.8967 236.002 71.1407 240.468 80.4704 244.638C63.3357 258.838 52.018 278.315 50.0744 300.531C45.7802 349.613 88.8706 393.477 146.319 398.503C203.768 403.529 253.821 367.815 258.115 318.732C260.059 296.517 252.295 275.37 237.887 258.41Z"/>
</mask>
<path d="M237.887 258.41L237.668 257.538L236.263 257.89L237.201 258.993L237.887 258.41ZM162.047 218.74L162.126 217.843L162.047 218.74ZM80.4704 244.638L81.0447 245.331L82.1594 244.407L80.8377 243.816L80.4704 244.638ZM253.216 248.087C253.066 249.801 251.782 251.532 249.103 253.192C246.445 254.839 242.583 256.304 237.668 257.538L238.106 259.283C243.103 258.03 247.167 256.508 250.051 254.722C252.914 252.949 254.786 250.8 255.01 248.243L253.216 248.087ZM161.969 219.637C187.858 221.902 211.062 226.32 227.642 231.619C235.939 234.271 242.53 237.129 246.963 240.018C249.18 241.463 250.817 242.89 251.862 244.268C252.902 245.64 253.319 246.91 253.216 248.087L255.01 248.243C255.163 246.492 254.516 244.788 253.296 243.18C252.08 241.577 250.259 240.018 247.946 238.51C243.318 235.494 236.553 232.578 228.19 229.905C211.449 224.554 188.107 220.116 162.126 217.843L161.969 219.637ZM67.1669 231.809C67.2699 230.633 67.9011 229.454 69.1641 228.284C70.4324 227.109 72.2918 225.988 74.7264 224.949C79.5941 222.874 86.5806 221.204 95.2123 220.033C112.461 217.694 136.079 217.371 161.969 219.637L162.126 217.843C136.144 215.57 112.386 215.887 94.9703 218.249C86.2698 219.43 79.102 221.127 74.0203 223.294C71.4803 224.377 69.4164 225.596 67.9408 226.964C66.46 228.336 65.527 229.901 65.3738 231.652L67.1669 231.809ZM80.8377 243.816C76.2115 241.749 72.6629 239.635 70.3313 237.551C67.9813 235.452 67.0169 233.524 67.1669 231.809L65.3738 231.652C65.1501 234.209 66.6209 236.65 69.132 238.894C71.6613 241.153 75.3996 243.357 80.1031 245.46L80.8377 243.816ZM50.971 300.609C52.8911 278.662 64.0721 259.397 81.0447 245.331L79.8961 243.945C62.5992 258.28 51.1449 277.969 49.1778 300.452L50.971 300.609ZM146.398 397.607C89.3067 392.612 46.7312 349.069 50.971 300.609L49.1778 300.452C44.8292 350.157 88.4346 394.342 146.241 399.4L146.398 397.607ZM257.219 318.654C252.979 367.114 203.489 402.601 146.398 397.607L146.241 399.4C204.048 404.457 254.663 368.515 259.012 318.811L257.219 318.654ZM237.201 258.993C251.473 275.793 259.139 296.706 257.219 318.654L259.012 318.811C260.979 296.327 253.117 274.948 238.573 257.828L237.201 258.993Z" fill="black" mask="url(#path-3-inside-1_184_170)"/>
<path d="M253.665 248.126C253.549 249.446 252.843 250.721 251.525 251.942C250.205 253.165 248.294 254.311 245.833 255.361C240.912 257.459 233.88 259.136 225.232 260.309C207.941 262.654 184.288 262.975 158.375 260.708C132.463 258.441 109.225 254.017 92.6043 248.705C84.2905 246.048 77.6567 243.176 73.1747 240.255C70.9333 238.794 69.2507 237.334 68.1631 235.9C67.0776 234.469 66.6032 233.091 66.7187 231.77C66.8342 230.45 67.5408 229.175 68.8583 227.954C70.1784 226.731 72.089 225.585 74.5499 224.535C79.4711 222.437 86.5029 220.76 95.1518 219.587C112.442 217.242 136.095 216.921 162.008 219.188C187.921 221.455 211.159 225.879 227.779 231.191C236.093 233.848 242.727 236.72 247.209 239.641C249.45 241.102 251.133 242.562 252.22 243.996C253.306 245.427 253.78 246.805 253.665 248.126Z" stroke="black" stroke-width="0.9"/>
<path d="M247.845 247.477C247.753 248.52 247.13 249.544 245.915 250.535C244.699 251.527 242.928 252.453 240.637 253.295C236.058 254.979 229.501 256.295 221.427 257.18C205.287 258.949 183.181 258.985 158.938 256.864C134.695 254.743 112.931 250.868 97.3433 246.324C89.5459 244.051 83.317 241.616 79.0998 239.162C76.9901 237.935 75.4069 236.715 74.3815 235.528C73.3567 234.34 72.9211 233.224 73.0123 232.181C73.1036 231.138 73.7264 230.115 74.9418 229.123C76.1579 228.132 77.9287 227.206 80.2196 226.363C84.7988 224.679 91.3558 223.363 99.4295 222.478C115.569 220.71 137.676 220.673 161.919 222.794C186.162 224.915 207.926 228.79 223.514 233.334C231.311 235.608 237.54 238.042 241.757 240.496C243.867 241.724 245.45 242.943 246.475 244.131C247.5 245.318 247.936 246.434 247.845 247.477Z" stroke="black" stroke-width="0.9"/>
<g clip-path="url(#clip1_184_170)">
<path d="M130.038 239.666C131.47 239.616 132.824 238.999 133.801 237.951C134.778 236.903 135.299 235.51 135.249 234.078C135.199 232.645 134.582 231.292 133.534 230.315C132.486 229.337 131.093 228.816 129.661 228.866L121.075 229.166L115.857 234.761L121.452 239.978L130.038 239.666Z" stroke="black" stroke-width="0.9" stroke-linecap="round" stroke-linejoin="round"/>
<path d="M129.848 234.272L112.04 234.894" stroke="black" stroke-width="0.9" stroke-linecap="round" stroke-linejoin="round"/>
<path d="M126.539 239.801L120.945 234.583" stroke="black" stroke-width="0.9" stroke-linecap="round" stroke-linejoin="round"/>
</g>
<g clip-path="url(#clip2_184_170)">
<path d="M204.334 215.766C205.409 215.766 206.439 215.339 207.199 214.579C207.959 213.819 208.386 212.788 208.386 211.713C208.386 210.639 207.959 209.608 207.199 208.848C206.439 208.088 205.409 207.661 204.334 207.661L197.891 207.661L193.834 211.718L197.891 215.775L204.334 215.766Z" stroke="black" stroke-width="0.9" stroke-linecap="round" stroke-linejoin="round"/>
<path d="M204.334 211.718H190.97" stroke="black" stroke-width="0.9" stroke-linecap="round" stroke-linejoin="round"/>
<path d="M201.709 215.775L197.652 211.718" stroke="black" stroke-width="0.9" stroke-linecap="round" stroke-linejoin="round"/>
</g>
<g clip-path="url(#clip3_184_170)">
<path d="M203.64 245.674C204.65 245.307 205.472 244.553 205.927 243.579C206.381 242.605 206.429 241.49 206.062 240.48C205.694 239.47 204.941 238.648 203.967 238.194C202.993 237.739 201.878 237.691 200.868 238.058L194.813 240.262L192.388 245.462L197.588 247.887L203.64 245.674Z" stroke="black" stroke-width="0.9" stroke-linecap="round" stroke-linejoin="round"/>
<path d="M202.256 241.871L189.698 246.442" stroke="black" stroke-width="0.9" stroke-linecap="round" stroke-linejoin="round"/>
<path d="M201.176 246.581L195.977 244.156" stroke="black" stroke-width="0.9" stroke-linecap="round" stroke-linejoin="round"/>
</g>
<g clip-path="url(#clip4_184_170)">
<path d="M171.454 196.152C172.731 195.502 173.697 194.371 174.14 193.008C174.583 191.645 174.466 190.162 173.816 188.885C173.165 187.609 172.034 186.643 170.671 186.2C169.308 185.757 167.825 185.874 166.549 186.524L158.894 190.425L156.53 197.7L163.805 200.064L171.454 196.152Z" stroke="black" stroke-width="0.9" stroke-linecap="round" stroke-linejoin="round"/>
<path d="M169.003 191.344L153.127 199.434" stroke="black" stroke-width="0.9" stroke-linecap="round" stroke-linejoin="round"/>
<path d="M168.34 197.753L161.065 195.389" stroke="black" stroke-width="0.9" stroke-linecap="round" stroke-linejoin="round"/>
</g>
<g clip-path="url(#clip5_184_170)">
<path d="M159.722 322.649C160.819 321.728 161.506 320.408 161.631 318.981C161.756 317.553 161.309 316.135 160.388 315.037C159.467 313.939 158.147 313.252 156.72 313.128C155.292 313.003 153.873 313.45 152.776 314.371L146.194 319.893L145.528 327.514L153.149 328.181L159.722 322.649Z" stroke="black" stroke-width="0.9" stroke-linecap="round" stroke-linejoin="round"/>
<path d="M156.253 318.515L142.603 329.969" stroke="black" stroke-width="0.9" stroke-linecap="round" stroke-linejoin="round"/>
<path d="M157.049 324.908L149.428 324.242" stroke="black" stroke-width="0.9" stroke-linecap="round" stroke-linejoin="round"/>
</g>
<g clip-path="url(#clip6_184_170)">
<path d="M129.972 195.208C130.475 194.54 130.692 193.7 130.576 192.872C130.459 192.044 130.019 191.297 129.351 190.794C128.684 190.291 127.844 190.073 127.016 190.19C126.188 190.306 125.44 190.747 124.937 191.414L121.921 195.417L122.542 199.836L126.961 199.215L129.972 195.208Z" stroke="black" stroke-width="0.9" stroke-linecap="round" stroke-linejoin="round"/>
<path d="M127.457 193.313L121.201 201.614" stroke="black" stroke-width="0.9" stroke-linecap="round" stroke-linejoin="round"/>
<path d="M128.747 196.843L124.328 197.464" stroke="black" stroke-width="0.9" stroke-linecap="round" stroke-linejoin="round"/>
</g>
<g clip-path="url(#clip7_184_170)">
<path d="M173.649 232.415C174.224 231.652 174.473 230.692 174.34 229.746C174.207 228.8 173.703 227.946 172.94 227.371C172.177 226.796 171.217 226.548 170.271 226.681C169.325 226.814 168.471 227.317 167.896 228.08L164.449 232.654L165.159 237.704L170.209 236.995L173.649 232.415Z" stroke="black" stroke-width="0.9" stroke-linecap="round" stroke-linejoin="round"/>
<path d="M170.775 230.25L163.626 239.738" stroke="black" stroke-width="0.9" stroke-linecap="round" stroke-linejoin="round"/>
<path d="M172.252 234.284L167.201 234.994" stroke="black" stroke-width="0.9" stroke-linecap="round" stroke-linejoin="round"/>
</g>
<path d="M182.389 324.415C180.938 341.003 166.314 353.274 149.726 351.823C133.138 350.371 120.868 335.748 122.319 319.16C123.77 302.572 138.394 290.301 154.982 291.752C171.57 293.203 183.841 307.827 182.389 324.415Z" stroke="black" stroke-width="0.9"/>
</g>
</g>
<defs>
<filter id="filter0_d_184_170" x="-0.519201" y="-0.8" width="326.839" height="414.106" filterUnits="userSpaceOnUse" color-interpolation-filters="sRGB">
<feFlood flood-opacity="0" result="BackgroundImageFix"/>
<feColorMatrix in="SourceAlpha" type="matrix" values="0 0 0 0 0 0 0 0 0 0 0 0 0 0 0 0 0 0 127 0" result="hardAlpha"/>
<feOffset dy="3.6"/>
<feGaussianBlur stdDeviation="2.7"/>
<feComposite in2="hardAlpha" operator="out"/>
<feColorMatrix type="matrix" values="0 0 0 0 0 0 0 0 0 0 0 0 0 0 0 0 0 0 0.1 0"/>
<feBlend mode="normal" in2="BackgroundImageFix" result="effect1_dropShadow_184_170"/>
<feBlend mode="normal" in="SourceGraphic" in2="effect1_dropShadow_184_170" result="shape"/>
</filter>
<clipPath id="clip0_184_170">
<rect x="57.5825" y="31.6233" width="241.2" height="322.2" rx="18" transform="rotate(5 57.5825 31.6233)" fill="white"/>
</clipPath>
<clipPath id="clip1_184_170">
<rect width="21.6" height="21.6" fill="white" transform="translate(124.228 219.186) rotate(43)"/>
</clipPath>
<clipPath id="clip2_184_170">
<rect width="16.2" height="16.2" fill="white" transform="translate(200.515 200.263) rotate(45)"/>
</clipPath>
<clipPath id="clip3_184_170">
<rect width="16.2" height="16.2" fill="white" transform="translate(194.75 232.412) rotate(25)"/>
</clipPath>
<clipPath id="clip4_184_170">
<rect width="21.6" height="21.6" fill="white" transform="translate(157.533 180.047) rotate(18)"/>
</clipPath>
<clipPath id="clip5_184_170">
<rect width="21.6" height="21.6" fill="white" transform="translate(142.536 310.087) rotate(5)"/>
</clipPath>
<clipPath id="clip6_184_170">
<rect width="12.6" height="12.6" fill="white" transform="translate(118.554 190.323) rotate(-8)"/>
</clipPath>
<clipPath id="clip7_184_170">
<rect width="14.4" height="14.4" fill="white" transform="translate(160.601 226.833) rotate(-8)"/>
</clipPath>
</defs>
</svg>
