<svg width="440" height="640" viewBox="0 0 440 640" fill="none" xmlns="http://www.w3.org/2000/svg">
<g clip-path="url(#clip0_187_403)">
<rect width="440" height="640" rx="36" fill="#FFA68F"/>
<g clip-path="url(#clip1_187_403)">
<path fill-rule="evenodd" clip-rule="evenodd" d="M362.501 -15.0997C362.501 -13.6638 361.336 -12.4997 359.901 -12.4997C358.465 -12.4997 357.301 -13.6638 357.301 -15.0997C357.301 -16.5356 358.465 -17.6997 359.901 -17.6997C361.336 -17.6997 362.501 -16.5356 362.501 -15.0997ZM359.947 -11.5C361.914 -11.5248 363.501 -13.127 363.501 -15.0997C363.501 -17.0879 361.889 -18.6997 359.901 -18.6997C357.912 -18.6997 356.301 -17.0879 356.301 -15.0997C356.301 -13.127 357.887 -11.5248 359.854 -11.5H359.851V43.5429L351.254 34.9464L350.547 35.6536L359.143 44.25H318.5C318.473 42.2849 316.872 40.7002 314.901 40.7002C312.912 40.7002 311.301 42.312 311.301 44.3002C311.301 46.2884 312.912 47.9002 314.901 47.9002C316.56 47.9002 317.957 46.7774 318.374 45.25H359.143L341.997 62.3964L342.704 63.1036L359.851 45.9571V103.668L359.85 103.668L341.099 396.331L340.981 396.375L341.079 396.639L336.9 461.868L336.88 462.18L337.151 462.334L343.199 465.79V493.657L121.449 437.212V351.467C131.714 358.159 144.601 366.692 153.75 375.178V443.9H154.75V375.174L162.792 359.984L162.924 359.735L162.779 359.493L154.713 346.05L53.0311 -13.4359L52.9282 -13.7998H52.55L-93.7 -13.7998H-94.0725L-94.1791 -13.4428L-206.229 361.857L-206.259 361.957C-206.311 362.033 -206.363 362.109 -206.414 362.185L-206.075 362.414L-198.15 374.302V374.578L-198.281 374.729L-198.15 374.841V492.382L-198.287 492.547L-198.131 492.677L-198.071 492.77L-183.75 515.146V767.067L-191.709 765.608L-191.833 765.586L-191.954 765.625L-249.351 784.276V752.2H-240.93C-240.34 752.2 -239.813 751.982 -239.413 751.629L-239.272 751.699L-239.008 751.164C-238.666 750.645 -238.531 749.986 -238.704 749.32L-330.815 395.79C-331.068 394.818 -331.798 394.259 -332.6 394.11V387.25H-325.9H-325.294L-325.409 386.656L-332.429 350.238C-330.761 349.924 -329.499 348.459 -329.499 346.7C-329.499 344.881 -330.848 343.378 -332.6 343.134V303.808L-324.004 312.404L-323.297 311.697L-331.894 303.1H-299.801V302.6C-299.801 304.588 -298.189 306.2 -296.201 306.2C-294.213 306.2 -292.601 304.588 -292.601 302.6C-292.601 300.612 -294.213 299 -296.201 299C-298.189 299 -299.801 300.612 -299.801 302.6V302.1H-331.894L-320.597 290.804L-321.304 290.097L-332.6 301.392V264.8H-333.052C-331.085 264.774 -329.499 263.173 -329.499 261.2C-329.499 259.212 -331.111 257.6 -333.099 257.6C-335.087 257.6 -336.699 259.212 -336.699 261.2C-336.699 263.173 -335.113 264.774 -333.147 264.8H-333.6V301.394L-343.097 291.897L-343.804 292.604L-334.308 302.1H-365.534C-365.777 300.348 -367.281 299 -369.099 299C-371.087 299 -372.699 300.612 -372.699 302.6C-372.699 304.588 -371.087 306.2 -369.099 306.2C-367.281 306.2 -365.777 304.852 -365.534 303.1H-334.308L-347.404 316.197L-346.697 316.904L-333.6 303.806V343.135C-335.351 343.378 -336.699 344.882 -336.699 346.7C-336.699 348.463 -335.432 349.93 -333.759 350.24L-340.342 386.661L-340.448 387.25H-339.85H-333.6V394.136C-334.366 394.319 -335.046 394.883 -335.275 395.827L-394.25 638.346V572.6V572.548L-394.261 572.497L-400.905 541.051C-399.2 540.768 -397.9 539.286 -397.9 537.5C-397.9 535.512 -399.511 533.9 -401.5 533.9C-403.488 533.9 -405.1 535.512 -405.1 537.5C-405.1 539.292 -403.79 540.779 -402.076 541.055L-407.393 572.517L-407.4 572.558V572.6V692.422L-421.245 749.357C-421.341 749.75 -421.33 750.139 -421.233 750.497C-421.388 750.638 -421.529 750.771 -421.654 750.897L-420.947 751.604C-420.925 751.582 -420.902 751.559 -420.879 751.536C-420.852 751.51 -420.824 751.483 -420.796 751.456L-420.746 751.409C-420.329 751.889 -419.714 752.2 -419.011 752.2H-415.059L-416.394 838.558L-460.604 852.925L-460.295 853.876L-416.41 839.615L-416.412 839.692L-415.746 839.475L-249.696 785.475L-249.351 785.363V785.328L-192.299 766.788V800.832L-234.248 813.902L-279.698 828.062L-330.548 843.905L-372.398 856.943L-422.348 872.506L-460.598 884.423L-460.301 885.377L-422.699 873.662V954.682L-460.575 964.516L-460.324 965.484L-422.074 955.553L-372.124 942.585L-330.274 931.719L-279.424 918.517L-233.974 906.716L-192.299 895.896V969.05H-191.299V895.834L-121.227 906.809L-61.8266 916.112L2.07339 926.12L65.0734 935.986L129.873 946.135L192.423 955.931L192.439 955.934L192.455 955.935L266.7 962.756V962.8H267.2H385.55H386.05V962.3V863.951L395.397 854.179L395.992 854.998L395.955 853.596L396.1 853.444L395.945 853.231L393.737 769.739C393.71 768.712 393.298 767.733 392.583 766.995L382.05 756.122C380.503 754.525 377.965 754.452 376.329 755.958L368.824 762.863C367.98 763.639 367.5 764.733 367.5 765.88V814.166L355.437 797.6H355.449V706.833L360.724 707.645L361.3 707.733V707.15V694.749L368.85 696.736V710.3V710.654L369.184 710.772L376.834 713.472L377.5 713.707V713V698.801L383.238 700.331L382.8 713.884L383.8 713.917L384.25 699.967L384.251 699.929L384.247 699.893L379.757 661.282L391.882 611.915L405.75 661.319V718.85L405.75 965.45H406.75V719.491L411.529 720.685L412.15 720.841V720.2V707.799L419.7 709.786V723.35V723.72L420.053 723.828L425.903 725.628L426.55 725.827V725.15V712.763L431.85 714.278V726.5H432.85V713.9V713.872L432.847 713.844L427.907 670.733L439.591 623.131L453.45 670.772V729.65V730.032L453.819 730.133L458.769 731.483L459.4 731.655V731V719.522L463.256 720.679L463.544 719.721L459.044 718.371L458.4 718.178V718.85V730.346L454.45 729.269V670.7V670.629L454.43 670.561L440.03 621.061L439.509 619.27L439.065 621.081L426.915 670.581L426.893 670.668L426.903 670.757L431.768 713.214L426.188 711.62L425.55 711.438V712.1V724.473L420.7 722.981V709.4V709.015L420.327 708.917L411.777 706.667L411.15 706.502V707.15V719.56L406.75 718.46V661.25V661.182L406.732 661.115L392.332 609.815L391.818 607.985L391.365 609.831L378.765 661.131L378.743 661.219L378.753 661.308L383.169 699.278L377.129 697.667L376.5 697.5V698.15V712.294L369.85 709.947V696.35V695.965L369.477 695.867L360.927 693.617L360.3 693.452V694.1V706.568L355.46 705.823L356.8 645.962L356.802 645.886L356.781 645.814L341.481 591.814L340.978 590.038L340.516 591.825L326.566 645.825L326.537 645.938L326.561 646.052L338.135 701.7H331.6V689.6V689.233L331.249 689.123L324.049 686.873L323.4 686.67V687.35V700.66L319 699.56V684.2V683.805L318.616 683.714L309.166 681.464L308.55 681.317V681.95V695.779L302.8 695.013V632.9V632.833L302.783 632.769L286.583 573.369L285.613 573.386L271.663 632.786L271.637 632.898L271.663 633.011L281.385 675.88L274.515 674.264L273.9 674.119V674.75V689.01L269.5 688.277V672.95V672.585L269.152 672.474L259.252 669.324L258.6 669.117V669.8V682.8H252.864L254.65 617.614L254.652 617.533L254.629 617.455L236.179 556.705L235.633 554.909L235.213 556.739L221.263 617.489L221.239 617.591L221.259 617.694L229.227 659.306L202 655.417V605.45V605.376L201.979 605.305L183.979 545.905L183.454 544.174L183.015 545.929L168.566 603.727L121.871 472.982L121.449 473.133V438.243L343.565 494.782L353.711 497.87L395.463 572.395L395.606 572.65H395.899H412.999H413.499V572.15V512.04L466.878 525.385L467.121 524.415L413.499 511.009V465.707L416.953 462.254L417.132 462.074L417.093 461.823L360.851 103.671V45.9571L377.997 63.1036L378.704 62.3964L361.558 45.25H405.801V44.3002C405.801 46.2884 407.412 47.9002 409.401 47.9002C411.389 47.9002 413.001 46.2884 413.001 44.3002C413.001 42.312 411.389 40.7002 409.401 40.7002C407.412 40.7002 405.801 42.312 405.801 44.3002V44.25H361.558L373.304 32.5036L372.597 31.7964L360.851 43.5429V-11.5H359.947ZM354.449 706.679V796.242L343.3 780.931V753.961C343.3 752.663 342.686 751.443 341.645 750.669L329.708 741.802C328.144 740.64 325.978 740.74 324.527 742.041L314.863 750.705C313.995 751.483 313.5 752.593 313.5 753.758V778.604L302.8 792.466V696.021L308.984 696.846L309.55 696.922V696.35V682.583L318 684.595V699.95V700.341L318.379 700.435L323.779 701.785L324.4 701.941V701.3V688.031L330.6 689.968V702.2V702.7H331.1H338.75H339.365L339.24 702.099L327.563 645.963L341.022 593.863L355.799 646.014L354.45 706.239L354.45 706.25H354.449V706.296L354.44 706.678L354.449 706.679ZM314.341 779.15H314.5V778.945L327.938 761.534L393.866 852.074C371.75 841.615 344.625 839.457 319.56 841.044C294.733 842.615 271.87 847.864 257.791 852.416L260.1 849.425L260.219 849.446L260.403 849.195L262.792 845.938L314.341 779.15ZM314.5 777.308V753.758C314.5 752.877 314.875 752.037 315.53 751.449L325.194 742.785C326.291 741.802 327.929 741.726 329.112 742.605L341.048 751.472C341.836 752.057 342.3 752.98 342.3 753.961V779.558L328.354 760.406L327.962 759.867L327.554 760.395L314.5 777.308ZM121.449 474.774V513.2V513.395L121.318 513.538L97.2206 539.866L138.482 657.821L151.659 660.762L151.55 661.25L152.006 661.043L154.256 665.993L154.301 666.092V666.2V829.02L168.15 831.559V605.537L121.449 474.774ZM153.301 828.837V716.108L101.2 705.421V819.289L108.301 820.59V733.6C108.301 732.949 108.576 732.329 109.059 731.893L118.673 723.209C120.975 721.13 124.494 721.189 126.726 723.343L135.598 731.91C136.047 732.343 136.301 732.94 136.301 733.564V825.722L153.301 828.837ZM109.301 733.6V820.773L135.301 825.538V733.564C135.301 733.212 135.157 732.874 134.904 732.629L126.031 724.063C124.178 722.273 121.255 722.225 119.343 723.951L109.729 732.635C109.456 732.882 109.301 733.232 109.301 733.6ZM97.2619 819.584L108.301 821.607V821.64L108.706 821.718L135.706 826.891L136.301 827.005V826.738L168.15 832.575V832.668L168.561 832.742L200.961 838.592L201.549 838.698V838.696L218.099 841.729V841.976L218.512 842.049L258.989 849.228L256.004 853.095L255.73 853.45L256.054 853.761L266.7 863.964V882.055L192.588 869.119L192.587 869.119L130.038 857.984L65.2384 846.449L2.2384 835.234L-61.6616 823.859L-121.062 813.285L-191.299 800.781V766.7L84.001 817.154L84.0022 817.374L84.4178 817.443L97.2619 819.584ZM267.546 863.389L257.345 853.613C271.278 849.03 294.436 843.636 319.623 842.042C345.064 840.431 372.516 842.702 394.619 853.546L385.189 863.405L385.05 863.55V863.75V961.8H267.7V863.75V863.537L267.546 863.389ZM282.551 818.702L301.8 793.762V695.45V632.967L286.136 575.533L272.663 632.902L282.538 676.44L282.55 676.494V676.55V690.5L282.551 818.702ZM281.551 819.997L265.471 840.829L266.79 761.275C266.798 760.804 266.66 760.341 266.396 759.95L247.213 731.545C245.055 728.349 240.462 728.049 237.906 730.936L218.677 752.658C218.305 753.078 218.099 753.62 218.099 754.182V840.713L201.551 837.68L201.999 656.427L229.779 660.395L230.473 660.494L230.341 659.806L222.261 617.61L235.767 558.792L253.648 617.668L251.85 683.287L251.836 683.8H252.35H259.1H259.6V683.3V670.484L268.5 673.316V688.7V689.124L268.918 689.194L274.318 690.094L274.9 690.191V689.6V675.382L281.55 676.946V690.5L281.551 819.997ZM261.991 845.338L259.68 848.333L219.099 840.896V754.182C219.099 753.865 219.216 753.558 219.426 753.32L238.655 731.599C240.778 729.201 244.592 729.45 246.385 732.104L265.568 760.51C265.717 760.731 265.794 760.992 265.79 761.259L264.452 841.982L261.991 845.338ZM153.301 715.087V710.708L101.2 700.021V704.45V704.658L101.251 704.411L153.301 715.087ZM153.301 709.687V666.608L101.2 655.921V698.6V699.257L101.251 699.01L153.301 709.687ZM152.939 665.513L151.198 661.684L101.2 650.523V653.6V655.158L101.251 654.911L152.939 665.513ZM101.2 649.777L101.259 649.512L137.333 657.564L97.5228 543.759L84.8234 541.038L101.183 602.171L101.2 602.234V602.3V647.75V649.777ZM169.15 831.742L200.552 837.497L201 655.85V655.849V605.525L183.546 547.927L169.15 605.512V831.742ZM96.2089 540.003L97.136 542.653L84.5331 539.953L84.0829 538.271L83.1121 538.29L82.8211 539.586L48.1008 532.146V522.877L51.53 519.876L51.7527 519.682L51.6891 519.393L38.8644 461.124C49.7048 462.489 62.243 464.122 74.099 465.916V513.2V513.381L74.2144 513.52L96.2089 540.003ZM412.001 44.3002C412.001 45.7361 410.836 46.9002 409.401 46.9002C407.965 46.9002 406.801 45.7361 406.801 44.3002C406.801 42.8643 407.965 41.7002 409.401 41.7002C410.836 41.7002 412.001 42.8643 412.001 44.3002ZM-333.099 263.8C-331.663 263.8 -330.499 262.636 -330.499 261.2C-330.499 259.764 -331.663 258.6 -333.099 258.6C-334.535 258.6 -335.699 259.764 -335.699 261.2C-335.699 262.636 -334.535 263.8 -333.099 263.8ZM341.935 398.926L337.918 461.621L343.947 465.066L344.199 465.21V465.5V493.93L354.195 496.972L354.387 497.03L354.485 497.206L362.999 512.402V455.241L341.935 398.926ZM363.698 513.65L395.4 570.237V454.75H363.999V455.15V513.65H363.698ZM396.4 571.65V454.312L407.638 408.062L416.066 461.727L412.645 465.147L412.499 465.293V465.5V571.65H396.4ZM360.558 108.255L407.32 406.032L407.115 405.982L395.508 453.75H363.999V453.35H363.359L342.091 396.489L360.558 108.255ZM74.099 442.983V464.905C62.1456 463.098 49.5135 461.456 38.6363 460.088L33.7106 437.708C46.336 439.18 60.2499 440.888 74.099 442.983ZM74.099 350.057V441.972C60.1567 439.865 46.1573 438.15 33.4832 436.675L30.9996 425.39V395.607L36.896 401.504L37.6031 400.797L31.7067 394.9H46.7336C46.9771 396.652 48.4807 398 50.2992 398C52.2874 398 53.8992 396.389 53.8992 394.4C53.8992 392.412 52.2874 390.8 50.2992 390.8C48.4806 390.8 46.977 392.149 46.7336 393.9H31.3758L36.78 384.755L35.9191 384.246L30.9996 392.571V363.766C32.7515 363.523 34.1004 362.019 34.1004 360.2C34.1004 358.212 32.4886 356.6 30.5004 356.6C28.5121 356.6 26.9004 358.212 26.9004 360.2C26.9004 362.018 28.2484 363.522 29.9996 363.766V393.193L27.2531 390.447L26.546 391.154L29.2925 393.9H9.76523C9.52209 392.149 8.01834 390.8 6.19958 390.8C4.21136 390.8 2.59958 392.412 2.59958 394.4C2.59958 396.388 4.21136 398 6.19958 398C8.01794 398 9.52145 396.652 9.76508 394.9H29.2925L22.946 401.247L23.6531 401.954L29.9996 395.607V425.408L27.9463 435.874C27.6609 435.843 27.3758 435.811 27.0909 435.78C-31.6748 429.363 -76.895 430.131 -112.987 439.216C-148.484 448.152 -175.135 465.13 -197.15 491.188V374.952C-175.86 350.628 -133.742 329.729 -83.7705 319.551C-33.6914 309.35 24.1873 309.936 76.7208 328.572L66.5515 341.897L66.2862 342.245L66.5954 342.554L74.099 350.057ZM79.5256 324.896L77.3579 327.737C24.5403 308.924 -33.6539 308.322 -83.9701 318.571C-133.631 328.686 -175.704 349.389 -197.362 373.681L-205.111 362.058C-198.309 352.421 -185.092 341.832 -167.124 332.014C-148.74 321.969 -125.429 312.755 -99.04 306.204C-46.2591 293.101 18.7885 290.659 81.3005 313.472L81.4513 313.059L79.5256 324.896ZM83.2148 302.218L81.5428 312.496C32.4242 294.593 -18.2318 292.223 -63.3018 298.347L-44.0054 -12.7998H1.35599L22.4889 297.033L23.4866 296.965L2.35831 -12.7998H27.4641L83.2148 302.218ZM94.8055 230.97L83.7012 299.228L28.4796 -12.7998H52.1718L153.769 346.386L153.787 346.45L153.821 346.507L161.297 358.966C148.688 348.368 133.236 338.037 119.937 330.24L115.563 324.878L95.7883 230.947L94.8055 230.97ZM117.662 330.073L118.014 329.464L114.712 325.416L114.635 325.322L114.61 325.203L95.362 233.777L80.4925 325.181L80.4724 325.304L80.3964 325.404L67.6118 342.156L74.9525 349.497L75.099 349.643V349.85V513.02L96.6673 538.99L120.449 513.006V350.815L120.338 350.743L120.449 350.573V349.85V349.635L120.606 349.487L128.368 342.156L119.276 331.012C118.734 330.695 118.196 330.382 117.662 330.073ZM121.449 350.066V350.273C131.68 356.94 144.777 365.564 154.144 374.181L161.441 360.398C149.472 350.229 134.765 340.25 121.77 332.487L129.436 341.884L129.73 342.245L129.392 342.564L121.449 350.066ZM84.9966 816.319L97.4377 818.599L100.2 819.06V704.899L84.4013 703.207L84.9966 816.319ZM64.7507 812.609L83.9957 816.136L83.3984 702.653L83.3652 696.353L83.1307 651.803L83.1 645.953V645.95V599.701L70.15 600.954V647.75L69.1738 647.902L47.472 580.14L32.7358 606.147L32.5453 606.483L32.5445 606.483L32.1719 606.383L32.1711 606.383L18.6719 602.783L18.6711 602.783L18.3008 602.684L18.3 602.684V602.3V595.145L-7.25003 686.518V799.414L7.05075 802.034V697.931C7.05075 694.747 7.54608 691.573 8.68741 688.58C11.133 682.168 14.887 673.649 19.2847 666.126C21.4836 662.365 23.8492 658.842 26.2994 655.954C28.7449 653.071 31.2998 650.79 33.8844 649.549L33.9587 649.514L34.0406 649.504C37.1576 649.126 40.3109 650.112 43.341 651.916C46.372 653.72 49.3152 656.363 52.0325 659.362C57.4671 665.359 62.0585 672.848 64.698 678.126L64.7507 678.232V678.35V812.609ZM69.15 644.549L48.1008 578.824V533.169L82.6019 540.562L69.1621 600.39L69.15 600.444V600.5V644.549ZM32.0555 605.317L19.3008 601.916V522.65V522.332L19.0122 522.197L12.6167 519.213L30.5289 427.904L37.7855 460.874L37.7714 460.987L37.8113 460.992L50.6488 519.319L47.2715 522.274L47.1008 522.423V522.65V578.767V578.768L32.0555 605.317ZM-8.23157 686.315L18.3008 591.429V522.969L11.8393 519.953L11.4848 519.788L11.5601 519.404L23.3822 459.14C-32.0909 453.117 -72.8113 453.794 -105.091 462.504C-137.426 471.229 -161.324 488.024 -183.105 514.299L-182.829 514.731L-182.75 514.854V515V767.25L-8.25003 799.23V686.45V686.381L-8.23157 686.315ZM27.7531 436.859L23.5754 458.155C-31.9818 452.118 -72.875 452.776 -105.351 461.539C-137.813 470.298 -161.832 487.145 -183.671 513.415L-197.009 492.574C-175.009 466.257 -148.373 449.156 -112.743 440.186C-76.8189 431.143 -31.7355 430.362 26.9824 436.774L27.4279 436.823L27.7531 436.859ZM-204.501 359.563C-197.245 350.282 -184.458 340.346 -167.603 331.137C-155.67 324.616 -141.678 318.448 -126.129 313.128L-68.4308 -12.7998H-93.3275L-204.501 359.563ZM-330.499 346.7C-330.499 348.136 -331.663 349.3 -333.099 349.3C-334.535 349.3 -335.699 348.136 -335.699 346.7C-335.699 345.264 -334.535 344.1 -333.099 344.1C-331.663 344.1 -330.499 345.264 -330.499 346.7ZM-333.084 352.124L-339.251 386.25H-333.1H-326.505L-333.084 352.124ZM-398.939 661.86L-334.304 396.063C-333.985 394.75 -332.123 394.735 -331.783 396.042L-239.672 749.572C-239.6 749.849 -239.622 750.124 -239.716 750.367C-290.062 725.755 -333.384 723.772 -365.188 728.988C-381.18 731.611 -394.258 736.054 -403.85 740.353C-411.848 743.937 -417.45 747.433 -420.296 749.705C-420.29 749.668 -420.283 749.63 -420.274 749.593L-406.478 692.86L-406.414 692.868L-398.939 661.86ZM-399.914 661.634L-395.25 642.291V572.653L-401.446 543.328L-406.4 572.642V688.31L-399.914 661.634ZM-415.389 838.232L-250.351 784.601V751.7V751.2H-249.851H-240.93C-240.764 751.2 -240.607 751.169 -240.464 751.114C-290.481 726.741 -333.48 724.801 -365.026 729.975C-380.927 732.583 -393.922 736.999 -403.441 741.265C-411.756 744.991 -417.389 748.589 -419.995 750.749C-419.76 751.023 -419.41 751.2 -419.011 751.2H-414.551H-414.043L-414.051 751.708L-415.389 838.232ZM266.7 883.07V961.752L193.001 954.981V870.206L266.7 883.07ZM63.7507 694.199V812.426L36.8496 807.496V715.688C36.8496 713.636 37.0592 711.601 37.5471 709.621C38.7133 704.89 40.2656 699.743 42.1162 695.143C43.9714 690.532 46.1085 686.517 48.426 684.013C49.583 682.762 50.7574 681.919 51.9333 681.544C53.0919 681.175 54.2856 681.249 55.5337 681.897C56.7978 682.553 58.1374 683.809 59.5292 685.839C60.9081 687.849 62.3201 690.593 63.7507 694.199ZM63.7507 691.599C62.6146 689.009 61.4813 686.917 60.3539 685.273C58.91 683.168 57.4575 681.769 55.9944 681.01C54.5153 680.242 53.0469 680.14 51.6298 680.591C50.2303 681.037 48.9158 682.011 47.692 683.333C45.2482 685.974 43.0566 690.127 41.1885 694.77C39.3158 699.424 37.7502 704.618 36.5762 709.382C36.0661 711.451 35.8496 713.568 35.8496 715.688V807.312L8.05075 802.218V697.931C8.05075 694.849 8.53015 691.799 9.62177 688.937C12.0544 682.558 15.786 674.092 20.148 666.631C22.329 662.9 24.6618 659.43 27.062 656.601C29.442 653.795 31.8637 651.649 34.2427 650.487C37.0405 650.171 39.9412 651.056 42.8295 652.775C45.7451 654.511 48.6126 657.077 51.2915 660.033C56.6135 665.906 61.132 673.253 63.7507 678.468V691.599ZM-95.9115 838.082L-95.5201 838.746L-80.67 863.946L-80.5975 864.069L-80.601 864.212L-81.5009 901.562L-81.5145 902.123L-82.0704 902.045L-110.87 897.995L-111.306 897.934L-111.301 897.494L-110.851 859.244L-110.849 859.088L-110.758 858.96L-96.3583 838.71L-95.9115 838.082ZM-109.853 859.412L-110.296 897.066L-82.4872 900.977L-81.6041 864.331L-95.9901 839.918L-109.853 859.412ZM223.98 894.546L223.588 893.882L223.141 894.511L208.742 914.761L208.651 914.888L208.649 915.044L208.199 948.794L208.193 949.254L208.652 949.298L237.002 951.998L237.526 952.048L237.549 951.522L238.898 920.022L238.905 919.874L238.83 919.746L223.98 894.546ZM209.205 948.346L209.647 915.213L223.51 895.718L237.893 920.127L236.572 950.953L209.205 948.346ZM-32.0111 849.782L-31.6197 850.446L-16.7697 875.646L-16.6971 875.769L-16.7006 875.912L-17.6006 913.262L-17.6141 913.823L-18.17 913.745L-46.9701 909.695L-47.4055 909.634L-47.4004 909.194L-46.9504 870.944L-46.9485 870.788L-46.8579 870.66L-32.4579 850.41L-32.0111 849.782ZM-45.9523 871.112L-46.3953 908.766L-18.5868 912.677L-17.7037 876.031L-32.0898 851.618L-45.9523 871.112ZM-159.418 826.146L-159.81 825.482L-160.257 826.11L-174.657 846.36L-174.747 846.488L-174.749 846.644L-175.199 884.894L-175.204 885.334L-174.769 885.395L-145.969 889.445L-145.413 889.523L-145.399 888.962L-144.499 851.612L-144.496 851.469L-144.568 851.346L-159.418 826.146ZM-174.194 884.466L-173.751 846.812L-159.889 827.318L-145.503 851.731L-146.386 888.377L-174.194 884.466ZM159.69 882.182L160.081 882.846L174.931 908.046L175.004 908.169L175 908.312L174.1 945.662L174.087 946.223L173.531 946.145L144.731 942.095L144.295 942.034L144.301 941.594L144.751 903.344L144.752 903.188L144.843 903.06L159.243 882.81L159.69 882.182ZM145.749 903.512L145.306 941.166L173.114 945.077L173.997 908.431L159.611 884.018L145.749 903.512ZM32.2807 859.446L31.8893 858.782L31.4425 859.41L17.0425 879.66L16.9518 879.788L16.95 879.944L16.5 918.194L16.4948 918.634L16.9303 918.695L45.7303 922.745L46.2863 922.823L46.2998 922.262L47.1998 884.912L47.2033 884.769L47.1307 884.646L32.2807 859.446ZM17.5051 917.766L17.9481 880.112L31.8106 860.618L46.1967 885.031L45.3136 921.677L17.5051 917.766ZM95.7895 870.482L96.1809 871.147L111.031 896.347L111.103 896.47L111.1 896.612L110.2 933.962L110.186 934.524L109.63 934.445L80.8305 930.396L80.395 930.334L80.4002 929.895L80.8502 891.645L80.8521 891.488L80.9427 891.361L95.3427 871.111L95.7895 870.482ZM81.8483 891.813L81.4053 929.466L109.214 933.377L110.097 896.731L95.7108 872.318L81.8483 891.813ZM-192.299 801.88L-233.599 814.747V905.586L-192.299 894.863V801.88ZM-191.299 894.822L-121.649 905.731V814.196L-191.299 801.797V894.822ZM-120.649 814.374V905.887L-62.2492 915.033V824.77L-120.649 814.374ZM-61.2492 824.948V915.19L1.65076 925.041V836.145L-61.2492 824.948ZM2.65076 836.323V925.198L64.6508 934.908V847.36L2.65076 836.323ZM65.6508 847.538V935.064L129.451 945.057V858.895L65.6508 847.538ZM130.451 859.073V945.213L192.001 954.853V870.03L130.451 859.073ZM-234.599 905.846V815.058L-279.049 828.907V917.386L-234.599 905.846ZM-280.049 917.646V829.219L-329.899 844.75V930.589L-280.049 917.646ZM-330.899 930.848V845.061L-371.749 857.789V941.454L-330.899 930.848ZM-372.749 941.714V858.1L-421.699 873.351V954.423L-372.749 941.714ZM-401.5 540.1C-400.064 540.1 -398.9 538.936 -398.9 537.5C-398.9 536.064 -400.064 534.9 -401.5 534.9C-402.936 534.9 -404.1 536.064 -404.1 537.5C-404.1 538.936 -402.936 540.1 -401.5 540.1ZM-413.199 516.75H-402.706L-410.403 509.054L-409.696 508.347L-401.999 516.043V500.6H-400.999V516.043L-394.653 509.697L-393.946 510.404L-400.292 516.75H-387.999V517.75H-400.292L-393.496 524.547L-394.203 525.254L-400.999 518.457V533.9H-401.999V518.457L-407.446 523.904L-408.153 523.197L-402.706 517.75H-413.199V516.75ZM-293.601 302.6C-293.601 304.036 -294.765 305.2 -296.201 305.2C-297.637 305.2 -298.801 304.036 -298.801 302.6C-298.801 301.164 -297.637 300 -296.201 300C-294.765 300 -293.601 301.164 -293.601 302.6ZM50.2992 397C51.7351 397 52.8992 395.836 52.8992 394.4C52.8992 392.964 51.7351 391.8 50.2992 391.8C48.8633 391.8 47.6992 392.964 47.6992 394.4C47.6992 395.836 48.8633 397 50.2992 397ZM314.901 46.9002C316.336 46.9002 317.501 45.7361 317.501 44.3002C317.501 42.8643 316.336 41.7002 314.901 41.7002C313.465 41.7002 312.301 42.8643 312.301 44.3002C312.301 45.7361 313.465 46.9002 314.901 46.9002ZM6.19958 397C7.63553 397 8.79959 395.836 8.79959 394.4C8.79959 392.964 7.63553 391.8 6.19958 391.8C4.76364 391.8 3.59958 392.964 3.59958 394.4C3.59958 395.836 4.76364 397 6.19958 397ZM33.1004 360.2C33.1004 361.636 31.9363 362.8 30.5004 362.8C29.0644 362.8 27.9004 361.636 27.9004 360.2C27.9004 358.764 29.0644 357.6 30.5004 357.6C31.9363 357.6 33.1004 358.764 33.1004 360.2ZM-369.099 305.2C-367.663 305.2 -366.499 304.036 -366.499 302.6C-366.499 301.164 -367.663 300 -369.099 300C-370.535 300 -371.699 301.164 -371.699 302.6C-371.699 304.036 -370.535 305.2 -369.099 305.2ZM-99.2809 305.233C-108.247 307.459 -116.86 309.992 -125.048 312.76L-67.4683 -12.5H-45.0259L-64.3124 298.486C-76.4236 300.169 -88.1262 302.464 -99.2809 305.233ZM70.2892 599.936L83.1 598.696V542.907L70.2892 599.936ZM84.1 542.202V598.734L100.012 601.665L84.1 542.202ZM100.2 602.716L84.1 599.75V645.5L100.2 647.195V602.716ZM100.2 648.2L84.1029 646.506L84.1284 651.35L100.2 653.044V648.2ZM100.2 654.05L84.1337 652.356L84.3629 695.912L100.2 698.029V654.05ZM100.2 699.038L84.3682 696.922L84.3961 702.2L100.2 703.893V699.038ZM377.006 756.694C378.243 755.555 380.162 755.611 381.332 756.818L391.865 767.691C392.405 768.249 392.716 768.989 392.737 769.766L394.907 851.802L368.5 815.438V765.88C368.5 765.013 368.863 764.186 369.501 763.599L377.006 756.694Z" fill="url(#paint0_linear_187_403)"/>
</g>
</g>
<defs>
<linearGradient id="paint0_linear_187_403" x1="3.25864" y1="-18.6997" x2="3.25864" y2="969.05" gradientUnits="userSpaceOnUse">
<stop offset="0.530039"/>
<stop offset="1" stop-opacity="0"/>
</linearGradient>
<clipPath id="clip0_187_403">
<rect width="440" height="640" rx="36" fill="white"/>
</clipPath>
<clipPath id="clip1_187_403">
<rect width="959" height="1014" fill="white" transform="translate(-460 -18)"/>
</clipPath>
</defs>
</svg>
